<?xml version="1.0" encoding="UTF-8" standalone="no"?><!DOCTYPE svg PUBLIC "-//W3C//DTD SVG 1.1//EN" "http://www.w3.org/Graphics/SVG/1.1/DTD/svg11.dtd"><svg width="100%" height="100%" viewBox="0 0 898 339" version="1.1" xmlns="http://www.w3.org/2000/svg" xmlns:xlink="http://www.w3.org/1999/xlink" xml:space="preserve" xmlns:serif="http://www.serif.com/" style="fill-rule:evenodd;clip-rule:evenodd;stroke-linejoin:round;stroke-miterlimit:2;"><g id="Layer-1" serif:id="Layer 1"><path d="M137.327,98.037c-1.48,0.289 -3.022,0.68 -4.614,1.178c-8.579,2.681 -19.532,8.728 -29.559,16.104c-10.014,7.367 -19.074,16.035 -24.247,23.479c-0.774,1.114 -1.472,2.217 -2.096,3.303c-6.493,2.138 -11.798,6.302 -17.21,10.924c-5.996,5.114 -11.845,11.491 -18.552,15.498c-2.559,1.51 -5.984,3.226 -9.128,3.342c-0.648,0.024 -1.292,0.094 -1.928,0.216c-1.179,0.007 -6.735,0.086 -10.157,0.792c-4.588,0.946 -8.956,2.963 -12.489,6.426c-3.616,3.546 -6.684,8.71 -7.258,16.839c-0.826,11.256 3.99,20.06 11.065,27.582c4.969,5.304 10.321,10.052 16.845,13.119c0.594,0.279 1.207,0.515 1.835,0.705c2.767,0.84 5.523,1.67 8.274,2.519c0.01,0.004 0.021,0.007 0.032,0.01c10.27,3.144 22.762,3.548 33.801,1.026c0.228,-0.053 0.454,-0.11 0.679,-0.174c4.841,-1.373 8.021,-2.421 12.308,-4.193c2.043,4.743 4.417,9.971 5.539,12.424c0.063,0.21 0.131,0.419 0.204,0.628c1.053,2.983 4.062,10.958 5.221,13.437c3.783,8.104 8.329,22.354 9.151,24.74l0.122,0.32c1.639,5.276 3.617,10.448 4.848,15.922c1.008,4.518 1.805,9.861 3.516,14.578c1.809,4.988 4.523,9.392 8.364,12.762c4.066,3.589 14.944,12.312 35.081,3.447c0.001,-0.001 0.003,-0.002 0.005,-0.002c5.469,-2.411 20.483,-13.387 23.091,-15.91c0.436,-0.421 0.842,-0.87 1.218,-1.346l4.734,-6.028l2.248,-0.17c10.764,-0.928 18.428,-7.348 23.322,-16.139c0.005,-0.007 0.009,-0.015 0.013,-0.023c2.62,-4.726 3.962,-9.449 4.295,-14.108c3.377,1.301 6.892,2.343 10.534,3.131c0.007,0.002 0.013,0.003 0.02,0.004c16.01,3.442 41.526,-1.836 52.844,-11.46c0.008,-0.007 0.016,-0.014 0.025,-0.021c1.818,-1.553 3.852,-4.692 5.225,-7.036l0.438,-0.166c0.038,-0.016 0.077,-0.032 0.116,-0.049c4.518,-1.922 7.698,-4.127 11.211,-7.754c0.293,-0.303 0.572,-0.619 0.836,-0.948l1.824,-2.277c8.394,5.337 19.442,6.546 30.951,6.546c0.391,-0 0.782,-0.017 1.172,-0.051c3.341,-0.29 8.556,-2.62 26.24,-2.067c0.026,0.001 0.052,0.002 0.078,0.002c3.505,0.089 6.744,-0.762 9.758,-2.372c1.511,0.984 3.062,1.847 4.645,2.467c0.237,0.092 0.476,0.178 0.717,0.257c1.723,0.565 3.431,1.121 5.152,1.676c0.67,0.216 1.356,0.38 2.052,0.489c0.598,0.094 1.196,0.185 1.794,0.275c2.912,1.106 11.546,3.757 32.817,-6.821c0.051,-0.026 0.102,-0.051 0.153,-0.077c3.843,-1.972 7.775,-4.497 11.349,-7.378c2.977,1.683 6.265,2.682 9.422,2.981c0.65,0.184 1.345,0.333 2.085,0.44c1.995,0.286 6.977,0.006 7.861,-0.047c3.251,-0.024 7.01,-1.095 9.926,-1.802c0.025,-0.006 0.051,-0.013 0.076,-0.019c5.694,-1.416 11.344,-2.913 17.077,-3.991c0.012,-0.002 0.024,-0.005 0.036,-0.007c3.704,-0.707 7.301,-0.931 11.084,-1.318c0.425,-0.043 0.847,-0.107 1.265,-0.19c1.673,-0.333 3.337,-0.683 5.005,-1.017l0.967,-0.171l2.008,-0.365c0.296,-0.053 0.593,-0.105 0.891,-0.156c0.397,-0.068 0.791,-0.154 1.18,-0.258c1.924,2.039 4.066,3.897 6.439,5.536c0.007,0.005 0.014,0.009 0.021,0.014c4.889,3.362 10.579,5.261 16.715,6.241c6.168,0.985 12.9,0.888 19.067,1.805c0.007,0.001 0.014,0.002 0.021,0.003c6.251,0.919 12.429,2.634 18.699,3.556c3.688,0.561 7.643,1.602 18.412,5.986c0.004,0.001 0.008,0.003 0.013,0.005c2.398,0.973 9.199,4.64 13.369,5.804c1.612,0.45 3.119,0.68 4.477,0.755c2.907,0.592 8.983,0.426 8.983,0.426c-0,-0 -0.308,0.044 -0.425,0.058c0.121,-0.014 0.243,-0.03 0.364,-0.048c5.302,-0.77 11.056,-3.618 14.882,-7.623c3.126,0.519 6.803,0.799 10.768,0.473c7.24,-0.58 19.384,0.076 27.188,0.821c0.001,0 0.003,0 0.005,0.001c11.573,1.1 25.07,5.169 34.115,11.448c3.013,2.094 6.616,5.604 10.297,8.333c4.25,3.153 8.697,5.426 12.764,6.294c0.012,0.003 0.025,0.005 0.037,0.008c3.088,0.651 6.372,0.748 9.544,0.36c3.219,5.899 8.179,10.781 13.765,14.541c1.236,1.026 2.469,2.053 3.713,3.086c0.838,0.696 1.757,1.289 2.737,1.765c4.478,2.177 8.953,4.334 13.431,6.511c1.037,0.505 2.134,0.875 3.265,1.101c2.736,0.549 5.459,1.098 8.194,1.647c4.535,1.295 9.538,2.335 14.565,2.583c0.037,0.002 0.074,0.004 0.111,0.005c3.284,0.135 7.302,0.184 10.524,-0.351c0.532,0.37 1.034,0.689 1.433,0.891c0.02,0.01 0.04,0.021 0.06,0.031c3.541,1.769 10.136,2.588 14.244,2.783c0.003,0 0.007,0.001 0.01,0.001c35.139,1.642 64.574,-20.589 78.553,-49.788c0.003,-0.006 0.005,-0.012 0.008,-0.018c2.733,-5.729 4.759,-13.536 6.147,-19.867c0.004,-0.017 0.007,-0.034 0.011,-0.052c0.267,-1.241 0.6,-3.68 0.6,-3.68c-0,-0 -0.159,0.57 -0.271,0.847l-0.207,0.14c0.827,-4.389 0.038,-11.835 0.038,-11.835c0,0 0.337,0.748 0.475,1.131l0.789,4.07c-0.034,-0.89 -0.07,-1.781 -0.114,-2.673c-0.028,-0.555 -0.09,-1.108 -0.186,-1.656c-0.314,-1.799 0.125,-3.791 0.133,-5.687c0.013,-3.193 -0.383,-6.265 -1.363,-9.099l0.025,-1.193c-0,-0 0.312,0.879 0.456,1.497c-0.015,-0.066 -0.031,-0.132 -0.047,-0.197c-0.307,-1.234 -1.185,-3.486 -1.449,-4.147c-1.017,-3.979 -1.758,-7.421 -3.337,-11.055c-0.228,-0.525 -0.489,-1.035 -0.781,-1.527c-0.452,-0.76 -0.906,-1.52 -1.36,-2.281l-0.453,-1.466c-0.971,-3.096 -6.609,-11.789 -9.064,-14.094c-0.499,-0.469 -1.032,-0.899 -1.596,-1.285c-0.3,-0.699 -0.654,-1.343 -1.035,-1.946c-1.504,-2.377 -6.753,-5.636 -6.753,-5.636c-0,0 2.359,1.307 3.385,2.287c-0.03,-0.029 -0.061,-0.057 -0.091,-0.086c-1.376,-1.291 -2.739,-2.681 -4.156,-3.975c2.589,-3.415 5.531,-7.442 7.248,-10.081c0.025,-0.039 0.05,-0.077 0.074,-0.116c3.601,-5.659 6.649,-13.046 7.68,-19.941c0.004,-0.03 0.008,-0.06 0.013,-0.091c0.672,-4.715 0.132,-10.28 -1.563,-14.253c-0.011,-0.026 -0.022,-0.052 -0.034,-0.078c-2.125,-4.897 -6.737,-10.418 -12.629,-15.249c-7.151,-5.863 -16.074,-10.921 -21.654,-13.172c-0.104,-0.042 -0.209,-0.083 -0.314,-0.122c-2.387,-0.895 -4.787,-1.787 -7.188,-2.68c-0.252,-0.094 -0.508,-0.181 -0.766,-0.26c-2.404,-0.735 -4.816,-1.471 -7.234,-2.202c-1.518,-0.459 -3.073,-0.641 -4.599,-0.556c-6.023,-1.665 -16.467,-3.105 -24.246,-1.913c-0.749,0.114 -1.48,0.254 -2.189,0.419l51.226,-82.12c2.61,-4.184 2.745,-9.456 0.353,-13.769c-2.393,-4.313 -6.937,-6.989 -11.869,-6.99l-735.923,-0.119c-4.918,-0.001 -9.452,2.659 -11.852,6.952c-2.399,4.294 -2.289,9.549 0.289,13.738l47.606,77.347Zm737.21,121.131l-0.185,-0.456c-0.73,-1.228 -1.465,-2.455 -2.196,-3.684c-0.293,-0.967 -0.594,-1.953 -0.901,-2.938c-0.572,-1.824 -3.958,-6.903 -5.404,-8.261c-0.968,-0.605 -1.954,-1.218 -2.921,-1.832c-1.2,-0.837 -2.354,-1.935 -1.786,-3.637c-0,-0.801 -0.861,-0.698 -1.377,-1.191c-1.953,-1.832 -3.772,-4.036 -5.977,-5.45c-8.088,-5.247 -8.394,-5.814 -8.432,-5.963c1.898,-2.307 1.949,-2.26 4.782,-5.614c2.097,-2.523 7.966,-10.241 10.627,-14.332c2.651,-4.167 4.948,-9.585 5.707,-14.662c0.33,-2.314 0.222,-5.06 -0.61,-7.01c-3.604,-8.303 -19.115,-18.092 -26.91,-21.237c-2.377,-0.891 -4.767,-1.779 -7.158,-2.669c-2.391,-0.731 -4.79,-1.463 -7.194,-2.19c-1.145,1.434 -1.623,1.71 -2.428,1.195c-0.377,-0.932 -0.098,-1.117 -0.665,-1.301c-5.869,-2.034 -21.906,-4.267 -26.232,0.954c-1.702,-0 -3.18,-1.181 -4.673,-1.714c-3.14,-1.125 -8.726,-2.269 -11.902,-0.412c-3.042,-0 -6.498,0.957 -8.502,2.975c-0,-0.53 0.093,-0.451 -0.424,-0.359c-3.729,0.598 -12.682,6.31 -15.3,9.287c-1.74,-0 -3.172,-7.078 -4.196,-8.689c-0.702,-1.102 -2.047,-2.365 -3.176,-2.96c-10.53,-5.618 -24.199,-7.586 -36.374,-9.813c-4.917,-0.904 -10.028,-2.539 -15.312,-2.075c-2.46,0.214 -4.273,1.421 -6.39,2.287c-0,-0.663 -7.767,-4.529 -8.924,-5.524l0.422,-0l102.506,-1.355l54.173,-86.844l-735.923,-0.119l53.906,87.583c-0,-0 20.027,-0.065 25.552,0.028c25.673,0.412 50.85,-0.53 76.509,0.28l-0,0.427l0.428,-0l-0,0.423c-1.186,0.466 -2.367,0.917 -3.546,1.368c-5.367,1.967 -10.772,3.2 -13.709,10.61c-3.904,0.718 -1.951,-6.389 -13.771,-4.247c-7.092,0.846 -17.385,2.188 -23.268,4.845c-2.084,0.931 -5.007,3.945 -7.237,3.413c-4.755,-1.222 -16.841,-3.957 -28.568,6.536c-2.309,-0 -6.628,-6.056 -8.832,-7.73c-4.102,-3.11 -8.432,-5.447 -13.732,-6.098c-14.941,-1.844 -55.699,28.104 -58.608,43.15c-7.755,-0 -12.63,4.608 -17.994,9.189c-6.574,5.607 -13.095,12.472 -20.453,16.856c-4.29,2.534 -10.225,5.027 -15.538,5.223c-3.653,1.06 -17.785,-2.661 -18.792,11.673c-0.533,7.144 2.935,12.558 7.425,17.329c3.783,4.038 7.753,7.786 12.72,10.121c2.789,0.846 5.567,1.683 8.339,2.539c8.144,2.493 18.051,2.772 26.804,0.772c7.808,-2.214 10.915,-3.554 23.014,-9.106c2.033,4.799 5.086,11.776 4.477,10.288c3.69,8.78 8.829,19.43 7.065,16.221c0.955,2.707 3.664,9.954 4.716,12.204c4.434,9.498 9.906,26.966 9.824,26.417c1.768,5.75 3.907,11.386 5.247,17.348c1.486,6.66 2.23,15.404 7.585,20.102c2.403,2.121 8.848,6.427 20.659,1.227c4.538,-2 16.965,-11.152 19.129,-13.245c2.482,-3.144 4.954,-6.307 7.423,-9.451c2.351,-1.739 5.991,-1.609 9.047,-1.86c5.934,-0.512 9.931,-4.372 12.629,-9.218c7.501,-13.534 -2.656,-27.05 -10.625,-36.724c-4.581,-5.562 -9.044,-11.795 -12.748,-17.925c-0.533,-0.864 -2.339,-2.855 -1.982,-3.906c-0,-0.158 -19.68,-30.324 -25.365,-45.355c-0.291,-0.8 -1.94,-1.126 -1.435,-1.861c3.641,-5.218 22.299,-5.123 22.978,-6.202c2.018,-3.227 6.174,21.355 6.957,22.666c3.4,5.702 2.247,4.186 2.949,11.339c0.863,4.242 3.865,13.525 4.197,14.102c0.742,2.028 1.486,4.065 2.23,6.092c1.263,3.665 3.347,8.669 5.5,11.86c2.23,3.311 4.037,6.8 6.6,9.916c7.981,9.692 18.287,15.729 30.319,18.334c12.457,2.678 32.391,-1.042 41.197,-8.53c2.591,-2.214 3.242,-6.484 5.153,-7.962c1.196,-0.95 2.763,-0.893 4.131,-1.46c2.734,-1.163 4.648,-2.512 6.774,-4.707c2.762,-3.442 5.525,-6.893 8.287,-10.344c0.863,-1.219 1.765,-3.219 3.279,-3.749c1.542,-0.558 2.258,2.102 2.724,2.949c5.524,10.26 17.292,10.334 29.072,10.334c3.327,-0.288 8.412,-2.413 24.545,-2.186c1.317,3.006 3.66,5.384 6.533,6.768c-0.571,-0.436 -1.136,-0.863 -1.694,-1.27l7.534,2.461c-0.321,-0.905 -1.949,-5.605 -3.087,-10.838c1.039,-0.898 2.062,-1.841 3.141,-2.58l0.426,-0c2.949,2.157 6.016,5.217 9.441,6.557c1.702,0.558 3.388,1.107 5.088,1.655c1.009,0.159 2.019,0.308 3.028,0.456c1.302,0.419 6.667,2.586 23.426,-5.748c4.37,-2.242 8.9,-5.377 12.497,-8.967l0.238,-0.299l2.486,5.147l1.561,1.56c-0.246,-1.054 -0.364,-2.153 -0.367,-3.29c-0.699,-1.68 -1.415,-3.571 -2.014,-5.514l2.412,-3.036l-0,-0.428c0.823,-0 2.061,1.116 2.551,1.702l0.426,-0c-0,2.219 1.958,4.555 4.381,5.991c-0.728,0.681 -1.469,1.345 -2.185,1.972l-0.262,0.563l-0.28,0.806l-0.331,0.891l3.924,-1.896l1.335,-1.334c1.257,0.406 2.521,0.524 3.617,0.235c-0,1.218 5.737,0.344 6.798,0.399c2.163,0.101 4.722,-0.891 6.738,-1.392c0.027,0.329 0.039,0.66 0.039,0.993c-0,-0.334 -0.01,-0.666 -0.032,-0.995l0.107,-0.028c5.949,-1.48 11.856,-3.033 17.846,-4.159c4.093,-0.781 8.065,-1.06 12.246,-1.488c1.73,-0.344 3.451,-0.707 5.176,-1.051c0.339,-0.058 0.678,-0.118 1.016,-0.179l2.024,-0.368c0.338,-0.06 0.676,-0.12 1.016,-0.178c2.902,-1.079 4.725,-2.949 6.944,-5.154c-0,-1.097 0.771,0.652 0.86,0.837c2.275,4.642 5.447,8.79 9.814,11.805c8.129,5.59 19.886,4.288 30.086,5.804c6.264,0.921 12.455,2.641 18.738,3.562c4.303,0.652 8.949,1.721 21.516,6.837c2.683,1.089 11.445,6.121 14.184,5.572c1.271,-0 1.619,-0.27 2.549,0.428c-0,0.8 2.349,0.214 2.977,0.14c2.628,-0.382 5.535,-1.796 7.288,-3.861c1.227,-1.469 3.348,-5.963 5.427,-5.506c0.182,0.213 6.196,2.744 13.776,2.121c7.902,-0.633 21.106,0.027 29.59,0.837c13.785,1.311 29.802,6.334 40.574,13.813c5.181,3.6 12.097,11.208 18.152,12.501c3.228,0.68 6.869,0.251 9.632,-1.088c1.023,-0.651 2.032,-1.303 3.056,-1.953c-0,-0.707 0.251,-0.429 0.846,-0.429c-0,0.531 3.73,3.163 4.041,4.81c0.303,1.729 -0.148,3.32 0.596,4.855c2.233,4.642 6.149,8.279 10.437,11.07c1.437,1.19 2.855,2.372 4.288,3.562c4.478,2.177 8.953,4.334 13.431,6.511c2.921,0.586 5.827,1.172 8.748,1.758c3.721,1.089 7.851,2.018 12.009,2.223c2.507,0.103 5.613,0.243 7.995,-0.214c1.568,-0.326 2.958,-1.293 4.698,-1.07c1.767,0.215 3.255,2.475 4.836,3.275c2.177,1.088 6.293,1.247 8.819,1.367c29.472,1.377 53.95,-17.599 65.675,-42.09c2.325,-4.874 3.958,-11.544 5.139,-16.93c0.372,-1.729 0.372,-3.47 1.009,-5.051c0.716,-0 0.288,-0.437 0.121,-0.902c-0.032,-0.837 -0.065,-1.674 -0.107,-2.512c-0.563,-3.224 0.166,-6.886 -0.157,-10.158l0.143,-0.003l-0.143,0.003c-0.1,-1.05 -0.311,-2.061 -0.708,-3.003c0.637,-0 0.386,-0.065 0.265,-0.586c-0.316,-1.274 -1.047,-2.549 -1.344,-3.73c-0.813,-3.165 -1.326,-5.927 -2.493,-8.779c1.151,-0.316 2.35,-0.48 3.572,-0.48c-1.383,0 -2.577,0.142 -3.61,0.385Zm-770.042,65.952l0.092,0.774c-0.039,-0.258 -0.07,-0.517 -0.092,-0.774c-0.086,-0.868 -0.072,-1.588 -0.024,-2.156c-0.034,0.481 -0.042,0.966 -0.023,1.455l0.047,0.701Zm0.007,-2.58l-0.005,0.066l0.026,-0.225l-0.021,0.159Zm684.375,-34.851l-0.464,-0.429c-4.344,-4.196 -8.33,-12.428 -2.065,-16.595c1.54,0.763 7.799,3.554 8.502,4.67c2.018,-0 4.037,1.832 5.67,2.734c2.52,1.396 5.418,2.772 7.529,4.884c3.972,3.98 0.786,7.637 -3.423,8.957l-0,0.428l-2.977,-0c-0,0.698 -2.353,0.037 -2.971,-0.074c-3.508,-0.632 -7.111,-2.181 -9.787,-4.562l0.053,-0.148l-0.016,-0.008l-0.051,0.143Zm-705.908,-20.547c-0.15,1.039 -0.179,2.101 -0.08,3.166c0.1,1.066 0.328,2.134 0.693,3.184c-1.069,-2.963 -0.889,-5.142 -0.613,-6.35Zm662.671,-23.07c0.752,0.915 1.498,1.816 2.278,2.694c-2.654,2.444 -5.367,4.67 -6.499,5.585c0.258,-0.011 0.514,-0.028 0.768,-0.054l6.576,-2.467l0.096,-0.068c-0.13,-0.818 -0.28,-1.677 -0.443,-2.439c0.741,0.812 1.516,1.603 2.357,2.366c1.591,1.451 12.641,8.511 12.749,8.865c0.2,0.753 -0.145,1.265 -0.717,1.665c-1.572,0.772 -3.134,1.545 -4.706,2.316c-3.201,1.86 -6.889,4.344 -10.846,4.726c-0,-6.967 -0.614,-10.27 -6.907,-12.967c-1.275,-0.559 -3.558,-1.005 -4.33,-2.344c-0.446,-0.774 0.61,-4.036 1.885,-7.075l2.713,7.231l0.257,0.257l0.583,-1.089c0.814,-1.5 2.392,-4.342 4.186,-7.202Zm-247.93,-58.469c0.388,-7.541 1.307,-13.773 3.479,-13.114c6.864,1.595 26.333,7.2 29.518,13.704c1.089,2.234 0.163,5.474 0.651,7.97c-0.567,-0 -0.557,0.055 -0.916,0.36c-2.377,1.886 -4.776,3.834 -6.906,6.201c-4.074,4.452 -13.93,38.51 -15.218,39.096c-1.144,0.502 -5.739,15.265 -7.557,11.423c-1.116,-2.372 -1.052,-9.776 -1.754,-15.302c-1.182,-9.347 -0.414,-12.548 -3.079,-16.703c-5.395,-2.828 1.437,-6.653 1.437,-6.803c0.126,-2.692 -0.097,-3.49 -0.06,-4.259c0.171,-3.766 -0.053,-14.013 0.405,-22.573l0.358,0.095l-0.358,-0.095Zm-252.067,54.124c-1.368,4.94 -2.47,2.763 -2.909,1.879c-1.37,-2.781 -1.046,-7.842 -1.289,-8.148c-1.499,-2.019 -0.769,-16.718 -0.744,-19.934c-0.781,-1.565 -2.334,-4.232 -2.999,-4.909c-0,-2.035 2.549,-5.502 2.881,-8.088c0.412,-3.281 0.028,-6.656 0.093,-10.188c0.146,-3.254 0.279,-6.52 0.426,-9.776c1.009,-2.055 1.685,3.692 2.018,4.716c0.916,2.907 3.546,21.938 3.279,25.485c-0.463,4.265 1.474,20.824 -0.756,28.963Zm629.051,-2.215c0.137,1.36 -0.008,2.843 -0.459,4.431c0.322,-1.166 0.484,-2.371 0.484,-3.583c-0,-0.289 -0.008,-0.572 -0.025,-0.848Zm-131.358,3.418l0.046,0.065l-0.121,-0.092l0.075,0.027Zm-315.241,-3.416l-0,0.418c-0.572,-0 -0.426,0.139 -0.426,-0.418c-1.355,-0 -2.323,-1.517 -3.467,-1.991c-2.895,-1.228 -12.283,-3.935 -14.553,-5.451c-2.339,-1.525 0.649,-2.995 1.021,-4.037c7.611,-0 12.83,-6.437 18.699,-10.197c0.796,0.385 1.726,-0.321 1.739,1.806c-0.013,2.403 -1.871,18.558 -3.013,19.87Zm208.978,-94.363c-0.33,2.566 -0.679,5.114 -1.009,7.665c-0.08,2.444 0.121,4.86 -0.214,7.211c-0.396,4.261 -0.795,8.514 -1.191,12.774c-1.064,7 -2.018,13.958 -3.609,20.761c-1.795,7.53 -5.445,19.577 -6.181,27.304c-0.13,1.356 -1.474,1.647 -2.311,2.379c-4.967,4.297 -5.619,10.223 -5.619,10.223l-32.654,-2.27c-0,-0 0.982,-3.451 1.527,-5.404c1.101,-3.865 0.45,-10.332 3.585,-12.486c0.888,-0.609 3.456,-6.321 4.208,-8.046c5.103,-11.769 10.851,-17.875 18.316,-28.475c4.325,-6.174 9.842,-11.474 12.404,-18.499c1.065,-2.951 -0,-7.465 -1.651,-9.711c-1.098,-1.498 -2.702,-3.064 -2.493,-5.111l16.571,-0l-0,0.427c0.693,-0 0.377,0.688 0.321,1.258Zm-19.684,47.108c-4.313,5.733 -8.006,10.737 -11.33,18.403c-0.003,0.008 -0.007,0.016 -0.01,0.025c-0.677,1.552 -2.574,5.676 -3.982,8.14l6.164,0.428c1.052,-1.624 2.331,-3.263 3.862,-4.8c1.287,-7.115 3.702,-15.77 5.296,-22.196Zm-114.315,17.44l0.106,0.07l-0.106,-0.07Zm8.476,-15.821l-0.106,2.616c0.765,-1.283 1.454,-2.252 2.001,-2.851l0.708,-0.76l-0.584,-0.26l-1.94,-0.771l-0.079,2.026Zm-152.309,-10.433l-0.956,0.956c0.299,0.951 0.839,2.619 1.465,4.327c-0.653,0.127 -1.262,0.331 -1.779,0.637c-1.858,-0 -3.637,-0.531 -3.772,-2.538c-0.185,-2.574 2.354,-3.209 5.042,-3.382Zm7.759,-0.916l1.596,-0.389c1.049,0.556 1.846,1.049 2.551,2.127c0.556,-0 0.426,-0.15 0.426,0.421c-0.693,-0 -1.33,1.342 -1.954,1.754l-1.866,0.86c0.026,-0.455 0.021,-0.927 -0.013,-1.418c-0.087,-1.254 -0.347,-2.365 -0.74,-3.355Zm467.472,-26.727c0.459,1.088 0.77,1.921 0.77,1.921c0,0 -0.213,-0.906 -0.484,-1.577l-0.286,-0.344Zm-20.054,-4.722c-0.071,0.076 -0.142,0.154 -0.213,0.237c-0.07,0.082 -0.141,0.167 -0.211,0.255l0.424,-0.492Z" style="fill:#fff;"/><path d="M837.205,13.694l-735.923,-0.119l53.906,87.583c-0,-0 20.027,-0.065 25.552,0.028c25.673,0.412 50.85,-0.53 76.509,0.28l-0,0.427l0.428,-0l-0,0.423c-1.186,0.466 -2.367,0.917 -3.546,1.368c-5.367,1.967 -10.772,3.2 -13.709,10.61c-3.904,0.718 -1.951,-6.389 -13.771,-4.247c-7.092,0.846 -17.385,2.188 -23.268,4.845c-2.084,0.931 -5.007,3.945 -7.237,3.413c-4.755,-1.222 -16.841,-3.957 -28.568,6.536c-2.309,-0 -6.628,-6.056 -8.832,-7.73c-4.102,-3.11 -8.432,-5.447 -13.732,-6.098c-14.941,-1.844 -55.699,28.104 -58.608,43.15c-7.755,-0 -12.63,4.608 -17.994,9.189c-6.574,5.607 -13.095,12.472 -20.453,16.856c-4.29,2.534 -10.225,5.027 -15.538,5.223c-3.653,1.06 -17.785,-2.661 -18.792,11.673c-0.533,7.144 2.935,12.558 7.425,17.329c3.783,4.038 7.753,7.786 12.72,10.121c2.789,0.846 5.567,1.683 8.339,2.539c8.144,2.493 18.051,2.772 26.804,0.772c7.808,-2.214 10.915,-3.554 23.014,-9.106c2.033,4.799 5.086,11.776 4.477,10.288c3.69,8.78 8.829,19.43 7.065,16.221c0.955,2.707 3.664,9.954 4.716,12.204c4.434,9.498 9.906,26.966 9.824,26.417c1.768,5.75 3.907,11.386 5.247,17.348c1.486,6.66 2.23,15.404 7.585,20.102c2.403,2.121 8.848,6.427 20.659,1.227c4.538,-2 16.965,-11.152 19.129,-13.245c2.482,-3.144 4.954,-6.307 7.423,-9.451c2.351,-1.739 5.991,-1.609 9.047,-1.86c5.934,-0.512 9.931,-4.372 12.629,-9.218c7.501,-13.534 -2.656,-27.05 -10.625,-36.724c-4.581,-5.562 -9.044,-11.795 -12.748,-17.925c-0.533,-0.864 -2.339,-2.855 -1.982,-3.906c-0,-0.158 -19.68,-30.324 -25.365,-45.355c-0.291,-0.8 -1.94,-1.126 -1.435,-1.861c3.641,-5.218 22.299,-5.123 22.978,-6.202c2.018,-3.227 6.174,21.355 6.957,22.666c3.4,5.702 2.247,4.186 2.949,11.339c0.863,4.242 3.865,13.525 4.197,14.102c0.742,2.028 1.486,4.065 2.23,6.092c1.263,3.665 3.347,8.669 5.5,11.86c2.23,3.311 4.037,6.8 6.6,9.916c7.981,9.692 18.287,15.729 30.319,18.334c12.457,2.678 32.391,-1.042 41.197,-8.53c2.591,-2.214 3.242,-6.484 5.153,-7.962c1.196,-0.95 2.763,-0.893 4.131,-1.46c2.734,-1.163 4.648,-2.512 6.774,-4.707c2.762,-3.442 5.525,-6.893 8.287,-10.344c0.863,-1.219 1.765,-3.219 3.279,-3.749c1.542,-0.558 2.258,2.102 2.724,2.949c5.524,10.26 17.292,10.334 29.072,10.334c3.544,-0.307 9.081,-2.697 27.836,-2.111c3.613,0.092 6.162,-3.497 9.136,-5.534l0.426,-0c2.949,2.157 6.016,5.217 9.441,6.557c1.702,0.558 3.388,1.107 5.088,1.655c1.009,0.159 2.019,0.308 3.028,0.456c1.302,0.419 6.667,2.586 23.426,-5.748c4.37,-2.242 8.9,-5.377 12.497,-8.967c1.449,-1.804 2.884,-3.627 4.316,-5.432l-0,-0.428c0.823,-0 2.061,1.116 2.551,1.702l0.426,-0c-0,3.954 6.216,8.279 10.199,7.228c-0,1.218 5.737,0.344 6.798,0.399c2.204,0.103 4.82,-0.929 6.852,-1.422c5.949,-1.48 11.856,-3.033 17.846,-4.159c4.093,-0.781 8.065,-1.06 12.246,-1.488c1.73,-0.344 3.451,-0.707 5.176,-1.051c0.339,-0.058 0.678,-0.118 1.016,-0.179l2.024,-0.368c0.338,-0.06 0.676,-0.12 1.016,-0.178c2.902,-1.079 4.725,-2.949 6.944,-5.154c-0,-1.097 0.771,0.652 0.86,0.837c2.275,4.642 5.447,8.79 9.814,11.805c8.129,5.59 19.886,4.288 30.086,5.804c6.264,0.921 12.455,2.641 18.738,3.562c4.303,0.652 8.949,1.721 21.516,6.837c2.683,1.089 11.445,6.121 14.184,5.572c1.271,-0 1.619,-0.27 2.549,0.428c-0,0.8 2.349,0.214 2.977,0.14c2.628,-0.382 5.535,-1.796 7.288,-3.861c1.227,-1.469 3.348,-5.963 5.427,-5.506c0.182,0.213 6.196,2.744 13.776,2.121c7.902,-0.633 21.106,0.027 29.59,0.837c13.785,1.311 29.802,6.334 40.574,13.813c5.181,3.6 12.097,11.208 18.152,12.501c3.228,0.68 6.869,0.251 9.632,-1.088c1.023,-0.651 2.032,-1.303 3.056,-1.953c-0,-0.707 0.251,-0.429 0.846,-0.429c-0,0.531 3.73,3.163 4.041,4.81c0.303,1.729 -0.148,3.32 0.596,4.855c2.233,4.642 6.149,8.279 10.437,11.07c1.437,1.19 2.855,2.372 4.288,3.562c4.478,2.177 8.953,4.334 13.431,6.511c2.921,0.586 5.827,1.172 8.748,1.758c3.721,1.089 7.851,2.018 12.009,2.223c2.507,0.103 5.613,0.243 7.995,-0.214c1.568,-0.326 2.958,-1.293 4.698,-1.07c1.767,0.215 3.255,2.475 4.836,3.275c2.177,1.088 6.293,1.247 8.819,1.367c29.472,1.377 53.95,-17.599 65.675,-42.09c2.325,-4.874 3.958,-11.544 5.139,-16.93c0.372,-1.729 0.372,-3.47 1.009,-5.051c0.716,-0 0.288,-0.437 0.121,-0.902c-0.032,-0.837 -0.065,-1.674 -0.107,-2.512c-0.744,-4.259 0.767,-9.282 -0.865,-13.161c0.637,-0 0.386,-0.065 0.265,-0.586c-0.316,-1.274 -1.047,-2.549 -1.344,-3.73c-0.865,-3.367 -1.39,-6.278 -2.716,-9.33c-0.73,-1.228 -1.465,-2.455 -2.196,-3.684c-0.293,-0.967 -0.594,-1.953 -0.901,-2.938c-0.572,-1.824 -3.958,-6.903 -5.404,-8.261c-0.968,-0.605 -1.954,-1.218 -2.921,-1.832c-1.2,-0.837 -2.354,-1.935 -1.786,-3.637c-0,-0.801 -0.861,-0.698 -1.377,-1.191c-1.953,-1.832 -3.772,-4.036 -5.977,-5.45c-8.088,-5.247 -8.394,-5.814 -8.432,-5.963c1.898,-2.307 1.949,-2.26 4.782,-5.614c2.097,-2.523 7.966,-10.241 10.627,-14.332c2.651,-4.167 4.948,-9.585 5.707,-14.662c0.33,-2.314 0.222,-5.06 -0.61,-7.01c-3.604,-8.303 -19.115,-18.092 -26.91,-21.237c-2.377,-0.891 -4.767,-1.779 -7.158,-2.669c-2.391,-0.731 -4.79,-1.463 -7.194,-2.19c-1.145,1.434 -1.623,1.71 -2.428,1.195c-0.377,-0.932 -0.098,-1.117 -0.665,-1.301c-5.869,-2.034 -21.906,-4.267 -26.232,0.954c-1.702,-0 -3.18,-1.181 -4.673,-1.714c-3.14,-1.125 -8.726,-2.269 -11.902,-0.412c-3.042,-0 -6.498,0.957 -8.502,2.975c-0,-0.53 0.093,-0.451 -0.424,-0.359c-3.729,0.598 -12.682,6.31 -15.3,9.287c-1.74,-0 -3.172,-7.078 -4.196,-8.689c-0.702,-1.102 -2.047,-2.365 -3.176,-2.96c-10.53,-5.618 -24.199,-7.586 -36.374,-9.813c-4.917,-0.904 -10.028,-2.539 -15.312,-2.075c-2.46,0.214 -4.273,1.421 -6.39,2.287c-0,-0.663 -7.767,-4.529 -8.924,-5.524l0.422,-0l102.506,-1.355l54.173,-86.844Zm-32.579,238.216l-0,0.428l-2.977,-0c-0,0.698 -2.353,0.037 -2.971,-0.074c-3.721,-0.67 -7.549,-2.373 -10.265,-5.004c-4.344,-4.196 -8.33,-12.428 -2.065,-16.595c1.54,0.763 7.799,3.554 8.502,4.67c2.018,-0 4.037,1.832 5.67,2.734c2.52,1.396 5.418,2.772 7.529,4.884c3.972,3.98 0.786,7.637 -3.423,8.957Zm-41.821,-31.691c-1.572,0.772 -3.134,1.545 -4.706,2.316c-3.201,1.86 -6.889,4.344 -10.846,4.726c-0,-6.967 -0.614,-10.27 -6.907,-12.967c-1.275,-0.559 -3.558,-1.005 -4.33,-2.344c-0.837,-1.451 3.609,-11.646 4.855,-12.734l-0,-0.428c2.266,1.079 2.596,2.642 4.079,4.446c1.861,2.26 3.618,4.455 5.823,6.455c1.591,1.451 12.641,8.511 12.749,8.865c0.2,0.753 -0.145,1.265 -0.717,1.665Zm-232.363,-65.696c-2.377,1.886 -4.776,3.834 -6.906,6.201c-4.074,4.452 -13.93,38.51 -15.218,39.096c-1.144,0.502 -5.739,15.265 -7.557,11.423c-1.116,-2.372 -1.052,-9.776 -1.754,-15.302c-1.182,-9.347 -0.414,-12.548 -3.079,-16.703c-5.395,-2.828 1.437,-6.653 1.437,-6.803c0.126,-2.692 -0.097,-3.49 -0.06,-4.259c0.321,-7.082 -0.753,-37.093 3.884,-35.687c6.864,1.595 26.333,7.2 29.518,13.704c1.089,2.234 0.163,5.474 0.651,7.97c-0.567,-0 -0.557,0.055 -0.916,0.36Zm-284.799,45.204c-1.368,4.94 -2.47,2.763 -2.909,1.879c-1.37,-2.781 -1.046,-7.842 -1.289,-8.148c-1.499,-2.019 -0.769,-16.718 -0.744,-19.934c-0.781,-1.565 -2.334,-4.232 -2.999,-4.909c-0,-2.035 2.549,-5.502 2.881,-8.088c0.412,-3.281 0.028,-6.656 0.093,-10.188c0.146,-3.254 0.279,-6.52 0.426,-9.776c1.009,-2.055 1.685,3.692 2.018,4.716c0.916,2.907 3.546,21.938 3.279,25.485c-0.463,4.265 1.474,20.824 -0.756,28.963Zm182.452,-2.213l-0,0.418c-0.572,-0 -0.426,0.139 -0.426,-0.418c-1.355,-0 -2.323,-1.517 -3.467,-1.991c-2.895,-1.228 -12.283,-3.935 -14.553,-5.451c-2.339,-1.525 0.649,-2.995 1.021,-4.037c7.611,-0 12.83,-6.437 18.699,-10.197c0.796,0.385 1.726,-0.321 1.739,1.806c-0.013,2.403 -1.871,18.558 -3.013,19.87Zm208.978,-94.363c-0.33,2.566 -0.679,5.114 -1.009,7.665c-0.08,2.444 0.121,4.86 -0.214,7.211c-0.396,4.261 -0.795,8.514 -1.191,12.774c-1.064,7 -2.018,13.958 -3.609,20.761c-1.795,7.53 -5.445,19.577 -6.181,27.304c-0.13,1.356 -1.474,1.647 -2.311,2.379c-4.967,4.297 -5.619,10.223 -5.619,10.223l-32.654,-2.27c-0,-0 0.982,-3.451 1.527,-5.404c1.101,-3.865 0.45,-10.332 3.585,-12.486c0.888,-0.609 3.456,-6.321 4.208,-8.046c5.103,-11.769 10.851,-17.875 18.316,-28.475c4.325,-6.174 9.842,-11.474 12.404,-18.499c1.065,-2.951 -0,-7.465 -1.651,-9.711c-1.098,-1.498 -2.702,-3.064 -2.493,-5.111l16.571,-0l-0,0.427c0.693,-0 0.377,0.688 0.321,1.258Zm-265.5,39.537c-0.693,-0 -1.33,1.342 -1.954,1.754c-1.181,0.558 -2.376,1.102 -3.572,1.646c-1.276,0.147 -2.55,0.282 -3.825,0.424c-1.514,-0 -3.109,0.176 -4.251,0.853c-1.858,-0 -3.637,-0.531 -3.772,-2.538c-0.304,-4.222 6.721,-3.227 9.709,-3.545c1.568,-0.372 3.121,-0.756 4.688,-1.142c1.049,0.556 1.846,1.049 2.551,2.127c0.556,-0 0.426,-0.15 0.426,0.421Z" style="fill:#231f20;"/><path d="M120.309,23.402l42.486,67.269l161.743,0.202c-0,-0 54.109,-14.452 72.25,-1.28c0.784,-0.196 2.616,-1.95 4.304,-2.283c2.377,-0.492 4.568,0.333 6.733,0.584c5.085,0.558 9.987,0.851 15.313,0.851c1.553,-0.148 3.12,-0.281 4.673,-0.423c1.317,-0.532 3.122,-0.428 4.675,-0.428c0.997,-0.144 1.992,-0.279 2.974,-0.426c0.997,-0.141 1.993,-0.275 2.976,-0.425c2.575,-1.593 6.84,-2.521 10.184,-2.47c2.03,0.027 3.93,0.665 5.92,0.2c5.674,-1.82 11.339,-3.639 17.013,-5.472c16.511,-6.148 50.439,-6.083 64.941,-2.15c2.283,0.783 4.571,1.579 6.836,2.362c1.628,0.959 3.247,1.914 4.865,2.856c1.424,0.386 2.968,0.028 4.54,0.054c1.837,0.186 3.669,0.372 5.502,0.561c4.674,1.246 9.347,2.496 14.026,3.727c1.446,0.424 2.894,0.867 4.33,1.288c2.945,0.401 5.655,-1.221 8.842,-0.744c4,1.129 11.98,3.376 11.98,3.376l180.116,-0.239l40.889,-66.87l-698.111,-0.12Z" style="fill:#fff;"/><path d="M550.255,218.851c-1.023,1.562 -2.433,1.367 -3.199,1.061c-3.936,-5.804 -0.084,-10.521 3.278,-15.535c0.773,-1.172 0.995,-3.589 3.111,-3.916c9.07,0.037 -1.586,7.238 -3.032,10.995c-0.926,2.391 -0.158,4.642 -0.158,7.395m-16.218,-19.217c-1.153,2.706 -2.432,7.199 -2.041,10.306c0.488,4.232 -1.944,2.847 -1.944,3.19c-1.34,-2.409 -3.13,-7.571 4.665,-20.045c0.162,-1.163 0.516,-1.87 0.753,-1.907c5.009,-0.641 -0.354,4.037 -1.433,8.456m76.949,6.846c-1.311,-1.721 -4.33,-1.982 -6.506,-2.465c-2.004,-0.446 -3.707,-0.781 -3.256,-0.717c-16.743,-2.399 -26.864,-0.8 -34.886,1.87c-5.855,1.963 -7.767,5.665 -9.428,7.497c-1.093,1.209 -3.618,1.591 -3.465,0.13c0.833,-5.376 7.489,-9.125 11.121,-13.105c4.39,-4.837 14.506,-23.35 8.148,-29.124c-1.897,-1.731 -4.307,-3.761 -6.957,-3.92c-3.828,-0.254 -6.898,2.603 -9.609,4.701c-0.819,0.623 -10.995,16.65 -9.269,6.935c0.813,-2.194 6.566,-6.565 6.566,-7.132c0.62,-0.601 1.791,-1.409 2.042,-2.951c0.224,-1.356 -3.129,-2.775 -0.343,-3.427c0.278,-0.042 0.557,-0.067 0.818,-0.106c1.399,-0.211 2.805,-0.53 3.711,-1.631c1.619,-2.034 0.353,-5.022 0.316,-7.626c-0.055,-2.603 0.214,-5.683 0.968,-7.94c4.674,-14.08 6.655,-1.886 10.027,-19.124c0.628,-1.263 5.46,0.741 0.8,8.776c-0.93,1.425 -1.195,1.807 -1.967,3.363c-1.949,3.887 -6.609,12.443 -5.841,17.012c0.343,2.138 2.004,4.023 3.306,5.693c1.497,1.944 4.046,3.988 6.577,4.135c2.042,0.107 3.185,-0.575 4.525,-1.821c0.837,-1.316 1.67,-2.628 2.512,-3.958c2.822,-4.953 5.669,-9.906 8.497,-14.876c5.552,-9.36 13.464,-17.503 18.743,-27.01c1.098,-2.018 1.934,-5.06 0.995,-7.384c-1.54,-3.773 -23.646,-11.196 -28.491,-11.12c-1.726,0.029 -2.931,-0.17 -4.047,1.054c-3.019,3.228 0.247,18.925 -6.153,18.366c-0.623,-2.325 1.553,-5.485 1.624,-8.513c0.236,-11.503 -1.796,-11.423 -9.642,-13.799c-2.847,-0.863 -3.948,-1.278 -8.046,-2.151c-3.06,0.516 -2.754,2.164 -3.205,4.133c-0.135,1.671 -0.251,3.343 -0.386,5.015c-0.451,5.674 -0.929,11.33 -1.823,16.602c-0.182,1.701 -0.367,3.399 -0.562,5.099c-1.344,5.049 -2.167,10.52 -3.247,15.66c-0.614,2.867 -1.419,5.925 -2.176,8.885c-0.372,1.382 -0.992,2.311 -1.037,3.941c-0.103,3.349 3.003,4.81 3.003,7.2c-2.748,-0.346 -5.459,-0.451 -7.376,1.54c-5.283,5.433 -7.101,13.376 -8.934,20.508c-1.553,5.981 -3.864,11.646 -6.056,17.357c-1.66,3.694 -3.32,7.395 -4.98,11.088c-1.024,2.121 -2.507,3.786 -3.121,6.074c-0.526,1.953 -0.4,4.809 0.758,6.408c3.585,5.005 22.84,5.005 29.64,5.833c4.721,0.8 9.432,1.609 14.134,2.41c7.051,1.469 13.679,3.46 20.385,5.59c4.26,1.339 13.771,6.985 17.771,5.887c5.176,-1.431 8.632,-11.496 10.213,-15.989c2.191,-6.251 -6.497,-9.479 -10.972,-9.33c-2.083,0.057 -4.929,1.256 -6.864,1.488c-3.497,0.391 -15.273,0.744 -16.017,-2.855c0.023,-1.74 0.865,-1.534 1.488,-1.553c3.135,1.488 4.86,1.218 8.604,1.218c1.218,-0.233 5.535,-1.004 10.065,-1.275c1.064,-0.064 0.269,-0.372 0.256,-0.576c-5.619,-0.483 -9.196,0.735 -9.196,0.046c-0.725,-0.529 -1.042,-1.181 0.456,-1.729c3.572,-1.638 5.326,-1.47 8.195,-1.135c4.26,0.39 5.614,2.837 10.465,2.064c1.158,0.094 3.506,-7.701 5.259,-6.325c1.763,3.433 -0.176,6.689 -2.502,7.441c-2.255,0.736 -2.916,1.154 -2.399,2.177c0.888,1.702 3.409,1.116 4.687,0.744c3.359,-0.966 4.754,-9.776 2.084,-13.273" style="fill:#9bca40;"/><path d="M277.66,238.841c-2.312,0.707 -5.353,0.931 -7.32,-0.595c-1.607,-1.256 -7.384,-17.32 -7.251,-19.915c0.081,-1.786 0.93,-3.293 1.793,-4.678c6.32,-8 5.883,-3.824 1.728,0.129c-2.326,2.186 -1.607,4.13 -1.196,5.758c0.889,2.298 1.793,4.605 2.682,6.893c1.183,4.177 1.183,14.25 8.566,11.227c0.798,-0.335 4.37,-2.074 4.37,-2.762l0.849,-0c-0.57,2.399 -2.005,3.246 -4.221,3.943m-12.341,-90.178c3.298,-0.675 7.546,8.431 5.513,11.011c-1.846,-0.198 -2.497,-2.495 -2.497,-4.226c-2.191,-1.431 -4.091,-6.6 -3.016,-6.785m-53.134,48.405c3.186,-0 -9.111,1.441 4.142,-7.74c2.855,-2 4.039,-5.153 5.206,-8.404c0.119,-0.611 0.439,-1.023 1.274,-0c-1.579,9.818 -6.946,13.018 -10.622,16.144m-6.802,-42.496c-0.57,-0.914 -1.142,-1.818 -1.712,-2.732c-0.532,-3.071 -1.051,-6.126 -1.581,-9.193c-0.054,-0.267 -0.012,-1.846 1.17,-2.521c0.558,-0 1.114,-0.146 1.114,0.424c0.932,2.323 0.014,5.113 0.56,7.65c0.412,1.938 0.835,2.576 2.256,5.021c1.609,1.621 -0.756,1.351 -1.807,1.351m92.036,28.086c-0.344,-3.473 -3.279,-6.98 -6.85,-5.588c-1.503,0.945 -3.003,1.903 -4.519,2.842c-2.641,1.37 -5.111,2.859 -7.234,5.137c-1.33,1.414 -2.049,3.126 -3.044,4.679c-2.63,4.186 -0.438,8.13 -1.965,9.469l-1.274,-0c-2.298,-7.636 -0.454,-13.785 5.934,-17.436c7.611,-4.342 4.969,-4.448 0.428,-1.899c-2.54,1.383 -4.053,2.917 -4.663,1.914c-2.523,-4.291 -6.92,-9.351 -2.551,-9.351c2.712,5.869 11.262,2.551 16.576,2.551c2.616,-1.317 5.06,-0.51 6.799,-3.403c4.675,-7.885 -0.851,-50.346 -5.327,-56.804c-2.362,-3.41 -5.298,-4.26 -9.546,-4.392c-0.986,0.704 -1.953,1.404 -2.935,2.111c-1,1.726 -1.992,3.454 -3.004,5.177c-2.43,2.898 -6.095,5.141 -7.105,8.887c-0.809,2.961 -0.383,6.174 -0.89,9.335c-0.184,1.127 0.319,3.269 -2.056,2.604c-3.467,-0.983 -1.409,-11.659 1.859,-17.755c1.099,-1.783 2.215,-3.562 3.318,-5.352c0.253,-0.519 1.037,-2.033 0.188,-2.033c-1.753,-0.876 -3.441,-0.095 -5.141,0.254c-5.111,1.006 -15.128,3.092 -16.204,9.146c-0.795,4.413 2.26,11.25 3.256,15.317c2.216,9.095 3.864,18.564 4.809,28.408c1.086,11.471 0.465,23.745 -0.784,34.833c-0.505,2.939 -0.998,5.887 -1.502,8.818c-0.624,1.888 -1.235,3.777 -1.858,5.646c-0.494,1.218 -0.984,2.456 -1.489,3.674c-0.479,0.549 -2.511,3.721 -3.134,5.041c-0.944,1.248 -1.872,2.382 -2.814,3.74c-0.705,1.126 -3.997,8.167 -4.104,9.702c-0.252,2.753 0.49,4.177 0.49,6.316l-0.425,-0l-0,0.418c-0.73,-0.195 -1.726,1.749 -3.161,-1.069c-2.046,-4.773 3.412,-12.985 5.447,-16.641c0.702,-1.293 1.725,-3.097 1.525,-4.762c-0.344,-2.791 -4.463,-3.368 -6.334,-4.745c-1.994,-1.46 -3.454,-3.794 -4.172,-5.962c-1.433,-4.307 -2.335,-9.33 -2.947,-14.018c-0.53,-3.962 -1.514,-23.968 -3.027,-25.535c-2.309,-2.389 -6.656,-1.365 -9.656,-2.443c-1.595,-0.586 -3.107,-1.011 -4.73,-1.606c-1.153,-0.426 -1.83,-0.812 -3.544,-1.835c-1.141,-5.416 7.107,3.016 10.625,1.276c0.677,-0.12 1.368,-0.226 2.044,-0.346c1.954,-0.409 4.107,-2.006 5.221,-3.73c1.181,-1.86 0.677,-4.677 0.902,-6.973c0.651,-6.922 1.303,-13.705 1.647,-20.825c0.12,-2.656 0.453,-5.514 -0.344,-7.982c-0.491,-1.501 -1.847,-2.575 -3.268,-3.094c-4.341,-1.607 -9.72,0.226 -13.813,1.076c-3.081,0.623 -6.734,1.83 -9.03,3.998c-4.225,3.93 -3.109,16.691 -1.871,22.099c0.651,2.563 1.499,4.848 2.241,8.632c0.054,1.367 -4.658,-3.093 -6.467,-0.477c-9.52,16.415 -13.785,8.365 -9.083,6.625c2.788,-2.216 3.958,-3.362 5.579,-6.414c5.272,-10.038 10.199,-34.77 -9.949,-29.363c-3.52,0.927 -7.701,1.235 -10.357,3.823c-1.237,1.183 -2.193,2.974 -1.965,4.82c0.384,3.335 2.03,6.112 3.293,9.072c1.393,3.681 2.788,7.372 4.181,11.049c1.595,5.792 3.188,11.583 4.784,17.373c1.195,5.562 1.288,14.697 5.178,18.716c1.407,1.459 3.361,2.372 5.551,2.222c2.072,-0.139 12.776,-4.892 12.776,-6.074c0.146,-0 5.644,-6.455 8.102,-6.595c3.239,-0.288 -2.509,3.507 -7.742,8.521c-8.555,8.204 -14.41,5.32 -16.113,11.776c-0.899,3.358 1.263,13.068 2.061,16.483c4.29,18.408 16.401,36.09 36.23,39.607c4.688,0.613 9.084,0.325 13.162,0.325c3.505,-0.567 6.414,-0.586 9.772,-1.702c8.062,-4.911 13.573,-4.362 13.866,-19.534c0.014,-0.809 -0.49,-0.539 -0.558,-2.79c-0,-1.256 1.063,-0.912 1.57,-0.196c1.193,1.935 1.432,5.014 3.584,6.297c3.571,2.121 7.345,-2.631 9.217,-4.966c1.235,-1.452 2.47,-2.903 3.691,-4.363c7.146,-11.227 9.615,-24.845 11.688,-38.602c0.558,-3.805 1.342,-9.135 0.955,-13.154" style="fill:#9bca40;"/><path d="M730.263,157.68c-1.581,0.812 -3.534,0.545 -4.702,-0.134c-1.13,-2.161 1.818,-2.161 3.479,-2.932c3.4,-1.515 2.549,-7.756 4.651,-7.491c2.269,0.973 -1.116,9.362 -3.428,10.557m-36.151,-9.054c-4.037,-1.61 -5.721,-5.3 -5.949,-8.925c-0.265,-1.303 0.795,-1.633 1.41,-1.035c1.209,1.164 2.944,6.227 4.697,7.831c2.126,1.915 3.084,3.057 -0.158,2.129m-22.818,16.346c-2.549,3.294 -6.85,4.382 -9.92,6.999c-2.934,2.474 -6.799,8.557 -10.227,9.153c-1.447,0.209 -2.442,-0.2 -2.083,-0.2c-0.614,-0.374 -0.517,-0.93 0.135,-1.381c1.376,-0.761 3.05,-0.973 4.422,-1.726c2.233,-2.089 2.494,-5.088 4.74,-7.321c1.464,-0.97 3.52,-2.004 4.98,-2.974c2.601,-2.044 4.01,-4.009 6.921,-5.921c0.145,-0 1.726,-0.228 1.86,-0.228c2.414,0.928 0.01,2.495 -0.828,3.599m-9.054,24.449c0.409,2.111 0.357,5.395 -0.056,7.544c-0.066,2.939 -3.116,12.222 -5.47,13.283c-1.99,0.874 -2.367,0.335 1.497,-7.302c1.317,-3.693 0.987,-9.303 0.214,-13.32c-1.153,-5.953 -9.706,0.39 -7.817,-4.8c0.753,-1.126 1.79,-0.158 5.548,-4.023c1.74,-2.046 4.697,-7.132 6.255,-6.309c3.903,1.355 -1.488,1.936 -2.055,7.69c-0.242,2.233 1.884,5.144 1.884,7.237m-13.447,23.766c-1.604,-0.215 0.749,-3.311 2.87,-6.995c0.856,-1.479 2.238,-2.372 2.302,-5.971c0.01,-1.145 -0.386,-2.819 1.424,-2.327c4.344,1.312 -2.819,15.293 -6.596,15.293m22.366,21.71c2.833,-0.902 5.061,-0.456 7.586,-0.678c5.59,-1.173 10.972,-3.507 15.367,-6.968c0.995,-0.354 2.353,-0.595 1.833,1.535c-0.638,2.475 -19.641,11.767 -24.636,8.911c-0.81,-0.465 -0.902,-2.232 -0.15,-2.8m3.401,-2.976c4.585,-0.968 5.487,-2.652 8.157,-2.428c0.135,4.409 -10.32,4.8 -8.157,2.428m66.976,-101.985c-0.222,-1.435 -0.808,-2.867 -2.027,-3.717c-2.53,-1.752 -5.837,-1.939 -8.86,-2.642c-4.66,-1.09 -9.166,-2.42 -14.003,-3.108c-6.158,-0.905 -14.563,-3.732 -21.19,-2.164c-4.628,1.075 -5.632,6.866 -8.595,6.52c-1.725,-0.187 -2.6,-5.061 -3.572,-6.203c-1.168,-1.367 -2.562,-2.404 -4.144,-2.906c-8.245,-2.684 -17.929,-2.204 -26.64,-3.853c-0.298,-0.067 -2.683,0.239 -2.99,0.157c-1.731,0.786 -1.326,0.998 -1.819,3.096c-0.8,3.335 -0.665,6.985 -0.819,10.546c-0.646,6.36 -1.264,12.722 -1.906,19.084c-0.949,5.526 -1.907,11.063 -2.879,16.585c-0.759,3.761 -2.498,7.824 -2.498,11.956c-0,4.316 0.488,7.608 4.051,10.014c1.089,0.623 2.111,0.65 3.2,1.274c0.33,0.278 1.167,1.144 0.679,1.897c-3.8,2.902 -10.171,-5.176 -12.153,-1.619c-0.995,1.759 -2.097,4.037 -2.814,5.861c-9.906,35.811 -13.785,39.244 -13.026,43.17c0.646,3.367 14.896,-3.694 18.919,-8.418c2.046,-2.54 5.698,1.711 2.154,2.92c-1.545,1.116 -2.326,1.73 -3.293,2.456c-4,2.995 -5.433,4.744 -10.307,6.296c-0.716,0.243 -0.679,0.187 -2.232,0.736c-1.167,1.414 0.665,2.306 1.446,2.306c-0.051,-0.185 30.924,0.41 24.119,0.196c3.359,0.111 6.736,0.214 10.093,0.306c10.372,1.396 19.869,4 28.942,7.916c2.452,1.061 4.498,2.475 6.851,3.712c2.479,1.497 4.968,2.995 7.441,4.484c3.475,2.687 7.763,8.994 12.879,7.199c5.297,-1.888 16.338,-25.952 17.306,-31.691c0.316,-1.935 0.237,-4.139 -1.088,-5.432c-2.382,-2.298 -14.223,-5.6 -17.851,-5.768c-2.232,-0.121 -4.451,0.828 -6.352,1.47c-0.712,0.224 -1.842,1.005 -2.973,1.702c-1.897,0.94 -2.683,1.694 -4.246,1.694c-0.679,-0.121 -1.515,-0.121 -1.111,-1.694c0.763,-1.879 3.46,-0.604 2.879,-5.682c-0.465,-0.494 -1.293,-1.126 -1.758,-1.61c-2.665,-0.986 -5.977,-0.921 -8.911,-1.367c-4.275,-0.67 -13.078,-3.2 -17.339,-2.01c-7.563,2.075 -5.014,6.418 -9.009,6.726c-0.679,-0.019 -1.753,-0.419 -1.339,-1.172c2.033,-3.749 4.618,-4.345 7.711,-13.153c0.786,-2.242 -0.503,-5.413 0.507,-7.702c0.921,-2.046 0.837,-4.037 0.744,-4.39c-1.53,-5.647 3.665,-8.781 6.864,-8.475c2.913,0.224 2.549,1.619 1.024,2.623c-0.847,0.577 -2.26,0.456 -3.172,1.35c-1.46,1.413 -1.688,3.721 -1.265,5.386c0.758,2.976 3.149,4.632 5.846,5.748c3.242,1.33 7.479,1.172 11.06,1.767c9.102,1.516 17.901,4.53 27.664,4.53c1.916,-0.363 2.818,-2.038 3.85,-3.664c2.009,-3.201 11.479,-23.425 7.972,-26.188c-2.116,-1.658 -18.934,-4.527 -21.436,-3.027c-3.348,1.995 -4.995,10.797 -7.302,7.187c-0.53,-2.369 2.173,-6.26 1.168,-8.25c-1.791,-3.521 -20.441,-2.3 -24.636,-2.219c-1.089,0.014 -4.832,0.243 -6.642,-0.09c-0.73,0.067 -1.144,-3.07 -0.028,-3.336c0.21,-1.167 4.68,-0.89 6.958,-1.619c2.968,-0.982 2.712,-17.025 2.912,-21.119c0.056,-1.248 -0.107,-3.851 1.083,-3.397c1.108,0.545 3.712,9.258 7.455,11.621c2.247,1.421 4.712,1.71 7.349,2.401c6.32,1.663 12.492,2.991 19.134,4.24c3.72,0.688 8.53,3.505 12.51,1.526c1.317,-0.663 2.647,-2.033 3.266,-3.333c1.293,-2.749 1.623,-5.871 2.26,-8.923c1.102,-4.541 2.205,-9.085 3.293,-13.632c0.33,-1.737 0.916,-3.223 0.636,-5.085" style="fill:#9bca40;"/><path d="M163.734,279.517c-0.781,-1.553 -0.981,-3.357 -1.579,-4.976c-1.221,-3.321 -3.293,-6.521 -5.299,-9.432c-3.468,-4.465 -6.933,-8.93 -10.412,-13.385c-4.025,-4.921 -8.115,-6.791 -8.634,-12.576c1.53,-1.638 2.193,2.623 3.628,3.972c9.706,9.125 17.955,19.041 22.073,31.626c0.491,1.506 1.497,3.023 1.497,4.771l-1.274,0Zm-30.61,-70.266c-2.193,1.842 -2.672,0.298 -2.962,-0.278l-0,-0.856c0.384,-0.846 1.128,-1.637 1.699,-3.823c0.931,-2.586 0.759,-5.488 0.584,-8.39c-0.263,-1.219 -1.432,-4.093 -1.432,-4.354c-0.972,-2.399 -0.175,-2.26 0.848,-2.13c5.275,0.019 3.123,14.102 1.263,19.831m0.438,19.693c-2.828,2.613 -2.868,0.242 -3.042,-0.214c0.107,-3.684 1.448,-3.145 2.204,-10.065c1.94,-1.86 1.328,4.79 0.838,10.279m-10.916,-57.727c-1.105,0.332 -4.33,-0.107 -2.258,-2.193c4.95,-1.049 5.137,-2.325 9.015,-5.419c2.312,-3.215 4.358,-6.496 6.667,-9.722c4.649,-5.328 6.112,-4.758 6.563,-3.983c-0.944,2.308 -4.155,4.473 -6.176,6.705c-3.16,3.691 -5.142,7.678 -8.565,11.383c-2.858,3.052 -7.053,3.504 -5.246,3.229m24.94,-19.195c-1.274,2.275 -5.192,3.854 -6.799,7.228c-2.777,0.514 -3.759,0.132 -2.977,-2.128c9.576,-9.931 9.379,-6.241 9.776,-5.1m-44.197,47.175l-0,1.702c-1.102,1.702 -2.154,0.279 -2.126,-0.428c0.717,-8.362 7.33,-13.627 7.437,-10.901c-0.77,3.758 -5.311,6.557 -5.311,9.627m-10.134,-3.191c-0.4,-0.818 1.009,-0.688 2.443,-1.749c2.549,-1.916 4.463,-6.586 4.596,-10.306c-1.038,-3.27 -1.275,-3.826 0.544,-4.73c2.444,0.746 1.993,3.019 1.979,5.009c-0.054,2.697 -6.002,13.544 -9.562,11.776m17.145,-22.522c-3.333,-0.319 -7.569,-1.497 -7.439,-4.886c2.114,-1.198 1.928,1.022 3.335,1.114c5.815,0.306 7.278,2.618 4.104,3.772m78.542,101.885c-0.795,-1.228 -1.582,-2.447 -2.377,-3.684c-2.774,-4.893 -6.467,-9.05 -9.788,-13.646c-4.674,-6.464 -8.699,-13.292 -13.534,-19.608c-1.672,-2.883 -3.346,-5.767 -5.032,-8.65c-2.974,-4.856 -6.546,-9.292 -8.832,-14.493c-3.825,-8.641 -5.909,-12.399 -6.707,-12.854c-7.808,-0.065 -2.562,11.506 -7.836,9.934c0.106,-3.609 1.488,-5.916 2.23,-9.013c1.502,-6.391 -0.584,-13.767 -4.686,-17.859c-1.263,-1.266 -3.414,-3.303 -5.192,-3.303c-0.558,-0.67 -0.44,-1.665 -0.161,-2c0.279,-0.332 1.091,0.384 2.125,-0.118c8.658,-4.198 25.99,-13.6 29.908,-13.6c1.277,-0.149 2.551,-0.282 3.825,-0.428c1.793,-0.903 3.919,-0.488 5.179,-2.36c2.365,-3.563 -2.867,-16.35 -6.879,-16.482c-3.56,-0.293 -9.773,6.385 -9.985,1.92c3.039,-1.683 4.62,-2.456 5.695,-3.888c6.867,-9.256 -3.107,-20.057 -12.43,-20.624c-3.839,-0.477 -7.039,1.007 -12.961,4.208c1.246,-0.69 -32.141,21.41 -36.256,30.159c-1.542,3.27 -0.029,7.318 1.832,9.976c2.735,3.921 7.648,6.177 11.885,7.491c2.191,0.674 5.897,0.865 7.705,2.309c0.769,0.625 0.623,2.59 -0.054,3.214c-1.581,1.395 -7.848,3.255 -8.316,1.349c-0.437,-1.768 -0.051,-2.914 -1.432,-4.11c-3.346,-2.709 -6.03,-4.409 -8.195,-6.308c-3.2,-2.563 -5.818,-6.829 -10.186,-7.105c-4.502,-0.293 -11.952,6.997 -15.487,9.841c-0.584,0.463 -1.619,1.887 -2.335,1.887c-3.148,3.053 -2.153,2.416 -6.455,5.394c-6.151,4.223 -11.553,10.391 -18.62,12.865c-6.095,2.111 -10.851,1.2 -15.857,1.86c-1.861,0.242 -2.977,0.995 -3.414,2.958c-0.651,2.8 1.582,5.061 3.295,6.893c9.599,10.232 18.606,11.254 32.975,11.254c0.995,-0.148 2.551,-0.213 3.535,-0.362c3.529,-0.586 4.527,-0.976 5.816,-1.34c3.067,-1.497 6.134,-3.004 9.188,-4.502c6.243,-3.627 13.322,-9.283 16.88,-15.812c-0.237,0.446 1.953,-4.028 2.776,-3.963c2.921,0.149 -2.827,3.478 -1.846,12.325c0.239,2.335 1.437,4.278 2.432,6.362c2.163,4.577 4.223,9.209 6.4,13.794c2.63,5.833 5.258,11.674 7.876,17.507c0.849,1.581 4.318,3.265 4.488,3.841c0.505,1.684 -0.995,3.647 -0.597,5.591c4.037,11.553 8.073,23.105 12.099,34.649c1.365,4.353 2.735,8.715 4.102,13.05c0.826,3.246 1.435,7.386 3.695,9.898c1.644,1.832 3.823,2.455 6.453,2.455c0.161,-0.075 0.33,-0.159 0.491,-0.242c7.239,-3.013 15.899,-8.427 18.115,-16.78c0.412,-1.572 -0.239,-3.6 -0.49,-5.051c-0.347,-1.833 -4.502,-11.116 -5.182,-12.678c-0.674,-0.995 -1.353,-1.982 -2.044,-2.977c-0.704,-1.423 -1.407,-2.828 -2.125,-4.251c-1.528,-2.14 -3.053,-4.26 -4.581,-6.399c-2.577,-2.577 -5.711,-9.181 -15.66,-15.386c-2.044,-1.255 -4.781,-1.842 -7.157,-2.334c-3.107,-0.661 -2.191,-2.112 -1.407,-2.54c5.06,1.228 8.367,0.028 6.692,-4.958c-0.558,-1.627 0.175,-1.739 0.175,-1.627c0.462,-0.567 1.088,-0.559 1.5,1.209c0.158,0.399 0.318,0.81 0.465,1.209c3.916,8.26 12.178,14.381 17.317,21.98c3.214,4.753 6.188,9.619 8.514,14.809c1.725,3.859 3.572,11.05 7.129,13.785c0.254,0.186 0.505,0.372 0.761,0.558c0.223,0.158 0.451,0.335 0.663,0.493c5.243,3.488 13.173,0.251 16.984,-3.665c2.91,-3.014 4.596,-7.692 2.896,-12.027" style="fill:#9bca40;"/><path d="M838.471,264.84c-0.624,0.911 -1.777,1.451 -2.414,2.354c-0.972,0.241 -2.377,1.079 -1.697,-2.549c4.539,-2.605 3.251,-9.041 3.822,-9.777l0.847,-0c2.395,0.345 0.963,7.079 -0.558,9.972m-12.721,-36.677c-2.599,-3.758 -7.822,-3.712 -10.534,-6c0.549,1.024 -1.362,-1.143 0.084,-2.725c1.869,-1.516 5.484,1.907 7.581,2.149c1.553,0.046 2.898,0.549 4.674,0.139c0.995,-0.706 1.995,-1.413 2.977,-2.13c0.678,-0.809 1.618,-0.037 1.618,0.698c-0,2.26 -2.204,4.558 -2.107,7.339c0.2,6.65 5.605,9.72 7.977,14.976c1.413,3.181 1.716,5.358 -0.773,3.367c-1.372,-1.116 -1.525,-3.339 -2.451,-4.735c-2.097,-3.144 -4.595,-5.85 -6.776,-8.939c-0.753,-1.376 -1.516,-2.762 -2.27,-4.139m-20.292,47.532c-1.911,2.54 -4.916,3.954 -7.041,6.53c-1.577,1.888 -3.037,3.842 -4.222,5.916c-1.485,2.549 -2.48,5.423 -5.033,7.33c-1.405,1.441 -1.381,-0.326 -0.703,-1.079c4.01,-7.405 7.753,-15.171 14.874,-20.399c2.991,-0.474 2.246,1.023 2.125,1.702m-21.105,-125.062c-2.349,1.897 -4.66,3.062 -6.721,5.018c-1.776,2.202 -3.241,4.646 -5.017,6.853c-0.48,0.518 -1.047,0.889 -1.503,1.754c-1.433,2.959 -1.763,3.501 -3.051,4.767c-8.674,8.006 -10.27,2.693 -8.233,1.245c5.456,-1.059 7.438,-5.125 8.586,-6.81c7.12,-13.575 10.865,-11.807 13.669,-13.988c1.768,-1.151 3.251,-0.346 2.27,1.161m-0.995,43.039c-0.423,-0.148 -0.852,-0.279 -1.275,-0.428c-2.069,-3.562 -5.641,-7.042 -4.251,-11.897c3.428,-2.244 2.033,8.362 5.953,10.623c1.884,2 0.024,1.889 -0.427,1.702m83.125,47.988c-0.489,-5.86 -1.698,-11.256 -4.233,-16.037c-1.702,-3.18 -6.339,-11.403 -10.426,-11.553c-3.591,-0.129 -6.377,1.499 -9.339,2.615c-1.847,0.641 -3.052,1.599 -3.879,-0.066c0.106,-3.394 10.561,-3.618 9.148,-10.613c-0.331,-1.665 -1.242,-3.357 -2.572,-4.381c-2.312,-1.776 -4.689,-2.763 -7.256,-4.009c-6.143,-2.986 -12.319,-5.59 -18.747,-7.99c-1.293,-0.67 -2.581,-1.321 -3.879,-1.981c-1.953,-0.652 -3.892,-1.303 -5.842,-1.953c-2.395,-0.968 -12.724,-3.443 -17.319,-8.036c-6.577,-6.573 1.595,-13.124 8.218,-13.638c9.017,-0.721 17.849,2.112 24.979,5.587c2.447,1.185 9.484,5.371 12.009,5.287c6.032,-0.226 15.088,-16.599 16.376,-21.648c0.451,-1.805 0.438,-3.81 -0.451,-5.351c-3.628,-6.255 -21.785,-14.792 -28.779,-16.347c-7.201,-1.61 -14.716,-3.045 -22.367,-3.519c-2.828,0.662 -3.149,1.06 -4.358,2.283c-2.758,6.309 -5.856,14.809 -8.26,13.6c-0.567,-0.147 -1.419,0.172 -1.474,-0.809l-0,-1.275c1.823,-1.728 3.153,-4.211 3.242,-6.816c0.079,-2.734 -1.396,-4.579 -3.721,-5.378c-10.102,-3.492 -23.171,6.669 -29.375,13.733c-3.935,4.446 -13.334,18.367 -9.428,24.225c0.824,1.234 1.884,1.993 3.381,1.756c2.382,-0.349 3.577,-0.135 3.652,1.02c0.102,1.635 -4.019,3.637 -4.833,4.819c-1.023,1.451 -1.474,3.081 -1.749,4.941c-1.702,10.97 8.433,20.113 16.572,24.819c2.339,1.359 4.135,3.563 7.813,3.172c9.241,-8.492 1.46,-13.849 -0.572,-22.184c-1.103,-4.381 1.153,-11.452 2.269,-12.235c0.959,-0.532 1.224,-0.067 1.731,0.224c0.525,2.167 -2.739,5.354 -2.009,9.527c0.586,3.507 2.362,5.703 3.79,8.679c0.697,1.479 0.911,3.162 1.312,4.837c1.209,5.293 -0.531,11.041 1.832,15.664c2.972,5.795 10.185,7.962 15.748,10.167c2.921,1.525 5.846,3.069 8.753,4.595c7.013,3.776 13.641,8.064 17.423,15.45c2.869,5.6 4.887,15.088 1.222,21.115c-2.013,2.177 -4.037,4.354 -6.069,6.53c-4.47,7.144 -7.344,4.53 -7.144,4.493c-0,-0.28 0.381,-1.544 0.381,-1.832c4.744,-2.903 10.204,-10.856 10.204,-16.577l-0.423,-0c-2.776,2.95 -5.567,6.447 -9.111,8.13c-2.581,1.201 -5.604,1.219 -8.739,1.322c-12.515,0.39 -24.24,-4.623 -30.984,-14.595c-1.917,-2.828 -2.614,-6.772 -3.284,-10.195c-0.357,-1.609 -0.088,-3.218 -0.451,-4.819c-0.344,-0.724 -1.172,-1.803 -1.911,-1.999c-2.828,-0.717 -12.855,4.018 -12.948,7.004c-0.093,2.53 2.39,4.595 2.833,7.06c-0.242,-1.489 2.678,6.93 -2.977,6.976c2.697,-5.869 0.371,-8.529 -0.27,-9.766c-0.809,-1.526 -1.684,-2.903 -3.651,-2.735c-2.791,0.241 -12.176,7.944 -14.078,10.427c-3.274,4.242 -0.094,17.757 4.995,18.213c1.339,-0.642 5.748,-6.12 7.078,-5.59c1.675,0.65 -0.794,2.307 -0.953,2.716c-1.465,3.488 -6.005,6.492 -4.628,11.022c1.224,4.028 5.753,8.158 9.372,10.363c1.386,0.623 2.782,1.246 4.163,1.869c0.669,0.558 1.343,1.126 2.008,1.675c1.94,1.432 4.061,2.493 6.28,3.441c6.32,2.689 21.896,5.116 28.063,0.772c2.748,-1.954 3.428,-5.627 4.846,-8.362c0.335,-0.67 3.414,-4.456 3.414,-4.456c1.86,-0.837 1.902,0.372 2.325,0.372c-0.451,3.535 -2.721,4.958 -3.6,8.223c-1.883,6.921 8.13,8.828 13.284,8.828c1,-0.149 1.99,-0.279 2.976,-0.419c2.809,-0.772 5.627,-1.535 8.442,-2.298c4.687,-1.264 9.366,-3.544 13.519,-5.953c17.693,-10.26 30.269,-30.045 28.436,-52.136" style="fill:#9bca40;"/><path d="M468.111,129.394c7.078,7.077 4.585,19.804 -2.698,25.739c-3.065,2.455 -6.957,1.594 -3.772,-0.561c13.26,-6.333 5.883,-20.983 4.958,-22.162c-1.54,-1.504 -2.414,-2.912 -4.023,-3.972c-1.121,-0.744 -1.502,-2.337 -0.442,-3.561c1.688,-0.769 4.209,2.749 5.977,4.517m3.576,-1.556c2.931,1.821 4.488,6.058 4.539,9.725c-0.009,1.435 -0.158,1.763 -1.409,1.712c-1.316,-0.183 -1.632,-3.187 -2.52,-6.27c-0.475,-0.913 -0.945,-1.821 -1.419,-2.737c-0.563,-0.77 -0.958,-2.495 0.809,-2.43m-15.599,79.21c-0.563,1.126 -1.083,5.18 -2.811,3.646c-0.158,-0.976 0.544,-3.767 1.381,-5.283c0.333,-2.54 -0.477,-7.088 0.916,-7.395c3.439,-0.307 1.514,5.469 0.514,9.032m-9.541,5.869c-0.542,0.884 -1.379,3.944 -2.747,3.944c-0.862,-0.52 -0.027,-1.944 0,-1.944c1.473,-4.753 4.356,-8.948 5.642,-13.72c1.009,-3.86 1.328,-7.19 2.535,-10.502c0.637,-0.633 3.092,-1.283 2.444,0.428c-0.6,2.391 -1.646,6.288 -2.949,15.125c-0.398,2.539 -3.597,4.465 -4.925,6.669m-52.894,-35.393c-0.559,1.128 -1.105,0.984 -2.484,1.128c-3.067,0.533 -4.395,0.942 -7.69,1.553c-6.149,1.114 -12.099,3.254 -16.748,7.356c1.063,-0.903 -4.302,4.678 -2.763,0.121c3.242,-5.991 11.781,-7.332 19.908,-9.667c0.626,-0.081 10.797,-4.61 9.777,-0.491m-22.099,16.148c3.865,0.716 -1.702,5.47 -1.967,7.758c-0.226,1.749 -0.491,3.906 -0.159,5.804c1.805,4.065 2.205,5.683 1.512,5.907c-0.821,0.297 -1.619,0.26 -2.23,-0.987c-4.742,-7.115 -0.649,-15.691 2.844,-18.482m-13.839,5.47c-0.958,-0.531 -1.435,-0.726 -3.216,-1.368c-0.491,-0.437 -0.37,-0.893 -0.37,-1.553c0.517,-1.246 1.711,-0.642 3.4,-0.847c3.983,-0.855 3.956,-1.451 8.072,-4.251c1.623,-0.064 4.332,0.195 2.59,2.483c-3.586,4.484 -3.225,7.246 -3.916,9.414c-3.758,0.242 -2.883,-2.353 -6.56,-3.878m28.712,20.454c3.133,-1.433 5.128,2.912 5.418,5.795c0.133,0.661 -0.146,1.07 -0.795,1.293c-0.704,0.093 -0.558,-0.605 -1.914,-2.484c-1.22,-1.711 -3.227,-1.554 -3.548,-2.335c-0.277,-0.679 -0.198,-1.729 0.839,-2.269m22.95,-10.622c0.144,-0.056 0.809,-0.187 1.139,0.195c0.668,0.763 1.835,0.846 2.526,0.985c1.739,0.317 2.258,-0.037 3.307,0.01c2.644,0.121 1.923,3.181 -0.068,7.069c-0.411,0.81 -0.755,2.847 -2.655,1.935c-0.254,-1.396 2.723,-5.069 -0.4,-6.846c-1.768,-0.986 -3.265,-0.604 -4.074,-0.995c-0.733,-0.67 -0.733,-1.777 0.225,-2.353m-40.521,-94.999c-2.577,2.655 -3.706,8.685 -3.969,8.978c-1.793,-0.251 -1.409,-0.559 -1.409,-2.8c-0.079,0.049 0.039,-1.401 7.783,-12.181c0.623,-0.888 0.795,-1.976 1.66,-3.412c0.742,-1.236 -0.425,-3.867 1.672,-4.039c6.349,1.991 -3.439,11.022 -5.737,13.454m-35.976,70.777c-1.754,1.665 -2.352,-0.429 -2.124,-0.429c-0.428,-3.078 1.033,-13.213 -9.576,-19.006c-1.209,-0.662 -3.002,-2.243 -4.451,-2.243c-1.539,-0.891 -0.651,-1.449 0.425,-1.701c11.488,1.475 15.726,12.365 15.726,23.379m-5.526,49.718c-0.533,-3.972 2.005,0.65 4.209,-5.74c0.637,-1.897 -1.607,-5.572 0.891,-5.739c2.258,4.986 1.607,11.479 -5.1,11.479m-9.243,-77.906c5.564,-5.15 5.671,-5.255 7.25,-9.255c0,-0 2.326,-3.269 2.219,0.519c-0.107,3.786 -2.949,5.898 -2.949,5.898l-7.583,6.094c0,-0 -4.502,1.897 1.063,-3.256m221.675,-63.175c-2.084,-3.946 -6.995,-4.434 -10.958,-5.297c2.079,0.518 -9.944,-1.277 -17.943,-1.984c1.041,0.098 -11.813,-0.409 -17.795,0.453c-9.492,1.356 -18.724,3.377 -27.287,6.591c-3.506,1.3 -7.65,2.123 -10.215,5.15c-2.87,3.374 -3.37,8.037 -3.795,12.616c-0.119,1.208 0.649,2.407 -0.053,4.504c-0.998,0.425 -1.858,0.346 -2.417,-0.371c-0.969,-4.051 0.863,-14.223 0.57,-16.681c-0.132,-1.051 -2.455,-1.305 -5.23,-1.051c-3.002,0.256 -5.26,1.37 -8.034,2.156c-4.849,1.353 -10.613,1.872 -15.804,2.134c-4.237,-0.251 -8.46,-0.504 -12.697,-0.758c-1.685,-0.222 -3.572,-1.246 -5.75,-0.501c-3.947,1.326 -0.186,7.673 -1.568,11.087c-2.272,3.665 -4.421,-4.008 -7.929,-7.023c0.239,0.209 -7.649,-7.359 -26.004,-6.762c-9.909,0.304 -59.961,6.762 -63.057,12.445c-0.079,0.145 -0.146,0.305 -0.225,0.451c-0.028,0.119 -0.053,0.238 -0.093,0.345c-0.716,2.923 0.93,6.244 1.607,8.858c0.902,3.534 1.911,7.48 2.509,11.05c0.518,3.225 1.116,6.629 1.368,9.749c0.306,4.038 0.027,10.426 2.218,13.451c0.879,1.196 1.581,0.785 2.976,0.571c2.337,-1.01 2.775,-2.123 3.944,-3.651c1.461,-2.268 2.921,-4.528 4.382,-6.8c0.293,-0.423 0.414,-0.595 1.022,-0.595c0.201,0.132 2.394,4.234 -7.078,13.678c-2.126,2.086 -4.502,2.205 -5.444,5.5c-0.746,2.548 -0.358,5.285 -0.265,8.018c0.012,3.107 0.026,6.232 0.037,9.339c0.2,2.969 0.4,5.965 0.598,8.932c0.149,8.521 -0.291,16.948 0.016,25.506c0.158,4.79 -0.135,9.952 1.314,14.287c1.007,3.042 2.974,6.046 6.202,7.144c3.625,1.218 14.236,2.604 16.548,-1.275c1.342,-2.278 0.756,-6.176 0.809,-9.106c0,-1.154 0.584,-1.814 1.714,-0.856c1.965,4.903 2.67,9.097 5.299,10.149c1.74,0.688 4.091,0.474 6.175,0.474c2.404,-1.619 5.099,-1.898 5.392,-5.535c0.491,-6.278 -2.748,-9.599 -4.874,-14.492c-1.209,-2.763 -2.218,-6.157 -2.523,-9.283c-0.318,-0.903 -0.637,-1.786 -0.969,-2.689c-1.686,-7.347 -0.57,-15.886 -2.472,-23.137c-0.663,-1.689 -1.326,-3.374 -1.991,-5.075c-1.023,-1.671 -3.188,-3.555 -3.188,-5.655l0.426,-0l0,-0.426c1.155,-0.2 2.669,0.356 3.148,-0.825c1.023,-2.574 0.198,-8.447 0.307,-11.499c0.223,-7.623 5.283,-21.092 -6.444,-21.637c-0.823,-0.042 -4.023,0.638 -4.86,-0.781c-0.891,-1.835 6.148,-1.406 6.148,-1.384c2.272,0.387 4.542,0.77 6.814,1.143c6.8,0.65 16.773,-0.503 21.594,-4.195c3.812,-2.933 3.174,-9.363 4.795,-13.495c0.082,-0.212 1.472,-3.786 2.695,-2.721c0.77,0.558 0.437,2.122 -1.406,4.501c-0.505,0.652 -0.361,2.536 -0.226,4.556c0.158,2.565 1.181,5.138 2.151,7.012c2.96,5.751 11.367,7.295 10.095,15.42c-0.214,1.074 -0.428,2.149 -0.64,3.228c-3.518,7.953 -13.667,8.032 -21.154,9.838c-4.651,1.116 -10.918,4.449 -13.695,8.582c-1.658,2.429 -2.204,5.416 -2.377,8.604c-1.062,19.008 9.933,34.411 21.901,47.201c5.337,5.712 11.5,12.447 18.886,14.967c1.871,0.642 4.236,0.81 4.966,0.019c0.861,-2.149 -1.553,-3.201 -1.674,-5.516c0.121,-1.153 -0.397,-2.103 1.249,-3.098c3.002,0.056 2.218,4.531 7.648,4.623c7.958,0.13 17.65,-14.901 21.185,-20.808c0.981,-1.647 1.633,-2.698 0.491,-5.06c-0.849,-1.386 -7.955,-0.781 -13.455,-3.683c-8.258,-4.344 -13.346,-13.228 -23.134,-14.818c-3.306,-0.549 -7.16,-0.298 -9.63,1.283c-2.999,1.916 -3.597,2.689 -4.78,1.489c1.939,-7.312 22.842,-9.958 34.384,-12.827c11.382,-3.598 20.812,-12.444 22.021,-25.009c1.14,-12.073 -6.655,-19.837 -13.692,-27.821c-1.344,-1.195 -2.685,-2.379 -4.037,-3.574c-5.979,-4.303 -5.102,-4.793 -3.946,-5.137c1.077,-0 6.188,3.532 7.039,4.009c2.921,1.778 5.844,3.56 8.765,5.337c1.897,1.316 3.918,2.845 5.818,4.146c4.474,2.204 14.115,0.635 17.755,-0.319c7.355,-2.669 5.576,2.908 4.581,9.351c-0.612,3.986 -0.956,7.849 -1.17,10.625c-0.107,1.393 -0.146,2.656 0.626,3.663c1.432,1.886 4.83,1.86 7.271,1.86c2.923,0.811 -0.316,3.399 -1.695,3.399c-2.114,0.347 -5.976,0.374 -6.981,2.379c-2.446,4.768 -1.423,11.489 -2.06,17.146c-0.942,8.102 -1.819,16.548 -3.135,24.715c-0.702,4.288 -1.686,8.483 -1.818,13.134c-0.082,2.121 -0.2,4.446 1.288,5.842c4.051,3.767 11.655,1.116 15.25,0.53c13.097,-3.944 16.339,-3.293 23.376,-4.67c3.804,-1.144 5.888,-1.293 7.561,-3.283c2.322,-2.827 -0.906,-15.19 -1.529,-20.111c-0.479,-3.711 -0.609,-7.599 -1.661,-10.929c-0.781,-2.386 -0.888,-3.265 -2.47,-4.206c-0.795,-0.48 -4.874,0.264 -10.441,-0.443c-0.846,-0.341 -0.637,-1.907 1.144,-2.025c1.131,-0 2.419,0.065 3.815,-0.072c2.906,-0.662 6.115,-2.96 7.989,-6.676c1.187,-2.379 1.293,-4.611 1.689,-7.482c-0.703,3.963 1.237,-13.873 1.595,-26.797c1.354,-14.742 -1.353,-14.224 -2.67,-16.323c-1.525,-3.31 -1.841,-7.611 -5.116,-9.893c-3.199,-2.246 -15.738,-0.492 -16.812,-4.05c-0.224,-0.759 0.311,-1.742 2.032,-1.608c5.302,3.451 10.135,0.572 14.465,2.507c5.576,2.5 5.431,9.522 10.77,12.473c3.029,1.675 6.707,1.769 10.451,2.127c3.73,0.343 7.395,1.088 11.028,1.751c4.394,0.796 8.603,2.15 12.785,3.495c5.325,2.125 6.599,3.276 9.883,2.838c2.735,-2.799 5.274,-21.354 6.269,-29.43c0.224,-1.991 0.33,-5.695 -0.483,-7.223" style="fill:#9bca40;"/><path d="M531.214,65.076l4.651,-0.005l-1.092,-11.453l-3.559,11.458Z" style="fill:#ec1c24;"/><path d="M528.484,73.867l-0.475,1.535c3.224,0.424 6.13,0.948 8.489,1.59c0.172,0.059 0.343,0.117 0.515,0.176l-0.316,-3.306l-8.213,0.005Z" style="fill:#ec1c24;"/><path d="M308.086,65.435l8.174,-0.008l-8.174,-16.043l-0,16.051Z" style="fill:#ec1c24;"/><path d="M776.241,80.65l-11.255,0.142l2.237,-7.363l-11.739,0l-5.571,7.221l-12.056,0.003l36.207,-46.919l16.418,0l-14.241,46.916Zm-62.461,-5.746l4.883,-10.791c5.683,11.7 11.93,1.933 11.93,1.933l14.65,-32.312l12.265,0l-17.715,38.687c0,0 -1.158,1.653 -1.931,2.483c-11.474,12.267 -24.082,0 -24.082,0m-16.566,5.746l-2.795,-21.308l-7.098,21.308l-11.985,0l15.622,-46.916l11.074,0l3.349,22.301l7.394,-22.301l11.93,0l-15.553,46.916l-11.938,0Zm-39.519,0l14.208,-46.916l10.902,0l-14.209,46.916l-10.901,0Zm-16.371,-0.076l-4.386,-19.735l-5.232,19.811l-11.297,0l12.385,-46.913l12.046,-0.025l4.562,20.542l6.288,-20.517l10.497,-0.066l-14.418,46.982l-10.445,-0.079Zm-24.004,-37.257l-9.218,0l-6.683,37.55l-11.078,-0.332l6.618,-37.218l-7.572,0l1.447,-9.583l27.933,0l-1.447,9.583Zm-36.899,37.336l-9.888,-0.079l-6.907,-19.735l-2.176,19.811l-10.688,0l5.163,-46.913l11.38,-0.025l7.181,20.542l3.083,-20.517l9.911,-0.066l-7.059,46.982Zm-128.133,-0.003l-11.776,0l0,-20.171l-8.48,20.171l-8.739,-20.171l0,20.171l-11.781,0l0,-46.916l12.713,0.023l7.949,19.632l7.573,-19.646l12.541,-0.009l0,46.916Zm-77.995,0l-8.295,-46.916l27.75,0l1.416,9.583l-15.109,0l1.368,7.986l13.685,0l0.819,8.383l-13.067,0l2.023,11.781l14.255,0l1.535,9.183l-26.38,0Zm-31.649,-2.551c-12.115,-8.432 -16.667,-23.56 -10.088,-34.637c1.914,-3.21 9.195,-12.086 22.704,-7.956l3.537,11.278c-10.051,-5.838 -14.702,0.63 -15.902,2.839c-3.463,6.378 -1.067,15.089 5.307,19.942c2.795,1.702 5.765,2.515 8.516,2.485l0.002,0l-3.277,-14.245l10.888,0.191l5.058,21.963c0,0 -17.443,3.329 -26.745,-1.86m-18.625,2.56l-3.562,-6.992l-12.371,0.011l0,6.972l-10.686,0l0,-46.916l14.701,-0.002l23.836,46.918l-11.918,0.009Zm-38.751,0l-1.278,-1.651l-0.126,0.038l-0.086,-0.311l-17.834,-23.002l9.06,24.96l-11.734,-0.039l-16.971,-46.771l15.115,-0.146l15.457,19.935l-5.451,-19.773l10.651,0.014l13.085,46.737l-9.888,0.009Zm-53.88,-0.009l-20.953,-46.916l28.72,0l3.988,9.583l-15.636,0l3.525,7.986l14.162,0l3.058,8.383l-13.523,0l5.198,11.781l14.75,0l4.009,9.183l-27.298,0Zm-33.017,0l-23.501,-46.916l28.829,0l4.511,9.583l-15.699,0l3.956,7.986l14.22,0l3.511,8.383l-13.576,0l5.837,11.781l14.811,0l4.507,9.183l-27.406,0Zm-28.093,0l-21.765,-37.333l-8.183,0l-6.19,-9.583l35.14,0l6.186,9.583l-12.776,0l20.964,37.333l-13.376,0Zm-49.967,-57.405l42.486,67.267l161.743,0.201c0,0 54.109,-14.454 72.249,-1.28c0.784,-0.198 2.617,-1.949 4.303,-2.282c2.378,-0.495 4.569,0.333 6.734,0.584c5.086,0.558 9.988,0.852 15.313,0.852c1.554,-0.149 3.121,-0.284 4.674,-0.425c1.317,-0.533 3.123,-0.427 4.677,-0.427c0.995,-0.146 1.99,-0.279 2.972,-0.427c0.997,-0.145 1.995,-0.278 2.974,-0.424c2.579,-1.592 6.839,-2.522 10.185,-2.47c2.033,0.027 3.928,0.666 5.921,0.2c5.593,-1.794 11.178,-3.588 16.768,-5.392c-6.757,-1.174 -11.924,-6.518 -12.31,-13.048l-0.042,0l0,-32.44l10.962,0l-0.005,32.44c0.331,1.817 2.033,3.205 4.107,3.205c2.307,0 4.177,-1.716 4.177,-3.833l0.093,-31.812l10.962,0l0,32.44l-0.037,0c-0.243,3.972 -2.251,7.49 -5.302,9.916c5.009,-0.823 10.492,-1.368 16.068,-1.638l0.879,-31.135l-7.892,0l0,-9.583l29.124,0l0,9.583l-9.609,0l-0.875,30.966c1.838,0.03 3.647,0.085 5.419,0.169l12.646,-40.718l14.669,0l4.455,46.916l-3.26,0c0.889,0.521 1.771,1.046 2.655,1.56c1.428,0.384 2.968,0.025 4.544,0.054c1.837,0.183 3.665,0.372 5.502,0.557c4.67,1.25 9.349,2.499 14.022,3.731c1.452,0.426 2.898,0.865 4.331,1.288c2.949,0.401 5.66,-1.22 8.845,-0.742c4,1.128 11.982,3.375 11.982,3.375l180.11,-0.24l40.895,-66.87l-698.114,-0.118Z" style="fill:#ec1c24;"/><path d="M769.567,65.705l5.265,-17.344l-13.385,17.344l8.12,-0Z" style="fill:#ec1c24;"/><path d="M886.133,160.98c0.786,-0 1.335,0.128 1.646,0.389c0.312,0.256 0.47,0.611 0.47,1.062c-0,0.537 -0.158,0.946 -0.484,1.231c-0.32,0.288 -0.893,0.43 -1.716,0.43l-0.623,-0l-0,-3.112l0.707,-0Zm-0.707,5.533c0.888,-0 1.497,0.07 1.828,0.209c0.33,0.137 0.581,0.366 0.744,0.679c0.125,0.23 0.199,0.734 0.237,1.521c0.038,0.784 0.107,1.328 0.21,1.633l3.417,-0c-0.083,-0.233 -0.129,-0.387 -0.139,-0.471c-0.019,-0.139 -0.032,-0.416 -0.042,-0.829c-0.037,-1.07 -0.13,-1.836 -0.278,-2.298c-0.145,-0.463 -0.452,-0.868 -0.913,-1.226c-0.46,-0.354 -1,-0.563 -1.618,-0.628c0.977,-0.083 1.711,-0.384 2.2,-0.897c0.489,-0.516 0.735,-1.209 0.735,-2.08c-0,-1.085 -0.367,-1.947 -1.107,-2.585c-0.74,-0.635 -1.963,-0.953 -3.67,-0.953l-5.143,-0l-0.028,11.967l3.567,-0l-0,-4.042Zm11.125,-6.363c-0.48,-1.125 -1.177,-2.16 -2.098,-3.107c-0.916,-0.943 -2.042,-1.727 -3.367,-2.348c-1.33,-0.626 -2.8,-0.935 -4.414,-0.935c-1.65,-0 -3.218,0.358 -4.702,1.078c-1.079,0.517 -2.078,1.226 -2.99,2.125c-0.911,0.897 -1.66,2.01 -2.246,3.331c-0.586,1.326 -0.879,2.749 -0.879,4.27c-0,1.649 0.362,3.223 1.079,4.716c0.515,1.07 1.222,2.061 2.13,2.977c0.902,0.914 2.018,1.656 3.339,2.239c1.326,0.582 2.744,0.872 4.255,0.872c1.652,-0 3.209,-0.355 4.674,-1.064c1.14,-0.545 2.182,-1.298 3.135,-2.263c0.954,-0.966 1.698,-2.105 2.228,-3.424c0.53,-1.32 0.795,-2.674 0.795,-4.066c-0,-1.496 -0.311,-2.962 -0.939,-4.401m-6.632,-3.672c1.056,0.431 1.967,1.026 2.739,1.791c0.767,0.765 1.376,1.605 1.819,2.516c0.571,1.193 0.855,2.449 0.855,3.779c-0,1.512 -0.386,2.963 -1.153,4.351c-0.773,1.389 -1.842,2.468 -3.214,3.235c-1.367,0.772 -2.8,1.156 -4.293,1.156c-1.483,-0 -2.911,-0.384 -4.283,-1.156c-1.367,-0.767 -2.442,-1.846 -3.214,-3.235c-0.771,-1.388 -1.163,-2.839 -1.163,-4.351c-0,-1.291 0.252,-2.47 0.754,-3.535c0.507,-1.065 1.126,-1.966 1.874,-2.706c0.749,-0.735 1.558,-1.303 2.437,-1.7c1.172,-0.526 2.368,-0.789 3.595,-0.789c1.107,-0 2.19,0.214 3.247,0.644" style="fill:#231f20;"/></g></svg>