<?xml version="1.0" encoding="UTF-8" standalone="no"?>
<!DOCTYPE svg PUBLIC "-//W3C//DTD SVG 1.1//EN" "http://www.w3.org/Graphics/SVG/1.1/DTD/svg11.dtd">
<svg width="100%" height="100%" viewBox="0 0 262 83" version="1.1" xmlns="http://www.w3.org/2000/svg" xmlns:xlink="http://www.w3.org/1999/xlink" xml:space="preserve" xmlns:serif="http://www.serif.com/" style="fill-rule:evenodd;clip-rule:evenodd;">
    <g transform="matrix(1,0,0,1,1.65577,-54.5406)">
        <path d="M6.23,71.06C9.457,75.46 12.077,80.08 14.09,84.92" style="fill:none;fill-rule:nonzero;stroke:rgb(152,137,139);stroke-width:2px;"/>
        <path d="M14.09,84.92L16.5,91.51" style="fill:none;fill-rule:nonzero;stroke:rgb(195,160,143);stroke-width:2px;"/>
        <path d="M16.5,91.51C16.36,91.943 16.227,92.24 16.1,92.4C16.033,92.487 15.78,92.493 15.34,92.42C14.513,92.28 13.563,92.24 12.49,92.3" style="fill:none;fill-rule:nonzero;stroke:rgb(232,173,156);stroke-width:2px;"/>
        <path d="M12.49,92.3C12.123,92.313 11.947,92.75 11.96,93.61C11.96,94.023 12.083,94.447 12.33,94.88C13.257,96.54 14.143,98.237 14.99,99.97C15.15,100.297 15.413,100.443 15.78,100.41L17.87,100.21C18.243,100.17 18.487,100.327 18.6,100.68L19.37,102.99" style="fill:none;fill-rule:nonzero;stroke:rgb(152,137,139);stroke-width:2px;"/>
        <path d="M19.37,102.99L21.48,113.3" style="fill:none;fill-rule:nonzero;stroke:rgb(195,160,143);stroke-width:2px;"/>
        <path d="M21.48,113.3C21.327,113.627 21.327,114.11 21.48,114.75C21.6,115.25 21.41,115.457 20.91,115.37C17.583,114.79 15.077,115.217 13.39,116.65" style="fill:none;fill-rule:nonzero;stroke:rgb(232,173,156);stroke-width:2px;"/>
        <path d="M13.39,116.65C15.34,117.98 22.93,121.52 22.93,122.05" style="fill:none;fill-rule:nonzero;stroke:rgb(195,160,143);stroke-width:2px;"/>
        <path d="M22.93,122.05L24.29,132.17C24.306,132.366 24.472,132.519 24.669,132.519C24.847,132.519 25.002,132.394 25.04,132.22L27.59,122.87" style="fill:none;fill-rule:nonzero;stroke:rgb(232,173,156);stroke-width:2px;"/>
        <path d="M27.59,122.87C36.46,124.31 44.91,123.08 46.61,112.96" style="fill:none;fill-rule:nonzero;stroke:rgb(152,137,139);stroke-width:2px;"/>
        <path d="M46.61,112.96C49.91,94.24 27.06,75.9 12.24,67.18C11.927,66.993 11.697,66.733 11.55,66.4C9.99,62.84 7.44,60.29 3.9,58.75C3.771,58.693 3.631,58.664 3.489,58.664C2.943,58.664 2.488,59.103 2.47,59.65C2.457,59.89 2.493,60.173 2.58,60.5C2.647,60.78 2.797,61.08 3.03,61.4C5.197,64.34 6.263,67.56 6.23,71.06" style="fill:none;fill-rule:nonzero;stroke:rgb(232,173,156);stroke-width:2px;"/>
        <path d="M46.61,112.96C46.023,113.72 45.563,114.543 45.23,115.43C42.63,122.29 34.64,123.14 28.48,121.37C28.14,121.277 27.873,121.377 27.68,121.67C27.4,122.103 27.37,122.503 27.59,122.87" style="fill:none;fill-rule:nonzero;stroke:rgb(129,55,39);stroke-width:2px;"/>
        <path d="M22.93,122.05C23.65,121.83 23.673,121.313 23,120.5C21.513,118.707 18.31,117.423 13.39,116.65M21.48,113.3C21.507,109.847 20.89,106.237 19.63,102.47" style="fill:none;fill-rule:nonzero;stroke:rgb(172,77,44);stroke-width:2px;"/>
        <path d="M19.63,102.47C19.697,99.937 18.52,98.867 16.1,99.26C15.767,99.313 15.5,99.207 15.3,98.94C13.713,96.887 12.777,94.673 12.49,92.3" style="fill:none;fill-rule:nonzero;stroke:rgb(129,55,39);stroke-width:2px;"/>
        <path d="M16.5,91.51C16.32,89.25 15.627,87.03 14.42,84.85" style="fill:none;fill-rule:nonzero;stroke:rgb(172,77,44);stroke-width:2px;"/>
        <path d="M14.42,84.85C13.027,78.85 10.297,74.253 6.23,71.06" style="fill:none;fill-rule:nonzero;stroke:rgb(129,55,39);stroke-width:2px;"/>
        <path d="M14.42,84.85C14.373,84.823 14.263,84.847 14.09,84.92M19.63,102.47L19.37,102.99" style="fill:none;fill-rule:nonzero;stroke:rgb(92,42,27);stroke-width:2px;"/>
        <path d="M158.96,122.46C158.733,123.2 158.703,123.793 158.87,124.24C159.023,124.673 159.273,124.74 159.62,124.44C162.84,121.65 167.94,118.99 171.37,122.57C171.597,122.803 171.863,122.867 172.17,122.76L183.89,118.78C184.21,118.668 184.425,118.365 184.42,118.03L184.41,117.1C184.408,116.586 183.984,116.164 183.47,116.164C183.372,116.164 183.274,116.18 183.18,116.21C181.173,116.85 179.123,116.913 177.03,116.4" style="fill:none;fill-rule:nonzero;stroke:rgb(132,129,131);stroke-width:2px;"/>
        <path d="M177.03,116.4C174.06,115.59 170.77,114.32 167.74,114C167.067,113.933 166.63,113.6 166.43,113C164.54,107.39 165.12,102.59 166.18,95.47C167.66,85.57 164.97,77.27 166.83,66.37C166.868,66.16 166.818,65.943 166.69,65.77L162.83,60.49C162.737,60.356 162.583,60.275 162.419,60.275C162.145,60.275 161.919,60.501 161.919,60.775C161.919,60.784 161.92,60.792 161.92,60.8C162.18,69.48 161.343,78.043 159.41,86.49C158.51,90.43 160.15,93.31 159.37,97.3C157.763,105.567 157.627,113.953 158.96,122.46" style="fill:none;fill-rule:nonzero;stroke:rgb(232,173,156);stroke-width:2px;"/>
        <path d="M177.03,116.4C176.597,116.5 176.433,116.833 176.54,117.4C176.599,117.69 176.864,117.896 177.16,117.88L183.59,117.44C183.803,117.427 183.873,117.52 183.8,117.72C183.68,118.053 183.41,118.247 182.99,118.3C179.19,118.773 175.78,119.93 172.76,121.77C172.473,121.95 172.2,121.927 171.94,121.7C167.48,117.81 163.37,120.65 158.96,122.46" style="fill:none;fill-rule:nonzero;stroke:rgb(109,47,31);stroke-width:2px;"/>
        <path d="M228.28,102.61C229.773,105.737 231.787,108.33 234.32,110.39" style="fill:none;fill-rule:nonzero;stroke:rgb(152,137,139);stroke-width:2px;"/>
        <path d="M234.32,110.39L231.35,115.79C231.213,116.04 230.95,116.195 230.666,116.195C230.442,116.195 230.228,116.098 230.08,115.93C227.433,112.963 225.513,109.587 224.32,105.8C224.247,105.58 224.177,105.583 224.11,105.81C223.023,109.463 222.953,112.913 223.9,116.16" style="fill:none;fill-rule:nonzero;stroke:rgb(232,173,156);stroke-width:2px;"/>
        <path d="M223.9,116.16C225.1,119.02 226.683,121.533 228.65,123.7C230.21,125.41 230.47,127.03 231.19,129.12C231.323,129.52 231.47,129.523 231.63,129.13C233.177,125.337 236.057,122.457 240.27,120.49" style="fill:none;fill-rule:nonzero;stroke:rgb(152,137,139);stroke-width:2px;"/>
        <path d="M240.27,120.49C240.877,115.343 242.033,110.64 243.74,106.38C243.741,106.377 243.742,106.374 243.744,106.371C244.075,105.517 243.649,104.543 242.8,104.214C242.797,104.212 242.793,104.211 242.79,104.21C238.27,102.49 234.67,99.12 234,94.07" style="fill:none;fill-rule:nonzero;stroke:rgb(232,173,156);stroke-width:2px;"/>
        <path d="M234,94.07C235.52,88.883 238.377,84.777 242.57,81.75" style="fill:none;fill-rule:nonzero;stroke:rgb(152,137,139);stroke-width:2px;"/>
        <path d="M242.57,81.75L241.77,87.98" style="fill:none;fill-rule:nonzero;stroke:rgb(232,173,156);stroke-width:2px;"/>
        <path d="M241.77,87.98C241.29,91.92 241.437,95.723 242.21,99.39C242.245,99.539 242.379,99.645 242.531,99.645C242.68,99.645 242.811,99.544 242.85,99.4C245.15,90.39 247.42,80.54 253.27,73.01" style="fill:none;fill-rule:nonzero;stroke:rgb(195,160,143);stroke-width:2px;"/>
        <path d="M253.27,73.01C251.72,69.66 254.17,65.35 255.34,62.07C255.376,61.971 255.394,61.866 255.394,61.761C255.394,61.262 254.983,60.851 254.484,60.851C254.301,60.851 254.121,60.906 253.97,61.01C249.47,64.02 246.34,68.24 241.88,71.68C233.09,78.47 225.44,91.18 228.28,102.61" style="fill:none;fill-rule:nonzero;stroke:rgb(232,173,156);stroke-width:2px;"/>
        <path d="M253.27,73.01C250.07,75.43 247.997,78.607 247.05,82.54C246.817,83.52 246.49,84.34 246.07,85C245.783,85.457 245.565,85.819 245.574,85.825C245.575,85.825 245.577,85.824 245.58,85.82C245.153,87.013 244.86,88.207 244.7,89.4C244.692,89.756 244.396,90.045 244.04,90.045C243.678,90.045 243.38,89.747 243.38,89.385C243.38,89.38 243.38,89.375 243.38,89.37C243.3,88.503 242.763,88.04 241.77,87.98" style="fill:none;fill-rule:nonzero;stroke:rgb(172,77,44);stroke-width:2px;"/>
        <path d="M242.57,81.75L244.1,79.29C244.109,79.276 244.114,79.259 244.114,79.242C244.114,79.193 244.073,79.152 244.024,79.152C244.004,79.152 243.986,79.158 243.97,79.17C238.177,83.137 234.853,88.103 234,94.07M240.27,120.49C236.45,120.81 233.71,122.933 232.05,126.86C231.996,126.984 231.873,127.064 231.738,127.064C231.628,127.064 231.524,127.011 231.46,126.92L223.9,116.16M234.32,110.39L228.28,102.61" style="fill:none;fill-rule:nonzero;stroke:rgb(129,55,39);stroke-width:2px;"/>
        <path d="M85.66,88.24L88,99.56" style="fill:none;fill-rule:nonzero;stroke:rgb(195,160,143);stroke-width:2px;"/>
        <path d="M88,99.56L88.87,113.65C88.872,113.685 88.873,113.719 88.873,113.754C88.873,114.719 88.079,115.514 87.113,115.514C86.354,115.514 85.676,115.022 85.44,114.3L84.24,110.6C84.156,110.361 83.99,110.159 83.77,110.03C81.55,108.75 79.583,107.07 77.87,104.99" style="fill:none;fill-rule:nonzero;stroke:rgb(232,173,156);stroke-width:2px;"/>
        <path d="M77.87,104.99C81.403,104.597 83.44,102.91 83.98,99.93" style="fill:none;fill-rule:nonzero;stroke:rgb(132,129,131);stroke-width:2px;"/>
        <path d="M83.98,99.93C86.41,87.32 75.33,82.27 64.81,81.25C64.497,81.217 64.217,81.297 63.97,81.49C62.577,82.557 61.567,83.987 60.94,85.78" style="fill:none;fill-rule:nonzero;stroke:rgb(232,173,156);stroke-width:2px;"/>
        <path d="M60.94,85.78C60.72,85.973 60.66,86.203 60.76,86.47C60.853,86.723 61.037,86.87 61.31,86.91L62.74,87.13C63.147,87.19 63.43,87.41 63.59,87.79L66.8,95.55" style="fill:none;fill-rule:nonzero;stroke:rgb(152,137,139);stroke-width:2px;"/>
        <path d="M66.8,95.55C64.767,96.323 64.113,97.187 64.84,98.14" style="fill:none;fill-rule:nonzero;stroke:rgb(232,173,156);stroke-width:2px;"/>
        <path d="M64.84,98.14C66.413,99.347 67.517,100.603 68.15,101.91" style="fill:none;fill-rule:nonzero;stroke:rgb(152,137,139);stroke-width:2px;"/>
        <path d="M68.15,101.91C68.497,107.217 68.213,112.38 67.3,117.4" style="fill:none;fill-rule:nonzero;stroke:rgb(232,173,156);stroke-width:2px;"/>
        <path d="M67.3,117.4C69.287,119.867 70.73,122.403 71.63,125.01C71.87,125.723 72.047,125.707 72.16,124.96L72.48,122.89C72.533,122.563 72.663,122.27 72.87,122.01C73.83,120.797 74.383,119.44 74.53,117.94" style="fill:none;fill-rule:nonzero;stroke:rgb(152,137,139);stroke-width:2px;"/>
        <path d="M74.53,117.94C74.297,114.84 74.047,111.693 73.78,108.5C73.767,108.293 73.927,108.2 74.26,108.22" style="fill:none;fill-rule:nonzero;stroke:rgb(232,173,156);stroke-width:2px;"/>
        <path d="M74.26,108.22L80.02,117.32C80.19,117.579 80.469,117.748 80.78,117.78C82.927,117.967 84.747,118.82 86.24,120.34C86.502,120.608 86.643,120.973 86.63,121.35C86.59,122.817 86.21,124.447 85.49,126.24C85.323,126.647 85.437,126.91 85.83,127.03C86.143,127.13 86.393,127.043 86.58,126.77C88.99,123.24 91.82,118.56 96.03,119.59C96.106,119.608 96.183,119.617 96.261,119.617C96.804,119.617 97.251,119.17 97.251,118.627C97.251,118.612 97.251,118.596 97.25,118.58C97.243,118.453 97.05,118.293 96.67,118.1" style="fill:none;fill-rule:nonzero;stroke:rgb(152,137,139);stroke-width:2px;"/>
        <path d="M96.67,118.1C95.317,111.013 94.43,103.88 94.01,96.7" style="fill:none;fill-rule:nonzero;stroke:rgb(232,173,156);stroke-width:2px;"/>
        <path d="M94.01,96.7C95.803,98.213 97.153,99.97 98.06,101.97" style="fill:none;fill-rule:nonzero;stroke:rgb(132,129,131);stroke-width:2px;"/>
        <path d="M98.06,101.97L99.34,106.8C99.42,107.113 99.54,107.41 99.7,107.69C102.35,112.36 103.9,119.06 109.71,121.96C110.017,122.113 110.293,122.077 110.54,121.85C111.28,121.177 111.223,120.437 110.37,119.63" style="fill:none;fill-rule:nonzero;stroke:rgb(195,160,143);stroke-width:2px;"/>
        <path d="M110.37,119.63C108.7,116.9 106.62,114.72 105.77,111.57C104.663,107.463 103.84,103.297 103.3,99.07C102.82,95.3 100.01,93.18 97.18,90.98" style="fill:none;fill-rule:nonzero;stroke:rgb(232,173,156);stroke-width:2px;"/>
        <path d="M97.18,90.98C99.567,87.58 102.117,85.12 104.83,83.6C105.117,83.44 105.333,83.213 105.48,82.92C109.37,74.94 116.61,69.93 123.58,65.38" style="fill:none;fill-rule:nonzero;stroke:rgb(152,137,139);stroke-width:2px;"/>
        <path d="M123.58,65.38C124.327,65.047 124.733,64.79 124.8,64.61C124.854,64.475 124.881,64.331 124.881,64.185C124.881,63.554 124.362,63.035 123.731,63.035C123.612,63.035 123.494,63.054 123.38,63.09C109.63,67.53 100.28,76.89 92.63,88.31C92.023,89.21 91.633,89.123 91.46,88.05L88.18,67.93C88.127,67.603 88.007,67.307 87.82,67.04L84.14,61.77C83.913,61.443 83.797,61.48 83.79,61.88C83.57,70.78 84.193,79.567 85.66,88.24" style="fill:none;fill-rule:nonzero;stroke:rgb(232,173,156);stroke-width:2px;"/>
        <path d="M123.58,65.38C123.12,64.807 122.523,64.787 121.79,65.32C114.66,70.48 109.54,74.19 104.95,81.99C104.777,82.283 104.54,82.513 104.24,82.68C100.9,84.533 98.547,87.3 97.18,90.98" style="fill:none;fill-rule:nonzero;stroke:rgb(129,55,39);stroke-width:2px;"/>
        <path d="M110.37,119.63C110.097,121.65 108.897,121.357 106.77,118.75C103.323,114.51 100.517,108.767 98.35,101.52" style="fill:none;fill-rule:nonzero;stroke:rgb(172,77,44);stroke-width:2px;"/>
        <path d="M98.35,101.52C97.357,99.26 96.03,97.34 94.37,95.76C94.077,95.48 93.873,95.533 93.76,95.92C93.693,96.133 93.777,96.393 94.01,96.7" style="fill:none;fill-rule:nonzero;stroke:rgb(109,47,31);stroke-width:2px;"/>
        <path d="M96.67,118.1C92.857,117.88 90.09,119.587 88.37,123.22C88.332,123.299 88.273,123.366 88.199,123.414C87.986,123.549 87.702,123.49 87.569,123.281C87.521,123.207 87.497,123.119 87.5,123.03L87.5,120.49C87.5,120.137 87.367,119.847 87.1,119.62C85.227,118.033 83.077,117.043 80.65,116.65C80.317,116.593 80.031,116.382 79.88,116.08C78.4,113.167 76.7,110.387 74.78,107.74C74.722,107.662 74.641,107.606 74.55,107.58C73.577,107.273 73.48,107.487 74.26,108.22M74.53,117.94L72.31,120.91C72.152,121.122 71.902,121.247 71.637,121.247C71.351,121.247 71.084,121.101 70.93,120.86C70.063,119.507 68.853,118.353 67.3,117.4M68.15,101.91C68.377,100.69 67.89,99.563 66.69,98.53" style="fill:none;fill-rule:nonzero;stroke:rgb(129,55,39);stroke-width:2px;"/>
        <path d="M66.69,98.53C67.11,97.917 67.143,97.363 66.79,96.87C66.59,96.583 66.32,96.47 65.98,96.53C65.3,96.643 64.92,97.18 64.84,98.14" style="fill:none;fill-rule:nonzero;stroke:rgb(211,98,60);stroke-width:2px;"/>
        <path d="M66.8,95.55L63.84,86.82C63.728,86.504 63.458,86.268 63.13,86.2L60.94,85.78" style="fill:none;fill-rule:nonzero;stroke:rgb(129,55,39);stroke-width:2px;"/>
        <path d="M83.98,99.93C82.433,102.437 80.28,103.75 77.52,103.87C77.04,103.89 76.967,104.07 77.3,104.41L77.87,104.99" style="fill:none;fill-rule:nonzero;stroke:rgb(109,47,31);stroke-width:2px;"/>
        <path d="M88,99.56C88.18,95.607 87.4,91.833 85.66,88.24" style="fill:none;fill-rule:nonzero;stroke:rgb(172,77,44);stroke-width:2px;"/>
        <path d="M66.69,98.53C66.23,98.183 65.613,98.053 64.84,98.14" style="fill:none;fill-rule:nonzero;stroke:rgb(131,63,43);stroke-width:2px;"/>
        <path d="M98.35,101.52C98.257,101.853 98.16,102.003 98.06,101.97" style="fill:none;fill-rule:nonzero;stroke:rgb(71,34,19);stroke-width:2px;"/>
        <path d="M169.13,111.64L169.05,112.75C168.997,113.383 169.213,113.493 169.7,113.08C171.6,111.467 173.807,110.883 176.32,111.33C176.34,111.334 176.36,111.336 176.38,111.338C176.67,111.36 176.927,111.135 176.949,110.839C176.95,110.82 176.951,110.8 176.95,110.78C176.937,110.447 176.817,110.153 176.59,109.9" style="fill:none;fill-rule:nonzero;stroke:rgb(132,129,131);stroke-width:2px;"/>
        <path d="M176.59,109.9L176.07,94.91" style="fill:none;fill-rule:nonzero;stroke:rgb(232,173,156);stroke-width:2px;"/>
        <path d="M176.07,94.91C179.33,97.157 181.393,100.383 182.26,104.59" style="fill:none;fill-rule:nonzero;stroke:rgb(195,160,143);stroke-width:2px;"/>
        <path d="M182.26,104.59L182.9,110.71" style="fill:none;fill-rule:nonzero;stroke:rgb(232,173,156);stroke-width:2px;"/>
        <path d="M182.9,110.71C183.487,112.883 184.787,115.043 186.8,117.19C188.473,118.97 190.187,120.283 191.94,121.13C192.373,121.337 192.54,121.207 192.44,120.74C192.32,120.167 192.15,119.76 191.93,119.52" style="fill:none;fill-rule:nonzero;stroke:rgb(152,137,139);stroke-width:2px;"/>
        <path d="M191.93,119.52C189.28,114.14 187.28,108.76 187.96,102.89C188.507,98.15 186.667,94.08 182.44,90.68" style="fill:none;fill-rule:nonzero;stroke:rgb(232,173,156);stroke-width:2px;"/>
        <path d="M182.44,90.68L187.87,87.76C188.143,87.613 188.333,87.393 188.44,87.1C190.5,81.46 195.9,78.39 202.32,73.66" style="fill:none;fill-rule:nonzero;stroke:rgb(152,137,139);stroke-width:2px;"/>
        <path d="M202.32,73.66C203.6,73.48 204.47,72.82 204.93,71.68C205.11,71.227 204.96,71.03 204.48,71.09C193.06,72.53 184.45,80.69 176.89,88.61C176.837,88.668 176.773,88.715 176.701,88.748C176.398,88.888 176.03,88.751 175.887,88.442C175.855,88.372 175.835,88.297 175.83,88.22C175.54,82.88 175.84,73.47 172.84,68.98C172.75,68.841 172.595,68.757 172.429,68.757C172.171,68.757 171.954,68.962 171.94,69.22C171.287,77.253 171.053,85.3 171.24,93.36C171.38,99.55 169.83,105.45 169.13,111.64" style="fill:none;fill-rule:nonzero;stroke:rgb(232,173,156);stroke-width:2px;"/>
        <path d="M202.32,73.66C195.94,76.213 191.133,80.45 187.9,86.37C187.74,86.67 187.47,86.894 187.15,86.99C184.877,87.69 183.307,88.92 182.44,90.68M191.93,119.52C188.423,117.82 185.413,114.883 182.9,110.71" style="fill:none;fill-rule:nonzero;stroke:rgb(129,55,39);stroke-width:2px;"/>
        <path d="M182.26,104.59C182.193,100.783 180.483,97.31 177.13,94.17C177.11,94.151 177.088,94.134 177.066,94.118C176.792,93.927 176.411,93.99 176.222,94.26C176.206,94.282 176.192,94.306 176.18,94.33C175.973,94.743 175.937,94.937 176.07,94.91" style="fill:none;fill-rule:nonzero;stroke:rgb(172,77,44);stroke-width:2px;"/>
        <path d="M176.59,109.9L169.13,111.64" style="fill:none;fill-rule:nonzero;stroke:rgb(109,47,31);stroke-width:2px;"/>
        <path d="M52.63,127.53C53.497,126.03 54.643,125.037 56.07,124.55C56.397,124.443 56.527,124.217 56.46,123.87L56.23,122.6" style="fill:none;fill-rule:nonzero;stroke:rgb(152,137,139);stroke-width:2px;"/>
        <path d="M56.23,122.6C54.537,119.28 53.46,116.08 53,113C52.92,112.487 53.163,112.233 53.73,112.24" style="fill:none;fill-rule:nonzero;stroke:rgb(232,173,156);stroke-width:2px;"/>
        <path d="M53.73,112.24C60.19,115.247 64.193,120.12 65.74,126.86C65.778,127.022 65.924,127.138 66.09,127.138C66.288,127.138 66.45,126.975 66.45,126.778C66.45,126.772 66.45,126.766 66.45,126.76L66.15,122.53" style="fill:none;fill-rule:nonzero;stroke:rgb(152,137,139);stroke-width:2px;"/>
        <path d="M66.15,122.53C66.857,112.87 64.807,103.923 60,95.69C56.833,90.263 54.34,83.957 52.52,76.77C52.433,76.443 52.283,76.413 52.07,76.68C48.55,81.2 49.23,83.52 49.73,88.88C49.763,89.22 49.657,89.507 49.41,89.74C47.883,91.22 47.437,92.873 48.07,94.7C49.497,98.833 49.89,102.733 49.25,106.4C47.66,115.54 47.93,123.14 50.64,132.28C50.715,132.546 50.96,132.731 51.236,132.731C51.543,132.731 51.806,132.503 51.85,132.2L52.63,127.53" style="fill:none;fill-rule:nonzero;stroke:rgb(232,173,156);stroke-width:2px;"/>
        <path d="M66.15,122.53C62.51,117.143 58.42,113.33 53.88,111.09C53.46,110.883 53.243,111.013 53.23,111.48C53.223,111.773 53.39,112.027 53.73,112.24M56.23,122.6C54.597,123.807 53.2,125.117 52.04,126.53C51.82,126.797 51.763,127.003 51.87,127.15C51.983,127.317 52.237,127.443 52.63,127.53" style="fill:none;fill-rule:nonzero;stroke:rgb(129,55,39);stroke-width:2px;"/>
        <path d="M116.15,79.27C115.3,83.32 120.14,83.69 122.71,84.06C125.623,84.473 127.78,85.853 129.18,88.2" style="fill:none;fill-rule:nonzero;stroke:rgb(152,137,139);stroke-width:2px;"/>
        <path d="M129.18,88.2C129.307,96.8 129.247,105.15 129,113.25C128.973,114.19 128.753,115.627 128.34,117.56" style="fill:none;fill-rule:nonzero;stroke:rgb(232,173,156);stroke-width:2px;"/>
        <path d="M128.34,117.56C127.173,120.547 127.997,123.083 130.81,125.17C131.05,125.35 131.247,125.313 131.4,125.06L137.04,115.69" style="fill:none;fill-rule:nonzero;stroke:rgb(152,137,139);stroke-width:2px;"/>
        <path d="M137.04,115.69C135.007,107.203 134.2,98.83 134.62,90.57" style="fill:none;fill-rule:nonzero;stroke:rgb(232,173,156);stroke-width:2px;"/>
        <path d="M134.62,90.57C135.22,88.81 136.07,87.343 137.17,86.17C137.677,85.63 137.323,85.187 136.11,84.84" style="fill:none;fill-rule:nonzero;stroke:rgb(152,137,139);stroke-width:2px;"/>
        <path d="M136.11,84.84C135.763,84.667 135.567,84.51 135.52,84.37" style="fill:none;fill-rule:nonzero;stroke:rgb(232,173,156);stroke-width:2px;"/>
        <path d="M135.52,84.37L143.89,83.83C144.237,83.803 144.507,83.643 144.7,83.35C145.96,81.417 147.627,79.913 149.7,78.84C149.987,78.687 150.19,78.457 150.31,78.15L150.93,76.58" style="fill:none;fill-rule:nonzero;stroke:rgb(152,137,139);stroke-width:2px;"/>
        <path d="M150.93,76.58L130.16,76.42C129.833,76.42 129.577,76.553 129.39,76.82C127.12,80.02 118.29,76.24 116.23,77.91C115.883,78.197 115.857,78.65 116.15,79.27" style="fill:none;fill-rule:nonzero;stroke:rgb(232,173,156);stroke-width:2px;"/>
        <path d="M150.93,76.58C147.757,78 145.61,79.697 144.49,81.67C144.346,81.926 144.085,82.098 143.79,82.13L135.93,82.89C135.397,82.941 134.981,83.319 134.96,83.77C134.953,83.917 135.14,84.117 135.52,84.37M136.11,84.84C134.803,86.927 134.307,88.837 134.62,90.57M137.04,115.69C134.593,117.183 132.767,119.527 131.56,122.72C131.413,123.1 131.187,123.157 130.88,122.89C129.227,121.417 128.38,119.64 128.34,117.56M129.18,88.2C128.427,84.26 125.113,82.403 119.24,82.63C118.88,82.643 118.59,82.503 118.37,82.21L116.15,79.27" style="fill:none;fill-rule:nonzero;stroke:rgb(129,55,39);stroke-width:2px;"/>
        <path d="M204.37,124.64C203.837,125.167 203.647,125.823 203.8,126.61C203.867,126.963 204.013,127 204.24,126.72L210.62,118.76" style="fill:none;fill-rule:nonzero;stroke:rgb(132,129,131);stroke-width:2px;"/>
        <path d="M210.62,118.76C210.853,115.327 211.147,112.573 211.5,110.5C211.587,110.007 211.827,109.73 212.22,109.67" style="fill:none;fill-rule:nonzero;stroke:rgb(232,173,156);stroke-width:2px;"/>
        <path d="M212.22,109.67C214.14,113.137 215.343,116.747 215.83,120.5C215.877,120.86 216.043,121.15 216.33,121.37L223.5,126.81C223.634,126.916 223.8,126.973 223.971,126.973C224.388,126.973 224.731,126.63 224.731,126.213C224.731,126.12 224.714,126.027 224.68,125.94L223.44,122.55" style="fill:none;fill-rule:nonzero;stroke:rgb(152,137,139);stroke-width:2px;"/>
        <path d="M223.44,122.55C222.18,119.91 221.6,117.04 221.7,113.94C221.707,113.622 221.612,113.307 221.43,113.04L214.86,103.28" style="fill:none;fill-rule:nonzero;stroke:rgb(232,173,156);stroke-width:2px;"/>
        <path d="M214.86,103.28C220.567,104.26 223.943,102.157 224.99,96.97" style="fill:none;fill-rule:nonzero;stroke:rgb(132,129,131);stroke-width:2px;"/>
        <path d="M224.99,96.97C227.16,87.1 218.79,83.04 210.75,81.37C207.39,80.67 205.19,82.14 204.38,85.34C204.3,85.66 204.383,85.93 204.63,86.15C207.2,88.52 207.45,94.52 207.77,97.24C207.805,97.564 207.615,97.874 207.31,97.99L206.36,98.35C206.02,98.483 205.86,98.73 205.88,99.09C205.92,100.163 206.393,100.987 207.3,101.56C207.6,101.753 207.723,102.023 207.67,102.37C207.07,106.51 205.94,110.49 204.28,114.31C202.5,118.4 202.82,120.75 204.37,124.64" style="fill:none;fill-rule:nonzero;stroke:rgb(232,173,156);stroke-width:2px;"/>
        <path d="M224.99,96.97C223.69,100.717 220.313,102.82 214.86,103.28" style="fill:none;fill-rule:nonzero;stroke:rgb(109,47,31);stroke-width:2px;"/>
        <path d="M223.44,122.55L222.92,124.28C222.849,124.516 222.63,124.678 222.384,124.678C222.259,124.678 222.138,124.636 222.04,124.56L217.13,120.66C216.843,120.433 216.653,120.143 216.56,119.79C215.727,116.463 214.44,112.967 212.7,109.3C212.527,108.947 212.31,108.743 212.05,108.69C211.79,108.637 211.723,108.73 211.85,108.97L212.22,109.67" style="fill:none;fill-rule:nonzero;stroke:rgb(129,55,39);stroke-width:2px;"/>
        <path d="M210.62,118.76L204.37,124.64" style="fill:none;fill-rule:nonzero;stroke:rgb(109,47,31);stroke-width:2px;"/>
        <path d="M139.31,115.28L142.02,119.61C142.307,120.077 142.46,120.033 142.48,119.48C142.52,118.387 142.25,117.307 141.67,116.24" style="fill:none;fill-rule:nonzero;stroke:rgb(195,160,143);stroke-width:2px;"/>
        <path d="M141.67,116.24C142.33,115.333 142.657,114.147 142.65,112.68" style="fill:none;fill-rule:nonzero;stroke:rgb(234,181,159);stroke-width:2px;"/>
        <path d="M142.65,112.68C145.703,113.3 148.097,114.88 149.83,117.42C150.023,117.707 150.073,118.02 149.98,118.36L148.69,122.9" style="fill:none;fill-rule:nonzero;stroke:rgb(152,137,139);stroke-width:2px;"/>
        <path d="M148.69,122.9L148.34,125.08C148.247,125.693 148.453,125.82 148.96,125.46C151.53,123.65 156.29,121.89 155.77,118.19" style="fill:none;fill-rule:nonzero;stroke:rgb(132,129,131);stroke-width:2px;"/>
        <path d="M155.77,118.19C155.877,112.223 155.263,106.267 153.93,100.32C152.68,94.73 155.74,89.54 151.71,84.94C151.297,84.46 151.067,84.537 151.02,85.17L150.96,85.91C150.94,86.208 150.82,86.49 150.62,86.71C149.247,88.217 147.45,90.38 145.23,93.2C139.81,100.093 137.837,107.453 139.31,115.28" style="fill:none;fill-rule:nonzero;stroke:rgb(234,181,159);stroke-width:2px;"/>
        <path d="M155.77,118.19C154.37,120.663 152.157,122.307 149.13,123.12" style="fill:none;fill-rule:nonzero;stroke:rgb(111,55,35);stroke-width:2px;"/>
        <path d="M149.13,123.12C152.46,116.92 148.98,113.66 143.7,111.4C143.373,111.26 143.083,111.317 142.83,111.57C142.23,112.177 142.17,112.547 142.65,112.68" style="fill:none;fill-rule:nonzero;stroke:rgb(131,63,43);stroke-width:2px;"/>
        <path d="M141.67,116.24C141.097,115.46 140.31,115.14 139.31,115.28" style="fill:none;fill-rule:nonzero;stroke:rgb(174,85,47);stroke-width:2px;"/>
        <path d="M149.13,123.12C149.417,123.047 149.27,122.973 148.69,122.9" style="fill:none;fill-rule:nonzero;stroke:rgb(29,11,14);stroke-width:2px;"/>
        <path d="M106.47,98.84C110.71,101.56 114.38,104.2 117.48,106.76C118.687,107.76 119.54,109.243 120.04,111.21" style="fill:none;fill-rule:nonzero;stroke:rgb(132,129,131);stroke-width:2px;"/>
        <path d="M120.04,111.21C119.64,112.263 118.96,113.12 118,113.78C117.721,113.978 117.336,113.953 117.08,113.72L108.83,106.18C108.69,106.052 108.507,105.981 108.317,105.981C107.9,105.981 107.557,106.324 107.557,106.741C107.557,106.764 107.558,106.787 107.56,106.81C107.673,108.083 108.087,109.14 108.8,109.98" style="fill:none;fill-rule:nonzero;stroke:rgb(234,181,159);stroke-width:2px;"/>
        <path d="M108.8,109.98L109.37,114.3C109.41,114.64 109.557,114.927 109.81,115.16C112.743,117.927 114.62,121.307 115.44,125.3C115.53,125.723 115.907,126.028 116.34,126.028C116.62,126.028 116.886,125.9 117.06,125.68L119.41,122.66C119.521,122.51 119.67,122.392 119.84,122.32C124.2,120.413 126.707,117.203 127.36,112.69" style="fill:none;fill-rule:nonzero;stroke:rgb(152,137,139);stroke-width:2px;"/>
        <path d="M127.36,112.69C126.39,102.5 121.22,99.74 112.93,95.67C112.623,95.517 112.427,95.273 112.34,94.94C112.107,94.04 112.167,93.123 112.52,92.19" style="fill:none;fill-rule:nonzero;stroke:rgb(234,181,159);stroke-width:2px;"/>
        <path d="M112.52,92.19C116.273,92.877 119.573,94.537 122.42,97.17C122.74,97.463 122.91,97.393 122.93,96.96C122.983,95.813 122.79,95.07 122.35,94.73" style="fill:none;fill-rule:nonzero;stroke:rgb(152,137,139);stroke-width:2px;"/>
        <path d="M122.35,94.73C121.15,88.97 116.74,87.83 112.5,85.12C112.267,84.967 112.057,84.993 111.87,85.2L106.91,90.63C106.775,90.778 106.697,90.97 106.69,91.17L106.47,98.84" style="fill:none;fill-rule:nonzero;stroke:rgb(234,181,159);stroke-width:2px;"/>
        <path d="M122.35,94.73L113.13,90.84C113.032,90.8 112.927,90.778 112.82,90.774C112.333,90.758 111.918,91.142 111.902,91.624C111.898,91.731 111.915,91.838 111.95,91.94C111.997,92.073 112.187,92.157 112.52,92.19M127.36,112.69C124.83,118.57 120.68,119.72 116.58,123.88C116.307,124.16 116.12,124.11 116.02,123.73C114.98,119.83 112.91,116.58 109.81,113.98C109.603,113.805 109.495,113.535 109.52,113.26C109.64,111.813 109.4,110.72 108.8,109.98" style="fill:none;fill-rule:nonzero;stroke:rgb(131,63,43);stroke-width:2px;"/>
        <path d="M120.04,111.21C120.3,109.383 119.663,107.68 118.13,106.1C114.763,102.64 110.877,100.22 106.47,98.84" style="fill:none;fill-rule:nonzero;stroke:rgb(111,55,35);stroke-width:2px;"/>
        <path d="M189.87,88.47C189.177,89.51 189.563,90.493 191.03,91.42C191.323,91.607 191.477,91.873 191.49,92.22L191.53,93.25" style="fill:none;fill-rule:nonzero;stroke:rgb(195,160,143);stroke-width:2px;"/>
        <path d="M191.53,93.25L190.9,113.83" style="fill:none;fill-rule:nonzero;stroke:rgb(232,173,156);stroke-width:2px;"/>
        <path d="M190.9,113.83L196.2,119.04C196.36,119.193 196.513,119.19 196.66,119.03L202.91,112.34C203.063,112.173 203.153,111.977 203.18,111.75L203.21,111.5" style="fill:none;fill-rule:nonzero;stroke:rgb(132,129,131);stroke-width:2px;"/>
        <path d="M203.21,111.5L203.31,110.53C203.343,110.203 203.193,110.057 202.86,110.09L196.59,110.8C196.351,110.824 196.136,110.653 196.11,110.42L195.57,105.72" style="fill:none;fill-rule:nonzero;stroke:rgb(232,173,156);stroke-width:2px;"/>
        <path d="M195.57,105.72L202.35,102.61C202.617,102.49 202.707,102.287 202.62,102C202.58,101.867 202.517,101.75 202.43,101.65" style="fill:none;fill-rule:nonzero;stroke:rgb(132,129,131);stroke-width:2px;"/>
        <path d="M202.43,101.65C200.877,99.13 198.91,98.417 196.53,99.51C196.203,99.657 196.04,99.553 196.04,99.2L196.05,93.65" style="fill:none;fill-rule:nonzero;stroke:rgb(232,173,156);stroke-width:2px;"/>
        <path d="M196.05,93.65C198.183,94.95 200.383,95.467 202.65,95.2C202.957,95.16 203.23,95.047 203.47,94.86L204.95,93.71C205.237,93.483 205.227,93.27 204.92,93.07C204.787,92.99 204.643,92.94 204.49,92.92" style="fill:none;fill-rule:nonzero;stroke:rgb(132,129,131);stroke-width:2px;"/>
        <path d="M204.49,92.92L204.18,92.74C203.733,92.487 203.763,92.327 204.27,92.26L204.59,92.21C204.799,92.184 204.958,92.004 204.958,91.793C204.958,91.628 204.861,91.478 204.71,91.41L193.34,86.21C193.067,86.083 192.787,86.063 192.5,86.15C191.387,86.47 190.51,87.243 189.87,88.47" style="fill:none;fill-rule:nonzero;stroke:rgb(232,173,156);stroke-width:2px;"/>
        <path d="M204.49,92.92C204.017,93.027 203.587,93.377 203.2,93.97C203.007,94.257 202.737,94.383 202.39,94.35L196.05,93.65M202.43,101.65C199.13,102.617 196.843,103.973 195.57,105.72M203.21,111.5L201.72,112.23C201.453,112.357 201.227,112.537 201.04,112.77L197.11,117.58C196.843,117.907 196.54,117.947 196.2,117.7L190.9,113.83" style="fill:none;fill-rule:nonzero;stroke:rgb(109,47,31);stroke-width:2px;"/>
        <path d="M191.53,93.25C192.23,92.05 191.677,90.457 189.87,88.47" style="fill:none;fill-rule:nonzero;stroke:rgb(172,77,44);stroke-width:2px;"/>
        <path d="M21.28,83.11L25.31,95.7C25.412,96.02 25.639,96.286 25.94,96.44C27.487,97.22 28.677,98.16 29.51,99.26" style="fill:none;fill-rule:nonzero;stroke:rgb(232,172,147);stroke-width:2px;"/>
        <path d="M29.51,99.26C28.71,100.087 27.853,100.363 26.94,100.09C26.593,99.983 26.367,100.107 26.26,100.46C26.187,100.727 26.257,100.907 26.47,101" style="fill:none;fill-rule:nonzero;stroke:rgb(129,55,39);stroke-width:2px;"/>
        <path d="M26.47,101L27.89,114.14C27.923,114.46 28.1,114.627 28.42,114.64C33.86,114.88 39.99,111.45 38.65,105.29C38.33,103.817 37.907,102.323 37.38,100.81" style="fill:none;fill-rule:nonzero;stroke:rgb(232,172,147);stroke-width:2px;"/>
        <path d="M37.38,100.81C33.94,93.397 28.67,87.2 21.57,82.22C21.509,82.176 21.435,82.152 21.36,82.152C21.167,82.152 21.007,82.307 21,82.5C20.98,82.84 21.073,83.043 21.28,83.11" style="fill:none;fill-rule:nonzero;stroke:rgb(129,55,39);stroke-width:2px;"/>
        <path d="M37.38,100.81C33.16,93.897 27.793,87.997 21.28,83.11M26.47,101L29.96,101.59C30.273,101.643 30.34,101.54 30.16,101.28C29.767,100.727 29.55,100.053 29.51,99.26" style="fill:none;fill-rule:nonzero;stroke:rgb(152,136,130);stroke-width:2px;"/>
        <path d="M68.71,88.28L68.58,88.6C68.527,88.733 68.533,88.863 68.6,88.99C69.867,91.703 70.847,94.52 71.54,97.44C71.603,97.708 71.799,97.926 72.06,98.02C77.207,99.84 79.283,98.707 78.29,94.62" style="fill:none;fill-rule:nonzero;stroke:rgb(232,173,156);stroke-width:2px;"/>
        <path d="M78.29,94.62C77.88,91.37 72.07,87.16 69.04,87.38C67.24,87.513 67.13,87.813 68.71,88.28" style="fill:none;fill-rule:nonzero;stroke:rgb(109,47,31);stroke-width:2px;"/>
        <path d="M78.29,94.62C76.237,91.213 73.043,89.1 68.71,88.28" style="fill:none;fill-rule:nonzero;stroke:rgb(132,129,131);stroke-width:2px;"/>
        <path d="M52.38,94.78L53.31,106.54C53.334,106.839 53.533,107.1 53.82,107.21L60.31,109.65C60.347,109.664 60.386,109.671 60.426,109.671C60.607,109.671 60.756,109.522 60.756,109.341C60.756,109.32 60.754,109.3 60.75,109.28L60.21,106.48" style="fill:none;fill-rule:nonzero;stroke:rgb(232,173,156);stroke-width:2px;"/>
        <path d="M60.21,106.48C58.81,101.613 56.183,97.253 52.33,93.4C52.243,93.313 52.157,93.257 52.07,93.23C51.97,93.203 51.88,93.2 51.8,93.22C51.52,93.287 51.46,93.437 51.62,93.67L52.38,94.78" style="fill:none;fill-rule:nonzero;stroke:rgb(129,55,39);stroke-width:2px;"/>
        <path d="M60.21,106.48C58.13,102.253 55.52,98.353 52.38,94.78" style="fill:none;fill-rule:nonzero;stroke:rgb(152,137,139);stroke-width:2px;"/>
        <path d="M212.05,87.16C211.943,87.2 211.847,87.233 211.76,87.26C211.66,87.293 211.617,87.36 211.63,87.46L212.67,97.55C212.703,97.863 212.877,98.04 213.19,98.08C216.237,98.46 218.533,97.31 220.08,94.63" style="fill:none;fill-rule:nonzero;stroke:rgb(232,173,156);stroke-width:2px;"/>
        <path d="M220.08,94.63C219.847,89.697 216.99,86.87 211.51,86.15C211.451,86.144 211.391,86.153 211.335,86.175C211.146,86.25 211.051,86.463 211.124,86.647C211.147,86.703 211.183,86.752 211.23,86.79C211.417,86.943 211.69,87.067 212.05,87.16" style="fill:none;fill-rule:nonzero;stroke:rgb(129,55,39);stroke-width:2px;"/>
        <path d="M220.08,94.63C219.25,90.26 216.05,88.31 212.05,87.16" style="fill:none;fill-rule:nonzero;stroke:rgb(152,137,139);stroke-width:2px;"/>
        <path d="M143.62,107.05C143.593,107.104 143.58,107.163 143.58,107.223C143.58,107.399 143.699,107.555 143.87,107.6L149.48,109.12C149.511,109.128 149.543,109.132 149.575,109.132C149.789,109.132 149.965,108.956 149.965,108.742C149.965,108.721 149.963,108.7 149.96,108.68L148.41,99.02C148.377,98.835 148.214,98.699 148.026,98.699C147.881,98.699 147.747,98.781 147.68,98.91L143.62,107.05" style="fill:none;fill-rule:nonzero;stroke:rgb(234,180,151);stroke-width:2px;"/>
        <path d="M46.61,112.96C46.023,113.72 45.563,114.543 45.23,115.43C42.63,122.29 34.64,123.14 28.48,121.37C28.14,121.277 27.873,121.377 27.68,121.67C27.4,122.103 27.37,122.503 27.59,122.87L25.04,132.22C25.002,132.394 24.847,132.519 24.669,132.519C24.472,132.519 24.306,132.366 24.29,132.17L22.93,122.05C23.65,121.83 23.673,121.313 23,120.5C21.513,118.707 18.31,117.423 13.39,116.65C15.077,115.217 17.583,114.79 20.91,115.37C21.41,115.457 21.6,115.25 21.48,114.75C21.327,114.11 21.327,113.627 21.48,113.3C21.507,109.847 20.89,106.237 19.63,102.47C19.697,99.937 18.52,98.867 16.1,99.26C15.767,99.313 15.5,99.207 15.3,98.94C13.713,96.887 12.777,94.673 12.49,92.3C13.563,92.24 14.513,92.28 15.34,92.42C15.78,92.493 16.033,92.487 16.1,92.4C16.227,92.24 16.36,91.943 16.5,91.51C16.32,89.25 15.627,87.03 14.42,84.85C13.027,78.85 10.297,74.253 6.23,71.06C6.263,67.56 5.197,64.34 3.03,61.4C2.797,61.08 2.647,60.78 2.58,60.5C2.493,60.173 2.457,59.89 2.47,59.65C2.488,59.103 2.943,58.664 3.489,58.664C3.631,58.664 3.771,58.693 3.9,58.75C7.44,60.29 9.99,62.84 11.55,66.4C11.697,66.733 11.927,66.993 12.24,67.18C27.06,75.9 49.91,94.24 46.61,112.96ZM21.28,83.11L25.31,95.7C25.412,96.02 25.639,96.286 25.94,96.44C27.487,97.22 28.677,98.16 29.51,99.26C28.71,100.087 27.853,100.363 26.94,100.09C26.593,99.983 26.367,100.107 26.26,100.46C26.187,100.727 26.257,100.907 26.47,101L27.89,114.14C27.923,114.46 28.1,114.627 28.42,114.64C33.86,114.88 39.99,111.45 38.65,105.29C38.33,103.817 37.907,102.323 37.38,100.81C33.94,93.397 28.67,87.2 21.57,82.22C21.509,82.176 21.435,82.152 21.36,82.152C21.167,82.152 21.007,82.307 21,82.5C20.98,82.84 21.073,83.043 21.28,83.11ZM177.03,116.4C176.597,116.5 176.433,116.833 176.54,117.4C176.599,117.69 176.864,117.896 177.16,117.88L183.59,117.44C183.803,117.427 183.873,117.52 183.8,117.72C183.68,118.053 183.41,118.247 182.99,118.3C179.19,118.773 175.78,119.93 172.76,121.77C172.473,121.95 172.2,121.927 171.94,121.7C167.48,117.81 163.37,120.65 158.96,122.46C157.627,113.953 157.763,105.567 159.37,97.3C160.15,93.31 158.51,90.43 159.41,86.49C161.343,78.043 162.18,69.48 161.92,60.8C161.92,60.792 161.919,60.784 161.919,60.775C161.919,60.501 162.145,60.275 162.419,60.275C162.583,60.275 162.737,60.356 162.83,60.49L166.69,65.77C166.818,65.943 166.868,66.16 166.83,66.37C164.97,77.27 167.66,85.57 166.18,95.47C165.12,102.59 164.54,107.39 166.43,113C166.63,113.6 167.067,113.933 167.74,114C170.77,114.32 174.06,115.59 177.03,116.4ZM253.27,73.01C250.07,75.43 247.997,78.607 247.05,82.54C246.817,83.52 246.49,84.34 246.07,85C245.783,85.457 245.565,85.819 245.574,85.825C245.575,85.825 245.577,85.824 245.58,85.82C245.153,87.013 244.86,88.207 244.7,89.4C244.692,89.756 244.396,90.045 244.04,90.045C243.678,90.045 243.38,89.747 243.38,89.385C243.38,89.38 243.38,89.375 243.38,89.37C243.3,88.503 242.763,88.04 241.77,87.98L242.57,81.75L244.1,79.29C244.109,79.276 244.114,79.259 244.114,79.242C244.114,79.193 244.073,79.152 244.024,79.152C244.004,79.152 243.986,79.158 243.97,79.17C238.177,83.137 234.853,88.103 234,94.07C234.67,99.12 238.27,102.49 242.79,104.21C242.793,104.211 242.797,104.212 242.8,104.214C243.649,104.543 244.075,105.517 243.744,106.371C243.742,106.374 243.741,106.377 243.74,106.38C242.033,110.64 240.877,115.343 240.27,120.49C236.45,120.81 233.71,122.933 232.05,126.86C231.996,126.984 231.873,127.064 231.738,127.064C231.628,127.064 231.524,127.011 231.46,126.92L223.9,116.16C222.953,112.913 223.023,109.463 224.11,105.81C224.177,105.583 224.247,105.58 224.32,105.8C225.513,109.587 227.433,112.963 230.08,115.93C230.228,116.098 230.442,116.195 230.666,116.195C230.95,116.195 231.213,116.04 231.35,115.79L234.32,110.39L228.28,102.61C225.44,91.18 233.09,78.47 241.88,71.68C246.34,68.24 249.47,64.02 253.97,61.01C254.121,60.906 254.301,60.851 254.484,60.851C254.983,60.851 255.394,61.262 255.394,61.761C255.394,61.866 255.376,61.971 255.34,62.07C254.17,65.35 251.72,69.66 253.27,73.01ZM123.58,65.38C123.12,64.807 122.523,64.787 121.79,65.32C114.66,70.48 109.54,74.19 104.95,81.99C104.777,82.283 104.54,82.513 104.24,82.68C100.9,84.533 98.547,87.3 97.18,90.98C100.01,93.18 102.82,95.3 103.3,99.07C103.84,103.297 104.663,107.463 105.77,111.57C106.62,114.72 108.7,116.9 110.37,119.63C110.097,121.65 108.897,121.357 106.77,118.75C103.323,114.51 100.517,108.767 98.35,101.52C97.357,99.26 96.03,97.34 94.37,95.76C94.077,95.48 93.873,95.533 93.76,95.92C93.693,96.133 93.777,96.393 94.01,96.7C94.43,103.88 95.317,111.013 96.67,118.1C92.857,117.88 90.09,119.587 88.37,123.22C88.332,123.299 88.273,123.366 88.199,123.414C87.986,123.549 87.702,123.49 87.569,123.281C87.521,123.207 87.497,123.119 87.5,123.03L87.5,120.49C87.5,120.137 87.367,119.847 87.1,119.62C85.227,118.033 83.077,117.043 80.65,116.65C80.317,116.593 80.031,116.382 79.88,116.08C78.4,113.167 76.7,110.387 74.78,107.74C74.722,107.662 74.641,107.606 74.55,107.58C73.577,107.273 73.48,107.487 74.26,108.22C73.927,108.2 73.767,108.293 73.78,108.5C74.047,111.693 74.297,114.84 74.53,117.94L72.31,120.91C72.152,121.122 71.902,121.247 71.637,121.247C71.351,121.247 71.084,121.101 70.93,120.86C70.063,119.507 68.853,118.353 67.3,117.4C68.213,112.38 68.497,107.217 68.15,101.91C68.377,100.69 67.89,99.563 66.69,98.53C67.11,97.917 67.143,97.363 66.79,96.87C66.59,96.583 66.32,96.47 65.98,96.53C65.3,96.643 64.92,97.18 64.84,98.14C64.113,97.187 64.767,96.323 66.8,95.55L63.84,86.82C63.728,86.504 63.458,86.268 63.13,86.2L60.94,85.78C61.567,83.987 62.577,82.557 63.97,81.49C64.217,81.297 64.497,81.217 64.81,81.25C75.33,82.27 86.41,87.32 83.98,99.93C82.433,102.437 80.28,103.75 77.52,103.87C77.04,103.89 76.967,104.07 77.3,104.41L77.87,104.99C79.583,107.07 81.55,108.75 83.77,110.03C83.99,110.159 84.156,110.361 84.24,110.6L85.44,114.3C85.676,115.022 86.354,115.514 87.113,115.514C88.079,115.514 88.873,114.719 88.873,113.754C88.873,113.719 88.872,113.685 88.87,113.65L88,99.56C88.18,95.607 87.4,91.833 85.66,88.24C84.193,79.567 83.57,70.78 83.79,61.88C83.797,61.48 83.913,61.443 84.14,61.77L87.82,67.04C88.007,67.307 88.127,67.603 88.18,67.93L91.46,88.05C91.633,89.123 92.023,89.21 92.63,88.31C100.28,76.89 109.63,67.53 123.38,63.09C123.494,63.054 123.612,63.035 123.731,63.035C124.362,63.035 124.881,63.554 124.881,64.185C124.881,64.331 124.854,64.475 124.8,64.61C124.733,64.79 124.327,65.047 123.58,65.38ZM68.71,88.28L68.58,88.6C68.527,88.733 68.533,88.863 68.6,88.99C69.867,91.703 70.847,94.52 71.54,97.44C71.603,97.708 71.799,97.926 72.06,98.02C77.207,99.84 79.283,98.707 78.29,94.62C77.88,91.37 72.07,87.16 69.04,87.38C67.24,87.513 67.13,87.813 68.71,88.28Z" style="fill:rgb(209,90,56);fill-rule:nonzero;"/>
        <path d="M123.58,65.38C116.61,69.93 109.37,74.94 105.48,82.92C105.333,83.213 105.117,83.44 104.83,83.6C102.117,85.12 99.567,87.58 97.18,90.98C98.547,87.3 100.9,84.533 104.24,82.68C104.54,82.513 104.777,82.283 104.95,81.99C109.54,74.19 114.66,70.48 121.79,65.32C122.523,64.787 123.12,64.807 123.58,65.38Z" style="fill:rgb(49,19,22);fill-rule:nonzero;"/>
        <path d="M202.32,73.66C195.94,76.213 191.133,80.45 187.9,86.37C187.74,86.67 187.47,86.894 187.15,86.99C184.877,87.69 183.307,88.92 182.44,90.68C186.667,94.08 188.507,98.15 187.96,102.89C187.28,108.76 189.28,114.14 191.93,119.52C188.423,117.82 185.413,114.883 182.9,110.71L182.26,104.59C182.193,100.783 180.483,97.31 177.13,94.17C177.11,94.151 177.088,94.134 177.066,94.118C176.792,93.927 176.411,93.99 176.222,94.26C176.206,94.282 176.192,94.306 176.18,94.33C175.973,94.743 175.937,94.937 176.07,94.91L176.59,109.9L169.13,111.64C169.83,105.45 171.38,99.55 171.24,93.36C171.053,85.3 171.287,77.253 171.94,69.22C171.954,68.962 172.171,68.757 172.429,68.757C172.595,68.757 172.75,68.841 172.84,68.98C175.84,73.47 175.54,82.88 175.83,88.22C175.835,88.297 175.855,88.372 175.887,88.442C176.03,88.751 176.398,88.888 176.701,88.748C176.773,88.715 176.837,88.668 176.89,88.61C184.45,80.69 193.06,72.53 204.48,71.09C204.96,71.03 205.11,71.227 204.93,71.68C204.47,72.82 203.6,73.48 202.32,73.66Z" style="fill:rgb(209,90,56);fill-rule:nonzero;"/>
        <path d="M6.23,71.06C10.297,74.253 13.027,78.85 14.42,84.85C14.373,84.823 14.263,84.847 14.09,84.92C12.077,80.08 9.457,75.46 6.23,71.06Z" style="fill:rgb(49,19,22);fill-rule:nonzero;"/>
        <path d="M253.27,73.01C247.42,80.54 245.15,90.39 242.85,99.4C242.811,99.544 242.68,99.645 242.531,99.645C242.379,99.645 242.245,99.539 242.21,99.39C241.437,95.723 241.29,91.92 241.77,87.98C242.763,88.04 243.3,88.503 243.38,89.37C243.38,89.375 243.38,89.38 243.38,89.385C243.38,89.747 243.678,90.045 244.04,90.045C244.396,90.045 244.692,89.756 244.7,89.4C244.86,88.207 245.153,87.013 245.58,85.82C245.577,85.824 245.575,85.825 245.574,85.825C245.565,85.819 245.783,85.457 246.07,85C246.49,84.34 246.817,83.52 247.05,82.54C247.997,78.607 250.07,75.43 253.27,73.01Z" style="fill:rgb(134,64,31);fill-rule:nonzero;"/>
        <path d="M202.32,73.66C195.9,78.39 190.5,81.46 188.44,87.1C188.333,87.393 188.143,87.613 187.87,87.76L182.44,90.68C183.307,88.92 184.877,87.69 187.15,86.99C187.47,86.894 187.74,86.67 187.9,86.37C191.133,80.45 195.94,76.213 202.32,73.66Z" style="fill:rgb(49,19,22);fill-rule:nonzero;"/>
        <path d="M66.15,122.53C62.51,117.143 58.42,113.33 53.88,111.09C53.46,110.883 53.243,111.013 53.23,111.48C53.223,111.773 53.39,112.027 53.73,112.24C53.163,112.233 52.92,112.487 53,113C53.46,116.08 54.537,119.28 56.23,122.6C54.597,123.807 53.2,125.117 52.04,126.53C51.82,126.797 51.763,127.003 51.87,127.15C51.983,127.317 52.237,127.443 52.63,127.53L51.85,132.2C51.806,132.503 51.543,132.731 51.236,132.731C50.96,132.731 50.715,132.546 50.64,132.28C47.93,123.14 47.66,115.54 49.25,106.4C49.89,102.733 49.497,98.833 48.07,94.7C47.437,92.873 47.883,91.22 49.41,89.74C49.657,89.507 49.763,89.22 49.73,88.88C49.23,83.52 48.55,81.2 52.07,76.68C52.283,76.413 52.433,76.443 52.52,76.77C54.34,83.957 56.833,90.263 60,95.69C64.807,103.923 66.857,112.87 66.15,122.53ZM52.38,94.78L53.31,106.54C53.334,106.839 53.533,107.1 53.82,107.21L60.31,109.65C60.347,109.664 60.386,109.671 60.426,109.671C60.607,109.671 60.756,109.522 60.756,109.341C60.756,109.32 60.754,109.3 60.75,109.28L60.21,106.48C58.81,101.613 56.183,97.253 52.33,93.4C52.243,93.313 52.157,93.257 52.07,93.23C51.97,93.203 51.88,93.2 51.8,93.22C51.52,93.287 51.46,93.437 51.62,93.67L52.38,94.78ZM150.93,76.58C147.757,78 145.61,79.697 144.49,81.67C144.346,81.926 144.085,82.098 143.79,82.13L135.93,82.89C135.397,82.941 134.981,83.319 134.96,83.77C134.953,83.917 135.14,84.117 135.52,84.37C135.567,84.51 135.763,84.667 136.11,84.84C134.803,86.927 134.307,88.837 134.62,90.57C134.2,98.83 135.007,107.203 137.04,115.69C134.593,117.183 132.767,119.527 131.56,122.72C131.413,123.1 131.187,123.157 130.88,122.89C129.227,121.417 128.38,119.64 128.34,117.56C128.753,115.627 128.973,114.19 129,113.25C129.247,105.15 129.307,96.8 129.18,88.2C128.427,84.26 125.113,82.403 119.24,82.63C118.88,82.643 118.59,82.503 118.37,82.21L116.15,79.27C115.857,78.65 115.883,78.197 116.23,77.91C118.29,76.24 127.12,80.02 129.39,76.82C129.577,76.553 129.833,76.42 130.16,76.42L150.93,76.58Z" style="fill:rgb(209,90,56);fill-rule:nonzero;"/>
        <path d="M150.93,76.58L150.31,78.15C150.19,78.457 149.987,78.687 149.7,78.84C147.627,79.913 145.96,81.417 144.7,83.35C144.507,83.643 144.237,83.803 143.89,83.83L135.52,84.37C135.14,84.117 134.953,83.917 134.96,83.77C134.981,83.319 135.397,82.941 135.93,82.89L143.79,82.13C144.085,82.098 144.346,81.926 144.49,81.67C145.61,79.697 147.757,78 150.93,76.58ZM242.57,81.75C238.377,84.777 235.52,88.883 234,94.07C234.853,88.103 238.177,83.137 243.97,79.17C243.986,79.158 244.004,79.152 244.024,79.152C244.073,79.152 244.114,79.193 244.114,79.242C244.114,79.259 244.109,79.276 244.1,79.29L242.57,81.75ZM116.15,79.27L118.37,82.21C118.59,82.503 118.88,82.643 119.24,82.63C125.113,82.403 128.427,84.26 129.18,88.2C127.78,85.853 125.623,84.473 122.71,84.06C120.14,83.69 115.3,83.32 116.15,79.27Z" style="fill:rgb(49,19,22);fill-rule:nonzero;"/>
        <path d="M224.99,96.97C223.69,100.717 220.313,102.82 214.86,103.28L221.43,113.04C221.612,113.307 221.707,113.622 221.7,113.94C221.6,117.04 222.18,119.91 223.44,122.55L222.92,124.28C222.849,124.516 222.63,124.678 222.384,124.678C222.259,124.678 222.138,124.636 222.04,124.56L217.13,120.66C216.843,120.433 216.653,120.143 216.56,119.79C215.727,116.463 214.44,112.967 212.7,109.3C212.527,108.947 212.31,108.743 212.05,108.69C211.79,108.637 211.723,108.73 211.85,108.97L212.22,109.67C211.827,109.73 211.587,110.007 211.5,110.5C211.147,112.573 210.853,115.327 210.62,118.76L204.37,124.64C202.82,120.75 202.5,118.4 204.28,114.31C205.94,110.49 207.07,106.51 207.67,102.37C207.723,102.023 207.6,101.753 207.3,101.56C206.393,100.987 205.92,100.163 205.88,99.09C205.86,98.73 206.02,98.483 206.36,98.35L207.31,97.99C207.615,97.874 207.805,97.564 207.77,97.24C207.45,94.52 207.2,88.52 204.63,86.15C204.383,85.93 204.3,85.66 204.38,85.34C205.19,82.14 207.39,80.67 210.75,81.37C218.79,83.04 227.16,87.1 224.99,96.97ZM212.05,87.16C211.943,87.2 211.847,87.233 211.76,87.26C211.66,87.293 211.617,87.36 211.63,87.46L212.67,97.55C212.703,97.863 212.877,98.04 213.19,98.08C216.237,98.46 218.533,97.31 220.08,94.63C219.847,89.697 216.99,86.87 211.51,86.15C211.451,86.144 211.391,86.153 211.335,86.175C211.146,86.25 211.051,86.463 211.124,86.647C211.147,86.703 211.183,86.752 211.23,86.79C211.417,86.943 211.69,87.067 212.05,87.16Z" style="fill:rgb(209,90,56);fill-rule:nonzero;"/>
        <path d="M37.38,100.81C33.16,93.897 27.793,87.997 21.28,83.11C21.073,83.043 20.98,82.84 21,82.5C21.007,82.307 21.167,82.152 21.36,82.152C21.435,82.152 21.509,82.176 21.57,82.22C28.67,87.2 33.94,93.397 37.38,100.81Z" style="fill:rgb(49,19,22);fill-rule:nonzero;"/>
        <path d="M155.77,118.19C154.37,120.663 152.157,122.307 149.13,123.12C152.46,116.92 148.98,113.66 143.7,111.4C143.373,111.26 143.083,111.317 142.83,111.57C142.23,112.177 142.17,112.547 142.65,112.68C142.657,114.147 142.33,115.333 141.67,116.24C141.097,115.46 140.31,115.14 139.31,115.28C137.837,107.453 139.81,100.093 145.23,93.2C147.45,90.38 149.247,88.217 150.62,86.71C150.82,86.49 150.94,86.208 150.96,85.91L151.02,85.17C151.067,84.537 151.297,84.46 151.71,84.94C155.74,89.54 152.68,94.73 153.93,100.32C155.263,106.267 155.877,112.223 155.77,118.19ZM143.62,107.05C143.593,107.104 143.58,107.163 143.58,107.223C143.58,107.399 143.699,107.555 143.87,107.6L149.48,109.12C149.511,109.128 149.543,109.132 149.575,109.132C149.789,109.132 149.965,108.956 149.965,108.742C149.965,108.721 149.963,108.7 149.96,108.68L148.41,99.02C148.377,98.835 148.214,98.699 148.026,98.699C147.881,98.699 147.747,98.781 147.68,98.91L143.62,107.05Z" style="fill:rgb(213,106,63);fill-rule:nonzero;"/>
        <path d="M14.42,84.85C15.627,87.03 16.32,89.25 16.5,91.51L14.09,84.92C14.263,84.847 14.373,84.823 14.42,84.85Z" style="fill:rgb(134,64,31);fill-rule:nonzero;"/>
        <path d="M122.35,94.73L113.13,90.84C113.032,90.8 112.927,90.778 112.82,90.774C112.333,90.758 111.918,91.142 111.902,91.624C111.898,91.731 111.915,91.838 111.95,91.94C111.997,92.073 112.187,92.157 112.52,92.19C112.167,93.123 112.107,94.04 112.34,94.94C112.427,95.273 112.623,95.517 112.93,95.67C121.22,99.74 126.39,102.5 127.36,112.69C124.83,118.57 120.68,119.72 116.58,123.88C116.307,124.16 116.12,124.11 116.02,123.73C114.98,119.83 112.91,116.58 109.81,113.98C109.603,113.805 109.495,113.535 109.52,113.26C109.64,111.813 109.4,110.72 108.8,109.98C108.087,109.14 107.673,108.083 107.56,106.81C107.558,106.787 107.557,106.764 107.557,106.741C107.557,106.324 107.9,105.981 108.317,105.981C108.507,105.981 108.69,106.052 108.83,106.18L117.08,113.72C117.336,113.953 117.721,113.978 118,113.78C118.96,113.12 119.64,112.263 120.04,111.21C120.3,109.383 119.663,107.68 118.13,106.1C114.763,102.64 110.877,100.22 106.47,98.84L106.69,91.17C106.697,90.97 106.775,90.778 106.91,90.63L111.87,85.2C112.057,84.993 112.267,84.967 112.5,85.12C116.74,87.83 121.15,88.97 122.35,94.73Z" style="fill:rgb(213,106,63);fill-rule:nonzero;"/>
        <path d="M136.11,84.84C137.323,85.187 137.677,85.63 137.17,86.17C136.07,87.343 135.22,88.81 134.62,90.57C134.307,88.837 134.803,86.927 136.11,84.84ZM60.94,85.78L63.13,86.2C63.458,86.268 63.728,86.504 63.84,86.82L66.8,95.55L63.59,87.79C63.43,87.41 63.147,87.19 62.74,87.13L61.31,86.91C61.037,86.87 60.853,86.723 60.76,86.47C60.66,86.203 60.72,85.973 60.94,85.78Z" style="fill:rgb(49,19,22);fill-rule:nonzero;"/>
        <path d="M204.49,92.92C204.017,93.027 203.587,93.377 203.2,93.97C203.007,94.257 202.737,94.383 202.39,94.35L196.05,93.65L196.04,99.2C196.04,99.553 196.203,99.657 196.53,99.51C198.91,98.417 200.877,99.13 202.43,101.65C199.13,102.617 196.843,103.973 195.57,105.72L196.11,110.42C196.136,110.653 196.351,110.824 196.59,110.8L202.86,110.09C203.193,110.057 203.343,110.203 203.31,110.53L203.21,111.5L201.72,112.23C201.453,112.357 201.227,112.537 201.04,112.77L197.11,117.58C196.843,117.907 196.54,117.947 196.2,117.7L190.9,113.83L191.53,93.25C192.23,92.05 191.677,90.457 189.87,88.47C190.51,87.243 191.387,86.47 192.5,86.15C192.787,86.063 193.067,86.083 193.34,86.21L204.71,91.41C204.861,91.478 204.958,91.628 204.958,91.793C204.958,92.004 204.799,92.184 204.59,92.21L204.27,92.26C203.763,92.327 203.733,92.487 204.18,92.74L204.49,92.92Z" style="fill:rgb(209,90,56);fill-rule:nonzero;"/>
        <path d="M220.08,94.63C219.25,90.26 216.05,88.31 212.05,87.16C211.69,87.067 211.417,86.943 211.23,86.79C211.183,86.752 211.147,86.703 211.124,86.647C211.051,86.463 211.146,86.25 211.335,86.175C211.391,86.153 211.451,86.144 211.51,86.15C216.99,86.87 219.847,89.697 220.08,94.63Z" style="fill:rgb(49,19,22);fill-rule:nonzero;"/>
        <path d="M78.29,94.62C76.237,91.213 73.043,89.1 68.71,88.28C67.13,87.813 67.24,87.513 69.04,87.38C72.07,87.16 77.88,91.37 78.29,94.62Z" style="fill:rgb(8,3,6);fill-rule:nonzero;"/>
        <path d="M85.66,88.24C87.4,91.833 88.18,95.607 88,99.56L85.66,88.24ZM189.87,88.47C191.677,90.457 192.23,92.05 191.53,93.25L191.49,92.22C191.477,91.873 191.323,91.607 191.03,91.42C189.563,90.493 189.177,89.51 189.87,88.47Z" style="fill:rgb(134,64,31);fill-rule:nonzero;"/>
        <path d="M122.35,94.73C122.79,95.07 122.983,95.813 122.93,96.96C122.91,97.393 122.74,97.463 122.42,97.17C119.573,94.537 116.273,92.877 112.52,92.19C112.187,92.157 111.997,92.073 111.95,91.94C111.915,91.838 111.898,91.731 111.902,91.624C111.918,91.142 112.333,90.758 112.82,90.774C112.927,90.778 113.032,90.8 113.13,90.84L122.35,94.73ZM12.49,92.3C12.777,94.673 13.713,96.887 15.3,98.94C15.5,99.207 15.767,99.313 16.1,99.26C18.52,98.867 19.697,99.937 19.63,102.47L19.37,102.99L18.6,100.68C18.487,100.327 18.243,100.17 17.87,100.21L15.78,100.41C15.413,100.443 15.15,100.297 14.99,99.97C14.143,98.237 13.257,96.54 12.33,94.88C12.083,94.447 11.96,94.023 11.96,93.61C11.947,92.75 12.123,92.313 12.49,92.3Z" style="fill:rgb(49,19,22);fill-rule:nonzero;"/>
        <path d="M204.49,92.92C204.643,92.94 204.787,92.99 204.92,93.07C205.227,93.27 205.237,93.483 204.95,93.71L203.47,94.86C203.23,95.047 202.957,95.16 202.65,95.2C200.383,95.467 198.183,94.95 196.05,93.65L202.39,94.35C202.737,94.383 203.007,94.257 203.2,93.97C203.587,93.377 204.017,93.027 204.49,92.92Z" style="fill:rgb(8,3,6);fill-rule:nonzero;"/>
        <path d="M60.21,106.48C58.13,102.253 55.52,98.353 52.38,94.78L51.62,93.67C51.46,93.437 51.52,93.287 51.8,93.22C51.88,93.2 51.97,93.203 52.07,93.23C52.157,93.257 52.243,93.313 52.33,93.4C56.183,97.253 58.81,101.613 60.21,106.48Z" style="fill:rgb(49,19,22);fill-rule:nonzero;"/>
        <path d="M182.26,104.59C181.393,100.383 179.33,97.157 176.07,94.91C175.937,94.937 175.973,94.743 176.18,94.33C176.192,94.306 176.206,94.282 176.222,94.26C176.411,93.99 176.792,93.927 177.066,94.118C177.088,94.134 177.11,94.151 177.13,94.17C180.483,97.31 182.193,100.783 182.26,104.59Z" style="fill:rgb(134,64,31);fill-rule:nonzero;"/>
        <path d="M98.35,101.52C98.257,101.853 98.16,102.003 98.06,101.97C97.153,99.97 95.803,98.213 94.01,96.7C93.777,96.393 93.693,96.133 93.76,95.92C93.873,95.533 94.077,95.48 94.37,95.76C96.03,97.34 97.357,99.26 98.35,101.52Z" style="fill:rgb(8,3,6);fill-rule:nonzero;"/>
        <path d="M66.69,98.53C66.23,98.183 65.613,98.053 64.84,98.14C64.92,97.18 65.3,96.643 65.98,96.53C66.32,96.47 66.59,96.583 66.79,96.87C67.143,97.363 67.11,97.917 66.69,98.53Z" style="fill:rgb(213,106,63);fill-rule:nonzero;"/>
        <path d="M224.99,96.97C223.943,102.157 220.567,104.26 214.86,103.28C220.313,102.82 223.69,100.717 224.99,96.97Z" style="fill:rgb(8,3,6);fill-rule:nonzero;"/>
        <path d="M64.84,98.14C65.613,98.053 66.23,98.183 66.69,98.53C67.89,99.563 68.377,100.69 68.15,101.91C67.517,100.603 66.413,99.347 64.84,98.14Z" style="fill:rgb(49,19,22);fill-rule:nonzero;"/>
        <path d="M106.47,98.84C110.877,100.22 114.763,102.64 118.13,106.1C119.663,107.68 120.3,109.383 120.04,111.21C119.54,109.243 118.687,107.76 117.48,106.76C114.38,104.2 110.71,101.56 106.47,98.84Z" style="fill:rgb(8,3,6);fill-rule:nonzero;"/>
        <path d="M29.51,99.26C29.55,100.053 29.767,100.727 30.16,101.28C30.34,101.54 30.273,101.643 29.96,101.59L26.47,101C26.257,100.907 26.187,100.727 26.26,100.46C26.367,100.107 26.593,99.983 26.94,100.09C27.853,100.363 28.71,100.087 29.51,99.26Z" style="fill:rgb(49,19,22);fill-rule:nonzero;"/>
        <path d="M83.98,99.93C83.44,102.91 81.403,104.597 77.87,104.99L77.3,104.41C76.967,104.07 77.04,103.89 77.52,103.87C80.28,103.75 82.433,102.437 83.98,99.93Z" style="fill:rgb(8,3,6);fill-rule:nonzero;"/>
        <path d="M98.35,101.52C100.517,108.767 103.323,114.51 106.77,118.75C108.897,121.357 110.097,121.65 110.37,119.63C111.223,120.437 111.28,121.177 110.54,121.85C110.293,122.077 110.017,122.113 109.71,121.96C103.9,119.06 102.35,112.36 99.7,107.69C99.54,107.41 99.42,107.113 99.34,106.8L98.06,101.97C98.16,102.003 98.257,101.853 98.35,101.52Z" style="fill:rgb(134,64,31);fill-rule:nonzero;"/>
        <path d="M202.43,101.65C202.517,101.75 202.58,101.867 202.62,102C202.707,102.287 202.617,102.49 202.35,102.61L195.57,105.72C196.843,103.973 199.13,102.617 202.43,101.65Z" style="fill:rgb(8,3,6);fill-rule:nonzero;"/>
        <path d="M19.63,102.47C20.89,106.237 21.507,109.847 21.48,113.3L19.37,102.99L19.63,102.47Z" style="fill:rgb(134,64,31);fill-rule:nonzero;"/>
        <path d="M228.28,102.61L234.32,110.39C231.787,108.33 229.773,105.737 228.28,102.61ZM96.67,118.1C97.05,118.293 97.243,118.453 97.25,118.58C97.251,118.596 97.251,118.612 97.251,118.627C97.251,119.17 96.804,119.617 96.261,119.617C96.183,119.617 96.106,119.608 96.03,119.59C91.82,118.56 88.99,123.24 86.58,126.77C86.393,127.043 86.143,127.13 85.83,127.03C85.437,126.91 85.323,126.647 85.49,126.24C86.21,124.447 86.59,122.817 86.63,121.35C86.643,120.973 86.502,120.608 86.24,120.34C84.747,118.82 82.927,117.967 80.78,117.78C80.469,117.748 80.19,117.579 80.02,117.32L74.26,108.22C73.48,107.487 73.577,107.273 74.55,107.58C74.641,107.606 74.722,107.662 74.78,107.74C76.7,110.387 78.4,113.167 79.88,116.08C80.031,116.382 80.317,116.593 80.65,116.65C83.077,117.043 85.227,118.033 87.1,119.62C87.367,119.847 87.5,120.137 87.5,120.49L87.5,123.03C87.497,123.119 87.521,123.207 87.569,123.281C87.702,123.49 87.986,123.549 88.199,123.414C88.273,123.366 88.332,123.299 88.37,123.22C90.09,119.587 92.857,117.88 96.67,118.1ZM223.44,122.55L224.68,125.94C224.714,126.027 224.731,126.12 224.731,126.213C224.731,126.63 224.388,126.973 223.971,126.973C223.8,126.973 223.634,126.916 223.5,126.81L216.33,121.37C216.043,121.15 215.877,120.86 215.83,120.5C215.343,116.747 214.14,113.137 212.22,109.67L211.85,108.97C211.723,108.73 211.79,108.637 212.05,108.69C212.31,108.743 212.527,108.947 212.7,109.3C214.44,112.967 215.727,116.463 216.56,119.79C216.653,120.143 216.843,120.433 217.13,120.66L222.04,124.56C222.138,124.636 222.259,124.678 222.384,124.678C222.63,124.678 222.849,124.516 222.92,124.28L223.44,122.55Z" style="fill:rgb(49,19,22);fill-rule:nonzero;"/>
        <path d="M176.59,109.9C176.817,110.153 176.937,110.447 176.95,110.78C176.951,110.8 176.95,110.82 176.949,110.839C176.927,111.135 176.67,111.36 176.38,111.338C176.36,111.336 176.34,111.334 176.32,111.33C173.807,110.883 171.6,111.467 169.7,113.08C169.213,113.493 168.997,113.383 169.05,112.75L169.13,111.64L176.59,109.9Z" style="fill:rgb(8,3,6);fill-rule:nonzero;"/>
        <path d="M108.8,109.98C109.4,110.72 109.64,111.813 109.52,113.26C109.495,113.535 109.603,113.805 109.81,113.98C112.91,116.58 114.98,119.83 116.02,123.73C116.12,124.11 116.307,124.16 116.58,123.88C120.68,119.72 124.83,118.57 127.36,112.69C126.707,117.203 124.2,120.413 119.84,122.32C119.67,122.392 119.521,122.51 119.41,122.66L117.06,125.68C116.886,125.9 116.62,126.028 116.34,126.028C115.907,126.028 115.53,125.723 115.44,125.3C114.62,121.307 112.743,117.927 109.81,115.16C109.557,114.927 109.41,114.64 109.37,114.3L108.8,109.98ZM66.15,122.53L66.45,126.76C66.45,126.766 66.45,126.772 66.45,126.778C66.45,126.975 66.288,127.138 66.09,127.138C65.924,127.138 65.778,127.022 65.74,126.86C64.193,120.12 60.19,115.247 53.73,112.24C53.39,112.027 53.223,111.773 53.23,111.48C53.243,111.013 53.46,110.883 53.88,111.09C58.42,113.33 62.51,117.143 66.15,122.53ZM182.9,110.71C185.413,114.883 188.423,117.82 191.93,119.52C192.15,119.76 192.32,120.167 192.44,120.74C192.54,121.207 192.373,121.337 191.94,121.13C190.187,120.283 188.473,118.97 186.8,117.19C184.787,115.043 183.487,112.883 182.9,110.71ZM149.13,123.12C149.417,123.047 149.27,122.973 148.69,122.9L149.98,118.36C150.073,118.02 150.023,117.707 149.83,117.42C148.097,114.88 145.703,113.3 142.65,112.68C142.17,112.547 142.23,112.177 142.83,111.57C143.083,111.317 143.373,111.26 143.7,111.4C148.98,113.66 152.46,116.92 149.13,123.12Z" style="fill:rgb(49,19,22);fill-rule:nonzero;"/>
        <path d="M203.21,111.5L203.18,111.75C203.153,111.977 203.063,112.173 202.91,112.34L196.66,119.03C196.513,119.19 196.36,119.193 196.2,119.04L190.9,113.83L196.2,117.7C196.54,117.947 196.843,117.907 197.11,117.58L201.04,112.77C201.227,112.537 201.453,112.357 201.72,112.23L203.21,111.5Z" style="fill:rgb(8,3,6);fill-rule:nonzero;"/>
        <path d="M46.61,112.96C44.91,123.08 36.46,124.31 27.59,122.87C27.37,122.503 27.4,122.103 27.68,121.67C27.873,121.377 28.14,121.277 28.48,121.37C34.64,123.14 42.63,122.29 45.23,115.43C45.563,114.543 46.023,113.72 46.61,112.96Z" style="fill:rgb(49,19,22);fill-rule:nonzero;"/>
        <path d="M141.67,116.24C142.25,117.307 142.52,118.387 142.48,119.48C142.46,120.033 142.307,120.077 142.02,119.61L139.31,115.28C140.31,115.14 141.097,115.46 141.67,116.24Z" style="fill:rgb(134,64,31);fill-rule:nonzero;"/>
        <path d="M137.04,115.69L131.4,125.06C131.247,125.313 131.05,125.35 130.81,125.17C127.997,123.083 127.173,120.547 128.34,117.56C128.38,119.64 129.227,121.417 130.88,122.89C131.187,123.157 131.413,123.1 131.56,122.72C132.767,119.527 134.593,117.183 137.04,115.69Z" style="fill:rgb(49,19,22);fill-rule:nonzero;"/>
        <path d="M158.96,122.46C163.37,120.65 167.48,117.81 171.94,121.7C172.2,121.927 172.473,121.95 172.76,121.77C175.78,119.93 179.19,118.773 182.99,118.3C183.41,118.247 183.68,118.053 183.8,117.72C183.873,117.52 183.803,117.427 183.59,117.44L177.16,117.88C176.864,117.896 176.599,117.69 176.54,117.4C176.433,116.833 176.597,116.5 177.03,116.4C179.123,116.913 181.173,116.85 183.18,116.21C183.274,116.18 183.372,116.164 183.47,116.164C183.984,116.164 184.408,116.586 184.41,117.1L184.42,118.03C184.425,118.365 184.21,118.668 183.89,118.78L172.17,122.76C171.863,122.867 171.597,122.803 171.37,122.57C167.94,118.99 162.84,121.65 159.62,124.44C159.273,124.74 159.023,124.673 158.87,124.24C158.703,123.793 158.733,123.2 158.96,122.46Z" style="fill:rgb(8,3,6);fill-rule:nonzero;"/>
        <path d="M223.9,116.16L231.46,126.92C231.524,127.011 231.628,127.064 231.738,127.064C231.873,127.064 231.996,126.984 232.05,126.86C233.71,122.933 236.45,120.81 240.27,120.49C236.057,122.457 233.177,125.337 231.63,129.13C231.47,129.523 231.323,129.52 231.19,129.12C230.47,127.03 230.21,125.41 228.65,123.7C226.683,121.533 225.1,119.02 223.9,116.16Z" style="fill:rgb(49,19,22);fill-rule:nonzero;"/>
        <path d="M13.39,116.65C18.31,117.423 21.513,118.707 23,120.5C23.673,121.313 23.65,121.83 22.93,122.05C22.93,121.52 15.34,117.98 13.39,116.65Z" style="fill:rgb(134,64,31);fill-rule:nonzero;"/>
        <path d="M67.3,117.4C68.853,118.353 70.063,119.507 70.93,120.86C71.084,121.101 71.351,121.247 71.637,121.247C71.902,121.247 72.152,121.122 72.31,120.91L74.53,117.94C74.383,119.44 73.83,120.797 72.87,122.01C72.663,122.27 72.533,122.563 72.48,122.89L72.16,124.96C72.047,125.707 71.87,125.723 71.63,125.01C70.73,122.403 69.287,119.867 67.3,117.4Z" style="fill:rgb(49,19,22);fill-rule:nonzero;"/>
        <path d="M155.77,118.19C156.29,121.89 151.53,123.65 148.96,125.46C148.453,125.82 148.247,125.693 148.34,125.08L148.69,122.9C149.27,122.973 149.417,123.047 149.13,123.12C152.157,122.307 154.37,120.663 155.77,118.19ZM210.62,118.76L204.24,126.72C204.013,127 203.867,126.963 203.8,126.61C203.647,125.823 203.837,125.167 204.37,124.64L210.62,118.76Z" style="fill:rgb(8,3,6);fill-rule:nonzero;"/>
        <path d="M56.23,122.6L56.46,123.87C56.527,124.217 56.397,124.443 56.07,124.55C54.643,125.037 53.497,126.03 52.63,127.53C52.237,127.443 51.983,127.317 51.87,127.15C51.763,127.003 51.82,126.797 52.04,126.53C53.2,125.117 54.597,123.807 56.23,122.6Z" style="fill:rgb(49,19,22);fill-rule:nonzero;"/>
    </g>
</svg>
