<?xml version="1.0" encoding="utf-8"?>
<svg width="598.88538" height="350.99329" viewBox="0 0 158.45508 92.866976" version="1.1" id="svg9136" xmlns="http://www.w3.org/2000/svg">
  <path id="path7905" d="M 37.291 9.825 C 34.575 9.825 32.38 12.021 32.38 14.736 L 32.38 20.917 L 32.38 22.717 L 32.38 78.765 C 32.38 81.128 34.292 83.042 36.655 83.042 L 121.799 83.042 C 124.163 83.042 126.077 81.128 126.077 78.765 L 126.077 20.917 C 126.077 18.553 124.163 16.639 121.799 16.639 L 69.007 16.639 L 67.865 16.639 C 66.593 16.639 64.559 15.771 63.817 13.266 C 63.396 11.847 62.366 10.979 61.377 10.479 C 60.389 9.98 59.468 9.827 59.045 9.827 C 53.17 9.828 42.468 9.825 37.606 9.825 L 37.291 9.825 Z M 37.291 10.458 C 42.044 10.458 53.083 10.46 59.045 10.46 C 59.284 10.46 60.206 10.595 61.091 11.043 C 61.977 11.491 62.85 12.229 63.211 13.447 C 64.032 16.215 66.306 17.272 67.865 17.272 L 69.007 17.272 L 121.799 17.272 C 123.823 17.272 125.444 18.893 125.444 20.917 L 125.444 78.765 C 125.444 80.789 123.823 82.409 121.799 82.409 L 36.655 82.409 C 34.631 82.409 33.011 80.789 33.011 78.765 L 33.011 22.717 L 33.011 20.917 L 33.011 14.736 C 33.011 12.36 34.915 10.458 37.291 10.458 Z" style="color:#000000;font-style:normal;font-variant:normal;font-weight:normal;font-stretch:normal;font-size:medium;line-height:normal;font-family:sans-serif;text-indent:0;text-align:start;text-decoration:none;text-decoration-line:none;text-decoration-style:solid;text-decoration-color:#000000;letter-spacing:normal;word-spacing:normal;text-transform:none;direction:ltr;writing-mode:lr-tb;baseline-shift:baseline;text-anchor:start;white-space:normal;clip-rule:nonzero;display:inline;overflow:visible;visibility:visible;opacity:1;isolation:auto;mix-blend-mode:normal;color-interpolation:sRGB;color-interpolation-filters:linearRGB;solid-color:#000000;solid-opacity:1;fill:#ffffff;fill-opacity:1;fill-rule:nonzero;stroke:none;stroke-width:0.58751982;stroke-linecap:butt;stroke-linejoin:miter;stroke-miterlimit:4;stroke-dasharray:none;stroke-dashoffset:0;stroke-opacity:1;color-rendering:auto;image-rendering:auto;shape-rendering:auto;text-rendering:auto;enable-background:accumulate"/>
  <path id="path7907" d="M 37.471 21.026 C 34.656 21.026 32.378 23.304 32.378 26.12 L 32.378 34.03 L 32.378 68.312 L 32.378 73.673 L 33.011 73.673 L 33.011 68.312 L 33.011 34.03 L 33.011 26.12 C 33.011 23.644 34.995 21.659 37.471 21.659 L 120.983 21.659 C 123.46 21.659 125.444 23.644 125.444 26.12 L 125.444 34.03 L 125.444 68.312 L 125.444 73.673 L 126.077 73.673 L 126.077 68.312 L 126.077 34.03 L 126.077 26.12 C 126.077 23.304 123.799 21.026 120.983 21.026 L 37.471 21.026 Z" style="color:#000000;font-style:normal;font-variant:normal;font-weight:normal;font-stretch:normal;font-size:medium;line-height:normal;font-family:sans-serif;text-indent:0;text-align:start;text-decoration:none;text-decoration-line:none;text-decoration-style:solid;text-decoration-color:#000000;letter-spacing:normal;word-spacing:normal;text-transform:none;direction:ltr;writing-mode:lr-tb;baseline-shift:baseline;text-anchor:start;white-space:normal;clip-rule:nonzero;display:inline;overflow:visible;visibility:visible;opacity:1;isolation:auto;mix-blend-mode:normal;color-interpolation:sRGB;color-interpolation-filters:linearRGB;solid-color:#000000;solid-opacity:1;fill:#ffffff;fill-opacity:1;fill-rule:nonzero;stroke:none;stroke-width:0.58751976;stroke-linecap:butt;stroke-linejoin:miter;stroke-miterlimit:4;stroke-dasharray:none;stroke-dashoffset:0;stroke-opacity:1;color-rendering:auto;image-rendering:auto;shape-rendering:auto;text-rendering:auto;enable-background:accumulate"/>
  <path id="rect7909" d="M 32.571 75.446 L 32.571 75.57 L 32.571 77.936 L 125.883 77.936 L 125.883 75.446 L 32.571 75.446 Z M 32.817 75.692 L 125.637 75.692 L 125.637 77.69 L 32.817 77.69 L 32.817 75.692 Z" style="color:#000000;font-style:normal;font-variant:normal;font-weight:normal;font-stretch:normal;font-size:medium;line-height:normal;font-family:sans-serif;text-indent:0;text-align:start;text-decoration:none;text-decoration-line:none;text-decoration-style:solid;text-decoration-color:#000000;letter-spacing:normal;word-spacing:normal;text-transform:none;direction:ltr;writing-mode:lr-tb;baseline-shift:baseline;text-anchor:start;white-space:normal;clip-rule:nonzero;display:inline;overflow:visible;visibility:visible;opacity:1;isolation:auto;mix-blend-mode:normal;color-interpolation:sRGB;color-interpolation-filters:linearRGB;solid-color:#000000;solid-opacity:1;fill:#ffffff;fill-opacity:1;fill-rule:nonzero;stroke:none;stroke-width:0.22847994;stroke-linecap:butt;stroke-linejoin:miter;stroke-miterlimit:4;stroke-dasharray:none;stroke-dashoffset:0;stroke-opacity:1;color-rendering:auto;image-rendering:auto;shape-rendering:auto;text-rendering:auto;enable-background:accumulate"/>
  <path id="rect5420" d="M 32.571 77.69 L 32.571 77.814 L 32.571 79.884 L 125.883 79.884 L 125.883 77.69 L 32.571 77.69 Z M 32.817 77.936 L 125.637 77.936 L 125.637 79.638 L 32.817 79.638 L 32.817 77.936 Z" style="color:#000000;font-style:normal;font-variant:normal;font-weight:normal;font-stretch:normal;font-size:medium;line-height:normal;font-family:sans-serif;text-indent:0;text-align:start;text-decoration:none;text-decoration-line:none;text-decoration-style:solid;text-decoration-color:#000000;letter-spacing:normal;word-spacing:normal;text-transform:none;direction:ltr;writing-mode:lr-tb;baseline-shift:baseline;text-anchor:start;white-space:normal;clip-rule:nonzero;display:inline;overflow:visible;visibility:visible;opacity:1;isolation:auto;mix-blend-mode:normal;color-interpolation:sRGB;color-interpolation-filters:linearRGB;solid-color:#000000;solid-opacity:1;fill:#ffffff;fill-opacity:1;fill-rule:nonzero;stroke:none;stroke-width:0.22847994;stroke-linecap:butt;stroke-linejoin:miter;stroke-miterlimit:4;stroke-dasharray:none;stroke-dashoffset:0;stroke-opacity:1;color-rendering:auto;image-rendering:auto;shape-rendering:auto;text-rendering:auto;enable-background:accumulate"/>
  <path d="M 95.061 36.155 L 90.438 32.551 L 91.526 31.319 L 98.854 37.041 L 91.533 42.774 L 90.445 41.541 L 95.259 37.791 L 88.449 37.791 C 82.644 37.861 79.936 43.362 77.136 49.283 C 79.936 55.202 82.644 60.703 88.449 60.774 L 95.156 60.774 L 90.438 57.097 L 91.526 55.864 L 98.854 61.587 L 91.533 67.319 L 90.445 66.087 L 95.164 62.41 L 88.439 62.41 C 82.063 62.332 78.974 56.897 76.23 51.188 C 73.469 56.932 70.352 62.384 63.893 62.41 L 59.601 62.41 L 59.601 60.774 L 63.89 60.774 C 69.781 60.75 72.51 55.231 75.325 49.283 C 72.51 43.333 69.781 37.814 63.89 37.791 L 59.601 37.791 L 59.601 36.155 L 63.893 36.155 C 70.352 36.181 73.469 41.633 76.23 47.377 C 78.974 41.668 82.063 36.233 88.439 36.155 L 95.061 36.155 Z" style="fill: rgb(255, 255, 255);"/>
</svg>