<?xml version="1.0" encoding="utf-8"?>
<!-- Generator: Adobe Illustrator 16.0.3, SVG Export Plug-In . SVG Version: 6.00 Build 0)  -->
<!DOCTYPE svg PUBLIC "-//W3C//DTD SVG 1.1//EN" "http://www.w3.org/Graphics/SVG/1.1/DTD/svg11.dtd">
<svg version="1.1" id="Layer_1" xmlns:svg="http://www.w3.org/2000/svg"
	 xmlns="http://www.w3.org/2000/svg" xmlns:xlink="http://www.w3.org/1999/xlink" x="0px" y="0px" width="568.929px"
	 height="116.145px" viewBox="0 0 500 165" enable-background="new -1 -1 568.929 116.145" xml:space="preserve">
<g>
     <path d="M483.887,30.271c0.31,0.039 1.165,0.233 1.903,0.505c0.777,0.272 2.02,0.932 2.836,1.554c0.777,0.583 1.865,1.865 2.37,2.914c0.505,1.01 1.127,2.758 1.36,3.846c0.233,1.127 0.427,3.808 0.427,5.944c0,2.293 -0.31,5.362 -0.738,7.499c-0.427,1.942 -1.321,5.167 -2.02,7.071c-0.699,1.903 -2.253,5.011 -3.458,6.915c-1.165,1.865 -3.186,4.429 -4.468,5.75c-1.282,1.282 -3.302,2.991 -4.467,3.768c-1.166,0.739 -2.37,1.399 -2.681,1.399c-0.389,0.039 -0.933,-1.127 -1.671,-3.458c-0.583,-1.903 -1.165,-3.768 -1.282,-4.079c-0.116,-0.311 -1.01,1.787 -3.691,9.907l-2.253,0.311c-1.282,0.155 -3.069,0.116 -4.235,-0.117c-1.127,-0.194 -2.447,-0.582 -2.914,-0.816c-0.505,-0.233 -1.748,-1.087 -4.778,-3.341l-2.331,2.098c-1.36,1.205 -3.808,2.797 -5.828,3.808c-2.098,1.049 -4.74,1.981 -6.605,2.369c-1.981,0.389 -3.807,0.506 -5.05,0.35c-1.049,-0.155 -2.72,-0.505 -3.691,-0.855c-0.971,-0.31 -2.526,-1.087 -3.497,-1.67c-0.971,-0.622 -2.137,-1.632 -3.496,-3.497l3.224,0.078c1.982,0.039 4.157,-0.194 5.711,-0.583c1.399,-0.349 3.769,-1.282 5.245,-2.02c1.515,-0.738 3.963,-2.409 8.159,-5.983l1.36,1.204c0.738,0.661 2.331,1.671 3.496,2.215c1.71,0.777 2.72,0.932 5.051,0.893c1.593,0 4.312,-0.388 6.022,-0.854c1.709,-0.428 4.312,-1.477 5.789,-2.254c1.593,-0.854 3.768,-2.486 5.245,-4.001c1.398,-1.399 3.263,-3.303 4.157,-4.274c0.854,-0.932 1.864,-2.137 2.214,-2.681c0.35,-0.544 0.699,-1.515 0.816,-2.137c0.078,-0.621 0.622,-2.175 1.166,-3.418c0.543,-1.205 1.359,-3.575 1.787,-5.245c0.388,-1.632 0.932,-4.818 1.204,-7.071c0.311,-2.992 0.311,-4.857 0,-6.993c-0.233,-1.593 -0.544,-3.38 -0.699,-4.002c-0.156,-0.738 -0.078,-1.049 0.311,-1.049Zm-184.854,0.777l2.176,0c1.632,0 2.525,0.194 3.497,0.855c0.738,0.505 1.67,1.437 2.059,2.059c0.66,1.088 0.66,1.826 0.116,17.638l-1.748,0.738c-0.971,0.389 -2.953,1.671 -7.187,4.857l0.272,-5.595c0.155,-3.069 0.427,-8.974 0.544,-13.054l0.271,-7.498Zm161.893,2.331l1.359,0c1.36,0 1.36,0 1.399,1.632c-0,0.893 0.311,2.37 0.699,3.224c0.389,0.816 1.205,1.943 1.826,2.448c0.622,0.505 1.632,1.01 2.254,1.166c1.049,0.233 1.088,0.349 0.893,1.826c-0.116,0.815 -0.349,4.312 -0.854,13.831l-1.36,0.815c-0.738,0.467 -2.059,0.894 -2.914,1.011c-1.282,0.155 -1.71,-0 -2.603,-0.855c-0.622,-0.583 -1.204,-1.671 -1.321,-2.487c-0.155,-0.816 -0.078,-5.4 0.194,-10.217c0.233,-4.779 0.466,-9.558 0.466,-10.568l-0.038,-1.826Zm-26.108,4.274c0.777,-0 2.02,0.233 2.797,0.544c0.738,0.31 1.826,1.049 2.409,1.67c0.621,0.583 1.165,1.554 1.282,2.176c0.078,0.583 0.349,1.049 0.583,1.049c0.194,-0 0.388,0.427 0.388,0.971c0,0.544 -0.194,1.049 -0.388,1.166c-0.234,0.116 -0.389,1.593 -0.35,3.419c0.039,1.748 -0.039,4.662 -0.155,6.488c-0.117,1.826 -0.506,4.001 -0.855,4.856c-0.35,0.855 -1.01,1.943 -1.515,2.448c-0.467,0.505 -1.477,1.049 -2.293,1.243c-1.087,0.311 -1.748,0.233 -2.603,-0.194c-0.66,-0.311 -1.398,-1.049 -1.67,-1.632c-0.35,-0.855 -0.35,-3.225 0.039,-10.801c0.272,-5.322 0.582,-10.528 0.699,-11.538c0.194,-1.826 0.233,-1.865 1.632,-1.865Zm38.812,5.322c0.078,1.01 -0,1.943 -0.117,2.059c-0.116,0.117 -0.388,-0.077 -0.582,-0.388c-0.195,-0.311 -0.467,-1.01 -0.622,-1.554c-0.155,-0.699 -0.039,-1.127 0.505,-1.477c0.66,-0.466 0.738,-0.388 0.816,1.36Zm-64.182,0.466l1.748,0.7c0.933,0.388 2.059,0.893 2.487,1.126c0.738,0.389 0.738,0.583 0.311,7.576c-0.272,3.924 -0.467,7.732 -0.467,8.431c0,1.127 -0.116,1.243 -1.165,1.243c-0.661,0 -1.593,0.195 -2.059,0.428c-0.466,0.272 -2.37,1.631 -4.157,3.069c-1.826,1.476 -4.701,3.38 -6.411,4.312c-2.409,1.244 -3.691,1.71 -5.439,1.826c-1.709,0.117 -2.719,0 -3.613,-0.466c-0.699,-0.349 -1.593,-1.204 -2.02,-1.865c-0.428,-0.699 -0.777,-1.437 -0.777,-1.67c-0,-0.233 1.437,-0.777 3.185,-1.282c1.749,-0.467 4.507,-1.516 6.139,-2.254c1.593,-0.777 3.963,-2.137 5.245,-3.03c1.282,-0.933 3.147,-2.603 4.196,-3.769c1.01,-1.165 2.253,-2.875 2.719,-3.846c0.661,-1.36 0.816,-2.448 0.816,-4.856c0,-1.71 -0.155,-3.691 -0.349,-4.39l-0.389,-1.283Zm-278.29,2.526l1.787,0.311c0.972,0.155 2.487,0.815 3.342,1.398c0.854,0.583 1.942,1.787 2.408,2.603c0.622,1.088 0.894,2.215 0.894,3.691c-0,1.671 -0.233,2.487 -1.049,3.769c-0.622,0.893 -1.709,1.981 -2.448,2.37c-0.738,0.427 -1.787,0.854 -2.331,0.971c-0.544,0.116 -2.719,0.272 -4.856,0.311c-2.137,0.039 -4.856,0.233 -6.022,0.427c-1.166,0.233 -2.914,0.738 -3.885,1.166c-0.971,0.427 -2.525,1.398 -3.458,2.175c-0.932,0.777 -2.447,2.564 -3.341,3.963c-0.932,1.399 -2.176,3.574 -2.758,4.856c-0.544,1.282 -1.554,3.808 -2.176,5.634c-0.622,1.826 -1.554,4.973 -2.059,6.993c-0.544,2.02 -1.243,5.245 -1.554,7.187c-0.35,1.904 -0.661,5.634 -0.777,13.093l-1.438,1.321c-0.854,0.738 -1.903,1.321 -2.447,1.321c-0.622,0 -1.36,-0.466 -2.059,-1.282c-0.583,-0.699 -1.36,-2.215 -1.671,-3.38c-0.35,-1.476 -0.544,-4.118 -0.544,-8.353c0.039,-4.856 0.233,-7.187 0.932,-10.684c0.467,-2.448 1.593,-6.76 2.448,-9.519c0.816,-2.797 2.409,-6.876 3.536,-9.13c1.592,-3.302 2.525,-4.623 4.739,-6.837c2.098,-2.098 3.264,-2.953 5.051,-3.613c1.904,-0.739 3.38,-0.933 7.964,-1.088c4.857,-0.195 5.906,-0.35 7.693,-1.127c1.399,-0.66 2.331,-1.437 3.108,-2.564c0.855,-1.321 1.049,-2.02 1.01,-3.808l-0.039,-2.175Zm218.615,6.061l-0.777,1.165c-0.428,0.661 -0.855,1.166 -0.971,1.166c-0.117,-0 -0.195,-0.505 -0.195,-1.166c0,-0.971 0.156,-1.165 1.943,-1.165Zm-24.981,5.089c0.194,0.117 1.165,0.505 2.175,0.932c1.787,0.777 1.826,0.816 1.826,2.526c0,0.971 -0.349,9.285 -1.709,35.16l-1.71,1.554c-0.971,0.855 -2.603,2.253 -3.729,3.069c-1.088,0.816 -3.108,2.059 -4.507,2.759c-1.399,0.699 -3.497,1.554 -4.662,1.903c-1.166,0.35 -3.613,0.816 -5.439,1.049c-2.681,0.311 -3.846,0.272 -6.216,-0.194c-1.593,-0.35 -3.769,-1.049 -4.857,-1.554c-1.049,-0.466 -2.719,-1.593 -3.691,-2.448c-0.971,-0.893 -1.67,-1.67 -1.554,-1.787c0.117,-0.116 1.438,-0.039 2.914,0.195c2.254,0.349 3.38,0.31 6.411,-0.234c2.02,-0.349 5.011,-1.204 6.604,-1.826c1.593,-0.66 3.885,-1.826 5.051,-2.603c1.165,-0.777 3.263,-2.486 4.623,-3.768c1.36,-1.282 3.225,-3.38 4.157,-4.662c0.894,-1.282 2.331,-3.808 3.186,-5.634c0.855,-1.826 1.865,-4.506 2.253,-6.022c0.544,-1.942 0.739,-4.079 0.7,-7.576c-0,-4.04 -0.156,-5.244 -0.855,-7.187c-0.505,-1.282 -0.971,-2.642 -1.088,-3.069c-0.116,-0.389 -0.039,-0.661 0.117,-0.583Zm29.682,2.292c0.194,0 0.466,0.505 0.583,1.088c0.155,0.583 0.466,1.476 0.738,2.02c0.272,0.544 1.282,1.36 2.292,1.865c0.971,0.466 2.176,0.855 2.681,0.855c0.466,-0 0.971,0.116 1.126,0.272c0.156,0.194 -0.466,1.127 -1.359,2.098c-0.894,0.971 -2.137,2.797 -2.759,4.079c-0.621,1.282 -1.437,3.885 -1.826,5.789c-0.388,1.943 -0.893,5.866 -1.127,8.741c-0.271,3.73 -0.621,5.75 -1.204,6.994c-0.427,0.971 -1.165,2.175 -1.632,2.68c-0.466,0.505 -1.476,1.205 -2.214,1.593c-0.738,0.389 -3.069,1.01 -5.128,1.321c-2.098,0.35 -4.391,0.933 -5.051,1.243c-0.699,0.35 -1.865,1.049 -2.525,1.554c-0.7,0.544 -1.36,0.894 -1.438,0.855c-0.116,-0.078 -0.078,-2.175 0.35,-9.363l2.525,-0.505c1.399,-0.311 3.186,-0.971 4.002,-1.515c0.777,-0.544 1.787,-1.632 2.175,-2.409c0.428,-0.816 0.933,-2.253 1.166,-3.225c0.233,-0.971 0.583,-3.924 0.816,-6.604c0.194,-2.681 0.66,-6.178 0.971,-7.77c0.35,-1.593 1.127,-3.963 1.748,-5.245c0.622,-1.282 1.943,-3.225 2.914,-4.352c1.01,-1.126 1.982,-2.059 2.176,-2.059Zm-265.469,4.274c0.66,-0 1.243,0.194 1.243,0.388c0,0.233 -0.505,1.399 -1.126,2.642c-0.622,1.205 -1.71,3.691 -2.448,5.517c-0.777,1.826 -1.554,3.924 -1.787,4.662c-0.35,1.166 -0.738,1.477 -2.215,1.943c-1.593,0.544 -1.826,0.777 -2.525,2.525c-0.427,1.088 -1.01,2.914 -1.826,6.216l-2.098,0.233c-1.166,0.117 -2.603,0.428 -3.264,0.7c-0.621,0.272 -1.903,1.01 -2.797,1.631c-1.67,1.127 -1.67,1.127 -1.67,0.272c-0,-0.505 0.349,-2.836 0.777,-5.245c0.427,-2.408 1.204,-5.749 1.748,-7.381c0.505,-1.671 1.165,-3.341 1.476,-3.691c0.272,-0.389 1.71,-1.049 3.225,-1.476c1.476,-0.428 3.885,-1.36 5.361,-2.021c1.516,-0.738 3.225,-1.903 3.963,-2.719c0.738,-0.816 1.438,-1.943 1.593,-2.526c0.117,-0.582 0.427,-1.204 0.661,-1.359c0.233,-0.156 1.01,-0.311 1.709,-0.311Zm277.163,0.466c0.155,-0.039 0.35,1.282 0.388,2.953c0.078,1.631 0.078,3.03 0.039,3.108c-0.077,0.039 -0.466,-0.078 -0.893,-0.311c-0.428,-0.194 -1.127,-0.932 -1.554,-1.632c-0.428,-0.699 -0.777,-1.709 -0.777,-2.253c-0,-0.738 0.272,-1.049 1.243,-1.399c0.699,-0.233 1.399,-0.466 1.554,-0.466Zm-90.367,1.088c0.31,-0 1.165,0.311 3.302,1.36l-0.311,6.022c-0.155,3.302 -0.311,7.187 -0.311,8.625c0,2.525 -0.039,2.603 -1.049,2.797c-0.621,0.155 -3.224,1.826 -5.827,3.807c-2.642,1.943 -5.906,4.08 -7.304,4.74c-1.826,0.855 -3.108,1.166 -4.662,1.166c-1.283,-0 -2.642,-0.272 -3.38,-0.661c-0.7,-0.35 -1.555,-1.204 -1.904,-1.904c-0.311,-0.699 -0.505,-1.437 -0.428,-1.67c0.117,-0.194 1.205,-0.622 2.448,-0.894c1.282,-0.311 3.613,-1.088 5.206,-1.748c1.593,-0.661 4.157,-2.02 5.633,-2.992c1.516,-1.01 3.769,-2.913 5.09,-4.312c1.554,-1.671 2.603,-3.225 3.186,-4.701c0.466,-1.282 0.854,-3.147 0.854,-4.274c0,-1.126 -0.233,-2.797 -0.543,-3.691c-0.505,-1.437 -0.505,-1.67 -0,-1.67Zm-46.699,6.216c0.427,0 1.709,0.427 2.758,0.932c1.088,0.506 2.37,1.36 3.885,2.953l-0.816,1.865c-0.466,1.01 -1.165,2.797 -1.554,3.963c-0.582,1.67 -0.738,3.263 -0.738,6.993c0.039,4.118 0.156,5.167 0.894,6.915c0.854,2.021 0.854,2.021 0.077,2.409c-0.427,0.233 -1.359,0.389 -2.02,0.389c-0.699,-0 -1.67,-0.233 -2.137,-0.583c-0.544,-0.35 -1.01,-1.166 -1.126,-2.02c-0.156,-0.816 -0.078,-5.944 0.194,-11.384c0.311,-6.371 0.35,-10.334 0.078,-11.15c-0.311,-1.165 -0.272,-1.282 0.505,-1.282Zm185.319,0.427l1.632,1.826c0.854,1.011 2.253,2.176 3.03,2.603c0.777,0.428 1.399,0.933 1.399,1.088c-0,0.156 -0.855,1.282 -1.865,2.526c-1.01,1.204 -3.341,3.418 -5.167,4.856c-1.787,1.437 -4.662,3.341 -6.372,4.157c-1.709,0.855 -4.584,1.943 -6.41,2.37c-2.681,0.699 -4.041,0.816 -7.382,0.66c-2.992,-0.155 -4.701,-0.427 -6.41,-1.087c-1.283,-0.506 -3.38,-1.71 -4.663,-2.681c-1.282,-0.971 -2.253,-1.943 -2.175,-2.176c0.077,-0.194 0.311,-0.311 0.583,-0.233c0.233,0.078 2.175,0.233 4.312,0.35c3.147,0.155 4.507,0.039 7.187,-0.661c1.826,-0.427 4.429,-1.36 5.828,-2.02c1.399,-0.66 3.419,-1.787 4.468,-2.486c1.088,-0.7 3.186,-2.37 4.662,-3.652c1.515,-1.321 2.836,-2.37 3.03,-2.37c0.156,-0 1.166,-0.7 2.293,-1.516l2.02,-1.554Zm-360.693,3.458l3.303,0c1.826,0 3.302,0.039 3.302,0.078c-0,0.078 -0.622,1.515 -1.36,3.224c-1.165,2.681 -1.515,3.147 -2.603,3.497c-0.699,0.194 -1.748,0.699 -2.331,1.049c-0.622,0.389 -1.36,1.243 -1.709,1.943c-0.389,0.815 -0.544,1.748 -0.389,2.525c0.156,0.777 0.622,1.515 1.204,1.865c0.544,0.311 1.283,0.505 1.671,0.388c0.583,-0.155 0.544,0.389 -0.583,5.362c-0.699,3.03 -1.282,5.672 -1.282,5.905c0,0.194 -1.126,1.049 -2.447,1.904c-1.321,0.816 -3.458,2.02 -4.74,2.603c-1.282,0.621 -3.652,1.398 -5.245,1.748c-1.981,0.427 -3.613,0.544 -5.051,0.389c-1.165,-0.156 -2.642,-0.622 -3.302,-1.011c-0.622,-0.427 -1.748,-0.777 -2.487,-0.777c-0.738,0 -1.204,-0.077 -1.087,-0.194c0.155,-0.116 -0.622,-1.049 -1.671,-2.059c-1.088,-1.01 -1.942,-1.904 -1.942,-2.02c-0,-0.117 0.854,-0.078 1.864,0.116c1.01,0.156 2.992,0.117 4.468,-0.116c1.438,-0.233 3.613,-0.816 4.857,-1.321c1.204,-0.505 3.341,-1.593 4.739,-2.409c1.399,-0.816 3.847,-2.797 5.478,-4.39c1.632,-1.632 3.264,-3.574 3.652,-4.312c0.389,-0.739 0.7,-1.982 0.739,-2.759c0.038,-0.777 -0.234,-1.709 -0.544,-2.098c-0.467,-0.505 -1.088,-0.621 -3.031,-0.544c-2.098,0.117 -2.564,0.039 -3.03,-0.621c-0.311,-0.428 -0.544,-1.477 -0.544,-2.331c0.039,-1.283 0.311,-1.826 1.476,-2.992c0.777,-0.738 2.137,-1.593 2.992,-1.826c0.855,-0.233 1.67,-0.272 1.787,-0.117c0.117,0.156 0.544,1.36 0.971,2.72c0.389,1.321 0.816,2.409 0.933,2.409c0.116,-0 0.582,-1.321 1.088,-2.914l0.854,-2.914Zm152.84,8.936c0.738,-0.039 1.476,0.311 2.02,0.855c0.467,0.466 0.972,1.321 1.088,1.864c0.117,0.506 -0.039,4.546 -0.349,8.936c-0.35,4.623 -0.467,8.431 -0.272,9.13c0.194,0.661 0.116,3.108 -0.156,5.828c-0.272,2.564 -0.699,5.167 -0.971,5.827c-0.233,0.622 -0.777,1.632 -1.205,2.215c-0.388,0.583 -1.437,1.437 -2.292,1.865c-0.854,0.427 -3.069,1.049 -4.934,1.36c-1.865,0.31 -4.079,0.777 -4.856,0.971c-0.816,0.194 -2.292,1.127 -5.09,3.691l0.272,-5.051c0.156,-2.797 0.311,-5.089 0.35,-5.128c0.039,-0.078 1.01,-0.272 2.137,-0.505c1.126,-0.233 2.719,-0.738 3.574,-1.166c0.855,-0.427 1.981,-1.36 2.525,-2.059c0.505,-0.699 1.205,-2.214 1.516,-3.38c0.272,-1.204 0.66,-5.206 0.815,-8.936c0.156,-3.768 0.428,-8.003 0.622,-9.44c0.194,-1.438 0.699,-3.303 1.127,-4.158c0.427,-0.854 1.282,-1.826 1.865,-2.136c0.582,-0.311 1.592,-0.583 2.214,-0.583Zm-55.596,2.564c0.467,0.155 1.438,0.622 2.215,1.088c0.738,0.427 1.709,1.049 2.991,1.981l-0.932,14.764c-0.466,8.12 -0.933,16.084 -1.127,20.668l-2.409,1.904c-1.359,1.049 -3.69,2.525 -5.244,3.341c-1.554,0.777 -3.963,1.71 -5.362,2.059c-1.36,0.35 -3.924,0.739 -5.633,0.855c-1.71,0.117 -4.041,0 -5.245,-0.233c-1.166,-0.272 -3.031,-0.894 -4.157,-1.437c-1.127,-0.506 -2.836,-1.671 -3.808,-2.604c-0.971,-0.893 -1.748,-1.787 -1.748,-1.942c0,-0.155 0.738,-0.078 1.671,0.155c0.932,0.233 3.147,0.311 5.128,0.195c2.176,-0.117 4.701,-0.544 6.605,-1.166c1.709,-0.544 4.273,-1.671 5.633,-2.486c1.399,-0.777 4.041,-2.914 5.867,-4.74c2.486,-2.487 3.729,-4.08 4.934,-6.411c0.893,-1.709 1.981,-4.701 2.447,-6.604c0.7,-2.875 0.816,-4.235 0.622,-7.576c-0.117,-2.681 -0.466,-4.973 -1.01,-6.605c-0.466,-1.399 -1.205,-3.108 -1.593,-3.807c-0.427,-0.7 -0.738,-1.36 -0.738,-1.477c0.039,-0.116 0.427,-0.077 0.893,0.078Zm28.556,1.671c0.855,-0 1.67,0.272 2.098,0.699c0.388,0.388 0.777,1.399 0.893,2.253c0.117,0.855 -0.116,7.732 -0.582,15.346c-0.428,7.576 -0.7,13.831 -0.583,13.87c0.077,0.078 -0,0.311 -0.233,0.583c-0.233,0.272 -0.777,1.049 -1.166,1.748c-0.505,0.816 -1.476,1.593 -2.797,2.215c-1.127,0.505 -3.574,1.165 -5.439,1.437c-1.865,0.311 -3.419,0.661 -3.419,0.816c-0,0.156 -0.194,0.272 -0.466,0.233l-1.088,0c-0.311,0.039 -1.438,0.777 -4.39,3.38l0.272,-3.691c0.116,-2.059 0.233,-4.351 0.233,-5.167c-0,-1.437 0.039,-1.437 1.865,-1.67c1.01,-0.156 2.525,-0.505 3.38,-0.816c0.854,-0.311 1.981,-0.933 2.486,-1.399c0.505,-0.466 1.282,-1.67 1.709,-2.603c0.544,-1.243 0.855,-3.224 1.088,-6.604c0.195,-2.681 0.505,-7.227 0.7,-10.102c0.259,-3.496 0.621,-5.815 1.087,-6.954c0.389,-0.971 1.205,-2.137 1.826,-2.642c0.7,-0.583 1.593,-0.894 2.526,-0.932Zm101.362,4.701c0.272,-0 0.971,0.582 1.554,1.282c0.583,0.699 1.787,1.903 2.72,2.603c1.321,1.088 1.554,1.476 1.243,2.02c-0.194,0.388 -1.476,1.826 -2.797,3.263c-1.36,1.399 -3.652,3.497 -5.168,4.624c-1.476,1.126 -4.195,2.797 -6.021,3.729c-2.332,1.166 -4.468,1.865 -7.382,2.409c-3.613,0.699 -4.429,0.738 -7.576,0.35c-2.215,-0.311 -4.313,-0.855 -5.828,-1.554c-1.282,-0.622 -3.069,-1.787 -5.672,-4.157l-1.01,1.36c-0.583,0.738 -1.748,2.02 -2.603,2.875c-0.855,0.854 -2.642,2.214 -3.924,3.03c-1.282,0.816 -3.225,1.826 -4.351,2.253c-1.127,0.428 -3.225,0.972 -4.663,1.205c-2.136,0.31 -3.03,0.31 -4.778,-0.195c-1.166,-0.31 -2.875,-1.126 -3.769,-1.787c-0.932,-0.66 -1.903,-1.67 -2.758,-3.302l2.797,-0.505c1.515,-0.311 3.924,-0.971 5.284,-1.515c1.398,-0.544 3.574,-1.749 4.856,-2.642c1.282,-0.894 3.225,-2.642 4.274,-3.846c1.088,-1.205 2.098,-2.176 2.253,-2.176c0.156,-0 1.36,0.777 2.72,1.748c1.437,1.088 3.457,2.098 4.934,2.564c1.398,0.389 3.574,0.855 4.856,0.972c1.282,0.116 3.652,0.038 5.245,-0.234c1.632,-0.233 4.157,-0.854 5.633,-1.398c1.516,-0.505 4.041,-1.71 5.634,-2.603c1.554,-0.894 4.196,-2.875 5.828,-4.39c1.592,-1.516 3.108,-2.72 3.302,-2.642c0.233,0.078 1.36,-0.622 2.525,-1.593c1.205,-0.933 2.37,-1.71 2.642,-1.748Zm-206.493,6.216c0.583,-0 1.632,0.233 2.331,0.505c0.855,0.35 1.399,0.932 1.748,1.826c0.272,0.738 0.467,2.059 0.467,2.914c-0,1.243 -0.311,1.826 -1.477,3.108c-0.971,1.01 -1.748,2.409 -2.292,4.079c-0.466,1.36 -1.282,5.672 -1.865,9.519c-0.544,3.846 -1.243,8.119 -1.593,9.518c-0.311,1.36 -1.01,3.769 -1.515,5.323c-0.544,1.554 -1.515,3.924 -2.176,5.245c-0.66,1.359 -2.059,3.652 -3.03,5.167c-1.01,1.476 -2.953,3.924 -4.312,5.361c-1.399,1.477 -3.652,3.497 -5.051,4.507c-1.36,1.01 -3.302,2.292 -4.274,2.875c-0.932,0.544 -3.147,1.554 -4.856,2.214c-1.709,0.7 -4.856,1.593 -6.993,2.021c-2.953,0.582 -4.895,0.699 -8.353,0.582c-3.497,-0.155 -5.129,-0.427 -7.576,-1.243c-1.71,-0.583 -4.041,-1.632 -5.245,-2.331c-1.166,-0.738 -2.642,-1.865 -3.302,-2.525c-0.622,-0.661 -1.049,-1.205 -0.972,-1.205c0.117,0 1.593,0.389 3.303,0.816c1.981,0.505 4.39,0.777 6.604,0.777c1.982,0 5.129,-0.349 7.188,-0.777c2.059,-0.388 4.74,-1.126 6.022,-1.554c1.282,-0.466 3.729,-1.554 5.4,-2.447c1.671,-0.894 4.39,-2.759 6.022,-4.08c1.632,-1.36 3.73,-3.38 4.662,-4.468c0.971,-1.126 2.72,-3.535 3.885,-5.322c1.205,-1.826 2.759,-4.701 3.458,-6.411c0.738,-1.709 1.748,-4.701 2.253,-6.604c0.505,-1.943 1.438,-6.993 2.059,-11.267c0.661,-4.274 1.516,-8.742 1.943,-9.907c0.427,-1.204 1.36,-2.797 2.059,-3.613c0.738,-0.816 1.981,-1.748 2.836,-2.02c0.855,-0.311 2.059,-0.583 2.642,-0.583Zm-37.608,12.393c1.749,0 2.603,0.195 3.419,0.777c0.738,0.583 1.049,1.166 1.049,1.982c0,0.621 -0.388,2.175 -0.932,3.38c-0.505,1.243 -1.01,2.564 -1.166,2.914c-0.116,0.427 -0.621,0.699 -1.282,0.699c-0.583,-0 -1.748,-0.194 -2.525,-0.389c-0.816,-0.233 -2.059,-0.932 -2.836,-1.554c-0.933,-0.816 -1.438,-1.631 -1.593,-2.642c-0.117,-0.777 -0.039,-2.136 0.233,-2.991c0.388,-1.36 0.621,-1.593 1.67,-1.671c0.7,-0.077 1.321,-0.194 1.438,-0.31c0.078,-0.078 1.204,-0.156 2.525,-0.195Zm71.02,3.497c0.272,-0 1.088,1.165 1.826,2.642c0.738,1.437 2.214,3.535 5.245,6.643l-0.894,2.448c-0.505,1.36 -1.632,3.613 -2.564,5.012c-0.932,1.359 -2.525,3.263 -3.574,4.234c-1.049,0.933 -2.836,2.137 -4.041,2.681c-1.165,0.505 -3.069,1.049 -4.273,1.127c-1.593,0.155 -2.72,-0.039 -4.468,-0.7c-1.593,-0.621 -2.914,-1.515 -6.216,-4.817l2.331,-0.272c1.282,-0.117 3.224,-0.66 4.273,-1.166c1.049,-0.505 2.875,-1.787 4.041,-2.836c1.165,-1.088 2.758,-2.914 3.535,-4.079c0.816,-1.204 1.904,-3.302 2.448,-4.662c0.544,-1.399 1.126,-3.069 1.282,-3.691c0.116,-0.66 0.311,-1.476 0.427,-1.865c0.078,-0.35 0.389,-0.66 0.622,-0.699Z" style="fill:#ffc764;"/>
     <path id="Path-1" d="M475.135,24.443c0.971,0 2.37,0.156 3.108,0.389c0.738,0.194 2.137,1.01 3.108,1.865c1.049,0.893 2.098,2.292 2.642,3.496c0.466,1.127 1.049,3.38 1.282,5.012c0.311,2.215 0.311,4.118 0,7.11c-0.272,2.253 -0.816,5.478 -1.243,7.187c-0.428,1.71 -1.71,5.012 -2.875,7.382c-1.127,2.37 -2.953,5.439 -4.041,6.915c-1.088,1.438 -3.069,3.497 -4.39,4.585c-1.36,1.127 -3.496,2.525 -4.779,3.186c-1.282,0.621 -3.652,1.476 -5.244,1.903c-1.593,0.389 -4.235,0.777 -5.828,0.777c-2.331,0.039 -3.341,-0.116 -5.051,-0.893c-1.165,-0.544 -2.758,-1.554 -4.856,-3.419l-2.525,2.137c-1.399,1.165 -3.38,2.642 -4.468,3.263c-1.049,0.622 -2.914,1.476 -4.08,1.865c-1.165,0.427 -3.38,0.971 -4.856,1.204c-2.214,0.389 -3.225,0.389 -5.439,-0.077c-1.476,-0.311 -3.458,-0.933 -4.351,-1.399c-0.933,-0.427 -2.37,-1.476 -3.264,-2.292c-0.855,-0.777 -1.942,-2.254 -3.263,-5.128l-1.632,2.331c-0.933,1.282 -2.681,3.302 -3.885,4.429c-1.243,1.165 -3.225,2.836 -4.39,3.729c-1.166,0.894 -3.536,2.292 -5.245,3.147c-1.71,0.816 -4.507,1.865 -6.216,2.292c-1.788,0.467 -4.391,0.777 -6.1,0.777c-1.671,0 -3.963,-0.194 -5.051,-0.427c-1.126,-0.233 -3.263,-1.088 -4.739,-1.865c-1.749,-0.893 -3.419,-2.214 -4.818,-3.729c-1.166,-1.283 -2.486,-3.031 -2.914,-3.886c-0.427,-0.854 -1.088,-2.875 -1.476,-4.467c-0.428,-1.593 -0.738,-4.002 -0.738,-5.362c-0,-2.137 -0.078,-2.37 -0.661,-2.176c-0.388,0.117 -1.204,0.389 -1.865,0.622c-0.66,0.194 -1.826,0.35 -2.603,0.35c-0.816,-0.039 -2.292,-0.428 -3.263,-0.933c-1.01,-0.466 -2.02,-1.282 -2.292,-1.826c-0.272,-0.544 -0.583,-1.437 -0.739,-2.059c-0.116,-0.583 -0.427,-1.049 -0.621,-1.049c-0.194,0 -1.166,0.933 -2.137,2.021c-0.971,1.126 -2.292,3.108 -2.914,4.39c-0.621,1.282 -1.398,3.652 -1.748,5.245c-0.35,1.592 -0.777,5.089 -1.01,7.77c-0.194,2.68 -0.544,5.633 -0.777,6.604c-0.233,0.972 -0.738,2.409 -1.166,3.186c-0.388,0.816 -1.398,1.904 -2.175,2.448c-0.933,0.621 -2.72,1.204 -4.779,1.593c-1.826,0.349 -4.235,0.893 -5.4,1.243c-1.166,0.388 -2.759,1.243 -5.09,3.186l0,-1.477c-0.039,-0.777 0.35,-9.13 0.855,-18.532c0.699,-13.792 0.777,-17.405 0.388,-18.765c-0.31,-1.126 -0.815,-1.826 -1.631,-2.331c-0.661,-0.349 -1.166,-0.777 -1.166,-0.971c0,-0.155 1.166,-1.321 2.642,-2.642c1.671,-1.515 3.963,-3.03 6.488,-4.312c3.807,-1.904 3.963,-1.943 6.877,-1.787c2.797,0.116 3.108,0.194 4.273,1.398c1.088,1.088 1.36,1.71 2.059,6.799l2.526,-3.224c1.398,-1.788 3.419,-3.963 4.468,-4.818c1.087,-0.816 2.913,-1.981 4.079,-2.525c1.748,-0.816 2.72,-1.01 5.323,-1.01c2.875,-0 3.302,0.116 4.817,1.165c0.894,0.622 2.059,1.943 2.564,2.914c0.505,0.971 1.01,1.826 1.127,1.942c0.078,0.117 1.36,-0.971 2.797,-2.408c1.438,-1.399 3.846,-3.341 5.323,-4.313c1.476,-0.971 3.846,-2.214 5.245,-2.719c1.398,-0.544 3.691,-1.244 5.167,-1.593c1.437,-0.35 4.001,-0.622 5.711,-0.622c2.253,0 3.691,0.233 5.361,0.855c1.205,0.466 2.992,1.476 3.963,2.253c0.971,0.777 2.176,2.292 2.72,3.341c0.816,1.593 0.971,2.448 0.971,5.206c0,2.603 -0.194,3.691 -0.855,5.051c-0.466,0.971 -1.67,2.681 -2.719,3.846c-1.01,1.166 -2.914,2.836 -4.196,3.769c-1.282,0.893 -3.652,2.253 -5.245,3.03c-1.593,0.738 -4.351,1.787 -6.1,2.254c-1.787,0.505 -3.224,1.049 -3.224,1.282c-0,0.233 0.349,0.971 0.777,1.631c0.427,0.7 1.36,1.555 2.059,1.904c0.893,0.466 1.904,0.583 3.574,0.466c1.787,-0.116 3.069,-0.582 5.439,-1.826c1.71,-0.932 4.585,-2.836 6.411,-4.312c1.826,-1.438 3.691,-2.797 4.196,-3.069c0.466,-0.233 1.359,-0.428 2.02,-0.428c1.049,0 1.165,-0.116 1.165,-1.282c0,-0.66 0.195,-4.468 0.389,-8.43c0.272,-4.896 0.272,-7.576 -0,-8.47c-0.194,-0.699 -0.933,-1.632 -1.632,-2.098c-0.699,-0.466 -1.36,-0.893 -1.476,-0.971c-0.117,-0.078 0.427,-0.738 1.165,-1.515c0.738,-0.777 2.409,-2.215 3.691,-3.264c1.282,-1.049 3.574,-2.447 5.051,-3.147c1.903,-0.893 3.419,-1.321 5.05,-1.437c1.865,-0.117 2.681,0.039 4.08,0.777c1.282,0.66 1.981,1.36 3.458,4.39l-0.661,11.849c-0.505,9.402 -0.544,12.083 -0.155,12.938c0.272,0.583 0.971,1.321 1.631,1.632c0.894,0.427 1.516,0.505 2.642,0.194c0.777,-0.194 1.826,-0.738 2.292,-1.243c0.467,-0.505 1.127,-1.554 1.438,-2.331c0.35,-0.816 0.777,-3.458 0.971,-5.828c0.233,-2.409 0.505,-6.488 0.661,-9.052c0.194,-3.186 0.155,-5.012 -0.156,-5.828c-0.233,-0.66 -1.049,-1.515 -3.185,-2.72l1.864,-1.864c1.01,-1.049 2.875,-2.642 4.157,-3.575c1.282,-0.932 3.419,-2.137 4.779,-2.68c1.632,-0.7 3.147,-1.011 4.662,-1.011c1.321,0 2.759,0.272 3.575,0.7c0.738,0.349 1.748,1.282 2.253,2.02c0.699,1.088 0.893,1.904 0.855,4.079c-0,1.516 -0.195,6.644 -0.467,11.461c-0.233,4.818 -0.31,9.402 -0.194,10.218c0.156,0.777 0.699,1.865 1.243,2.409c0.622,0.622 1.399,0.971 2.137,0.971c0.661,0 1.748,-0.233 2.448,-0.505c0.66,-0.311 1.865,-1.049 2.603,-1.709c0.738,-0.661 1.826,-2.137 2.447,-3.264c0.583,-1.165 1.321,-3.069 1.632,-4.235c0.311,-1.165 0.699,-3.613 1.166,-8.702l-0.972,0.505c-0.544,0.311 -1.787,0.505 -2.797,0.466c-1.049,0 -2.331,-0.272 -2.914,-0.583c-0.621,-0.31 -1.398,-0.854 -1.748,-1.243c-0.35,-0.427 -0.932,-1.398 -1.243,-2.176c-0.35,-0.815 -0.622,-2.486 -0.622,-3.729c0,-1.321 0.311,-2.836 0.738,-3.769c0.389,-0.854 1.399,-2.214 2.215,-3.03c0.893,-0.855 2.409,-1.787 3.652,-2.215c1.165,-0.427 2.914,-0.738 3.885,-0.777Zm-181.745,0.816c1.515,-0.039 2.758,0.194 3.807,0.738c0.894,0.467 1.826,1.321 2.215,2.021c0.544,1.126 0.583,2.331 0.35,9.829c-0.117,4.701 -0.389,10.995 -0.816,19.348l2.719,-2.059c1.515,-1.127 3.419,-2.37 4.274,-2.72c0.855,-0.35 2.525,-0.894 3.691,-1.165c1.204,-0.272 3.302,-0.428 4.856,-0.311c1.748,0.116 3.458,0.505 4.856,1.165c1.166,0.505 2.992,1.826 4.041,2.875c1.01,1.049 2.214,2.681 2.642,3.652c0.427,0.972 1.01,2.953 1.36,4.468c0.388,1.904 0.505,3.846 0.388,6.411c-0.116,2.02 -0.505,4.817 -0.893,6.216c-0.35,1.398 -1.321,4.001 -2.176,5.827c-0.855,1.826 -2.292,4.352 -3.186,5.634c-0.932,1.282 -2.797,3.38 -4.157,4.662c-1.399,1.282 -3.458,2.953 -4.623,3.768c-1.166,0.777 -3.458,1.943 -5.051,2.603c-1.593,0.622 -4.662,1.477 -6.799,1.865c-3.652,0.622 -4.079,0.622 -7.187,0c-1.826,-0.349 -4.157,-1.088 -5.245,-1.593c-1.049,-0.505 -2.953,-1.981 -4.196,-3.224c-1.204,-1.244 -2.448,-2.759 -2.72,-3.341c-0.233,-0.583 -0.544,-1.088 -0.66,-1.088c-0.117,-0 -0.738,0.854 -1.399,1.865c-0.699,1.01 -2.952,3.535 -5.089,5.555c-2.331,2.254 -4.973,4.352 -6.76,5.323c-1.554,0.932 -4.08,2.098 -5.595,2.603c-1.515,0.544 -4.04,1.165 -5.633,1.437c-1.593,0.233 -3.963,0.35 -5.245,0.195c-1.282,-0.117 -3.458,-0.544 -4.856,-0.972c-1.516,-0.466 -3.497,-1.476 -4.935,-2.525c-1.359,-0.971 -2.564,-1.787 -2.719,-1.787c-0.194,-0 -1.166,1.01 -2.253,2.214c-1.049,1.205 -2.992,2.914 -4.274,3.808c-1.282,0.893 -3.458,2.098 -4.856,2.642c-1.399,0.544 -3.652,1.204 -5.051,1.437c-1.826,0.311 -3.03,0.311 -4.351,0.039c-1.049,-0.233 -2.331,-0.66 -2.914,-0.971c-0.622,-0.272 -1.749,-1.244 -2.526,-2.137c-0.932,-0.971 -1.709,-2.37 -2.059,-3.652c-0.505,-1.787 -0.505,-2.914 0.039,-9.985c0.311,-4.39 0.466,-8.392 0.35,-8.936c-0.156,-0.543 -0.622,-1.359 -1.088,-1.864c-0.505,-0.505 -1.321,-0.855 -1.904,-0.855c-0.621,-0 -1.631,0.272 -2.253,0.583c-0.66,0.31 -1.515,1.282 -1.943,2.136c-0.427,0.855 -0.932,2.72 -1.126,4.158c-0.195,1.476 -0.505,5.711 -0.622,9.44c-0.155,3.73 -0.544,7.771 -0.855,8.936c-0.31,1.166 -0.971,2.72 -1.515,3.38c-0.505,0.699 -1.632,1.632 -2.486,2.059c-0.855,0.428 -3.341,1.127 -5.517,1.515c-2.215,0.389 -4.468,0.933 -5.051,1.166c-0.621,0.233 -1.826,1.088 -4.312,3.341l0.272,-3.108c0.116,-1.709 0.505,-8.198 0.855,-14.375c0.349,-6.177 0.505,-11.811 0.349,-12.432c-0.116,-0.622 -0.544,-1.477 -0.893,-1.865c-0.428,-0.427 -1.205,-0.699 -2.098,-0.661c-0.972,0 -1.865,0.311 -2.526,0.894c-0.621,0.505 -1.398,1.71 -1.787,2.642c-0.466,1.088 -0.855,3.419 -1.088,6.566c-0.155,2.68 -0.505,7.226 -0.699,10.101c-0.194,3.225 -0.583,5.828 -0.971,6.799c-0.389,0.855 -1.127,2.02 -1.71,2.642c-0.582,0.583 -1.826,1.321 -2.797,1.632c-0.971,0.31 -3.069,0.738 -4.662,0.971c-1.593,0.233 -3.536,0.621 -4.274,0.855c-0.738,0.272 -2.098,1.126 -2.991,1.942c-0.933,0.816 -1.749,1.36 -1.826,1.204c-0.078,-0.194 0.349,-8.352 0.971,-18.182c0.777,-13.131 0.971,-18.376 0.699,-19.814c-0.194,-1.088 -0.66,-2.253 -1.049,-2.642c-0.349,-0.388 -1.01,-0.777 -1.437,-0.893c-0.699,-0.194 -0.505,-0.466 1.36,-2.37c1.165,-1.166 3.185,-2.836 4.468,-3.73c1.282,-0.855 3.457,-1.981 4.856,-2.525c1.981,-0.738 3.108,-0.894 5.206,-0.777c2.564,0.116 2.681,0.155 3.963,1.67c0.738,0.855 1.398,2.021 1.515,2.603c0.194,1.088 0.194,1.088 2.914,-1.437c1.515,-1.399 3.729,-3.186 4.973,-3.963c1.204,-0.777 3.224,-1.748 4.468,-2.137c1.204,-0.388 3.38,-0.699 4.856,-0.699c1.437,0 3.263,0.194 4.079,0.389c0.777,0.233 2.098,1.049 2.914,1.826c0.777,0.815 1.632,1.826 1.865,2.253c0.427,0.738 0.622,0.621 3.108,-1.787c1.476,-1.399 3.574,-3.108 4.623,-3.808c1.088,-0.66 3.303,-1.67 4.973,-2.175c1.749,-0.583 3.924,-0.972 5.245,-0.972c1.205,0 2.914,0.234 3.73,0.505c0.855,0.234 2.409,1.244 3.458,2.215c1.398,1.282 2.02,2.253 2.447,3.691c0.505,1.67 0.505,3.302 0.117,11.849c-0.272,5.44 -0.35,10.568 -0.233,11.345c0.155,0.893 0.621,1.709 1.165,2.059c0.466,0.311 1.438,0.583 2.137,0.583c0.66,-0 1.593,-0.156 2.02,-0.389c0.777,-0.388 0.777,-0.388 -0.077,-2.447c-0.777,-1.749 -0.855,-2.681 -0.855,-7.071c0.039,-4.468 0.155,-5.401 1.088,-7.965c0.544,-1.593 1.748,-4.118 2.642,-5.633c0.932,-1.593 2.952,-4.079 4.934,-6.022c2.098,-2.059 4.506,-3.963 6.449,-5.09c1.709,-1.01 4.079,-2.175 5.245,-2.603c1.165,-0.427 3.613,-1.087 5.439,-1.437c2.253,-0.466 4.157,-0.622 6.022,-0.427c1.865,0.155 3.458,0.582 5.05,1.359c1.282,0.622 2.992,1.788 3.808,2.642c0.777,0.816 1.787,2.409 2.214,3.497c0.428,1.165 0.777,3.03 0.777,4.196c0,1.282 -0.349,3.03 -0.854,4.351c-0.583,1.515 -1.632,3.069 -3.225,4.74c-1.282,1.36 -3.535,3.302 -5.051,4.274c-1.515,1.01 -4.04,2.369 -5.633,3.03c-1.593,0.66 -3.924,1.437 -5.206,1.748c-1.243,0.272 -2.37,0.661 -2.448,0.894c-0.116,0.233 0.117,0.971 0.428,1.632c0.349,0.699 1.204,1.592 1.903,1.942c0.739,0.389 2.098,0.661 3.38,0.661c1.554,-0 2.837,-0.35 4.663,-1.166c1.398,-0.66 4.662,-2.797 7.304,-4.74c2.641,-1.981 5.244,-3.652 5.905,-3.768c0.621,-0.117 1.088,-0.35 0.971,-0.583c-0.116,-0.233 0.272,-9.713 0.816,-21.096c0.544,-11.345 0.932,-21.563 0.816,-22.612c-0.117,-1.087 -0.427,-2.447 -0.738,-3.069c-0.272,-0.621 -1.049,-1.36 -2.836,-2.137l2.913,-2.836c1.865,-1.826 3.963,-3.38 5.828,-4.351c1.593,-0.855 3.341,-1.671 3.885,-1.826c0.544,-0.155 1.982,-0.311 3.225,-0.311l-0.039,0Zm-169.895,14.958c1.398,0.078 3.224,0.505 4.079,0.893c0.855,0.389 2.137,1.321 2.836,2.021c0.699,0.738 1.476,2.02 1.709,2.875c0.195,0.854 0.272,2.253 0.156,3.108c-0.117,0.854 -0.661,2.214 -1.205,2.991c-0.621,0.972 -1.67,1.787 -2.991,2.409c-1.787,0.816 -2.836,0.971 -7.693,1.127c-4.584,0.155 -6.06,0.349 -7.964,1.088c-1.787,0.66 -2.953,1.515 -5.051,3.613c-2.214,2.214 -3.147,3.535 -4.739,6.837c-1.127,2.254 -2.72,6.372 -3.536,9.13c-0.855,2.759 -1.981,7.071 -2.448,9.519c-0.699,3.497 -0.893,5.828 -0.932,10.684c0,4.235 0.194,6.915 0.544,8.353c0.311,1.165 1.049,2.719 1.671,3.38c0.699,0.816 1.437,1.282 2.059,1.282c0.621,0 1.631,-0.622 2.836,-1.748c1.126,-1.088 2.175,-1.71 2.797,-1.71c0.544,0 1.282,0.272 1.632,0.661c0.621,0.621 0.699,0.544 0.893,-1.282c0.117,-1.088 0.467,-3.07 0.816,-4.468c0.311,-1.399 1.127,-3.73 1.865,-5.245c0.699,-1.515 2.137,-3.846 3.186,-5.206c1.049,-1.399 2.875,-3.264 4.04,-4.235c1.166,-0.932 3.264,-2.37 4.662,-3.186c1.399,-0.816 3.769,-1.864 5.245,-2.331c1.554,-0.466 4.313,-0.932 6.411,-1.049c2.175,-0.116 4.584,-0.039 5.827,0.233c1.166,0.234 3.109,0.894 4.274,1.438c1.166,0.544 2.758,1.476 3.497,2.059c0.738,0.622 2.02,2.02 2.836,3.186c0.777,1.165 1.903,3.419 2.447,5.012c0.739,2.136 1.049,4.001 1.205,6.993c0.155,3.341 0.039,4.701 -0.622,7.576c-0.466,1.903 -1.593,4.895 -2.486,6.604c-1.166,2.331 -2.409,3.924 -4.896,6.411c-1.826,1.826 -4.467,3.963 -5.866,4.778c-1.399,0.816 -3.924,1.904 -5.633,2.448c-1.71,0.544 -4.507,1.088 -6.217,1.204c-1.864,0.156 -4.118,0.039 -5.633,-0.233c-1.399,-0.272 -3.38,-0.971 -4.468,-1.476c-1.049,-0.544 -2.525,-1.476 -3.263,-2.02c-0.739,-0.544 -2.098,-2.059 -3.031,-3.341c-0.971,-1.283 -2.098,-3.342 -2.564,-4.585c-0.466,-1.243 -0.932,-2.253 -1.049,-2.214c-0.116,-0 -0.388,1.087 -0.621,2.408c-0.234,1.36 -0.933,3.652 -1.516,5.168c-0.621,1.515 -1.748,3.69 -2.525,4.856c-0.777,1.165 -2.409,2.991 -3.535,4.079c-1.166,1.049 -2.992,2.37 -4.041,2.836c-1.088,0.506 -2.719,1.011 -3.691,1.127c-0.971,0.117 -2.603,0 -3.691,-0.233c-1.049,-0.272 -2.875,-1.088 -3.962,-1.826c-1.399,-0.894 -2.409,-1.981 -3.225,-3.38c-0.622,-1.088 -1.399,-3.147 -1.709,-4.546c-0.311,-1.398 -0.661,-4.195 -0.816,-6.216c-0.156,-2.059 -0.039,-6.099 0.194,-9.13c0.35,-4.04 0.35,-5.827 0.039,-6.915c-0.311,-1.088 -0.738,-1.593 -1.787,-2.02c-0.739,-0.311 -1.749,-0.583 -2.215,-0.583c-0.505,-0 -1.593,0.194 -2.448,0.427c-0.893,0.233 -2.136,1.049 -2.913,1.865c-0.777,0.777 -1.787,2.448 -2.293,3.73c-0.505,1.398 -1.359,5.478 -2.02,10.101c-0.621,4.274 -1.554,9.324 -2.059,11.267c-0.544,1.942 -1.554,4.895 -2.253,6.604c-0.738,1.71 -2.292,4.585 -3.458,6.411c-1.204,1.826 -2.953,4.196 -3.885,5.322c-0.933,1.127 -3.03,3.108 -4.662,4.468c-1.632,1.36 -4.352,3.186 -6.022,4.08c-1.71,0.893 -4.118,2.02 -5.4,2.447c-1.283,0.466 -4.002,1.166 -6.022,1.593c-2.098,0.427 -5.206,0.738 -7.188,0.738c-2.253,0 -4.662,-0.272 -6.799,-0.816c-1.826,-0.466 -4.506,-1.437 -6.022,-2.214c-1.631,-0.855 -3.729,-2.409 -5.283,-3.963c-1.982,-1.904 -2.992,-3.302 -4.196,-5.828c-0.894,-1.942 -1.826,-4.662 -2.215,-6.604c-0.466,-2.292 -0.583,-4.235 -0.427,-6.411c0.116,-1.709 0.583,-4.234 1.01,-5.633c0.427,-1.399 1.438,-3.652 2.253,-5.012c0.816,-1.36 2.448,-3.496 3.614,-4.817c1.165,-1.282 3.108,-3.07 4.273,-3.963c1.166,-0.933 3.264,-2.292 4.662,-3.03c1.399,-0.778 3.497,-1.749 4.662,-2.176c1.166,-0.428 3.264,-1.049 4.662,-1.399c1.399,-0.311 3.536,-0.583 4.779,-0.583c1.865,0 2.37,0.156 3.186,0.972c0.544,0.544 0.971,1.243 0.971,1.554c0,0.311 -0.544,1.942 -1.204,3.574c-0.933,2.331 -1.166,3.38 -1.01,4.584c0.155,1.127 0.621,1.904 1.593,2.798c0.777,0.699 2.136,1.476 3.069,1.709c0.893,0.233 2.331,0.311 3.186,0.156c0.854,-0.117 2.292,-0.583 3.224,-1.011c0.894,-0.388 2.409,-1.554 3.38,-2.603c1.049,-1.049 2.487,-3.263 3.497,-5.322c0.932,-1.904 2.214,-5.245 2.875,-7.382c0.66,-2.137 1.904,-6.954 2.758,-10.684c0.816,-3.73 1.982,-8.314 2.526,-10.218c0.543,-1.865 1.515,-4.545 2.136,-6.022c0.661,-1.437 1.166,-2.641 1.166,-2.719c-0,-0.039 -1.476,-0.078 -6.605,-0.078l0.583,-1.67c0.35,-0.894 1.243,-2.837 1.981,-4.352c0.739,-1.515 1.904,-3.38 3.847,-5.711l7.071,1.049l1.903,-1.67c1.049,-0.933 3.147,-2.293 4.624,-2.992c1.515,-0.738 3.768,-1.554 5.05,-1.826c1.748,-0.35 2.72,-0.35 3.885,0c0.855,0.233 2.02,0.777 2.642,1.204c0.583,0.467 1.243,1.477 1.476,2.254c0.311,1.088 0.311,1.942 0,3.108c-0.233,0.932 -1.01,2.331 -1.748,3.108c-0.738,0.855 -2.447,2.02 -3.963,2.719c-1.476,0.7 -3.846,1.632 -5.283,2.06c-1.399,0.427 -2.837,1.087 -3.186,1.476c-0.35,0.35 -1.088,2.02 -1.593,3.652c-0.544,1.671 -1.321,5.012 -1.748,7.382c-0.428,2.408 -0.777,4.778 -0.777,5.244c-0,0.894 -0,0.894 1.67,-0.233c0.894,-0.621 2.409,-1.437 3.38,-1.826c1.282,-0.466 2.37,-0.621 4.08,-0.427c1.282,0.117 2.719,0.311 3.224,0.427c0.777,0.233 0.894,0.039 1.477,-2.603c0.31,-1.515 1.126,-4.467 1.787,-6.488c0.66,-2.02 1.865,-5.361 2.719,-7.381c0.816,-2.021 2.293,-5.168 3.264,-6.994c0.971,-1.826 2.758,-4.778 3.963,-6.604c1.204,-1.787 3.807,-4.934 5.75,-6.993c1.942,-2.021 4.817,-4.585 6.41,-5.712c1.593,-1.087 4.196,-2.564 5.789,-3.224c1.593,-0.7 4.04,-1.477 5.439,-1.787c1.399,-0.272 3.652,-0.428 5.051,-0.311Zm-83.297,20.319c0.738,0.116 1.981,1.049 3.652,2.719c1.476,1.516 3.108,3.691 3.963,5.284c0.777,1.515 1.787,3.691 2.214,4.857c0.466,1.165 0.816,2.175 0.816,2.214c0,0.078 -0.738,0.311 -1.632,0.544c-0.971,0.272 -2.253,1.01 -3.108,1.865c-1.165,1.127 -1.437,1.67 -1.476,2.953c-0,0.854 0.233,1.903 0.544,2.331c0.466,0.66 0.932,0.777 3.03,0.66c1.943,-0.116 2.564,0 3.031,0.544c0.31,0.35 0.582,1.282 0.544,2.059c-0.039,0.777 -0.35,2.02 -0.739,2.759c-0.388,0.738 -2.02,2.68 -3.652,4.312c-1.631,1.632 -4.079,3.613 -5.478,4.39c-1.398,0.816 -3.535,1.904 -4.739,2.409c-1.244,0.505 -3.419,1.127 -4.857,1.321c-1.476,0.233 -3.263,0.311 -4.001,0.155c-0.739,-0.116 -2.215,-0.505 -3.303,-0.816c-1.049,-0.349 -2.719,-1.049 -3.652,-1.631c-0.971,-0.544 -2.525,-1.904 -3.496,-2.992c-0.972,-1.127 -2.215,-2.875 -2.72,-3.885c-0.544,-1.049 -1.165,-2.797 -1.476,-3.846c-0.272,-1.088 -0.505,-2.992 -0.505,-4.274c-0,-1.282 0.272,-3.419 0.582,-4.779c0.311,-1.32 1.011,-3.341 1.516,-4.467c0.505,-1.088 1.709,-3.108 2.719,-4.468c0.971,-1.321 2.797,-3.225 4.041,-4.196c1.204,-0.971 3.457,-2.37 4.934,-3.108c1.515,-0.7 3.846,-1.593 5.245,-1.943c1.398,-0.349 3.496,-0.738 4.701,-0.893c1.204,-0.117 2.719,-0.195 3.302,-0.078Z" style="fill:#ffed9f;"/>
     <path id="Path-2" d="M471.328,73.706c-0.739,2.293 -1.982,5.556 -2.798,7.266c-0.854,1.709 -2.292,4.118 -3.263,5.322c-1.01,1.243 -2.603,2.875 -3.652,3.613c-1.01,0.738 -3.069,1.943 -4.546,2.681c-1.476,0.777 -4.701,1.981 -7.11,2.758c-2.369,0.739 -4.351,1.516 -4.351,1.749c0,0.233 0.233,0.388 0.466,0.388c0.272,0 2.176,0.544 4.196,1.205c2.021,0.66 5.362,2.059 7.382,3.069c2.875,1.476 4.235,2.447 6.216,4.545c1.554,1.632 3.147,3.808 4.118,5.75c0.894,1.71 2.293,5.168 3.108,7.693c0.855,2.486 1.593,4.545 1.71,4.545c0.116,0 0.621,-1.437 1.127,-3.224c0.543,-1.749 1.592,-4.662 2.331,-6.488c0.777,-1.826 2.214,-4.429 3.185,-5.828c0.972,-1.399 2.72,-3.302 3.885,-4.196c1.166,-0.932 3.497,-2.37 5.207,-3.186c1.709,-0.854 4.739,-2.059 6.682,-2.719c1.981,-0.622 3.885,-1.166 4.196,-1.166c0.311,0 0.583,-0.116 0.583,-0.311c-0,-0.155 -1.943,-0.932 -4.352,-1.787c-2.409,-0.816 -5.866,-2.214 -7.692,-3.108c-2.487,-1.204 -4.002,-2.292 -6.061,-4.312c-2.098,-2.098 -3.147,-3.536 -4.584,-6.411c-1.011,-2.02 -2.37,-5.439 -3.031,-7.576c-0.66,-2.136 -1.282,-4.001 -1.437,-4.157c-0.117,-0.116 -0.816,1.632 -1.515,3.885Z" style="fill:#ffaf00;fill-rule:nonzero;"/>
     <path id="Path-4" d="M285.154,0.472c-0,0.35 -0.428,2.021 -0.972,3.652c-0.505,1.671 -1.631,4.08 -2.486,5.362c-0.855,1.282 -2.02,2.875 -2.642,3.574l-1.088,1.204c-11.888,-0.544 -19.62,-0.544 -27.196,-0.31c-6.837,0.233 -16.123,0.66 -20.591,0.971c-4.467,0.35 -10.878,0.855 -14.18,1.165c-3.303,0.35 -8.897,0.933 -12.433,1.399c-3.535,0.427 -9.557,1.282 -13.403,1.904c-3.846,0.621 -9.791,1.67 -13.21,2.331c-3.418,0.66 -10.023,2.175 -14.685,3.341c-4.623,1.165 -11.694,3.147 -15.735,4.468c-4.001,1.321 -9.79,3.419 -12.898,4.701c-3.108,1.282 -7.032,3.069 -8.742,3.924l-3.108,1.554c3.924,0.738 5.595,1.204 6.216,1.554c0.622,0.349 1.632,1.049 2.254,1.593c0.582,0.544 1.282,1.476 1.592,2.059c0.389,0.855 0.894,1.165 2.215,1.36c0.932,0.155 2.37,0.738 3.186,1.282c0.777,0.544 1.787,1.593 2.214,2.331l0.777,1.36c2.254,-1.295 4.131,-2.37 5.634,-3.225c1.515,-0.855 4.468,-2.409 6.604,-3.38c2.137,-1.01 5.906,-2.681 8.353,-3.691c2.448,-1.01 8.042,-3.03 12.433,-4.468c4.39,-1.476 11.461,-3.535 15.734,-4.584c4.274,-1.088 10.917,-2.564 14.764,-3.341c3.846,-0.777 9.946,-1.826 13.598,-2.37c3.652,-0.544 9.673,-1.36 13.403,-1.749c3.73,-0.427 10.296,-1.049 14.569,-1.359c4.274,-0.311 11.617,-0.7 16.318,-0.816l8.547,-0.272c4.118,2.098 6.177,3.691 8.159,5.594l3.108,3.031c2.719,-2.021 4.623,-3.147 6.022,-3.847c1.787,-0.893 3.263,-1.321 5.05,-1.476c1.904,-0.155 2.953,-0.505 4.196,-1.321c1.399,-0.932 1.904,-1.049 3.652,-0.893c1.127,0.116 4.934,0.466 8.47,0.815c3.535,0.311 9.557,1.011 13.403,1.516c3.846,0.505 9.635,1.398 12.821,1.942c3.225,0.583 7.77,1.477 10.101,1.982c2.331,0.543 6.722,1.592 9.713,2.331c2.992,0.738 6.838,1.787 8.547,2.331c1.71,0.544 3.186,0.893 3.303,0.777c0.116,-0.117 -1.282,-0.894 -3.108,-1.749c-1.826,-0.815 -5.945,-2.447 -9.13,-3.652c-3.225,-1.165 -7.848,-2.758 -10.296,-3.535c-2.448,-0.738 -6.138,-1.826 -8.159,-2.37c-2.02,-0.544 -6.76,-1.671 -10.489,-2.486c-3.73,-0.855 -10.568,-2.137 -15.152,-2.914c-4.585,-0.738 -10.024,-1.554 -12.044,-1.826l-3.691,-0.466c-4.546,-4.624 -5.633,-6.178 -6.76,-8.548c-0.855,-1.748 -1.671,-3.885 -1.826,-4.739c-0.117,-0.855 -0.389,-1.826 -0.583,-2.137c-0.272,-0.505 -0.311,-0.466 -0.349,0.077l-0,0.039Zm91.688,39.745c-0,0.116 0.971,0.738 2.137,1.36c1.515,0.816 2.331,1.049 2.797,0.816c0.388,-0.156 0.544,-0.428 0.311,-0.544c-0.194,-0.117 -1.438,-0.583 -2.72,-1.049c-1.282,-0.428 -2.37,-0.777 -2.447,-0.777c-0.039,-0 -0.078,0.077 -0.078,0.194Zm-253.309,21.718c-1.165,0.272 -2.836,0.777 -3.69,1.165c-0.855,0.389 -2.332,1.321 -3.264,2.098c-0.932,0.816 -2.448,2.564 -3.341,3.963c-0.933,1.398 -2.176,3.574 -2.759,4.856c-0.543,1.282 -1.437,3.536 -1.981,5.051c-0.505,1.515 -1.321,4.196 -1.826,6.022c-0.544,1.826 -1.204,4.701 -1.554,6.41c-0.35,1.71 -0.622,3.225 -0.622,3.38c0,0.194 0.972,1.243 2.176,2.331c1.166,1.127 2.331,2.098 2.525,2.137c0.195,0.078 0.35,-0.116 0.35,-0.388c0,-0.234 0.66,-1.865 1.515,-3.575c0.855,-1.709 2.487,-4.234 3.652,-5.633l2.098,-2.525c0.35,-8.043 0.622,-9.519 1.476,-11.85c0.583,-1.593 1.749,-4.04 2.565,-5.439c0.816,-1.399 2.525,-3.808 3.807,-5.362c1.321,-1.515 2.253,-2.875 2.059,-2.991c-0.155,-0.117 -0.427,-0.194 -0.66,-0.155c-0.233,-0 -1.36,0.233 -2.526,0.505Zm289.168,10.334c-1.126,1.515 -1.864,2.719 -1.67,2.719c0.194,0 1.36,-0.699 2.525,-1.554c2.02,-1.476 2.137,-1.592 1.787,-2.719c-0.194,-0.622 -0.427,-1.166 -0.505,-1.166c-0.078,0 -1.049,1.244 -2.137,2.72Zm7.421,7.071c-0.816,1.088 -2.836,3.147 -4.429,4.507c-1.593,1.359 -4.235,3.263 -5.828,4.195c-1.593,0.933 -4.351,2.176 -6.099,2.72c-3.07,0.971 -3.303,1.127 -4.662,3.186c-0.816,1.165 -3.031,3.652 -4.973,5.478c-1.943,1.826 -5.517,4.701 -7.965,6.332c-2.447,1.632 -6.488,4.041 -8.936,5.323c-2.447,1.282 -6.915,3.38 -9.907,4.623c-2.991,1.282 -8.935,3.458 -13.209,4.896c-4.274,1.398 -11.189,3.457 -15.346,4.506c-4.157,1.049 -10.101,2.448 -13.209,3.108c-3.109,0.661 -9.752,1.904 -14.764,2.72c-5.012,0.855 -12.626,1.981 -16.9,2.486c-4.274,0.544 -11.461,1.321 -15.929,1.749c-4.468,0.427 -11.383,0.971 -15.346,1.204c-3.963,0.194 -9.13,0.389 -11.461,0.389l-4.274,-0c-4.351,-4.546 -5.944,-6.644 -6.682,-8.159c-0.661,-1.399 -1.515,-3.652 -1.865,-5.051c-0.388,-1.398 -0.699,-2.564 -0.738,-2.603c-0,-0.077 -0.35,1.088 -0.738,2.526c-0.389,1.437 -1.36,3.807 -2.137,5.322c-0.777,1.515 -2.487,3.808 -3.769,5.128l-2.331,2.448c-8.43,-0.622 -14.18,-1.127 -18.26,-1.554c-4.079,-0.466 -10.256,-1.243 -13.792,-1.787c-3.535,-0.544 -9.207,-1.476 -12.626,-2.137c-3.419,-0.622 -8.314,-1.632 -10.879,-2.253c-4.429,-1.049 -4.739,-1.088 -5.944,-0.466c-0.893,0.427 -1.126,0.699 -0.777,0.893c0.272,0.155 3.924,1.399 8.081,2.759c4.157,1.398 11.073,3.418 15.346,4.506c4.274,1.049 10.568,2.448 13.987,3.108c3.419,0.661 8.508,1.554 11.266,2.021c2.798,0.427 6.1,1.204 7.382,1.67c1.282,0.505 3.303,1.515 4.468,2.254c1.166,0.738 3.186,2.486 4.468,3.846c1.282,1.36 2.875,3.652 3.574,5.012c0.661,1.398 1.438,3.38 1.71,4.467c0.233,1.049 0.544,2.06 0.699,2.215c0.117,0.194 0.544,-0.738 0.932,-2.02c0.35,-1.282 1.166,-3.342 1.788,-4.585c0.621,-1.204 1.787,-3.108 2.641,-4.157c0.816,-1.088 2.293,-2.603 3.264,-3.419l1.709,-1.476c24.088,-0.194 34.228,-0.466 38.074,-0.699c3.847,-0.233 10.762,-0.777 15.346,-1.205c4.585,-0.427 11.228,-1.126 14.764,-1.554c3.535,-0.427 8.353,-1.049 10.684,-1.398c2.331,-0.311 7.265,-1.127 10.878,-1.749c3.613,-0.66 9.13,-1.709 12.238,-2.331c3.108,-0.621 8.781,-1.942 12.627,-2.914c3.846,-0.971 10.606,-2.991 15.074,-4.467c4.429,-1.477 10.451,-3.73 13.404,-5.051c2.913,-1.282 6.798,-3.147 8.624,-4.118c1.826,-0.972 5.245,-3.031 7.576,-4.585c2.331,-1.554 5.828,-4.273 7.732,-6.06c1.903,-1.788 4.312,-4.391 5.4,-5.789c1.049,-1.399 2.642,-4.118 3.613,-6.022c0.933,-1.904 1.982,-4.701 2.331,-6.216c0.35,-1.516 0.661,-4.313 0.7,-6.255c0.038,-3.264 -0.039,-3.613 -1.011,-4.934c-0.621,-0.777 -0.971,-1.438 -0.777,-1.477c0.156,0 -0.505,-0.272 -1.437,-0.583c-0.971,-0.31 -1.748,-0.543 -1.787,-0.543c-0.039,-0 -0.738,0.893 -1.593,2.02Zm-263.76,45.339c0.195,0.194 1.826,1.01 3.614,1.748c1.748,0.777 3.263,1.399 3.38,1.399c0.116,-0 0.194,-0.35 0.194,-0.777c-0,-0.622 -0.583,-0.933 -3.186,-1.748c-1.787,-0.506 -3.496,-0.972 -3.807,-0.972c-0.389,0 -0.454,0.117 -0.195,0.35Z" style="fill:#d27055;fill-rule:nonzero;"/>
     <path id="Path-6" d="M51.698,30.193c-0.466,1.632 -1.399,4.313 -2.059,5.906c-0.622,1.593 -1.71,3.885 -2.448,5.05c-0.699,1.166 -2.098,2.953 -3.069,3.963c-0.971,1.049 -2.72,2.448 -3.846,3.147c-1.088,0.738 -3.419,1.904 -5.129,2.603c-1.709,0.699 -4.468,1.709 -6.138,2.176c-1.632,0.505 -2.992,1.049 -2.992,1.204c0,0.194 1.166,0.661 2.603,1.049c1.477,0.427 4.196,1.399 6.139,2.215c1.904,0.777 3.885,1.826 4.351,2.253c0.505,0.466 1.205,0.816 1.554,0.816c0.389,0.039 1.826,1.204 3.225,2.642c1.826,1.826 3.069,3.613 4.312,6.099c0.972,1.904 2.37,5.362 3.108,7.693c0.739,2.292 1.399,4.157 1.516,4.157c0.116,-0 0.777,-1.904 1.476,-4.196c0.738,-2.292 2.059,-5.633 2.914,-7.459c1.243,-2.526 2.292,-3.963 4.545,-6.217c2.215,-2.214 3.691,-3.302 6.022,-4.429c1.71,-0.816 5.09,-2.136 7.46,-2.913c2.408,-0.778 4.39,-1.516 4.39,-1.71c-0,-0.155 -1.71,-0.816 -3.808,-1.437c-2.059,-0.661 -5.516,-2.021 -7.653,-3.07c-3.264,-1.593 -4.313,-2.37 -6.605,-4.739c-1.943,-2.06 -3.186,-3.808 -4.351,-6.178c-0.894,-1.826 -2.176,-5.167 -2.836,-7.498c-0.661,-2.292 -1.321,-4.157 -1.477,-4.157c-0.155,-0 -0.699,1.36 -1.204,2.991l-0,0.039Z" style="fill:#58cbca;fill-rule:nonzero;"/>
     <path id="Path-7" d="M393.159,48.181c-0.544,0.233 -1.282,0.7 -1.709,1.049c-0.389,0.35 -1.127,1.477 -1.632,2.487c-0.505,1.049 -1.049,2.564 -1.204,3.419c-0.272,1.282 -0.195,1.554 0.272,1.554c0.311,-0 1.826,-0.583 3.302,-1.282c1.476,-0.7 3.108,-1.826 3.613,-2.448c0.505,-0.66 0.894,-1.632 0.855,-2.409c-0,-0.699 -0.311,-1.554 -0.777,-2.02c-0.427,-0.427 -1.01,-0.777 -1.282,-0.738c-0.233,-0 -0.894,0.194 -1.438,0.388Zm-91.61,17.056c-0.777,0.466 -1.632,1.554 -2.215,2.797c-0.648,1.373 -0.971,2.733 -0.971,4.08c-0,1.282 0.272,2.525 0.699,3.224c0.35,0.622 1.088,1.36 1.632,1.593c0.583,0.233 1.515,0.272 2.331,0.117c0.738,-0.156 1.865,-0.739 2.486,-1.282c0.622,-0.544 1.477,-1.71 1.826,-2.565c0.389,-0.854 0.739,-2.486 0.739,-3.613c-0,-1.088 -0.233,-2.486 -0.467,-3.03c-0.272,-0.583 -0.971,-1.282 -1.554,-1.554c-0.621,-0.311 -1.554,-0.544 -2.136,-0.544c-0.622,-0 -1.671,0.35 -2.331,0.777l-0.039,-0Zm-43.824,5.128c-0.583,0.505 -1.515,1.71 -1.982,2.72c-0.505,1.049 -1.049,2.681 -1.204,3.652l-0.311,1.748c2.409,-0.855 3.73,-1.399 4.468,-1.787c0.738,-0.35 1.943,-1.204 2.642,-1.904c0.932,-0.893 1.243,-1.554 1.282,-2.564c-0,-0.816 -0.311,-1.632 -0.699,-2.02c-0.389,-0.389 -1.244,-0.699 -1.904,-0.699c-0.661,-0 -1.671,0.388 -2.292,0.854Zm-127.276,22.184c-0.738,0.466 -1.71,1.593 -2.176,2.409c-0.583,1.01 -0.932,2.331 -0.971,3.691c-0.078,1.515 0.116,2.603 0.66,3.652c0.428,0.816 1.321,1.748 1.943,2.059c0.699,0.35 1.632,0.505 2.331,0.35c0.66,-0.117 1.709,-0.778 2.409,-1.477c0.699,-0.699 1.515,-1.942 1.826,-2.758c0.349,-0.777 0.621,-2.215 0.621,-3.186c0,-0.971 -0.31,-2.37 -0.66,-3.186c-0.389,-0.777 -1.049,-1.632 -1.476,-1.942c-0.428,-0.272 -1.321,-0.505 -1.982,-0.505c-0.66,-0 -1.787,0.388 -2.525,0.893Z" style="fill:#ffc764;fill-rule:nonzero;"/>
    </g>
</svg>