<?xml version="1.0" encoding="UTF-8" standalone="no"?>
<!DOCTYPE svg PUBLIC "-//W3C//DTD SVG 1.1//EN" "http://www.w3.org/Graphics/SVG/1.1/DTD/svg11.dtd">
<svg width="100%" height="100%" viewBox="0 0 500 165" version="1.1" xmlns="http://www.w3.org/2000/svg" xmlns:xlink="http://www.w3.org/1999/xlink" xml:space="preserve" xmlns:serif="http://www.serif.com/" style="fill-rule:evenodd;clip-rule:evenodd;stroke-linejoin:round;stroke-miterlimit:2;">
    <g transform="matrix(1,0,0,1,-3.98971e-05,-0.000191363)">
        <g transform="matrix(0.38851,0,0,0.38851,-67.225,-74.238)">
            <g id="Background">
                <g id="Path-5" serif:id="Path 5" transform="matrix(1,0,0,1,-2.57394,0)">
                    <path d="M1421.1,269C1421.9,269.1 1424.1,269.6 1426,270.3C1428,271 1431.2,272.7 1433.3,274.3C1435.3,275.8 1438.1,279.1 1439.4,281.8C1440.7,284.4 1442.3,288.9 1442.9,291.7C1443.5,294.6 1444,301.5 1444,307C1444,312.9 1443.2,320.8 1442.1,326.3C1441,331.3 1438.7,339.6 1436.9,344.5C1435.1,349.4 1431.1,357.4 1428,362.3C1425,367.1 1419.8,373.7 1416.5,377.1C1413.2,380.4 1408,384.8 1405,386.8C1402,388.7 1398.9,390.4 1398.1,390.4C1397.1,390.5 1395.7,387.5 1393.8,381.5C1392.3,376.6 1390.8,371.8 1390.5,371C1390.2,370.2 1387.9,375.6 1381,396.5L1375.2,397.3C1371.9,397.7 1367.3,397.6 1364.3,397C1361.4,396.5 1358,395.5 1356.8,394.9C1355.5,394.3 1352.3,392.1 1344.5,386.3L1338.5,391.7C1335,394.8 1328.7,398.9 1323.5,401.5C1318.1,404.2 1311.3,406.6 1306.5,407.6C1301.4,408.6 1296.7,408.9 1293.5,408.5C1290.8,408.1 1286.5,407.2 1284,406.3C1281.5,405.5 1277.5,403.5 1275,402C1272.5,400.4 1269.5,397.8 1266,393L1274.3,393.2C1279.4,393.3 1285,392.7 1289,391.7C1292.6,390.8 1298.7,388.4 1302.5,386.5C1306.4,384.6 1312.7,380.3 1323.5,371.1L1327,374.2C1328.9,375.9 1333,378.5 1336,379.9C1340.4,381.9 1343,382.3 1349,382.2C1353.1,382.2 1360.1,381.2 1364.5,380C1368.9,378.9 1375.6,376.2 1379.4,374.2C1383.5,372 1389.1,367.8 1392.9,363.9C1396.5,360.3 1401.3,355.4 1403.6,352.9C1405.8,350.5 1408.4,347.4 1409.3,346C1410.2,344.6 1411.1,342.1 1411.4,340.5C1411.6,338.9 1413,334.9 1414.4,331.7C1415.8,328.6 1417.9,322.5 1419,318.2C1420,314 1421.4,305.8 1422.1,300C1422.9,292.3 1422.9,287.5 1422.1,282C1421.5,277.9 1420.7,273.3 1420.3,271.7C1419.9,269.8 1420.1,269 1421.1,269ZM945.3,271L950.9,271C955.1,271 957.4,271.5 959.9,273.2C961.8,274.5 964.2,276.9 965.2,278.5C966.9,281.3 966.9,283.2 965.5,323.9L961,325.8C958.5,326.8 953.4,330.1 942.5,338.3L943.2,323.9C943.6,316 944.3,300.8 944.6,290.3L945.3,271ZM1362,277L1365.5,277C1369,277 1369,277 1369.1,281.2C1369.1,283.5 1369.9,287.3 1370.9,289.5C1371.9,291.6 1374,294.5 1375.6,295.8C1377.2,297.1 1379.8,298.4 1381.4,298.8C1384.1,299.4 1384.2,299.7 1383.7,303.5C1383.4,305.6 1382.8,314.6 1381.5,339.1L1378,341.2C1376.1,342.4 1372.7,343.5 1370.5,343.8C1367.2,344.2 1366.1,343.8 1363.8,341.6C1362.2,340.1 1360.7,337.3 1360.4,335.2C1360,333.1 1360.2,321.3 1360.9,308.9C1361.5,296.6 1362.1,284.3 1362.1,281.7L1362,277ZM1294.8,288C1296.8,288 1300,288.6 1302,289.4C1303.9,290.2 1306.7,292.1 1308.2,293.7C1309.8,295.2 1311.2,297.7 1311.5,299.3C1311.7,300.8 1312.4,302 1313,302C1313.5,302 1314,303.1 1314,304.5C1314,305.9 1313.5,307.2 1313,307.5C1312.4,307.8 1312,311.6 1312.1,316.3C1312.2,320.8 1312,328.3 1311.7,333C1311.4,337.7 1310.4,343.3 1309.5,345.5C1308.6,347.7 1306.9,350.5 1305.6,351.8C1304.4,353.1 1301.8,354.5 1299.7,355C1296.9,355.8 1295.2,355.6 1293,354.5C1291.3,353.7 1289.4,351.8 1288.7,350.3C1287.8,348.1 1287.8,342 1288.8,322.5C1289.5,308.8 1290.3,295.4 1290.6,292.8C1291.1,288.1 1291.2,288 1294.8,288ZM1394.7,301.7C1394.9,304.3 1394.7,306.7 1394.4,307C1394.1,307.3 1393.4,306.8 1392.9,306C1392.4,305.2 1391.7,303.4 1391.3,302C1390.9,300.2 1391.2,299.1 1392.6,298.2C1394.3,297 1394.5,297.2 1394.7,301.7ZM1229.5,302.9L1234,304.7C1236.4,305.7 1239.3,307 1240.4,307.6C1242.3,308.6 1242.3,309.1 1241.2,327.1C1240.5,337.2 1240,347 1240,348.8C1240,351.7 1239.7,352 1237,352C1235.3,352 1232.9,352.5 1231.7,353.1C1230.5,353.8 1225.6,357.3 1221,361C1216.3,364.8 1208.9,369.7 1204.5,372.1C1198.3,375.3 1195,376.5 1190.5,376.8C1186.1,377.1 1183.5,376.8 1181.2,375.6C1179.4,374.7 1177.1,372.5 1176,370.8C1174.9,369 1174,367.1 1174,366.5C1174,365.9 1177.7,364.5 1182.2,363.2C1186.7,362 1193.8,359.3 1198,357.4C1202.1,355.4 1208.2,351.9 1211.5,349.6C1214.8,347.2 1219.6,342.9 1222.3,339.9C1224.9,336.9 1228.1,332.5 1229.3,330C1231,326.5 1231.4,323.7 1231.4,317.5C1231.4,313.1 1231,308 1230.5,306.2L1229.5,302.9ZM513.2,309.4L517.8,310.2C520.3,310.6 524.2,312.3 526.4,313.8C528.6,315.3 531.4,318.4 532.6,320.5C534.2,323.3 534.9,326.2 534.9,330C534.9,334.3 534.3,336.4 532.2,339.7C530.6,342 527.8,344.8 525.9,345.8C524,346.9 521.3,348 519.9,348.3C518.5,348.6 512.9,349 507.4,349.1C501.9,349.2 494.9,349.7 491.9,350.2C488.9,350.8 484.4,352.1 481.9,353.2C479.4,354.3 475.4,356.8 473,358.8C470.6,360.8 466.7,365.4 464.4,369C462,372.6 458.8,378.2 457.3,381.5C455.9,384.8 453.3,391.3 451.7,396C450.1,400.7 447.7,408.8 446.4,414C445,419.2 443.2,427.5 442.4,432.5C441.5,437.4 440.7,447 440.4,466.2L436.7,469.6C434.5,471.5 431.8,473 430.4,473C428.8,473 426.9,471.8 425.1,469.7C423.6,467.9 421.6,464 420.8,461C419.9,457.2 419.4,450.4 419.4,439.5C419.5,427 420,421 421.8,412C423,405.7 425.9,394.6 428.1,387.5C430.2,380.3 434.3,369.8 437.2,364C441.3,355.5 443.7,352.1 449.4,346.4C454.8,341 457.8,338.8 462.4,337.1C467.3,335.2 471.1,334.7 482.9,334.3C495.4,333.8 498.1,333.4 502.7,331.4C506.3,329.7 508.7,327.7 510.7,324.8C512.9,321.4 513.4,319.6 513.3,315L513.2,309.4ZM1075.9,325L1073.9,328C1072.8,329.7 1071.7,331 1071.4,331C1071.1,331 1070.9,329.7 1070.9,328C1070.9,325.5 1071.3,325 1075.9,325ZM1011.6,338.1C1012.1,338.4 1014.6,339.4 1017.2,340.5C1021.8,342.5 1021.9,342.6 1021.9,347C1021.9,349.5 1021,370.9 1017.5,437.5L1013.1,441.5C1010.6,443.7 1006.4,447.3 1003.5,449.4C1000.7,451.5 995.5,454.7 991.9,456.5C988.3,458.3 982.9,460.5 979.9,461.4C976.9,462.3 970.6,463.5 965.9,464.1C959,464.9 956,464.8 949.9,463.6C945.8,462.7 940.2,460.9 937.4,459.6C934.7,458.4 930.4,455.5 927.9,453.3C925.4,451 923.6,449 923.9,448.7C924.2,448.4 927.6,448.6 931.4,449.2C937.2,450.1 940.1,450 947.9,448.6C953.1,447.7 960.8,445.5 964.9,443.9C969,442.2 974.9,439.2 977.9,437.2C980.9,435.2 986.3,430.8 989.8,427.5C993.3,424.2 998.1,418.8 1000.5,415.5C1002.8,412.2 1006.5,405.7 1008.7,401C1010.9,396.3 1013.5,389.4 1014.5,385.5C1015.9,380.5 1016.4,375 1016.3,366C1016.3,355.6 1015.9,352.5 1014.1,347.5C1012.8,344.2 1011.6,340.7 1011.3,339.6C1011,338.6 1011.2,337.9 1011.6,338.1ZM1088,344C1088.5,344 1089.2,345.3 1089.5,346.8C1089.9,348.3 1090.7,350.6 1091.4,352C1092.1,353.4 1094.7,355.5 1097.3,356.8C1099.8,358 1102.9,359 1104.2,359C1105.4,359 1106.7,359.3 1107.1,359.7C1107.5,360.2 1105.9,362.6 1103.6,365.1C1101.3,367.6 1098.1,372.3 1096.5,375.6C1094.9,378.9 1092.8,385.6 1091.8,390.5C1090.8,395.5 1089.5,405.6 1088.9,413C1088.2,422.6 1087.3,427.8 1085.8,431C1084.7,433.5 1082.8,436.6 1081.6,437.9C1080.4,439.2 1077.8,441 1075.9,442C1074,443 1068,444.6 1062.7,445.4C1057.3,446.3 1051.4,447.8 1049.7,448.6C1047.9,449.5 1044.9,451.3 1043.2,452.6C1041.4,454 1039.7,454.9 1039.5,454.8C1039.2,454.6 1039.3,449.2 1040.4,430.7L1046.9,429.4C1050.5,428.6 1055.1,426.9 1057.2,425.5C1059.2,424.1 1061.8,421.3 1062.8,419.3C1063.9,417.2 1065.2,413.5 1065.8,411C1066.4,408.5 1067.3,400.9 1067.9,394C1068.4,387.1 1069.6,378.1 1070.4,374C1071.3,369.9 1073.3,363.8 1074.9,360.5C1076.5,357.2 1079.9,352.2 1082.4,349.3C1085,346.4 1087.5,344 1088,344ZM404.7,355C406.4,355 407.9,355.5 407.9,356C407.9,356.6 406.6,359.6 405,362.8C403.4,365.9 400.6,372.3 398.7,377C396.7,381.7 394.7,387.1 394.1,389C393.2,392 392.2,392.8 388.4,394C384.3,395.4 383.7,396 381.9,400.5C380.8,403.3 379.3,408 377.2,416.5L371.8,417.1C368.8,417.4 365.1,418.2 363.4,418.9C361.8,419.6 358.5,421.5 356.2,423.1C351.9,426 351.9,426 351.9,423.8C351.9,422.5 352.8,416.5 353.9,410.3C355,404.1 357,395.5 358.4,391.3C359.7,387 361.4,382.7 362.2,381.8C362.9,380.8 366.6,379.1 370.5,378C374.3,376.9 380.5,374.5 384.3,372.8C388.2,370.9 392.6,367.9 394.5,365.8C396.4,363.7 398.2,360.8 398.6,359.3C398.9,357.8 399.7,356.2 400.3,355.8C400.9,355.4 402.9,355 404.7,355ZM1118.1,356.2C1118.5,356.1 1119,359.5 1119.1,363.8C1119.3,368 1119.3,371.6 1119.2,371.8C1119,371.9 1118,371.6 1116.9,371C1115.8,370.5 1114,368.6 1112.9,366.8C1111.8,365 1110.9,362.4 1110.9,361C1110.9,359.1 1111.6,358.3 1114.1,357.4C1115.9,356.8 1117.7,356.2 1118.1,356.2ZM885.5,359C886.3,359 888.5,359.8 894,362.5L893.2,378C892.8,386.5 892.4,396.5 892.4,400.2C892.4,406.7 892.3,406.9 889.7,407.4C888.1,407.8 881.4,412.1 874.7,417.2C867.9,422.2 859.5,427.7 855.9,429.4C851.2,431.6 847.9,432.4 843.9,432.4C840.6,432.4 837.1,431.7 835.2,430.7C833.4,429.8 831.2,427.6 830.3,425.8C829.5,424 829,422.1 829.2,421.5C829.5,421 832.3,419.9 835.5,419.2C838.8,418.4 844.8,416.4 848.9,414.7C853,413 859.6,409.5 863.4,407C867.3,404.4 873.1,399.5 876.5,395.9C880.5,391.6 883.2,387.6 884.7,383.8C885.9,380.5 886.9,375.7 886.9,372.8C886.9,369.9 886.3,365.6 885.5,363.3C884.2,359.6 884.2,359 885.5,359ZM765.3,375C766.4,375 769.7,376.1 772.4,377.4C775.2,378.7 778.5,380.9 782.4,385L780.3,389.8C779.1,392.4 777.3,397 776.3,400C774.8,404.3 774.4,408.4 774.4,418C774.5,428.6 774.8,431.3 776.7,435.8C778.9,441 778.9,441 776.9,442C775.8,442.6 773.4,443 771.7,443C769.9,443 767.4,442.4 766.2,441.5C764.8,440.6 763.6,438.5 763.3,436.3C762.9,434.2 763.1,421 763.8,407C764.6,390.6 764.7,380.4 764,378.3C763.2,375.3 763.3,375 765.3,375ZM1242.3,376.1L1246.5,380.8C1248.7,383.4 1252.3,386.4 1254.3,387.5C1256.3,388.6 1257.9,389.9 1257.9,390.3C1257.9,390.7 1255.7,393.6 1253.1,396.8C1250.5,399.9 1244.5,405.6 1239.8,409.3C1235.2,413 1227.8,417.9 1223.4,420C1219,422.2 1211.6,425 1206.9,426.1C1200,427.9 1196.5,428.2 1187.9,427.8C1180.2,427.4 1175.8,426.7 1171.4,425C1168.1,423.7 1162.7,420.6 1159.4,418.1C1156.1,415.6 1153.6,413.1 1153.8,412.5C1154,412 1154.6,411.7 1155.3,411.9C1155.9,412.1 1160.9,412.5 1166.4,412.8C1174.5,413.2 1178,412.9 1184.9,411.1C1189.6,410 1196.3,407.6 1199.9,405.9C1203.5,404.2 1208.7,401.3 1211.4,399.5C1214.2,397.7 1219.6,393.4 1223.4,390.1C1227.3,386.7 1230.7,384 1231.2,384C1231.6,384 1234.2,382.2 1237.1,380.1L1242.3,376.1ZM313.9,385L322.4,385C327.1,385 330.9,385.1 330.9,385.2C330.9,385.4 329.3,389.1 327.4,393.5C324.4,400.4 323.5,401.6 320.7,402.5C318.9,403 316.2,404.3 314.7,405.2C313.1,406.2 311.2,408.4 310.3,410.2C309.3,412.3 308.9,414.7 309.3,416.7C309.7,418.7 310.9,420.6 312.4,421.5C313.8,422.3 315.7,422.8 316.7,422.5C318.2,422.1 318.1,423.5 315.2,436.3C313.4,444.1 311.9,450.9 311.9,451.5C311.9,452 309,454.2 305.6,456.4C302.2,458.5 296.7,461.6 293.4,463.1C290.1,464.7 284,466.7 279.9,467.6C274.8,468.7 270.6,469 266.9,468.6C263.9,468.2 260.1,467 258.4,466C256.8,464.9 253.9,464 252,464C250.1,464 248.9,463.8 249.2,463.5C249.6,463.2 247.6,460.8 244.9,458.2C242.1,455.6 239.9,453.3 239.9,453C239.9,452.7 242.1,452.8 244.7,453.3C247.3,453.7 252.4,453.6 256.2,453C259.9,452.4 265.5,450.9 268.7,449.6C271.8,448.3 277.3,445.5 280.9,443.4C284.5,441.3 290.8,436.2 295,432.1C299.2,427.9 303.4,422.9 304.4,421C305.4,419.1 306.2,415.9 306.3,413.9C306.4,411.9 305.7,409.5 304.9,408.5C303.7,407.2 302.1,406.9 297.1,407.1C291.7,407.4 290.5,407.2 289.3,405.5C288.5,404.4 287.9,401.7 287.9,399.5C288,396.2 288.7,394.8 291.7,391.8C293.7,389.9 297.2,387.7 299.4,387.1C301.6,386.5 303.7,386.4 304,386.8C304.3,387.2 305.4,390.3 306.5,393.8C307.5,397.2 308.6,400 308.9,400C309.2,400 310.4,396.6 311.7,392.5L313.9,385ZM707.3,408C709.2,407.9 711.1,408.8 712.5,410.2C713.7,411.4 715,413.6 715.3,415C715.6,416.3 715.2,426.7 714.4,438C713.5,449.9 713.2,459.7 713.7,461.5C714.2,463.2 714,469.5 713.3,476.5C712.6,483.1 711.5,489.8 710.8,491.5C710.2,493.1 708.8,495.7 707.7,497.2C706.7,498.7 704,500.9 701.8,502C699.6,503.1 693.9,504.7 689.1,505.5C684.3,506.3 678.6,507.5 676.6,508C674.5,508.5 670.7,510.9 663.5,517.5L664.2,504.5C664.6,497.3 665,491.4 665.1,491.3C665.2,491.1 667.7,490.6 670.6,490C673.5,489.4 677.6,488.1 679.8,487C682,485.9 684.9,483.5 686.3,481.7C687.6,479.9 689.4,476 690.2,473C690.9,469.9 691.9,459.6 692.3,450C692.7,440.3 693.4,429.4 693.9,425.7C694.4,422 695.7,417.2 696.8,415C697.9,412.8 700.1,410.3 701.6,409.5C703.1,408.7 705.7,408 707.3,408ZM564.2,414.6C565.4,415 567.9,416.2 569.9,417.4C571.8,418.5 574.3,420.1 577.6,422.5L575.2,460.5C574,481.4 572.8,501.9 572.3,513.7L566.1,518.6C562.6,521.3 556.6,525.1 552.6,527.2C548.6,529.2 542.4,531.6 538.8,532.5C535.3,533.4 528.7,534.4 524.3,534.7C519.9,535 513.9,534.7 510.8,534.1C507.8,533.4 503,531.8 500.1,530.4C497.2,529.1 492.8,526.1 490.3,523.7C487.8,521.4 485.8,519.1 485.8,518.7C485.8,518.3 487.7,518.5 490.1,519.1C492.5,519.7 498.2,519.9 503.3,519.6C508.9,519.3 515.4,518.2 520.3,516.6C524.7,515.2 531.3,512.3 534.8,510.2C538.4,508.2 545.2,502.7 549.9,498C556.3,491.6 559.5,487.5 562.6,481.5C564.9,477.1 567.7,469.4 568.9,464.5C570.7,457.1 571,453.6 570.5,445C570.2,438.1 569.3,432.2 567.9,428C566.7,424.4 564.8,420 563.8,418.2C562.7,416.4 561.9,414.7 561.9,414.4C562,414.1 563,414.2 564.2,414.6ZM637.7,418.9C639.9,418.9 642,419.6 643.1,420.7C644.1,421.7 645.1,424.3 645.4,426.5C645.7,428.7 645.1,446.4 643.9,466C642.8,485.5 642.1,501.6 642.4,501.7C642.6,501.9 642.4,502.5 641.8,503.2C641.2,503.9 639.8,505.9 638.8,507.7C637.5,509.8 635,511.8 631.6,513.4C628.7,514.7 622.4,516.4 617.6,517.1C612.8,517.9 608.8,518.8 608.8,519.2C608.8,519.6 608.3,519.9 607.6,519.8L604.8,519.8C604,519.9 601.1,521.8 593.5,528.5L594.2,519C594.5,513.7 594.8,507.8 594.8,505.7C594.8,502 594.9,502 599.6,501.4C602.2,501 606.1,500.1 608.3,499.3C610.5,498.5 613.4,496.9 614.7,495.7C616,494.5 618,491.4 619.1,489C620.5,485.8 621.3,480.7 621.9,472C622.4,465.1 623.2,453.4 623.7,446C624.367,437 625.3,431.033 626.5,428.1C627.5,425.6 629.6,422.6 631.2,421.3C633,419.8 635.3,419 637.7,418.9ZM898.6,431C899.3,431 901.1,432.5 902.6,434.3C904.1,436.1 907.2,439.2 909.6,441C913,443.8 913.6,444.8 912.8,446.2C912.3,447.2 909,450.9 905.6,454.6C902.1,458.2 896.2,463.6 892.3,466.5C888.5,469.4 881.5,473.7 876.8,476.1C870.8,479.1 865.3,480.9 857.8,482.3C848.5,484.1 846.4,484.2 838.3,483.2C832.6,482.4 827.2,481 823.3,479.2C820,477.6 815.4,474.6 808.7,468.5L806.1,472C804.6,473.9 801.6,477.2 799.4,479.4C797.2,481.6 792.6,485.1 789.3,487.2C786,489.3 781,491.9 778.1,493C775.2,494.1 769.8,495.5 766.1,496.1C760.6,496.9 758.3,496.9 753.8,495.6C750.8,494.8 746.4,492.7 744.1,491C741.7,489.3 739.2,486.7 737,482.5L744.2,481.2C748.1,480.4 754.3,478.7 757.8,477.3C761.4,475.9 767,472.8 770.3,470.5C773.6,468.2 778.6,463.7 781.3,460.6C784.1,457.5 786.7,455 787.1,455C787.5,455 790.6,457 794.1,459.5C797.8,462.3 803,464.9 806.8,466.1C810.4,467.1 816,468.3 819.3,468.6C822.6,468.9 828.7,468.7 832.8,468C837,467.4 843.5,465.8 847.3,464.4C851.2,463.1 857.7,460 861.8,457.7C865.8,455.4 872.6,450.3 876.8,446.4C880.9,442.5 884.8,439.4 885.3,439.6C885.9,439.8 888.8,438 891.8,435.5C894.9,433.1 897.9,431.1 898.6,431ZM367.1,447C368.6,447 371.3,447.6 373.1,448.3C375.3,449.2 376.7,450.7 377.6,453C378.3,454.9 378.8,458.3 378.8,460.5C378.8,463.7 378,465.2 375,468.5C372.5,471.1 370.5,474.7 369.1,479C367.9,482.5 365.8,493.6 364.3,503.5C362.9,513.4 361.1,524.4 360.2,528C359.4,531.5 357.6,537.7 356.3,541.7C354.9,545.7 352.4,551.8 350.7,555.2C349,558.7 345.4,564.6 342.9,568.5C340.3,572.3 335.3,578.6 331.8,582.3C328.2,586.1 322.4,591.3 318.8,593.9C315.3,596.5 310.3,599.8 307.8,601.3C305.4,602.7 299.7,605.3 295.3,607C290.9,608.8 282.8,611.1 277.3,612.2C269.7,613.7 264.7,614 255.8,613.7C246.8,613.3 242.6,612.6 236.3,610.5C231.9,609 225.9,606.3 222.8,604.5C219.8,602.6 216,599.7 214.3,598C212.7,596.3 211.6,594.9 211.8,594.9C212.1,594.9 215.9,595.9 220.3,597C225.4,598.3 231.6,599 237.3,599C242.4,599 250.5,598.1 255.8,597C261.1,596 268,594.1 271.3,593C274.6,591.8 280.9,589 285.2,586.7C289.5,584.4 296.5,579.6 300.7,576.2C304.9,572.7 310.3,567.5 312.7,564.7C315.2,561.8 319.7,555.6 322.7,551C325.8,546.3 329.8,538.9 331.6,534.5C333.5,530.1 336.1,522.4 337.4,517.5C338.7,512.5 341.1,499.5 342.7,488.5C344.4,477.5 346.6,466 347.7,463C348.8,459.9 351.2,455.8 353,453.7C354.9,451.6 358.1,449.2 360.3,448.5C362.5,447.7 365.6,447 367.1,447ZM270.3,478.9C274.8,478.9 277,479.4 279.1,480.9C281,482.4 281.8,483.9 281.8,486C281.8,487.6 280.8,491.6 279.4,494.7C278.1,497.9 276.8,501.3 276.4,502.2C276.1,503.3 274.8,504 273.1,504C271.6,504 268.6,503.5 266.6,503C264.5,502.4 261.3,500.6 259.3,499C256.9,496.9 255.6,494.8 255.2,492.2C254.9,490.2 255.1,486.7 255.8,484.5C256.8,481 257.4,480.4 260.1,480.2C261.9,480 263.5,479.7 263.8,479.4C264,479.2 266.9,479 270.3,478.9ZM453.1,487.9C453.8,487.9 455.9,490.9 457.8,494.7C459.7,498.4 463.5,503.8 471.3,511.8L469,518.1C467.7,521.6 464.8,527.4 462.4,531C460,534.5 455.9,539.4 453.2,541.9C450.5,544.3 445.9,547.4 442.8,548.8C439.8,550.1 434.9,551.5 431.8,551.7C427.7,552.1 424.8,551.6 420.3,549.9C416.2,548.3 412.8,546 404.3,537.5L410.3,536.8C413.6,536.5 418.6,535.1 421.3,533.8C424,532.5 428.7,529.2 431.7,526.5C434.7,523.7 438.8,519 440.8,516C442.9,512.9 445.7,507.5 447.1,504C448.5,500.4 450,496.1 450.4,494.5C450.7,492.8 451.2,490.7 451.5,489.7C451.7,488.8 452.5,488 453.1,487.9Z" style="fill:rgb(255,199,100);"/>
                </g>
                <path id="Path-1" serif:id="Path 1" d="M1396,254C1398.5,254 1402.1,254.4 1404,255C1405.9,255.5 1409.5,257.6 1412,259.8C1414.7,262.1 1417.4,265.7 1418.8,268.8C1420,271.7 1421.5,277.5 1422.1,281.7C1422.9,287.4 1422.9,292.3 1422.1,300C1421.4,305.8 1420,314.1 1418.9,318.5C1417.8,322.9 1414.5,331.4 1411.5,337.5C1408.6,343.6 1403.9,351.5 1401.1,355.3C1398.3,359 1393.2,364.3 1389.8,367.1C1386.3,370 1380.8,373.6 1377.5,375.3C1374.2,376.9 1368.1,379.1 1364,380.2C1359.9,381.2 1353.1,382.2 1349,382.2C1343,382.3 1340.4,381.9 1336,379.9C1333,378.5 1328.9,375.9 1323.5,371.1L1317,376.6C1313.4,379.6 1308.3,383.4 1305.5,385C1302.8,386.6 1298,388.8 1295,389.8C1292,390.9 1286.3,392.3 1282.5,392.9C1276.8,393.9 1274.2,393.9 1268.5,392.7C1264.7,391.9 1259.6,390.3 1257.3,389.1C1254.9,388 1251.2,385.3 1248.9,383.2C1246.7,381.2 1243.9,377.4 1240.5,370L1236.3,376C1233.9,379.3 1229.4,384.5 1226.3,387.4C1223.1,390.4 1218,394.7 1215,397C1212,399.3 1205.9,402.9 1201.5,405.1C1197.1,407.2 1189.9,409.9 1185.5,411C1180.9,412.2 1174.2,413 1169.8,413C1165.5,413 1159.6,412.5 1156.8,411.9C1153.9,411.3 1148.4,409.1 1144.6,407.1C1140.1,404.8 1135.8,401.4 1132.2,397.5C1129.2,394.2 1125.8,389.7 1124.7,387.5C1123.6,385.3 1121.9,380.1 1120.9,376C1119.8,371.9 1119,365.7 1119,362.2C1119,356.7 1118.8,356.1 1117.3,356.6C1116.3,356.9 1114.2,357.6 1112.5,358.2C1110.8,358.7 1107.8,359.1 1105.8,359.1C1103.7,359 1099.9,358 1097.4,356.7C1094.8,355.5 1092.2,353.4 1091.5,352C1090.8,350.6 1090,348.3 1089.6,346.7C1089.3,345.2 1088.5,344 1088,344C1087.5,344 1085,346.4 1082.5,349.2C1080,352.1 1076.6,357.2 1075,360.5C1073.4,363.8 1071.4,369.9 1070.5,374C1069.6,378.1 1068.5,387.1 1067.9,394C1067.4,400.9 1066.5,408.5 1065.9,411C1065.3,413.5 1064,417.2 1062.9,419.2C1061.9,421.3 1059.3,424.1 1057.3,425.5C1054.9,427.1 1050.3,428.6 1045,429.6C1040.3,430.5 1034.1,431.9 1031.1,432.8C1028.1,433.8 1024,436 1018,441L1018,437.2C1017.9,435.2 1018.9,413.7 1020.2,389.5C1022,354 1022.2,344.7 1021.2,341.2C1020.4,338.3 1019.1,336.5 1017,335.2C1015.3,334.3 1014,333.2 1014,332.7C1014,332.3 1017,329.3 1020.8,325.9C1025.1,322 1031,318.1 1037.5,314.8C1047.3,309.9 1047.7,309.8 1055.2,310.2C1062.4,310.5 1063.2,310.7 1066.2,313.8C1069,316.6 1069.7,318.2 1071.5,331.3L1078,323C1081.6,318.4 1086.8,312.8 1089.5,310.6C1092.3,308.5 1097,305.5 1100,304.1C1104.5,302 1107,301.5 1113.7,301.5C1121.1,301.5 1122.2,301.8 1126.1,304.5C1128.4,306.1 1131.4,309.5 1132.7,312C1134,314.5 1135.3,316.7 1135.6,317C1135.8,317.3 1139.1,314.5 1142.8,310.8C1146.5,307.2 1152.7,302.2 1156.5,299.7C1160.3,297.2 1166.4,294 1170,292.7C1173.6,291.3 1179.5,289.5 1183.3,288.6C1187,287.7 1193.6,287 1198,287C1203.8,287 1207.5,287.6 1211.8,289.2C1214.9,290.4 1219.5,293 1222,295C1224.5,297 1227.6,300.9 1229,303.6C1231.1,307.7 1231.5,309.9 1231.5,317C1231.5,323.7 1231,326.5 1229.3,330C1228.1,332.5 1225,336.9 1222.3,339.9C1219.7,342.9 1214.8,347.2 1211.5,349.6C1208.2,351.9 1202.1,355.4 1198,357.4C1193.9,359.3 1186.8,362 1182.3,363.2C1177.7,364.5 1174,365.9 1174,366.5C1174,367.1 1174.9,369 1176,370.7C1177.1,372.5 1179.5,374.7 1181.3,375.6C1183.6,376.8 1186.2,377.1 1190.5,376.8C1195.1,376.5 1198.4,375.3 1204.5,372.1C1208.9,369.7 1216.3,364.8 1221,361C1225.7,357.3 1230.5,353.8 1231.8,353.1C1233,352.5 1235.3,352 1237,352C1239.7,352 1240,351.7 1240,348.7C1240,347 1240.5,337.2 1241,327C1241.7,314.4 1241.7,307.5 1241,305.2C1240.5,303.4 1238.6,301 1236.8,299.8C1235,298.6 1233.3,297.5 1233,297.3C1232.7,297.1 1234.1,295.4 1236,293.4C1237.9,291.4 1242.2,287.7 1245.5,285C1248.8,282.3 1254.7,278.7 1258.5,276.9C1263.4,274.6 1267.3,273.5 1271.5,273.2C1276.3,272.9 1278.4,273.3 1282,275.2C1285.3,276.9 1287.1,278.7 1290.9,286.5L1289.2,317C1287.9,341.2 1287.8,348.1 1288.8,350.3C1289.5,351.8 1291.3,353.7 1293,354.5C1295.3,355.6 1296.9,355.8 1299.8,355C1301.8,354.5 1304.5,353.1 1305.7,351.8C1306.9,350.5 1308.6,347.8 1309.4,345.8C1310.3,343.7 1311.4,336.9 1311.9,330.8C1312.5,324.6 1313.2,314.1 1313.6,307.5C1314.1,299.3 1314,294.6 1313.2,292.5C1312.6,290.8 1310.5,288.6 1305,285.5L1309.8,280.7C1312.4,278 1317.2,273.9 1320.5,271.5C1323.8,269.1 1329.3,266 1332.8,264.6C1337,262.8 1340.9,262 1344.8,262C1348.2,262 1351.9,262.7 1354,263.8C1355.9,264.7 1358.5,267.1 1359.8,269C1361.6,271.8 1362.1,273.9 1362,279.5C1362,283.4 1361.5,296.6 1360.8,309C1360.2,321.4 1360,333.2 1360.3,335.3C1360.7,337.3 1362.1,340.1 1363.5,341.5C1365.1,343.1 1367.1,344 1369,344C1370.7,344 1373.5,343.4 1375.3,342.7C1377,341.9 1380.1,340 1382,338.3C1383.9,336.6 1386.7,332.8 1388.3,329.9C1389.8,326.9 1391.7,322 1392.5,319C1393.3,316 1394.3,309.7 1395.5,296.6L1393,297.9C1391.6,298.7 1388.4,299.2 1385.8,299.1C1383.1,299.1 1379.8,298.4 1378.3,297.6C1376.7,296.8 1374.7,295.4 1373.8,294.4C1372.9,293.3 1371.4,290.8 1370.6,288.8C1369.7,286.7 1369,282.4 1369,279.2C1369,275.8 1369.8,271.9 1370.9,269.5C1371.9,267.3 1374.5,263.8 1376.6,261.7C1378.9,259.5 1382.8,257.1 1386,256C1389,254.9 1393.5,254.1 1396,254ZM928.2,256.1C932.1,256 935.3,256.6 938,258C940.3,259.2 942.7,261.4 943.7,263.2C945.1,266.1 945.2,269.2 944.6,288.5C944.3,300.6 943.6,316.8 942.5,338.3L949.5,333C953.4,330.1 958.3,326.9 960.5,326C962.7,325.1 967,323.7 970,323C973.1,322.3 978.5,321.9 982.5,322.2C987,322.5 991.4,323.5 995,325.2C998,326.5 1002.7,329.9 1005.4,332.6C1008,335.3 1011.1,339.5 1012.2,342C1013.3,344.5 1014.8,349.6 1015.7,353.5C1016.7,358.4 1017,363.4 1016.7,370C1016.4,375.2 1015.4,382.4 1014.4,386C1013.5,389.6 1011,396.3 1008.8,401C1006.6,405.7 1002.9,412.2 1000.6,415.5C998.2,418.8 993.4,424.2 989.9,427.5C986.3,430.8 981,435.1 978,437.2C975,439.2 969.1,442.2 965,443.9C960.9,445.5 953,447.7 947.5,448.7C938.1,450.3 937,450.3 929,448.7C924.3,447.8 918.3,445.9 915.5,444.6C912.8,443.3 907.9,439.5 904.7,436.3C901.6,433.1 898.4,429.2 897.7,427.7C897.1,426.2 896.3,424.9 896,424.9C895.7,424.9 894.1,427.1 892.4,429.7C890.6,432.3 884.8,438.8 879.3,444C873.3,449.8 866.5,455.2 861.9,457.7C857.9,460.1 851.4,463.1 847.5,464.4C843.6,465.8 837.1,467.4 833,468.1C828.9,468.7 822.8,469 819.5,468.6C816.2,468.3 810.6,467.2 807,466.1C803.1,464.9 798,462.3 794.3,459.6C790.8,457.1 787.7,455 787.3,455C786.8,455 784.3,457.6 781.5,460.7C778.8,463.8 773.8,468.2 770.5,470.5C767.2,472.8 761.6,475.9 758,477.3C754.4,478.7 748.6,480.4 745,481C740.3,481.8 737.2,481.8 733.8,481.1C731.1,480.5 727.8,479.4 726.3,478.6C724.7,477.9 721.8,475.4 719.8,473.1C717.4,470.6 715.4,467 714.5,463.7C713.2,459.1 713.2,456.2 714.6,438C715.4,426.7 715.8,416.4 715.5,415C715.1,413.6 713.9,411.5 712.7,410.2C711.4,408.9 709.3,408 707.8,408C706.2,408 703.6,408.7 702,409.5C700.3,410.3 698.1,412.8 697,415C695.9,417.2 694.6,422 694.1,425.7C693.6,429.5 692.8,440.4 692.5,450C692.1,459.6 691.1,470 690.3,473C689.5,476 687.8,480 686.4,481.7C685.1,483.5 682.2,485.9 680,487C677.8,488.1 671.4,489.9 665.8,490.9C660.1,491.9 654.3,493.3 652.8,493.9C651.2,494.5 648.1,496.7 641.7,502.5L642.4,494.5C642.7,490.1 643.7,473.4 644.6,457.5C645.5,441.6 645.9,427.1 645.5,425.5C645.2,423.9 644.1,421.7 643.2,420.7C642.1,419.6 640.1,418.9 637.8,419C635.3,419 633,419.8 631.3,421.3C629.7,422.6 627.7,425.7 626.7,428.1C625.5,430.9 624.5,436.9 623.9,445C623.5,451.9 622.6,463.6 622.1,471C621.6,479.3 620.6,486 619.6,488.5C618.6,490.7 616.7,493.7 615.2,495.3C613.7,496.8 610.5,498.7 608,499.5C605.5,500.3 600.1,501.4 596,502C591.9,502.6 586.9,503.6 585,504.2C583.1,504.9 579.6,507.1 577.3,509.2C574.9,511.3 572.8,512.7 572.6,512.3C572.4,511.8 573.5,490.8 575.1,465.5C577.1,431.7 577.6,418.2 576.9,414.5C576.4,411.7 575.2,408.7 574.2,407.7C573.3,406.7 571.6,405.7 570.5,405.4C568.7,404.9 569.2,404.2 574,399.3C577,396.3 582.2,392 585.5,389.7C588.8,387.5 594.4,384.6 598,383.2C603.1,381.3 606,380.9 611.4,381.2C618,381.5 618.3,381.6 621.6,385.5C623.5,387.7 625.2,390.7 625.5,392.2C626,395 626,395 633,388.5C636.9,384.9 642.6,380.3 645.8,378.3C648.9,376.3 654.1,373.8 657.3,372.8C660.4,371.8 666,371 669.8,371C673.5,371 678.2,371.5 680.3,372C682.3,372.6 685.7,374.7 687.8,376.7C689.8,378.8 692,381.4 692.6,382.5C693.7,384.4 694.2,384.1 700.6,377.9C704.4,374.3 709.8,369.9 712.5,368.1C715.3,366.4 721,363.8 725.3,362.5C729.8,361 735.4,360 738.8,360C741.9,360 746.3,360.6 748.4,361.3C750.6,361.9 754.6,364.5 757.3,367C760.9,370.3 762.5,372.8 763.6,376.5C764.9,380.8 764.9,385 763.9,407C763.2,421 763,434.2 763.3,436.2C763.7,438.5 764.9,440.6 766.3,441.5C767.5,442.3 770,443 771.8,443C773.5,443 775.9,442.6 777,442C779,441 779,441 776.8,435.7C774.8,431.2 774.6,428.8 774.6,417.5C774.7,406 775,403.6 777.4,397C778.8,392.9 781.9,386.4 784.2,382.5C786.6,378.4 791.8,372 796.9,367C802.3,361.7 808.5,356.8 813.5,353.9C817.9,351.3 824,348.3 827,347.2C830,346.1 836.3,344.4 841,343.5C846.8,342.3 851.7,341.9 856.5,342.4C861.3,342.8 865.4,343.9 869.5,345.9C872.8,347.5 877.2,350.5 879.3,352.7C881.3,354.8 883.9,358.9 885,361.7C886.1,364.7 887,369.5 887,372.5C887,375.8 886.1,380.3 884.8,383.7C883.3,387.6 880.6,391.6 876.5,395.9C873.2,399.4 867.4,404.4 863.5,406.9C859.6,409.5 853.1,413 849,414.7C844.9,416.4 838.9,418.4 835.6,419.2C832.4,419.9 829.5,420.9 829.3,421.5C829,422.1 829.6,424 830.4,425.7C831.3,427.5 833.5,429.8 835.3,430.7C837.2,431.7 840.7,432.4 844,432.4C848,432.4 851.3,431.5 856,429.4C859.6,427.7 868,422.2 874.8,417.2C881.6,412.1 888.3,407.8 890,407.5C891.6,407.2 892.8,406.6 892.5,406C892.2,405.4 893.2,381 894.6,351.7C896,322.5 897,296.2 896.7,293.5C896.4,290.7 895.6,287.2 894.8,285.6C894.1,284 892.1,282.1 887.5,280.1L895,272.8C899.8,268.1 905.2,264.1 910,261.6C914.1,259.4 918.6,257.3 920,256.9C921.4,256.5 925.1,256.1 928.3,256.1L928.2,256.1ZM490.9,294.6C494.5,294.8 499.2,295.9 501.4,296.9C503.6,297.9 506.9,300.3 508.7,302.1C510.5,304 512.5,307.3 513.1,309.5C513.6,311.7 513.8,315.3 513.5,317.5C513.2,319.7 511.8,323.2 510.4,325.2C508.8,327.7 506.1,329.8 502.7,331.4C498.1,333.5 495.4,333.9 482.9,334.3C471.1,334.7 467.3,335.2 462.4,337.1C457.8,338.8 454.8,341 449.4,346.4C443.7,352.1 441.3,355.5 437.2,364C434.3,369.8 430.2,380.4 428.1,387.5C425.9,394.6 423,405.7 421.8,412C420,421 419.5,427 419.4,439.5C419.4,450.4 419.9,457.3 420.8,461C421.6,464 423.5,468 425.1,469.7C426.9,471.8 428.8,473 430.4,473C432,473 434.6,471.4 437.7,468.5C440.6,465.7 443.3,464.1 444.9,464.1C446.3,464.1 448.2,464.8 449.1,465.8C450.7,467.4 450.9,467.2 451.4,462.5C451.7,459.7 452.6,454.6 453.5,451C454.3,447.4 456.4,441.4 458.3,437.5C460.1,433.6 463.8,427.6 466.5,424.1C469.2,420.5 473.9,415.7 476.9,413.2C479.9,410.8 485.3,407.1 488.9,405C492.5,402.9 498.6,400.2 502.4,399C506.4,397.8 513.5,396.6 518.9,396.3C524.5,396 530.7,396.2 533.9,396.9C536.9,397.5 541.9,399.2 544.9,400.6C547.9,402 552,404.4 553.9,405.9C555.8,407.5 559.1,411.1 561.2,414.1C563.2,417.1 566.1,422.9 567.5,427C569.4,432.5 570.2,437.3 570.6,445C571,453.6 570.7,457.1 569,464.5C567.8,469.4 564.9,477.1 562.6,481.5C559.6,487.5 556.4,491.6 550,498C545.3,502.7 538.5,508.2 534.9,510.3C531.3,512.4 524.8,515.2 520.4,516.6C516,518 508.8,519.4 504.4,519.7C499.6,520.1 493.8,519.8 489.9,519.1C486.3,518.4 481.2,516.6 478.4,515.3C475.7,513.9 471.9,511.5 470,510.1C468.1,508.7 464.6,504.8 462.2,501.5C459.7,498.2 456.8,492.9 455.6,489.7C454.4,486.5 453.2,483.9 452.9,484C452.6,484 451.9,486.8 451.3,490.2C450.7,493.7 448.9,499.6 447.4,503.5C445.8,507.4 442.9,513 440.9,516C438.9,519 434.7,523.7 431.8,526.5C428.8,529.2 424.1,532.6 421.4,533.8C418.6,535.1 414.4,536.4 411.9,536.7C409.4,537 405.2,536.7 402.4,536.1C399.7,535.4 395,533.3 392.2,531.4C388.6,529.1 386,526.3 383.9,522.7C382.3,519.9 380.3,514.6 379.5,511C378.7,507.4 377.8,500.2 377.4,495C377,489.7 377.3,479.3 377.9,471.5C378.8,461.1 378.8,456.5 378,453.7C377.2,450.9 376.1,449.6 373.4,448.5C371.5,447.7 368.9,447 367.7,447C366.4,447 363.6,447.5 361.4,448.1C359.1,448.7 355.9,450.8 353.9,452.9C351.9,454.9 349.3,459.2 348,462.5C346.7,466.1 344.5,476.6 342.8,488.5C341.2,499.5 338.8,512.5 337.5,517.5C336.1,522.5 333.5,530.1 331.7,534.5C329.8,538.9 325.8,546.3 322.8,551C319.7,555.7 315.2,561.8 312.8,564.7C310.4,567.6 305,572.7 300.8,576.2C296.6,579.7 289.6,584.4 285.3,586.7C280.9,589 274.7,591.9 271.4,593C268.1,594.2 261.1,596 255.9,597.1C250.5,598.2 242.5,599 237.4,599C231.6,599 225.4,598.3 219.9,596.9C215.2,595.7 208.3,593.2 204.4,591.2C200.2,589 194.8,585 190.8,581C185.7,576.1 183.1,572.5 180,566C177.7,561 175.3,554 174.3,549C173.1,543.1 172.8,538.1 173.2,532.5C173.5,528.1 174.7,521.6 175.8,518C176.9,514.4 179.5,508.6 181.6,505.1C183.7,501.6 187.9,496.1 190.9,492.7C193.9,489.4 198.9,484.8 201.9,482.5C204.9,480.1 210.3,476.6 213.9,474.7C217.5,472.7 222.9,470.2 225.9,469.1C228.9,468 234.3,466.4 237.9,465.5C241.5,464.7 247,464 250.2,464C255,464 256.3,464.4 258.4,466.5C259.8,467.9 260.9,469.7 260.9,470.5C260.9,471.3 259.5,475.5 257.8,479.7C255.4,485.7 254.8,488.4 255.2,491.5C255.6,494.4 256.8,496.4 259.3,498.7C261.3,500.5 264.8,502.5 267.2,503.1C269.5,503.7 273.2,503.9 275.4,503.5C277.6,503.2 281.3,502 283.7,500.9C286,499.9 289.9,496.9 292.4,494.2C295.1,491.5 298.8,485.8 301.4,480.5C303.8,475.6 307.1,467 308.8,461.5C310.5,456 313.7,443.6 315.9,434C318,424.4 321,412.6 322.4,407.7C323.8,402.9 326.3,396 327.9,392.2C329.6,388.5 330.9,385.4 330.9,385.2C330.9,385.1 327.1,385 313.9,385L315.4,380.7C316.3,378.4 318.6,373.4 320.5,369.5C322.4,365.6 325.4,360.8 330.4,354.8L348.6,357.5L353.5,353.2C356.2,350.8 361.6,347.3 365.4,345.5C369.3,343.6 375.1,341.5 378.4,340.8C382.9,339.9 385.4,339.9 388.4,340.8C390.6,341.4 393.6,342.8 395.2,343.9C396.7,345.1 398.4,347.7 399,349.7C399.8,352.5 399.8,354.7 399,357.7C398.4,360.1 396.4,363.7 394.5,365.7C392.6,367.9 388.2,370.9 384.3,372.7C380.5,374.5 374.4,376.9 370.7,378C367.1,379.1 363.4,380.8 362.5,381.8C361.6,382.7 359.7,387 358.4,391.2C357,395.5 355,404.1 353.9,410.2C352.8,416.4 351.9,422.5 351.9,423.7C351.9,426 351.9,426 356.2,423.1C358.5,421.5 362.4,419.4 364.9,418.4C368.2,417.2 371,416.8 375.4,417.3C378.7,417.6 382.4,418.1 383.7,418.4C385.7,419 386,418.5 387.5,411.7C388.3,407.8 390.4,400.2 392.1,395C393.8,389.8 396.9,381.2 399.1,376C401.2,370.8 405,362.7 407.5,358C410,353.3 414.6,345.7 417.7,341C420.8,336.4 427.5,328.3 432.5,323C437.5,317.8 444.9,311.2 449,308.3C453.1,305.5 459.8,301.7 463.9,300C468,298.2 474.3,296.2 477.9,295.4C481.5,294.7 487.3,294.3 490.9,294.6ZM276.5,346.9C278.4,347.2 281.6,349.6 285.9,353.9C289.7,357.8 293.9,363.4 296.1,367.5C298.1,371.4 300.7,377 301.8,380C303,383 303.9,385.6 303.9,385.7C303.9,385.9 302,386.5 299.7,387.1C297.2,387.8 293.9,389.7 291.7,391.9C288.7,394.8 288,396.2 287.9,399.5C287.9,401.7 288.5,404.4 289.3,405.5C290.5,407.2 291.7,407.5 297.1,407.2C302.1,406.9 303.7,407.2 304.9,408.6C305.7,409.5 306.4,411.9 306.3,413.9C306.2,415.9 305.4,419.1 304.4,421C303.4,422.9 299.2,427.9 295,432.1C290.8,436.3 284.5,441.4 280.9,443.4C277.3,445.5 271.8,448.3 268.7,449.6C265.5,450.9 259.9,452.5 256.2,453C252.4,453.6 247.8,453.8 245.9,453.4C244,453.1 240.2,452.1 237.4,451.3C234.7,450.4 230.4,448.6 228,447.1C225.5,445.7 221.5,442.2 219,439.4C216.5,436.5 213.3,432 212,429.4C210.6,426.7 209,422.2 208.2,419.5C207.5,416.7 206.9,411.8 206.9,408.5C206.9,405.2 207.6,399.7 208.4,396.2C209.2,392.8 211,387.6 212.3,384.7C213.6,381.9 216.7,376.7 219.3,373.2C221.8,369.8 226.5,364.9 229.7,362.4C232.8,359.9 238.6,356.3 242.4,354.4C246.3,352.6 252.3,350.3 255.9,349.4C259.5,348.5 264.9,347.5 268,347.1C271.1,346.8 275,346.6 276.5,346.9Z" style="fill:rgb(255,237,159);"/>
                <path id="Path-2" serif:id="Path 2" d="M1386.2,380.8C1384.3,386.7 1381.1,395.1 1379,399.5C1376.8,403.9 1373.1,410.1 1370.6,413.2C1368,416.4 1363.9,420.6 1361.2,422.5C1358.6,424.4 1353.3,427.5 1349.5,429.4C1345.7,431.4 1337.4,434.5 1331.2,436.5C1325.1,438.4 1320,440.4 1320,441C1320,441.6 1320.6,442 1321.2,442C1321.9,442 1326.8,443.4 1332,445.1C1337.2,446.8 1345.8,450.4 1351,453C1358.4,456.8 1361.9,459.3 1367,464.7C1371,468.9 1375.1,474.5 1377.6,479.5C1379.9,483.9 1383.5,492.8 1385.6,499.3C1387.8,505.7 1389.7,511 1390,511C1390.3,511 1391.6,507.3 1392.9,502.7C1394.3,498.2 1397,490.7 1398.9,486C1400.9,481.3 1404.6,474.6 1407.1,471C1409.6,467.4 1414.1,462.5 1417.1,460.2C1420.1,457.8 1426.1,454.1 1430.5,452C1434.9,449.8 1442.7,446.7 1447.7,445C1452.8,443.4 1457.7,442 1458.5,442C1459.3,442 1460,441.7 1460,441.2C1460,440.8 1455,438.8 1448.8,436.6C1442.6,434.5 1433.7,430.9 1429,428.6C1422.6,425.5 1418.7,422.7 1413.4,417.5C1408,412.1 1405.3,408.4 1401.6,401C1399,395.8 1395.5,387 1393.8,381.5C1392.1,376 1390.5,371.2 1390.1,370.8C1389.8,370.5 1388,375 1386.2,380.8Z" style="fill:rgb(255,175,0);fill-rule:nonzero;"/>
                <path id="Path-4" serif:id="Path 4" d="M907,192.3C907,193.2 905.9,197.5 904.5,201.7C903.2,206 900.3,212.2 898.1,215.5C895.9,218.8 892.9,222.9 891.3,224.7L888.5,227.8C857.9,226.4 838,226.4 818.5,227C800.9,227.6 777,228.7 765.5,229.5C754,230.4 737.5,231.7 729,232.5C720.5,233.4 706.1,234.9 697,236.1C687.9,237.2 672.4,239.4 662.5,241C652.6,242.6 637.3,245.3 628.5,247C619.7,248.7 602.7,252.6 590.7,255.6C578.8,258.6 560.6,263.7 550.2,267.1C539.9,270.5 525,275.9 517,279.2C509,282.5 498.9,287.1 494.5,289.3L486.5,293.3C496.6,295.2 500.9,296.4 502.5,297.3C504.1,298.2 506.7,300 508.3,301.4C509.8,302.8 511.6,305.2 512.4,306.7C513.4,308.9 514.7,309.7 518.1,310.2C520.5,310.6 524.2,312.1 526.3,313.5C528.3,314.9 530.9,317.6 532,319.5L534,323C539.8,319.667 544.633,316.9 548.5,314.7C552.4,312.5 560,308.5 565.5,306C571,303.4 580.7,299.1 587,296.5C593.3,293.9 607.7,288.7 619,285C630.3,281.2 648.5,275.9 659.5,273.2C670.5,270.4 687.6,266.6 697.5,264.6C707.4,262.6 723.1,259.9 732.5,258.5C741.9,257.1 757.4,255 767,254C776.6,252.9 793.5,251.3 804.5,250.5C815.5,249.7 834.4,248.7 846.5,248.4L868.5,247.7C879.1,253.1 884.4,257.2 889.5,262.1L897.5,269.9C904.5,264.7 909.4,261.8 913,260C917.6,257.7 921.4,256.6 926,256.2C930.9,255.8 933.6,254.9 936.8,252.8C940.4,250.4 941.7,250.1 946.2,250.5C949.1,250.8 958.9,251.7 968,252.6C977.1,253.4 992.6,255.2 1002.5,256.5C1012.4,257.8 1027.3,260.1 1035.5,261.5C1043.8,263 1055.5,265.3 1061.5,266.6C1067.5,268 1078.8,270.7 1086.5,272.6C1094.2,274.5 1104.1,277.2 1108.5,278.6C1112.9,280 1116.7,280.9 1117,280.6C1117.3,280.3 1113.7,278.3 1109,276.1C1104.3,274 1093.7,269.8 1085.5,266.7C1077.2,263.7 1065.3,259.6 1059,257.6C1052.7,255.7 1043.2,252.9 1038,251.5C1032.8,250.1 1020.6,247.2 1011,245.1C1001.4,242.9 983.8,239.6 972,237.6C960.2,235.7 946.2,233.6 941,232.9L931.5,231.7C919.8,219.8 917,215.8 914.1,209.7C911.9,205.2 909.8,199.7 909.4,197.5C909.1,195.3 908.4,192.8 907.9,192C907.2,190.7 907.1,190.8 907,192.2L907,192.3ZM1143,294.6C1143,294.9 1145.5,296.5 1148.5,298.1C1152.4,300.2 1154.5,300.8 1155.7,300.2C1156.7,299.8 1157.1,299.1 1156.5,298.8C1156,298.5 1152.8,297.3 1149.5,296.1C1146.2,295 1143.4,294.1 1143.2,294.1C1143.1,294.1 1143,294.3 1143,294.6ZM491,350.5C488,351.2 483.7,352.5 481.5,353.5C479.3,354.5 475.5,356.9 473.1,358.9C470.7,361 466.8,365.5 464.5,369.1C462.1,372.7 458.9,378.3 457.4,381.6C456,384.9 453.7,390.7 452.3,394.6C451,398.5 448.9,405.4 447.6,410.1C446.2,414.8 444.5,422.2 443.6,426.6C442.7,431 442,434.9 442,435.3C442,435.8 444.5,438.5 447.6,441.3C450.6,444.2 453.6,446.7 454.1,446.8C454.6,447 455,446.5 455,445.8C455,445.2 456.7,441 458.9,436.6C461.1,432.2 465.3,425.7 468.3,422.1L473.7,415.6C474.6,394.9 475.3,391.1 477.5,385.1C479,381 482,374.7 484.1,371.1C486.2,367.5 490.6,361.3 493.9,357.3C497.3,353.4 499.7,349.9 499.2,349.6C498.8,349.3 498.1,349.1 497.5,349.2C496.9,349.2 494,349.8 491,350.5ZM1235.3,377.1C1232.4,381 1230.5,384.1 1231,384.1C1231.5,384.1 1234.5,382.3 1237.5,380.1C1242.7,376.3 1243,376 1242.1,373.1C1241.6,371.5 1241,370.1 1240.8,370.1C1240.6,370.1 1238.1,373.3 1235.3,377.1ZM1254.4,395.3C1252.3,398.1 1247.1,403.4 1243,406.9C1238.9,410.4 1232.1,415.3 1228,417.7C1223.9,420.1 1216.8,423.3 1212.3,424.7C1204.4,427.2 1203.8,427.6 1200.3,432.9C1198.2,435.9 1192.5,442.3 1187.5,447C1182.5,451.7 1173.3,459.1 1167,463.3C1160.7,467.5 1150.3,473.7 1144,477C1137.7,480.3 1126.2,485.7 1118.5,488.9C1110.8,492.2 1095.5,497.8 1084.5,501.5C1073.5,505.1 1055.7,510.4 1045,513.1C1034.3,515.8 1019,519.4 1011,521.1C1003,522.8 985.9,526 973,528.1C960.1,530.3 940.5,533.2 929.5,534.5C918.5,535.9 900,537.9 888.5,539C877,540.1 859.2,541.5 849,542.1C838.8,542.6 825.5,543.1 819.5,543.1L808.5,543.1C797.3,531.4 793.2,526 791.3,522.1C789.6,518.5 787.4,512.7 786.5,509.1C785.5,505.5 784.7,502.5 784.6,502.4C784.6,502.2 783.7,505.2 782.7,508.9C781.7,512.6 779.2,518.7 777.2,522.6C775.2,526.5 770.8,532.4 767.5,535.8L761.5,542.1C739.8,540.5 725,539.2 714.5,538.1C704,536.9 688.1,534.9 679,533.5C669.9,532.1 655.3,529.7 646.5,528C637.7,526.4 625.1,523.8 618.5,522.2C607.1,519.5 606.3,519.4 603.2,521C600.9,522.1 600.3,522.8 601.2,523.3C601.9,523.7 611.3,526.9 622,530.4C632.7,534 650.5,539.2 661.5,542C672.5,544.7 688.7,548.3 697.5,550C706.3,551.7 719.4,554 726.5,555.2C733.7,556.3 742.2,558.3 745.5,559.5C748.8,560.8 754,563.4 757,565.3C760,567.2 765.2,571.7 768.5,575.2C771.8,578.7 775.9,584.6 777.7,588.1C779.4,591.7 781.4,596.8 782.1,599.6C782.7,602.3 783.5,604.9 783.9,605.3C784.2,605.8 785.3,603.4 786.3,600.1C787.2,596.8 789.3,591.5 790.9,588.3C792.5,585.2 795.5,580.3 797.7,577.6C799.8,574.8 803.6,570.9 806.1,568.8L810.5,565C872.5,564.5 898.6,563.8 908.5,563.2C918.4,562.6 936.2,561.2 948,560.1C959.8,559 976.9,557.2 986,556.1C995.1,555 1007.5,553.4 1013.5,552.5C1019.5,551.7 1032.2,549.6 1041.5,548C1050.8,546.3 1065,543.6 1073,542C1081,540.4 1095.6,537 1105.5,534.5C1115.4,532 1132.8,526.8 1144.3,523C1155.7,519.2 1171.2,513.4 1178.8,510C1186.3,506.7 1196.3,501.9 1201,499.4C1205.7,496.9 1214.5,491.6 1220.5,487.6C1226.5,483.6 1235.5,476.6 1240.4,472C1245.3,467.4 1251.5,460.7 1254.3,457.1C1257,453.5 1261.1,446.5 1263.6,441.6C1266,436.7 1268.7,429.5 1269.6,425.6C1270.5,421.7 1271.3,414.5 1271.4,409.5C1271.5,401.1 1271.3,400.2 1268.8,396.8C1267.2,394.8 1266.3,393.1 1266.8,393C1267.2,393 1265.5,392.3 1263.1,391.5C1260.6,390.7 1258.6,390.1 1258.5,390.1C1258.4,390.1 1256.6,392.4 1254.4,395.3ZM575.5,512C576,512.5 580.2,514.6 584.8,516.5C589.3,518.5 593.2,520.1 593.5,520.1C593.8,520.1 594,519.2 594,518.1C594,516.5 592.5,515.7 585.8,513.6C581.2,512.3 576.8,511.1 576,511.1C575,511.1 574.833,511.4 575.5,512Z" style="fill:rgb(210,112,85);fill-rule:nonzero;"/>
                <path id="Path-6" serif:id="Path 6" d="M306.1,268.8C304.9,273 302.5,279.9 300.8,284C299.2,288.1 296.4,294 294.5,297C292.7,300 289.1,304.6 286.6,307.2C284.1,309.9 279.6,313.5 276.7,315.3C273.9,317.2 267.9,320.2 263.5,322C259.1,323.8 252,326.4 247.7,327.6C243.5,328.9 240,330.3 240,330.7C240,331.2 243,332.4 246.7,333.4C250.5,334.5 257.5,337 262.5,339.1C267.4,341.1 272.5,343.8 273.7,344.9C275,346.1 276.8,347 277.7,347C278.7,347.1 282.4,350.1 286,353.8C290.7,358.5 293.9,363.1 297.1,369.5C299.6,374.4 303.2,383.3 305.1,389.3C307,395.2 308.7,400 309,400C309.3,400 311,395.1 312.8,389.2C314.7,383.3 318.1,374.7 320.3,370C323.5,363.5 326.2,359.8 332,354C337.7,348.3 341.5,345.5 347.5,342.6C351.9,340.5 360.6,337.1 366.7,335.1C372.9,333.1 378,331.2 378,330.7C378,330.3 373.6,328.6 368.2,327C362.9,325.3 354,321.8 348.5,319.1C340.1,315 337.4,313 331.5,306.9C326.5,301.6 323.3,297.1 320.3,291C318,286.3 314.7,277.7 313,271.7C311.3,265.8 309.6,261 309.2,261C308.8,261 307.4,264.5 306.1,268.7L306.1,268.8Z" style="fill:rgb(88,203,202);fill-rule:nonzero;"/>
                <path id="Path-7" serif:id="Path 7" d="M1185,315.1C1183.6,315.7 1181.7,316.9 1180.6,317.8C1179.6,318.7 1177.7,321.6 1176.4,324.2C1175.1,326.9 1173.7,330.8 1173.3,333C1172.6,336.3 1172.8,337 1174,337C1174.8,337 1178.7,335.5 1182.5,333.7C1186.3,331.9 1190.5,329 1191.8,327.4C1193.1,325.7 1194.1,323.2 1194,321.2C1194,319.4 1193.2,317.2 1192,316C1190.9,314.9 1189.4,314 1188.7,314.1C1188.1,314.1 1186.4,314.6 1185,315.1ZM949.2,359C947.2,360.2 945,363 943.5,366.2C941.833,369.733 941,373.233 941,376.7C941,380 941.7,383.2 942.8,385C943.7,386.6 945.6,388.5 947,389.1C948.5,389.7 950.9,389.8 953,389.4C954.9,389 957.8,387.5 959.4,386.1C961,384.7 963.2,381.7 964.1,379.5C965.1,377.3 966,373.1 966,370.2C966,367.4 965.4,363.8 964.8,362.4C964.1,360.9 962.3,359.1 960.8,358.4C959.2,357.6 956.8,357 955.3,357C953.7,357 951,357.9 949.3,359L949.2,359ZM836.4,372.2C834.9,373.5 832.5,376.6 831.3,379.2C830,381.9 828.6,386.1 828.2,388.6L827.4,393.1C833.6,390.9 837,389.5 838.9,388.5C840.8,387.6 843.9,385.4 845.7,383.6C848.1,381.3 848.9,379.6 849,377C849,374.9 848.2,372.8 847.2,371.8C846.2,370.8 844,370 842.3,370C840.6,370 838,371 836.4,372.2ZM508.8,429.3C506.9,430.5 504.4,433.4 503.2,435.5C501.7,438.1 500.8,441.5 500.7,445C500.5,448.9 501,451.7 502.4,454.4C503.5,456.5 505.8,458.9 507.4,459.7C509.2,460.6 511.6,461 513.4,460.6C515.1,460.3 517.8,458.6 519.6,456.8C521.4,455 523.5,451.8 524.3,449.7C525.2,447.7 525.9,444 525.9,441.5C525.9,439 525.1,435.4 524.2,433.3C523.2,431.3 521.5,429.1 520.4,428.3C519.3,427.6 517,427 515.3,427C513.6,427 510.7,428 508.8,429.3Z" style="fill:rgb(255,199,100);fill-rule:nonzero;"/>
            </g>
        </g>
    </g>
</svg>
