<?xml version="1.0" encoding="UTF-8" standalone="no"?><!DOCTYPE svg PUBLIC "-//W3C//DTD SVG 1.1//EN" "http://www.w3.org/Graphics/SVG/1.1/DTD/svg11.dtd"><svg width="100%" height="100%" viewBox="0 0 587 215" version="1.1" xmlns="http://www.w3.org/2000/svg" xmlns:xlink="http://www.w3.org/1999/xlink" xml:space="preserve" xmlns:serif="http://www.serif.com/" style="fill-rule:evenodd;clip-rule:evenodd;stroke-linejoin:round;stroke-miterlimit:2;"><g><g><path id="path5352" d="M214.502,107.251c0,58.837 -48.414,107.251 -107.251,107.251c-58.836,0 -107.251,-48.414 -107.251,-107.251c0,-58.836 48.415,-107.251 107.251,-107.251c58.837,-0 107.251,48.415 107.251,107.251" style="fill:#fff;"/><path id="path5354" d="M107.251,10.725c-53.309,0 -96.526,43.222 -96.526,96.526c0,53.309 43.222,96.526 96.526,96.526c53.309,0 96.526,-43.222 96.526,-96.526c0,-53.309 -43.222,-96.526 -96.526,-96.526Zm6.599,20.11l22.791,-0l-6.107,22.791l-22.79,-0l6.106,-22.791Zm-12.223,45.582l45.582,-0l-6.096,22.79l-22.791,0l-18.329,68.373l-45.582,0l6.117,-22.791l22.791,0l18.308,-68.372Z" style="fill:#1c99f5;"/></g><path id="Path-0" serif:id="Path 0" d="M444.652,171.771c-2.665,0.769 -4.085,2.083 -5.157,3.434c-0.834,1.051 -1.477,2.266 -1.905,3.866c-0.558,2.088 -0.432,3.804 -0.078,5.176c0.681,2.634 2.03,5.477 6.808,6.839c1.11,0.316 3.612,0.593 8.909,0.593c5.143,0 7.563,-0.213 8.78,-0.517c3.049,-0.763 4.577,-2.191 5.714,-3.667c0.452,-0.586 0.847,-1.224 1.177,-1.957l0.426,0.01c5.497,0.079 10.16,-0.435 12.919,-1.217c3.298,-0.908 6.588,-2.541 10.211,-5.328l0.043,-0.034c0.93,-0.733 1.866,-1.559 2.752,-2.414l0.097,0.275l0.284,0.735c-3.734,3.084 -4.867,6.211 -5.113,7.657c-0.492,2.883 0.272,5.226 1.668,7.13l0.688,0.94l0.904,0.733c0.635,0.515 2.655,1.78 4.761,2.585c2.941,1.207 5.895,1.116 7.425,0.754c2.037,-0.482 3.481,-1.473 4.481,-2.457l0.449,-0.441l0.384,-0.5c0.377,-0.491 1.226,-2.195 1.78,-4.425c1.95,0.19 4.213,0.208 7.051,0.037c4.232,-0.247 8.962,-1.114 11.175,-1.933c2.291,-0.846 5.359,-2.55 6.88,-3.676c1.442,-1.068 3.931,-3.519 5.523,-5.477c-0.016,0.019 3.278,-4.011 3.278,-4.011l28.788,-107.662l-0.947,-2.648c-2.785,-7.788 -5.369,-10.437 -7.794,-12.286l-0.111,-0.085c-1.496,-1.069 -4.773,-2.345 -8.992,-2.837c-6.31,-0.736 -15.369,-0.426 -16.894,-0.043l-0.038,0.01c-2.349,0.611 -5.922,2.068 -7.941,3.185l-0.036,0.02c-1.781,1.008 -4.368,3.021 -6.348,4.856c-0.566,-1.366 -1.222,-2.641 -1.88,-3.6l-0.003,-0.006c-1.722,-2.506 -5.152,-5.446 -7.659,-6.696l-0.028,-0.014c-2.49,-1.22 -6.237,-2.192 -11.473,-2.38l0,-0c-3.713,-0.154 -8.696,0.202 -11.556,0.822c-2.774,0.564 -6.654,1.779 -8.641,2.655c-2.236,0.986 -5.783,3.358 -7.9,5.24l-0.036,0.032c-2.486,2.259 -4.925,5.51 -6.319,8.293l-0.045,0.09c-1.091,2.305 -5.983,19.596 -14.91,53.469l-13.489,51.195l0.795,2.497c0.372,1.169 0.753,2.227 1.143,3.183Zm-137.595,-102.23l-51.117,-0.264l-2.913,10.894c-0.195,-0.387 -0.393,-0.757 -0.587,-1.101l-0.069,-0.121c-1.668,-2.745 -5.136,-6.102 -7.732,-7.572c-2.752,-1.576 -6.507,-2.691 -10.58,-2.988l-0.074,-0.005c-3.192,-0.18 -6.999,0.099 -8.602,0.448c-1.663,0.386 -4.519,1.411 -6.585,2.322l-0.119,0.053c-2.051,0.976 -5.342,3.092 -7.686,4.987c-0.067,-0.217 -0.142,-0.427 -0.222,-0.628c-0.567,-1.536 -1.833,-3.843 -5.158,-5.184c-0.312,-0.126 -0.997,-0.284 -1.965,-0.435l8.28,-30.967l-13.271,-0l0.169,-0.632l-35.096,-0l-36.932,138.12l1.706,3.155c4.184,7.735 6.651,10.805 7.699,11.753c3.151,2.852 5.991,2.707 7.593,2.513l0.117,-0.014c1.871,-0.277 4.912,-0.731 7.365,-5.369c0.331,-0.627 0.78,-1.757 1.43,-3.721l7.177,-0.122c14.221,-0.241 19.244,-0.523 20.945,-0.893c0.35,-0.076 0.68,-0.161 0.99,-0.256c0.607,1.165 1.283,2.286 1.963,3.214c2.195,2.997 5.544,5.678 8.997,7.176l0.06,0.026c2.933,1.223 7.182,2.11 9.477,2.11c2.076,-0 5.817,-0.483 8.575,-1.25c3.505,-0.885 6.747,-2.498 11.073,-5.706l0.015,-0.012c0.798,-0.597 1.631,-1.265 2.452,-1.959l-1.204,4.503l31.936,0l1.944,-7.272l18.874,0.345l-2.251,8.823l34.009,0l1.756,-6.567l0.431,0.553c3.382,4.177 5.962,5.882 10.179,7.269l0.093,0.03c3.533,1.078 6.888,1.388 10.614,1.006l0.117,-0.012c2.805,-0.361 6.995,-1.502 9.349,-2.54l0.054,-0.024c2.351,-1.073 6.022,-3.316 8.289,-5.097c1.638,-1.255 3.567,-3.061 5.069,-4.666l31.875,0l2.213,-8.278l22.182,-0l1.788,-6.687c21.883,-81.842 26.707,-101.218 26.859,-103.467c0.18,-2.667 -0.03,-6.157 -0.44,-8.089c-0.606,-2.881 -2.836,-6.615 -4.66,-8.278l0.196,0.184c-1.633,-1.581 -3.059,-2.814 -7.259,-3.46c-2.185,-0.335 -6.442,-0.471 -15.996,-0.595l-22.696,-0.274l-9.532,35.57c-0.305,-0.595 -0.622,-1.151 -0.934,-1.641c-1.631,-2.618 -5.192,-5.848 -8.066,-7.381l-0.136,-0.072c-2.646,-1.297 -7.14,-2.469 -10.231,-2.672c-3.705,-0.272 -7.034,0.107 -10.559,1.214l-0.089,0.028c-2.531,0.853 -6.386,2.672 -8.467,3.989l-0.02,0.012c-1.588,1.017 -3.706,2.74 -5.459,4.367c-0.449,-1.015 -0.969,-1.954 -1.532,-2.722l-0.056,-0.077l-3.234,-4.221l0.341,-0l9.89,-36.99l-23.088,-0l-9.524,35.617Zm193.902,115.326c-0.665,-0.477 -1.246,-0.946 -1.697,-1.377l-0.26,-0.249l-0.24,-0.269c-0.26,-0.293 -0.54,-0.629 -0.833,-1.037l-0.123,0.113l-0.832,0.941c-0.266,0.346 -1.152,2.329 -1.402,2.897c0.211,2.497 2.72,4.039 3.266,4.429l0.735,0.473c0.695,0.401 5.765,0.413 7.434,0.404c0.38,-0.74 0.965,-1.925 1.196,-2.612l-0.403,-0.126c-1.042,-0.339 -2.197,-0.85 -3.332,-1.444c0.052,-0.42 0.089,-0.894 0.103,-1.376c0.022,-1.264 -0.226,-2.465 -0.491,-2.654c-0.219,-0.127 -1.479,0.568 -2.761,1.579l-0.36,0.308Zm-267.555,-107.486c2.603,0.19 5.025,0.821 6.777,1.833c1.487,0.821 3.491,2.78 4.412,4.297c0.859,1.516 1.847,3.728 2.158,4.929c0.424,1.959 -0.227,4.866 -10.607,44.868l-25.594,0l-10.477,39.181l9.796,0l5.576,-20.854l15.799,-0l-3.113,10.933c-2.712,9.668 -3.307,11.185 -5.036,13.397c-1.13,1.39 -4.052,4.044 -6.501,5.877c-3.153,2.338 -5.45,3.602 -8.02,4.234c-1.985,0.569 -4.74,0.948 -6.257,0.948c-1.454,0 -4.128,-0.632 -5.948,-1.39c-2.038,-0.885 -4.017,-2.465 -5.314,-4.234c-1.157,-1.58 -2.394,-4.045 -2.654,-5.435c-0.559,-2.401 -0.149,-4.171 10.155,-43.415c10.114,-38.296 10.921,-41.077 12.671,-43.604c1.037,-1.517 3.322,-3.919 5.055,-5.435c1.796,-1.517 4.561,-3.35 6.154,-4.108c1.576,-0.695 3.755,-1.517 4.897,-1.769c1.079,-0.253 3.83,-0.379 6.071,-0.253Zm124.827,-0.063c2.051,0.126 5.072,0.884 6.748,1.706c1.659,0.885 3.76,2.717 4.681,4.234c0.939,1.454 2.003,3.855 2.293,5.372c0.478,2.464 0.102,4.107 -10.683,44.678l-25.278,0l-10.477,39.181l9.48,0l5.576,-20.854l15.799,-0l-3.113,10.933c-2.644,9.416 -3.324,11.248 -4.973,13.397c-1.067,1.39 -3.381,3.665 -5.207,5.056c-1.762,1.39 -4.636,3.159 -6.436,3.981c-1.719,0.758 -4.783,1.58 -6.746,1.832c-2.469,0.253 -4.693,0.064 -6.972,-0.631c-2.498,-0.822 -3.98,-1.896 -5.975,-4.361c-1.469,-1.833 -2.971,-4.487 -3.358,-5.877c-0.668,-2.465 -0.482,-3.16 9.889,-42.657c6.819,-25.973 10.933,-40.887 11.764,-42.34c0.7,-1.201 2.383,-3.476 3.753,-5.056c1.417,-1.516 3.887,-3.665 5.565,-4.739c1.597,-1.012 4.56,-2.402 6.435,-3.034c2.415,-0.758 4.694,-1.011 7.235,-0.821Zm95.771,105.344c6.146,-0.005 6.524,-0.108 6.832,-1.262c0.322,-1.201 -0.041,-1.264 -6.929,-1.264c-6.825,-0 -7.284,0.063 -7.605,1.264c-0.302,1.129 0.056,1.252 5.776,1.261l0.047,0.216c0.292,1.238 0.805,2.369 1.631,3.387c0.547,-0.694 0.978,-1.498 1.255,-2.535l0.11,-0.487c-0.368,-0.179 -0.744,-0.373 -1.117,-0.58Zm-283.35,-135.299l16.431,0l-18.081,67.619l1.77,-0c0.948,-0 2.721,-0.253 3.96,-0.632c1.222,-0.316 2.66,-1.201 3.161,-1.896c0.582,-0.758 2.778,-8.026 9.757,-34.125l7.268,-0c4.044,-0 7.343,0.189 7.448,0.505c0.122,0.253 -0.397,1.012 -1.088,1.707c-0.966,1.011 -2.017,4.234 -5.257,16.114c-3.447,12.892 -4.245,15.167 -5.785,17.379c-1.003,1.39 -3.33,3.476 -5.168,4.676c-1.901,1.201 -3.756,2.465 -4.219,2.781c-0.481,0.379 0.025,0.379 1.23,0.126c1.142,-0.252 2.94,-0.126 4.04,0.253c1.162,0.379 2.766,1.706 5.25,5.182l-5.886,23.193c-3.224,12.765 -5.814,23.635 -5.823,24.14c0.096,0.822 -1.328,0.948 -19.928,1.264l6.252,-23.382c5.796,-21.676 6.206,-23.445 5.313,-23.888c-0.564,-0.253 -3.484,-0.442 -12.078,-0.442l-7.731,28.438c-6.733,24.709 -7.92,28.437 -8.775,28.564c-0.522,0.063 -2.177,-2.023 -6.279,-9.606l34.218,-127.97Zm92.2,30.966l61.151,0.316l1.453,1.896c0.787,1.074 1.434,2.907 1.429,4.107c0.024,1.327 -5.232,21.929 -26.066,99.848l-15.483,0l11.8,-46.258c6.557,-25.468 11.834,-46.385 11.788,-46.449c0.017,-0.063 -2.819,0.38 -12.295,2.023l-21.882,81.837l-17.295,-0.316l22.762,-85.124l-2.314,0.38c-1.251,0.189 -2.945,0.379 -5.157,0.379l-24.501,91.632l-13.271,0l27.881,-104.271Zm280.36,-20.665c1.762,-0.442 15.947,-0.316 18.334,1.39c1.575,1.201 2.964,3.097 4.772,8.153l-27.56,103.07l-2.067,2.528c-1.13,1.391 -2.867,3.16 -3.891,3.918c-1.024,0.759 -3.098,1.896 -4.64,2.465c-1.623,0.632 -5.314,1.201 -8.587,1.39c-4.176,0.253 -6.653,0.063 -8.978,-0.695c-1.744,-0.569 -4.043,-1.896 -5.1,-2.907c-1.069,-1.201 -2.196,-3.602 -3.657,-10.427l12.69,-47.459c6.962,-26.037 13.116,-48.345 13.707,-49.608c0.574,-1.201 2.256,-3.476 3.69,-5.056c1.48,-1.517 3.916,-3.539 5.48,-4.424c1.484,-0.821 4.109,-1.896 5.807,-2.338Zm-37.951,-4.36c3.568,0.126 6.15,0.632 7.826,1.453c1.394,0.695 3.293,2.338 4.248,3.729c0.909,1.327 1.847,3.728 1.994,5.308c0.2,2.085 -0.43,5.624 -4.63,22.75l-14.535,0l5.069,-18.958l-13.903,-0l-25.346,94.792l15.167,0l7.604,-28.438l-12.007,0l6.421,-24.014l25.278,0l-7.405,26.985c-5.483,20.032 -7.781,27.679 -8.919,29.575c-0.831,1.453 -3.083,3.728 -5.165,5.371c-2.546,1.959 -4.826,3.16 -7.144,3.792c-2.191,0.632 -5.941,0.948 -10.348,0.885c-3.775,-0.063 -7.97,-0.443 -9.242,-0.885c-1.272,-0.442 -3.197,-1.517 -4.334,-2.465c-1.09,-0.884 -2.382,-2.907 -3.79,-7.33l12.821,-48.66c8.661,-32.862 13.282,-49.671 14.299,-51.82c0.949,-1.896 2.615,-4.108 4.284,-5.624c1.493,-1.328 3.971,-3.034 5.547,-3.729c1.576,-0.695 4.674,-1.643 6.877,-2.085c2.284,-0.506 6.333,-0.759 9.333,-0.632Zm-144.393,116.721l18.959,-0l-1.183,4.423l-18.958,0l1.182,-4.423Zm160.012,-9.227l8.903,11.375l28.578,-107.115l-12.007,-0l-25.474,95.74Zm-126.232,-107.178l15.685,0.189c14.674,0.19 15.794,0.253 17.099,1.517c0.762,0.695 1.667,2.275 1.915,3.476c0.311,1.2 0.393,3.728 0.265,5.624c-0.149,2.212 -5.045,21.233 -26.573,101.744l-13.271,-0l18.081,-67.619l-5.581,-13.397l-21.979,81.016l-15.799,-0l30.158,-112.55Zm-177.176,88.704l-0.079,0.295l0.02,0l0.182,-0.186l0.095,-0.109l-0.218,0Zm128.584,0l-0.179,0.295l15.59,0l0.079,-0.295l-15.49,0Zm-125.802,0.295l16.075,0l0.079,-0.295l-15.979,0l-0.175,0.295Zm117.518,-6.277c0.463,0.632 0.656,1.327 0.399,1.58c-0.257,0.252 -1.02,0.505 -1.715,0.505c-0.758,0 -1.146,-0.442 -1.006,-1.201c0.106,-0.631 0.481,-1.327 0.801,-1.579c0.367,-0.19 1.041,0.126 1.521,0.695Zm-125.863,-0.316c0.552,0.063 0.888,0.695 0.863,1.264c-0.119,0.758 -0.599,1.137 -1.442,1.137c-0.885,0 -1.082,-0.442 -0.846,-1.327c0.3,-0.885 0.78,-1.264 1.425,-1.074Zm9.163,-17.252l11.375,-0l8.089,-29.07l-11.691,-0l-7.773,29.07Zm125.126,-0l12.007,-0l7.773,-29.07l-12.007,-0l-7.773,29.07Zm165.359,-23.214l-18.374,-0l-1.431,5.351l18.345,-0l0.889,-3.273l0.571,-2.078Zm-152.703,-27.236l0.018,0.001l-0.03,-0.002l0.012,0.001Zm-167.517,-20.329l8.848,0l-4.563,17.063l-8.847,-0l4.562,-17.063Zm132.166,-5.055l4.423,-0l-5.069,18.958l-4.424,0l5.07,-18.958Zm131.837,-26.079l-14.751,0l-4.221,22.524l10.608,0.245c9.206,0.212 13.073,0.167 14.849,-0.11c2.449,-0.382 3.846,-1.169 4.869,-1.889c1.44,-1.014 2.395,-2.147 3.229,-3.711c1.007,-1.884 1.751,-4.957 1.741,-6.827c0.008,-1.933 -0.47,-3.504 -1.187,-4.83c-1.024,-1.896 -2.576,-3.881 -6.328,-4.861c-1.18,-0.308 -3.648,-0.541 -8.809,-0.541Zm-7.268,9.016l7.268,0c6.825,0 7.313,0.063 7.308,1.264c0.004,0.695 -0.3,1.833 -0.676,2.528c-0.637,1.2 -1.096,1.264 -14.788,0.948l0.888,-4.74Z" style="fill:#fff;"/><path d="M448.072,25.877l7.268,0c6.825,0 7.313,0.063 7.308,1.264c0.004,0.695 -0.3,1.833 -0.676,2.528c-0.637,1.2 -1.096,1.264 -14.788,0.948l0.888,-4.74Zm-124.569,17.063l4.423,-0l-5.069,18.958l-4.424,0l5.07,-18.958Zm-152.851,4.423l16.431,0l-18.081,67.619l1.77,-0c0.948,-0 2.721,-0.253 3.96,-0.632c1.222,-0.316 2.66,-1.201 3.161,-1.896c0.582,-0.758 2.778,-8.026 9.757,-34.125l7.268,-0c4.044,-0 7.343,0.189 7.448,0.505c0.122,0.253 -0.397,1.012 -1.088,1.707c-0.966,1.011 -2.017,4.234 -5.257,16.114c-3.447,12.892 -4.245,15.167 -5.785,17.379c-1.003,1.39 -3.33,3.476 -5.168,4.676c-1.901,1.201 -3.756,2.465 -4.219,2.781c-0.481,0.379 0.025,0.379 1.23,0.126c1.142,-0.252 2.94,-0.126 4.04,0.253c1.162,0.379 2.766,1.706 5.25,5.182l-5.886,23.193c-3.224,12.765 -5.814,23.635 -5.823,24.14c0.096,0.822 -1.328,0.948 -19.928,1.264l6.252,-23.382c5.796,-21.676 6.206,-23.445 5.313,-23.888c-0.564,-0.253 -3.484,-0.442 -12.078,-0.442l-7.731,28.438c-6.733,24.709 -7.92,28.437 -8.775,28.564c-0.522,0.063 -2.177,-2.023 -6.279,-9.606l34.218,-127.97Zm20.685,0.632l8.848,0l-4.563,17.063l-8.847,-0l4.562,-17.063Zm313.924,5.309c3.568,0.126 6.15,0.632 7.826,1.453c1.394,0.695 3.293,2.338 4.248,3.729c0.909,1.327 1.847,3.728 1.994,5.308c0.2,2.085 -0.43,5.624 -4.63,22.75l-14.535,0l5.069,-18.958l-13.903,-0l-25.346,94.792l15.167,0l7.604,-28.438l-12.007,0l6.421,-24.014l25.278,0l-7.405,26.985c-5.483,20.032 -7.781,27.679 -8.919,29.575c-0.831,1.453 -3.083,3.728 -5.165,5.371c-2.546,1.959 -4.826,3.16 -7.144,3.792c-2.191,0.632 -5.941,0.948 -10.348,0.885c-3.775,-0.063 -7.97,-0.443 -9.242,-0.885c-1.272,-0.442 -3.197,-1.517 -4.334,-2.465c-1.09,-0.884 -2.382,-2.907 -3.79,-7.33l12.821,-48.66c8.661,-32.862 13.282,-49.671 14.299,-51.82c0.949,-1.896 2.615,-4.108 4.284,-5.624c1.493,-1.328 3.971,-3.034 5.547,-3.729c1.576,-0.695 4.674,-1.643 6.877,-2.085c2.284,-0.506 6.333,-0.759 9.333,-0.632Zm-110.613,0.316l15.685,0.189c14.674,0.19 15.794,0.253 17.099,1.517c0.762,0.695 1.667,2.275 1.915,3.476c0.311,1.2 0.393,3.728 0.265,5.624c-0.149,2.212 -5.045,21.233 -26.573,101.744l-13.271,-0l18.081,-67.619l-5.581,-13.397l-21.979,81.016l-15.799,-0l30.158,-112.55Zm148.564,4.044c1.762,-0.442 15.947,-0.316 18.334,1.39c1.575,1.201 2.964,3.097 4.772,8.153l-27.56,103.07l-2.067,2.528c-1.13,1.391 -2.867,3.16 -3.891,3.918c-1.024,0.759 -3.098,1.896 -4.64,2.465c-1.623,0.632 -5.314,1.201 -8.587,1.39c-4.176,0.253 -6.653,0.063 -8.978,-0.695c-1.744,-0.569 -4.043,-1.896 -5.1,-2.907c-1.069,-1.201 -2.196,-3.602 -3.657,-10.427l12.69,-47.459c6.962,-26.037 13.116,-48.345 13.707,-49.608c0.574,-1.201 2.256,-3.476 3.69,-5.056c1.48,-1.517 3.916,-3.539 5.48,-4.424c1.484,-0.821 4.109,-1.896 5.807,-2.338Zm-22.332,103.134l8.903,11.375l28.578,-107.115l-12.007,-0l-25.474,95.74Zm-287.476,-83.417c2.603,0.19 5.025,0.821 6.777,1.833c1.487,0.821 3.491,2.78 4.412,4.297c0.859,1.516 1.847,3.728 2.158,4.929c0.424,1.959 -0.227,4.866 -10.607,44.868l-25.594,0l-10.477,39.181l9.796,0l5.576,-20.854l15.799,-0l-3.113,10.933c-2.712,9.668 -3.307,11.185 -5.036,13.397c-1.13,1.39 -4.052,4.044 -6.501,5.877c-3.153,2.338 -5.45,3.602 -8.02,4.234c-1.985,0.569 -4.74,0.948 -6.257,0.948c-1.454,0 -4.128,-0.632 -5.948,-1.39c-2.038,-0.885 -4.017,-2.465 -5.314,-4.234c-1.157,-1.58 -2.394,-4.045 -2.654,-5.435c-0.559,-2.401 -0.149,-4.171 10.155,-43.415c10.114,-38.296 10.921,-41.077 12.671,-43.604c1.037,-1.517 3.322,-3.919 5.055,-5.435c1.796,-1.517 4.561,-3.35 6.154,-4.108c1.576,-0.695 3.755,-1.517 4.897,-1.769c1.079,-0.253 3.83,-0.379 6.071,-0.253Zm-12.332,41.393l11.375,-0l8.089,-29.07l-11.691,-0l-7.773,29.07Zm137.159,-41.456c2.051,0.126 5.072,0.884 6.748,1.706c1.659,0.885 3.76,2.717 4.681,4.234c0.939,1.454 2.003,3.855 2.293,5.372c0.478,2.464 0.102,4.107 -10.683,44.678l-25.278,0l-10.477,39.181l9.48,0l5.576,-20.854l15.799,-0l-3.113,10.933c-2.644,9.416 -3.324,11.248 -4.973,13.397c-1.067,1.39 -3.381,3.665 -5.207,5.056c-1.762,1.39 -4.636,3.159 -6.436,3.981c-1.719,0.758 -4.783,1.58 -6.746,1.832c-2.469,0.253 -4.693,0.064 -6.972,-0.631c-2.498,-0.822 -3.98,-1.896 -5.975,-4.361c-1.469,-1.833 -2.971,-4.487 -3.358,-5.877c-0.668,-2.465 -0.482,-3.16 9.889,-42.657c6.819,-25.973 10.933,-40.887 11.764,-42.34c0.7,-1.201 2.383,-3.476 3.753,-5.056c1.417,-1.516 3.887,-3.665 5.565,-4.739c1.597,-1.012 4.56,-2.402 6.435,-3.034c2.415,-0.758 4.694,-1.011 7.235,-0.821Zm-12.033,41.456l12.007,-0l7.773,-29.07l-12.007,-0l-7.773,29.07Zm-83.346,-40.445l61.151,0.316l1.453,1.896c0.787,1.074 1.434,2.907 1.429,4.107c0.024,1.327 -5.232,21.929 -26.066,99.848l-15.483,0l11.8,-46.258c6.557,-25.468 11.834,-46.385 11.788,-46.449c0.017,-0.063 -2.819,0.38 -12.295,2.023l-21.882,81.837l-17.295,-0.316l22.762,-85.124l-2.314,0.38c-1.251,0.189 -2.945,0.379 -5.157,0.379l-24.501,91.632l-13.271,0l27.881,-104.271Zm74.92,58.013c0.463,0.632 0.656,1.327 0.399,1.58c-0.257,0.252 -1.02,0.505 -1.715,0.505c-0.758,0 -1.146,-0.442 -1.006,-1.201c0.106,-0.631 0.481,-1.327 0.801,-1.579c0.367,-0.19 1.041,0.126 1.521,0.695Zm-125.863,-0.316c0.552,0.063 0.888,0.695 0.863,1.264c-0.119,0.758 -0.599,1.137 -1.442,1.137c-0.885,0 -1.082,-0.442 -0.846,-1.327c0.3,-0.885 0.78,-1.264 1.425,-1.074Zm148.959,33.999l18.959,-0l-1.183,4.423l-18.958,0l1.182,-4.423Zm93.037,10.111c6.888,-0 7.251,0.063 6.929,1.264c-0.321,1.2 -0.717,1.264 -7.605,1.264c-6.825,-0 -7.25,-0.064 -6.929,-1.264c0.321,-1.201 0.78,-1.264 7.605,-1.264Zm50.175,2.844c0.265,0.189 0.513,1.39 0.491,2.654c-0.039,1.327 -0.251,2.591 -0.445,2.844c-0.257,0.252 -1.251,0.189 -2.27,-0.253c-1.036,-0.379 -2.085,-0.948 -2.397,-1.201c-0.277,-0.379 0.402,-1.264 1.86,-2.465c1.282,-1.011 2.542,-1.706 2.761,-1.579Z" style="fill:#1c99f5;"/></g></svg>