<?xml version="1.0" encoding="utf-8"?><!-- Uploaded to: SVG Repo, www.svgrepo.com, Generator: SVG Repo Mixer Tools -->
<svg width="800px" height="800px" viewBox="-20 0 190 190" fill="currentColor" xmlns="http://www.w3.org/2000/svg">
<path fill-rule="evenodd" clip-rule="evenodd" d="M107.248 50.0207C103.281 53.4027 102.354 65.2587 102.354 65.2587H99.583C99.583 65.2587 99.612 55.4457 94.836 50.6197C90.06 45.7927 81.698 45.1777 81.698 45.1777L81.975 42.2157C81.975 42.2157 92.058 41.1407 95.333 37.8307C99.845 33.2737 99.391 24.8727 99.391 24.8727L102.215 24.6357C102.215 24.6357 102.713 34.0227 106.608 37.9167C110.431 41.7397 120.505 42.1847 120.505 42.1847L120.641 45.3107C120.642 45.3107 112.131 45.8577 107.248 50.0207ZM69.516 32.4657C67.176 34.4577 66.628 41.4417 66.628 41.4417H64.994C64.994 41.4417 65.012 35.6607 62.194 32.8177C59.376 29.9747 54.445 29.6127 54.445 29.6127L54.609 27.8677C54.609 27.8677 60.555 27.2347 62.487 25.2847C65.148 22.5997 64.882 17.6517 64.882 17.6517L66.547 17.5117C66.547 17.5117 66.905 22.9757 69.203 25.2687C71.458 27.5207 77.335 27.8487 77.335 27.8487L77.415 29.6897C77.415 29.6907 72.396 30.0137 69.516 32.4657ZM61.325 46.2177L61.406 48.0587C61.406 48.0587 56.386 48.3817 53.507 50.8337C51.167 52.8247 50.62 59.8087 50.62 59.8087H48.984C48.984 59.8087 49.002 54.0287 46.185 51.1857C43.368 48.3427 38.436 47.9787 38.436 47.9787L38.599 46.2347C38.599 46.2347 44.547 45.6017 46.478 43.6517C49.139 40.9677 48.872 36.0187 48.872 36.0187L50.538 35.8787C50.538 35.8787 50.802 41.4397 53.099 43.7317C55.354 45.9847 61.325 46.2177 61.325 46.2177ZM62.13 114.527L63.168 62.8027L75.549 48.7977L87.383 61.5877L88.976 114.426L95.233 116.123C95.233 127.733 81.094 131.134 81.094 131.134L81.501 146.372L84.834 147.381C84.834 160.325 66.287 160.325 66.287 147.589L69.419 146.506L69.477 131.218C69.477 131.218 54.902 126.912 54.902 116.478L62.13 114.527ZM67.647 113.038C68.059 116.036 70.001 117.97 72.38 118.829L73.962 67.9647L76.963 67.4947L78.611 118.727C80.908 117.806 82.758 115.851 83.147 112.847L83.538 112.953L82.556 65.7237L75.66 56.7997L68.36 65.7597L67.617 113.047L67.647 113.038Z" fill="currentColor"/>
</svg>
