<?xml version="1.0" encoding="UTF-8" standalone="no"?>
<!DOCTYPE svg PUBLIC "-//W3C//DTD SVG 1.1//EN" "http://www.w3.org/Graphics/SVG/1.1/DTD/svg11.dtd">
<svg width="100%" height="100%" viewBox="0 0 500 704" version="1.1" xmlns="http://www.w3.org/2000/svg" xmlns:xlink="http://www.w3.org/1999/xlink" xml:space="preserve" xmlns:serif="http://www.serif.com/" style="fill-rule:evenodd;clip-rule:evenodd;stroke-linejoin:round;stroke-miterlimit:2;" file="#ffffff">
    <g fill="#ffffff" transform="matrix(1,0,0,1,-173.265,-162.851)">
        <g fill="#ffffff" transform="matrix(0.0639472,0,0,-0.0639472,168.149,866.23)">
            <path d="M3785,10984C3776,10970 3713,10952 3650,10945C3636,10944 3619,10942 3612,10941C3605,10941 3592,10931 3583,10920C3573,10909 3560,10900 3553,10900C3547,10900 3533,10887 3523,10870C3511,10849 3498,10840 3480,10840C3466,10840 3435,10824 3410,10805C3325,10738 3296,10715 3278,10698C3268,10688 3256,10680 3250,10680C3238,10680 3237,10660 3249,10642C3255,10632 3262,10636 3276,10657C3286,10672 3293,10688 3292,10693C3291,10697 3295,10700 3301,10700C3322,10700 3399,10740 3408,10756C3416,10771 3435,10785 3550,10865C3569,10879 3607,10896 3634,10904L3682,10919L3676,10892C3673,10877 3668,10854 3665,10840C3661,10822 3664,10825 3674,10849C3683,10867 3690,10888 3690,10895C3690,10902 3708,10915 3730,10924C3810,10956 4060,10939 4270,10888C4339,10871 4411,10856 4432,10855C4481,10852 4626,10783 4655,10749C4681,10717 4720,10602 4720,10556C4720,10539 4729,10511 4739,10493C4766,10450 4779,10396 4787,10306C4791,10252 4789,10230 4781,10230C4775,10230 4770,10234 4770,10239C4770,10249 4724,10281 4705,10284C4698,10285 4678,10298 4661,10313C4630,10339 4623,10340 4512,10341C4346,10342 4315,10340 4257,10324C4228,10316 4182,10306 4155,10301C4127,10296 4042,10271 3965,10245C3888,10219 3818,10197 3810,10196C3802,10195 3785,10189 3774,10182C3762,10176 3726,10161 3694,10149C3661,10138 3622,10122 3605,10115C3389,10022 3384,10020 3325,9960C3292,9927 3263,9900 3259,9900C3255,9900 3250,9910 3248,9923C3234,9985 3187,10146 3173,10178C3164,10199 3157,10218 3158,10221C3159,10225 3155,10243 3149,10261C3131,10325 3137,10391 3170,10485C3188,10535 3209,10583 3217,10592C3225,10601 3230,10619 3227,10632C3223,10655 3223,10655 3221,10633C3220,10616 3215,10611 3198,10613C3181,10614 3174,10609 3172,10592C3170,10577 3158,10565 3142,10559C3127,10553 3093,10521 3065,10488C3038,10454 3006,10417 2995,10405C2948,10353 2945,10341 2934,10188C2930,10124 2932,10090 2944,10056C2953,10030 2960,10005 2960,10000C2960,9994 2909,9990 2835,9990C2704,9990 2642,9981 2545,9948C2490,9929 2464,9918 2405,9887C2394,9881 2369,9868 2350,9858C2331,9848 2301,9826 2283,9810C2266,9793 2249,9780 2245,9780C2241,9780 2205,9752 2166,9718C2106,9666 2019,9567 1928,9448C1918,9435 1906,9420 1900,9413C1895,9406 1890,9396 1890,9390C1890,9385 1887,9380 1882,9380C1873,9380 1807,9261 1803,9238C1801,9228 1805,9220 1810,9220C1816,9220 1820,9227 1820,9235C1820,9264 1900,9387 1900,9359C1901,9351 1907,9360 1915,9379C1923,9397 1944,9428 1961,9447C1978,9467 1997,9494 2003,9509C2016,9540 2110,9640 2126,9640C2133,9640 2140,9647 2144,9655C2147,9663 2173,9685 2202,9704C2231,9722 2264,9747 2274,9759C2285,9770 2298,9780 2305,9780C2311,9780 2342,9803 2373,9831C2412,9865 2458,9894 2518,9918L2605,9955L2973,9955L2994,9869C3006,9821 3028,9759 3043,9730C3068,9682 3069,9674 3058,9638C3052,9616 3041,9597 3036,9595C2998,9586 2918,9570 2878,9565C2838,9560 2818,9547 2723,9466C2602,9362 2594,9354 2436,9162C2400,9118 2270,8883 2270,8861C2270,8829 2295,8859 2336,8943C2406,9081 2478,9184 2577,9287C2688,9402 2762,9465 2822,9496C2889,9530 3018,9573 3035,9567C3042,9564 3052,9544 3055,9523C3065,9462 3091,9366 3104,9349C3110,9340 3142,9312 3175,9285C3208,9259 3237,9235 3240,9232C3243,9229 3238,9225 3230,9222C3222,9219 3202,9203 3187,9187L3159,9157L3116,9199C3073,9241 3071,9242 3022,9235C2975,9229 2964,9221 2887,9146C2798,9059 2777,9028 2766,8968C2761,8941 2754,8930 2737,8927C2717,8924 2716,8923 2734,8915C2745,8910 2766,8912 2786,8919C2805,8926 2824,8929 2829,8925C2834,8922 2851,8895 2867,8864C2882,8833 2909,8792 2925,8771C2942,8751 2963,8724 2972,8710C2999,8667 3121,8540 3135,8540C3150,8540 3166,8577 3156,8587C3153,8591 3150,8588 3150,8582C3150,8515 2963,8737 2885,8896C2860,8946 2840,8999 2840,9013C2840,9043 2868,9058 2877,9032C2880,9023 2890,9007 2899,8998C2929,8966 2938,8954 2944,8933C2950,8914 2969,8886 3023,8818C3040,8795 3040,8796 3025,8825C3016,8842 2991,8884 2970,8920C2927,8990 2880,9076 2880,9084C2880,9087 2911,9114 2949,9145C2998,9185 3023,9198 3036,9194C3053,9188 3172,9071 3233,9000C3245,8986 3266,8963 3279,8948L3302,8921L3241,8864C3207,8833 3172,8793 3163,8776C3150,8751 3160,8757 3213,8808C3249,8842 3287,8870 3297,8870C3308,8870 3326,8860 3338,8847C3360,8824 3360,8823 3342,8807C3332,8798 3319,8790 3313,8790C3289,8790 3159,8617 3173,8604C3176,8601 3183,8608 3190,8619C3205,8649 3224,8646 3216,8615C3204,8566 3219,8591 3240,8655C3260,8715 3303,8770 3331,8770C3349,8770 3299,8610 3269,8571C3243,8538 3245,8528 3286,8507C3324,8489 3343,8491 3322,8512C3303,8531 3308,8576 3340,8678C3380,8800 3382,8827 3359,8872C3349,8892 3340,8918 3340,8928C3340,8938 3327,8956 3311,8968C3276,8994 3190,9105 3190,9125C3190,9141 3247,9210 3261,9210C3266,9210 3270,9203 3270,9195C3270,9164 3344,8953 3366,8924C3378,8908 3390,8883 3392,8870C3393,8856 3403,8844 3412,8842C3427,8839 3428,8846 3423,8894C3417,8952 3427,8965 3452,8934C3459,8925 3483,8897 3506,8872C3561,8809 3566,8793 3537,8766C3525,8755 3506,8734 3495,8720L3475,8696L3505,8714L3535,8733L3511,8706C3497,8692 3476,8680 3462,8680C3433,8680 3437,8658 3468,8650C3495,8644 3537,8587 3546,8546C3549,8529 3571,8491 3594,8461C3616,8432 3642,8393 3650,8376C3663,8350 3671,8345 3701,8345C3745,8345 3767,8328 3775,8287C3779,8269 3792,8218 3806,8174C3819,8129 3830,8076 3830,8055L3830,8018L3767,8025C3715,8031 3700,8029 3687,8015C3664,7993 3654,8002 3646,8049C3638,8102 3620,8140 3603,8140C3586,8140 3586,8137 3609,8098C3636,8053 3641,7987 3618,7982C3607,7980 3600,7986 3598,8001C3596,8018 3582,8027 3535,8042C3452,8069 3369,8080 3348,8067C3336,8059 3324,8059 3306,8068C3259,8089 3260,8090 3463,8261C3493,8287 3493,8288 3472,8294C3448,8302 3443,8316 3462,8322C3483,8329 3359,8480 3332,8480C3316,8480 3338,8439 3382,8388C3437,8323 3434,8311 3321,8194C3221,8090 3207,8070 3235,8070C3254,8070 3290,8031 3290,8010C3290,8001 3302,7983 3316,7969C3331,7956 3367,7914 3398,7876L3453,7807L3426,7696C3400,7591 3386,7547 3354,7473C3346,7456 3340,7439 3340,7435C3340,7431 3316,7389 3286,7341C3256,7293 3218,7227 3201,7194C3152,7103 3126,7062 3085,7013C3044,6964 3037,6966 3027,7032C3022,7065 3027,7075 3075,7137C3104,7174 3142,7230 3160,7260C3207,7340 3280,7478 3280,7487C3280,7497 3233,7423 3191,7345C3173,7312 3150,7276 3140,7265C3131,7254 3117,7234 3110,7222C3104,7209 3082,7181 3063,7159C3035,7128 3024,7122 3014,7131C3006,7137 3000,7155 3000,7170C3000,7185 2995,7211 2989,7228C2980,7256 2982,7263 3007,7297C3126,7452 3170,7514 3164,7519C3162,7522 3152,7513 3142,7499C3121,7468 3022,7350 2999,7327C2982,7311 2980,7311 2971,7328C2966,7338 2960,7410 2958,7489C2956,7616 2957,7633 2973,7641C2982,7647 2990,7658 2990,7665C2990,7697 3008,7678 3019,7635C3034,7575 3077,7552 3139,7567C3179,7578 3180,7577 3174,7554C3171,7541 3170,7530 3173,7530C3176,7530 3200,7557 3225,7591C3298,7685 3291,7710 3150,7863C3114,7903 3019,7979 2981,7999C2955,8013 2955,8029 2980,8103C3002,8168 3006,8323 2988,8368C2982,8383 2969,8414 2959,8437C2948,8461 2940,8485 2940,8492C2940,8515 2887,8695 2877,8705C2868,8715 2875,8656 2887,8624C2897,8596 2870,8611 2827,8656C2787,8697 2781,8700 2759,8690C2738,8681 2723,8684 2666,8709C2593,8742 2580,8745 2580,8730C2580,8725 2586,8720 2594,8720C2602,8720 2615,8714 2622,8708C2629,8701 2649,8688 2665,8680C2719,8653 2885,8523 2902,8493C2911,8478 2921,8438 2925,8405C2929,8372 2938,8334 2944,8320C2956,8293 2958,8139 2946,8103C2937,8076 2914,8073 2902,8098C2897,8107 2889,8142 2885,8175C2879,8227 2871,8243 2826,8299C2798,8334 2766,8366 2755,8371C2744,8376 2713,8394 2685,8410C2600,8460 2511,8500 2488,8500C2444,8500 2387,8473 2373,8446C2366,8432 2356,8420 2351,8420C2335,8420 2271,8352 2265,8328C2258,8301 2283,8241 2330,8170C2346,8145 2362,8118 2366,8110C2369,8102 2376,8088 2381,8080C2386,8072 2394,8055 2400,8043C2405,8030 2414,8020 2420,8020C2440,8020 2442,8050 2425,8097C2416,8125 2407,8189 2404,8249C2399,8347 2401,8355 2425,8391C2453,8434 2481,8445 2541,8437C2592,8430 2720,8355 2720,8332C2720,8323 2744,8297 2773,8274C2852,8213 2874,8160 2890,7995C2906,7820 2921,7726 2933,7718C2941,7713 2941,7710 2934,7710C2916,7710 2911,7662 2920,7570C2948,7292 2969,7100 2974,7092C2977,7087 2982,7057 2985,7026C2992,6958 3001,6933 3030,6900C3043,6886 3087,6832 3129,6780C3171,6728 3221,6668 3240,6647C3259,6626 3287,6590 3302,6567C3317,6544 3333,6521 3338,6515C3342,6510 3370,6465 3400,6415C3429,6366 3491,6268 3537,6198C3583,6128 3620,6068 3620,6064C3620,6061 3646,6021 3677,5976C3783,5825 3839,5743 3881,5674C3904,5636 3940,5586 3961,5563C4007,5513 4009,5504 3975,5496C3949,5489 3874,5419 3832,5362C3819,5344 3805,5330 3802,5330C3798,5330 3773,5365 3745,5407C3676,5514 3649,5543 3306,5895C3139,6066 2975,6236 2940,6275C2866,6358 2720,6551 2695,6600C2677,6635 2640,6778 2634,6835C2631,6863 2607,7005 2596,7060C2593,7074 2583,7137 2575,7200C2550,7376 2531,7463 2512,7478C2498,7489 2497,7492 2509,7499C2526,7510 2518,7573 2497,7595C2483,7608 2473,7680 2470,7780C2469,7849 2452,7945 2435,7976L2421,8004L2410,7976C2402,7955 2403,7944 2411,7934C2425,7916 2424,7915 2380,7902C2308,7880 2223,7845 2174,7815C2095,7768 1968,7670 1933,7630C1898,7590 1898,7595 1926,7476C1932,7449 1931,7448 1908,7453C1878,7461 1732,7444 1716,7431C1710,7426 1644,7417 1570,7411C1496,7404 1424,7395 1410,7390C1396,7385 1324,7379 1249,7377C1174,7375 1108,7370 1101,7366C1095,7362 1071,7327 1048,7289C1025,7250 1001,7216 993,7213C986,7210 980,7200 980,7191C981,7174 1079,7277 1080,7296C1080,7309 1123,7350 1136,7350C1141,7350 1177,7325 1215,7295C1253,7265 1286,7240 1290,7240C1293,7240 1305,7232 1316,7222C1343,7198 1439,7130 1447,7130C1457,7130 1538,7069 1589,7023C1632,6984 1635,6978 1634,6933C1633,6872 1598,6792 1554,6749C1515,6711 1511,6717 1541,6766C1552,6785 1560,6805 1558,6812C1555,6819 1543,6806 1531,6784L1508,6744L1460,6767C1433,6780 1408,6795 1405,6800C1402,6806 1373,6828 1341,6849C1259,6905 1191,6971 1158,7027C1079,7164 1077,7176 1130,7209C1170,7233 1212,7226 1205,7196C1197,7164 1292,7026 1360,6973C1411,6932 1480,6890 1496,6890C1500,6890 1477,6909 1444,6931C1412,6954 1368,6989 1347,7009C1305,7049 1224,7167 1233,7176C1236,7180 1265,7159 1297,7131C1329,7103 1383,7061 1417,7038C1508,6975 1569,6890 1524,6890C1512,6890 1515,6883 1536,6862C1560,6839 1567,6836 1580,6847C1592,6858 1592,6864 1582,6878C1575,6887 1567,6902 1564,6910C1546,6957 1521,6985 1409,7075C1341,7131 1279,7188 1272,7204C1264,7219 1251,7234 1242,7236C1232,7239 1213,7248 1197,7256C1171,7271 1168,7270 1126,7235C1101,7215 1066,7180 1047,7157C1028,7134 965,7066 907,7007C799,6896 769,6879 762,6928C758,6955 784,7000 803,7000C810,7000 832,7017 851,7037C877,7065 879,7070 860,7057C846,7048 818,7031 798,7020C743,6990 724,6958 740,6920C747,6903 755,6890 759,6890C762,6890 771,6886 778,6881C789,6875 781,6853 745,6784C719,6735 689,6683 679,6668C669,6654 660,6630 660,6616C660,6576 690,6508 725,6470C742,6451 771,6416 789,6393C807,6369 826,6350 831,6350C851,6350 837,6379 791,6431C698,6536 688,6591 743,6705C784,6790 840,6878 870,6905C882,6916 928,6971 971,7027C1014,7083 1054,7131 1059,7134C1064,7137 1080,7120 1093,7095C1133,7024 1135,7011 1108,6982C1067,6937 1014,6856 1007,6829C1002,6808 1009,6796 1052,6754L1104,6705L1062,6752C1039,6778 1020,6809 1020,6820C1020,6856 1140,6984 1157,6966C1160,6963 1153,6948 1141,6933C1115,6901 1070,6831 1070,6825C1070,6823 1091,6805 1116,6785C1178,6739 1206,6740 1255,6790C1298,6834 1335,6847 1306,6808C1297,6795 1276,6765 1260,6740C1243,6715 1217,6690 1202,6683C1178,6673 1177,6671 1194,6664C1209,6658 1220,6665 1244,6696C1261,6717 1292,6753 1312,6775L1349,6815L1377,6797C1392,6787 1424,6770 1448,6759C1471,6748 1490,6737 1490,6734C1490,6727 1439,6624 1396,6545C1357,6474 1338,6450 1198,6302C1155,6256 1110,6206 1098,6189C1086,6173 1072,6160 1067,6160C1058,6160 1019,6193 903,6301C863,6339 840,6350 840,6331C840,6319 907,6251 988,6181C1033,6142 1049,6122 1044,6111C987,5978 958,5743 986,5632C994,5603 999,5576 998,5572C992,5548 1026,5415 1055,5355C1073,5317 1109,5222 1135,5145C1160,5068 1190,4990 1201,4972C1211,4954 1220,4923 1220,4904C1220,4883 1228,4862 1240,4850C1263,4827 1300,4761 1300,4742C1300,4721 1328,4672 1391,4578C1424,4531 1450,4489 1450,4485C1450,4482 1476,4445 1507,4403C1539,4361 1577,4304 1592,4277C1607,4250 1626,4220 1634,4211C1643,4201 1650,4188 1650,4182C1650,4175 1654,4170 1660,4170C1665,4170 1682,4151 1697,4128C1713,4106 1733,4075 1742,4061C1752,4047 1763,4029 1766,4023C1769,4016 1779,4010 1787,4010C1795,4010 1798,4006 1795,4000C1792,3995 1793,3990 1797,3990C1802,3990 1823,3960 1843,3923C1864,3885 1910,3819 1945,3775C1981,3731 2029,3668 2051,3635C2074,3602 2103,3564 2115,3550C2144,3516 2180,3452 2180,3433C2180,3421 2183,3420 2193,3429C2213,3445 2221,3430 2205,3407C2192,3389 2193,3383 2213,3356C2245,3309 2253,3300 2281,3269C2311,3237 2333,3183 2323,3167C2319,3161 2317,3140 2318,3120C2320,3087 2315,3079 2258,3030C2177,2961 2168,2950 2175,2923C2179,2905 2174,2897 2148,2884C2130,2875 2107,2861 2098,2853C2088,2844 2073,2840 2064,2844C2049,2850 1992,2811 1942,2761C1932,2751 1912,2736 1895,2725C1861,2704 1796,2646 1737,2584C1679,2523 1522,2300 1509,2260C1502,2241 1490,2214 1480,2200C1444,2147 1381,2021 1370,1980C1359,1941 1357,1938 1332,1945C1275,1960 1144,1960 1124,1946C1092,1922 1117,1915 1226,1918C1293,1919 1330,1917 1330,1910C1330,1904 1325,1882 1318,1861L1306,1822L1250,1827L1195,1833L1218,1811C1230,1799 1240,1784 1240,1778C1240,1768 1295,1696 1330,1660C1338,1651 1365,1620 1389,1590C1452,1513 1452,1513 1445,1535C1440,1550 1441,1552 1448,1541C1454,1533 1456,1521 1453,1513C1450,1505 1455,1500 1468,1500C1479,1500 1499,1487 1512,1471C1545,1429 1627,1370 1651,1370C1662,1370 1695,1390 1723,1415C1752,1440 1779,1460 1784,1460C1788,1460 1790,1433 1788,1400C1785,1356 1787,1341 1796,1344C1807,1348 1824,1245 1814,1229C1812,1225 1781,1219 1746,1215C1666,1206 1654,1200 1669,1171C1676,1159 1678,1135 1675,1117C1669,1085 1662,1025 1661,1003C1660,987 1596,970 1536,970C1492,970 1488,969 1505,957C1521,944 1521,943 1494,947C1470,951 1463,947 1452,923C1445,908 1431,879 1421,860C1410,841 1404,823 1406,821C1412,815 1436,847 1460,892C1478,925 1485,930 1516,930C1535,930 1549,934 1546,939C1539,950 1635,974 1656,966C1668,962 1669,956 1660,940C1651,923 1652,920 1667,920C1694,920 1709,965 1716,1067C1720,1117 1726,1163 1729,1169C1733,1175 1760,1186 1790,1193L1845,1207L1842,1346C1840,1423 1837,1492 1834,1501C1831,1511 1844,1530 1867,1550C1888,1568 1963,1637 2034,1704C2104,1770 2167,1827 2174,1829C2188,1834 2253,1886 2310,1939C2335,1963 2375,1998 2400,2018C2425,2038 2452,2061 2461,2070C2470,2078 2492,2096 2510,2110C2528,2124 2552,2145 2563,2158C2574,2170 2588,2180 2592,2180C2597,2180 2638,2211 2683,2248C2814,2357 2835,2367 2931,2375C3039,2384 3077,2409 3082,2472C3086,2525 3102,2534 3229,2552L3324,2565L3332,2600C3337,2619 3356,2667 3374,2705C3392,2744 3415,2811 3424,2855C3434,2899 3443,2941 3446,2947C3448,2954 3444,2959 3438,2957C3432,2956 3425,2961 3423,2968C3420,2974 3425,2980 3434,2980C3446,2980 3450,2991 3450,3026C3450,3051 3446,3069 3441,3066C3436,3063 3431,3086 3430,3118C3429,3149 3427,3187 3426,3202C3425,3221 3408,3243 3365,3281C3332,3309 3302,3338 3298,3345C3294,3352 3297,3409 3305,3471C3313,3533 3320,3593 3320,3605C3320,3649 3280,3675 3175,3700C3058,3727 3050,3730 3034,3762C3025,3780 3002,3845 2984,3908C2965,3971 2945,4029 2939,4036C2934,4043 2930,4054 2932,4062C2935,4080 2907,4170 2898,4170C2894,4170 2890,4163 2890,4155C2890,4147 2886,4140 2881,4140C2866,4140 2850,4166 2844,4201C2840,4220 2833,4243 2828,4253C2822,4265 2823,4270 2835,4270C2843,4270 2850,4264 2850,4256C2850,4249 2857,4229 2865,4214L2880,4185L2880,4217C2880,4261 2839,4350 2818,4350C2809,4350 2794,4353 2786,4356C2774,4361 2771,4357 2773,4344C2775,4327 2858,4122 2866,4111C2868,4109 2876,4112 2884,4119C2895,4129 2901,4119 2919,4061C2931,4023 2940,3986 2940,3978C2940,3970 2944,3960 2950,3954C2955,3949 2962,3922 2965,3895C2968,3868 2977,3824 2986,3798C3003,3747 2999,3717 2978,3725C2971,3727 2927,3731 2880,3734C2833,3737 2771,3746 2742,3753C2693,3766 2687,3766 2666,3749C2645,3732 2641,3732 2636,3746C2631,3760 2626,3759 2596,3741C2578,3729 2552,3720 2540,3720C2514,3720 2464,3681 2348,3570C2302,3526 2262,3490 2258,3490C2254,3490 2245,3497 2236,3505C2217,3525 2209,3524 2217,3503C2221,3492 2220,3489 2212,3494C2205,3498 2200,3510 2200,3520C2200,3533 2195,3537 2186,3534C2176,3530 2166,3540 2156,3562C2149,3580 2131,3606 2118,3620C2105,3634 2051,3702 1999,3772C1948,3842 1889,3920 1870,3946C1851,3971 1830,4001 1824,4012C1818,4023 1801,4043 1787,4058C1773,4073 1734,4127 1701,4178C1667,4228 1636,4270 1631,4270C1626,4270 1590,4323 1551,4388C1512,4452 1461,4534 1439,4570C1416,4606 1387,4655 1374,4680C1360,4705 1340,4740 1329,4759C1287,4830 1268,5005 1301,5026C1306,5029 1310,5040 1310,5051C1310,5069 1348,5132 1397,5194C1430,5236 1529,5286 1645,5320C1810,5368 1848,5369 2025,5325C2108,5305 2199,5278 2229,5264C2331,5218 2454,5102 2502,5006C2519,4973 2541,4934 2552,4920C2564,4905 2569,4887 2566,4874C2562,4858 2565,4851 2581,4847C2592,4844 2604,4832 2607,4821C2610,4809 2616,4800 2620,4800C2624,4800 2628,4782 2628,4760C2628,4738 2636,4710 2644,4698C2653,4686 2660,4667 2660,4657C2660,4647 2669,4626 2680,4610C2691,4595 2697,4580 2693,4576C2690,4573 2694,4570 2702,4570C2721,4570 2749,4530 2757,4489C2761,4470 2766,4462 2772,4468C2779,4475 2763,4516 2730,4584C2697,4650 2680,4695 2684,4706C2690,4720 2694,4718 2708,4692C2717,4675 2734,4650 2745,4637C2756,4624 2770,4606 2775,4598C2823,4524 2925,4408 2995,4350C3042,4311 3080,4276 3080,4272C3080,4268 3121,4224 3172,4175C3336,4015 3404,3947 3490,3854C3537,3804 3608,3728 3648,3685C3692,3637 3720,3599 3720,3585C3720,3572 3735,3551 3760,3531C3805,3495 3809,3477 3780,3440C3747,3397 3754,3372 3803,3359C3826,3353 3856,3342 3870,3336C3884,3329 3913,3315 3935,3304C3957,3294 3977,3285 3979,3283C3981,3282 3977,3274 3971,3266C3964,3258 3953,3226 3945,3195C3933,3143 3934,3138 3951,3126C3962,3119 3981,3091 3994,3063C4007,3036 4025,3008 4034,3001C4044,2992 4048,2980 4044,2968C4040,2955 4047,2940 4065,2922C4080,2907 4106,2868 4122,2836C4141,2799 4155,2781 4159,2789C4163,2795 4173,2799 4181,2797C4189,2795 4192,2795 4188,2797C4183,2800 4180,2810 4180,2821C4180,2842 4164,2847 4157,2827C4155,2821 4154,2827 4156,2842C4158,2862 4154,2873 4140,2880C4129,2886 4120,2898 4120,2907C4120,2916 4113,2928 4105,2934C4094,2942 4088,2970 4085,3038C4083,3089 4076,3138 4071,3148C4066,3157 4060,3170 4058,3175C4057,3181 4046,3185 4035,3185C4020,3185 4014,3177 4012,3152C4009,3127 4004,3120 3992,3122C3969,3126 3965,3162 3983,3202C3992,3220 4001,3251 4004,3270C4011,3306 4070,3380 4093,3380C4099,3380 4125,3394 4150,3411C4199,3445 4435,3561 4515,3591C4579,3615 4592,3615 4617,3588C4653,3547 4730,3385 4730,3349C4730,3333 4735,3329 4749,3333C4765,3337 4773,3328 4789,3294C4812,3246 4815,3230 4801,3230C4796,3230 4799,3211 4807,3189C4826,3132 4816,3094 4774,3067C4756,3055 4740,3039 4740,3033C4740,3026 4728,3014 4712,3006C4697,2998 4644,2955 4595,2911C4531,2853 4499,2831 4484,2833C4467,2836 4464,2833 4468,2818C4472,2802 4469,2800 4446,2806C4431,2809 4420,2808 4420,2802C4420,2789 4331,2782 4327,2795C4325,2801 4318,2800 4308,2793C4300,2786 4290,2783 4287,2787C4283,2790 4280,2786 4280,2776C4280,2762 4273,2759 4237,2762C4214,2764 4189,2769 4182,2774C4175,2778 4170,2776 4170,2766C4170,2748 4226,2716 4241,2725C4246,2729 4250,2728 4249,2723C4245,2701 4252,2690 4270,2690C4281,2690 4289,2696 4288,2703C4286,2710 4295,2715 4309,2715C4328,2715 4336,2708 4342,2682L4351,2650L4423,2651C4463,2652 4506,2657 4520,2663C4534,2668 4554,2674 4565,2676C4620,2685 4688,2699 4711,2707C4748,2718 4828,2811 4945,2975L5042,3112L5084,3067C5150,2995 5180,2958 5192,2936C5198,2924 5209,2911 5216,2907C5224,2903 5230,2895 5230,2890C5230,2885 5243,2861 5259,2838C5275,2814 5294,2772 5301,2745C5307,2717 5317,2691 5321,2686C5326,2680 5330,2664 5330,2649C5330,2634 5334,2619 5339,2616C5344,2613 5348,2600 5348,2588C5348,2575 5360,2520 5375,2465C5412,2324 5422,2236 5405,2202C5398,2187 5386,2144 5379,2105C5371,2054 5349,1999 5302,1905C5236,1775 5181,1704 5155,1714C5147,1717 5128,1747 5111,1782C5095,1817 5072,1854 5060,1865C5047,1876 5029,1903 5020,1926C5010,1949 4967,2001 4921,2047C4876,2090 4840,2130 4840,2133C4840,2137 4795,2200 4741,2273C4687,2346 4625,2435 4605,2473C4570,2537 4550,2551 4550,2510C4550,2500 4568,2464 4590,2431C4612,2398 4630,2368 4630,2365C4630,2362 4665,2310 4708,2250C4750,2190 4792,2127 4801,2110C4810,2093 4828,2069 4841,2057C4854,2044 4875,2020 4887,2003C4910,1971 4910,1971 4895,1843C4886,1773 4877,1681 4874,1640C4872,1599 4867,1555 4864,1542C4858,1513 4876,1479 4894,1486C4901,1489 4910,1484 4913,1476C4920,1459 5018,1410 5045,1410C5054,1410 5074,1398 5090,1383C5105,1367 5127,1349 5139,1342C5166,1326 5167,1345 5140,1362C5129,1369 5120,1386 5120,1399C5120,1423 5120,1423 5201,1416C5258,1411 5291,1403 5311,1389C5350,1361 5402,1361 5431,1389C5444,1402 5467,1418 5481,1426C5541,1457 5688,1656 5667,1677C5658,1686 5631,1661 5614,1628C5577,1556 5432,1418 5380,1405C5362,1401 5349,1405 5334,1418C5303,1448 5271,1462 5251,1455C5241,1452 5201,1449 5161,1448C5122,1447 5090,1443 5090,1439C5090,1432 5069,1437 5000,1461C4900,1496 4885,1511 4907,1555C4917,1573 4924,1615 4925,1661C4926,1702 4929,1741 4933,1747C4936,1752 4940,1791 4941,1833C4943,1875 4948,1910 4952,1910C4956,1910 4960,1905 4960,1899C4960,1893 4968,1876 4979,1862C4989,1847 5000,1813 5002,1785C5004,1758 5008,1728 5011,1720C5013,1712 5005,1701 4993,1695C4963,1682 4964,1660 4994,1660C5008,1660 5022,1655 5025,1650C5029,1644 5046,1642 5063,1645C5081,1648 5117,1652 5144,1654C5183,1657 5198,1664 5222,1691C5260,1733 5298,1792 5305,1823C5309,1837 5321,1858 5332,1870C5343,1882 5370,1937 5392,1993C5414,2049 5437,2100 5442,2107C5447,2114 5454,2164 5457,2220C5461,2292 5466,2320 5476,2320C5483,2320 5491,2316 5495,2311C5500,2302 5595,2247 5658,2216C5679,2206 5681,2200 5678,2136L5675,2068L5712,2049C5732,2039 5752,2026 5755,2020C5758,2014 5756,1976 5748,1934C5736,1858 5736,1858 5760,1839C5829,1788 5840,1777 5840,1760C5840,1751 5834,1737 5827,1731C5819,1725 5807,1695 5800,1664C5792,1633 5782,1606 5776,1604C5770,1602 5765,1578 5764,1551C5764,1521 5756,1493 5744,1474C5733,1458 5719,1433 5712,1418C5706,1402 5696,1390 5690,1390C5684,1390 5682,1386 5685,1380C5688,1375 5686,1370 5680,1370C5674,1370 5672,1365 5675,1360C5679,1354 5676,1343 5670,1335C5663,1327 5660,1313 5664,1305C5668,1295 5655,1283 5622,1266C5585,1247 5579,1240 5593,1235C5632,1219 5750,1306 5750,1351C5750,1362 5759,1383 5770,1397C5781,1411 5790,1429 5790,1437C5790,1445 5802,1471 5816,1495C5830,1519 5842,1553 5842,1569C5843,1609 5853,1601 5869,1548C5891,1477 5894,1473 5898,1504C5900,1520 5897,1537 5891,1543C5885,1549 5880,1564 5880,1576C5880,1589 5876,1601 5871,1604C5866,1607 5867,1637 5874,1672C5886,1738 5885,1770 5869,1770C5864,1770 5860,1779 5860,1789C5860,1800 5852,1815 5841,1822C5831,1829 5820,1845 5816,1858C5812,1870 5802,1880 5794,1880C5783,1880 5780,1896 5782,1965C5785,2055 5787,2050 5726,2092C5719,2097 5719,2109 5727,2130C5737,2157 5736,2164 5712,2193C5665,2249 5597,2310 5535,2351C5456,2402 5445,2413 5432,2458C5426,2478 5409,2536 5395,2585C5345,2757 5311,2830 5243,2915C5216,2948 5157,3027 5111,3092C5065,3156 4999,3238 4964,3274C4929,3310 4900,3345 4899,3352C4899,3359 4897,3397 4897,3436C4895,3500 4892,3511 4855,3565C4804,3640 4747,3694 4688,3727C4652,3747 4640,3760 4635,3784C4631,3801 4620,3833 4610,3855C4600,3877 4589,3903 4586,3913C4581,3927 4573,3929 4540,3924C4497,3917 4460,3937 4460,3968C4460,3984 4436,4028 4398,4084C4382,4105 4370,4127 4370,4133C4370,4138 4357,4159 4342,4179C4316,4212 4300,4242 4301,4256C4302,4265 4267,4315 4254,4323C4247,4327 4222,4369 4199,4417C4175,4464 4149,4505 4140,4507C4132,4509 4112,4533 4097,4559C4083,4586 4049,4636 4023,4670C3960,4753 3890,4850 3834,4933C3808,4970 3768,5020 3744,5045C3720,5069 3700,5092 3700,5095C3700,5099 3691,5112 3680,5124C3656,5148 3608,5255 3590,5320C3580,5357 3561,5381 3486,5453C3436,5502 3359,5571 3315,5607C3244,5665 3232,5672 3200,5667C3149,5661 3137,5668 3086,5738C3061,5772 3018,5816 2990,5836C2958,5859 2938,5882 2934,5898C2917,5985 2917,5985 2875,5988C2797,5995 2792,6025 2850,6139C2894,6227 2909,6242 2924,6216C2940,6190 3007,6120 3017,6120C3021,6120 3040,6099 3059,6074C3078,6049 3123,6003 3159,5972C3243,5900 3308,5831 3315,5809C3319,5797 3327,5793 3337,5797C3349,5802 3352,5799 3348,5788C3340,5769 3358,5750 3383,5750C3394,5750 3405,5739 3411,5720C3417,5704 3428,5690 3436,5690C3444,5690 3450,5687 3450,5682C3450,5678 3460,5670 3472,5665C3485,5659 3510,5633 3527,5605C3545,5578 3579,5535 3603,5510C3647,5464 3704,5396 3753,5332C3778,5300 3780,5290 3775,5249C3767,5194 3759,5209 3951,4923C4032,4803 4141,4635 4195,4550C4248,4465 4299,4391 4307,4386C4325,4376 4384,4249 4394,4201C4407,4133 4459,4107 4478,4158C4484,4173 4492,4220 4495,4262C4499,4305 4505,4341 4508,4343C4512,4345 4561,4341 4618,4335C4805,4314 4861,4333 4810,4402C4793,4425 4790,4440 4794,4465C4800,4497 4802,4498 4861,4505C4902,4510 4930,4520 4948,4535C4963,4548 4991,4560 5010,4562C5045,4565 5045,4564 5051,4520C5057,4474 5088,4400 5101,4400C5105,4400 5100,4423 5089,4450C5066,4512 5065,4564 5086,4657L5103,4728L5074,4754C5058,4768 5029,4787 5010,4796C4991,4805 4973,4814 4971,4816C4968,4818 4965,4870 4962,4930C4958,5050 4956,5046 5018,5034L5049,5028L5028,4976C5017,4948 5006,4910 5004,4892C5001,4862 5004,4858 5040,4844C5062,4835 5097,4819 5117,4809C5137,4799 5157,4793 5161,4798C5165,4802 5170,4844 5172,4891C5176,4991 5168,5005 5109,5015C5074,5021 5070,5024 5076,5043C5080,5055 5083,5071 5083,5078C5083,5084 5087,5090 5092,5090C5096,5090 5100,5111 5100,5136C5100,5173 5097,5181 5085,5176C5062,5168 5066,5212 5090,5238C5112,5261 5147,5274 5177,5268C5198,5264 5265,5134 5274,5076C5280,5039 5312,5001 5337,5000C5367,4999 5357,4976 5310,4933C5255,4884 5220,4826 5220,4785C5220,4770 5239,4732 5263,4698C5286,4665 5311,4627 5317,4615C5324,4603 5341,4585 5355,4576C5369,4567 5380,4553 5380,4545C5380,4521 5429,4450 5445,4450C5461,4450 5466,4476 5451,4482C5437,4487 5352,4624 5344,4654C5341,4669 5327,4685 5315,4690C5289,4700 5250,4758 5250,4788C5250,4809 5306,4865 5369,4904C5421,4937 5432,4955 5396,4948C5371,4943 5370,4944 5384,4958C5397,4971 5402,4971 5415,4960C5424,4953 5448,4946 5468,4945C5488,4944 5508,4942 5511,4941C5517,4940 5580,4842 5580,4834C5580,4831 5598,4802 5620,4769C5642,4736 5660,4703 5660,4696C5660,4689 5669,4671 5680,4657C5705,4625 5705,4613 5681,4600C5656,4587 5644,4599 5605,4674C5569,4744 5475,4850 5449,4850C5427,4850 5408,4818 5416,4793C5432,4747 5504,4593 5518,4578C5527,4567 5530,4552 5526,4534L5519,4506L5494,4536C5477,4555 5470,4558 5474,4547C5477,4536 5483,4517 5486,4504C5491,4484 5498,4480 5519,4482C5537,4484 5544,4490 5542,4503C5540,4514 5549,4524 5567,4531C5616,4551 5722,4605 5726,4612C5728,4615 5724,4625 5716,4633C5708,4641 5703,4650 5706,4653C5709,4655 5697,4685 5680,4718C5664,4750 5650,4782 5650,4787C5650,4800 5592,4889 5564,4920C5548,4937 5543,4953 5547,4968C5550,4980 5555,4990 5559,4990C5568,4990 5610,4932 5710,4783C5855,4568 5852,4574 5845,4501C5841,4452 5843,4427 5857,4394C5867,4370 5881,4350 5888,4350C5894,4350 5900,4344 5900,4337C5900,4331 5913,4313 5929,4297C5945,4282 5978,4235 6003,4192C6028,4150 6071,4086 6099,4050C6127,4014 6162,3965 6177,3941C6216,3879 6260,3830 6276,3830C6284,3830 6290,3832 6290,3833C6290,3843 6255,3907 6242,3922C6229,3938 6229,3940 6245,3946C6264,3954 6282,3936 6341,3852C6374,3805 6373,3796 6327,3775C6309,3767 6288,3757 6280,3752C6224,3720 6178,3700 6163,3700C6150,3700 6120,3736 6072,3808C5975,3951 5929,4014 5918,4018C5914,4020 5910,4028 5910,4035C5910,4043 5882,4077 5848,4112C5813,4147 5773,4192 5758,4212L5730,4248L5670,4234C5636,4226 5589,4209 5564,4195C5511,4165 5474,4163 5461,4189C5455,4199 5439,4211 5425,4214C5397,4221 5380,4254 5380,4301C5380,4332 5366,4340 5356,4315C5353,4307 5340,4300 5326,4300C5312,4300 5298,4295 5294,4289C5290,4281 5294,4280 5309,4285C5334,4293 5373,4282 5365,4269C5355,4253 5391,4191 5423,4168C5448,4150 5467,4146 5514,4147C5553,4148 5578,4153 5584,4162C5590,4170 5612,4185 5633,4195C5688,4221 5715,4208 5777,4125C5806,4086 5837,4054 5845,4052C5853,4050 5860,4044 5860,4039C5860,4033 5898,3982 5944,3926C6024,3827 6111,3702 6133,3653C6139,3640 6149,3630 6155,3630C6197,3630 6385,3757 6396,3793C6400,3806 6383,3840 6342,3899C6282,3984 6281,3985 6242,3982C6204,3980 6201,3982 6159,4042C6135,4076 6103,4117 6088,4132C6052,4170 5929,4335 5902,4383C5883,4415 5880,4435 5882,4501C5883,4569 5880,4584 5862,4608C5850,4623 5829,4656 5816,4682C5803,4708 5779,4747 5763,4767C5747,4788 5723,4827 5711,4853C5687,4903 5616,5002 5582,5033C5563,5050 5561,5050 5517,5029C5481,5011 5473,5003 5482,4993C5495,4977 5491,4977 5434,4991C5410,4997 5390,5006 5390,5011C5390,5016 5384,5020 5378,5020C5355,5020 5339,5036 5334,5065C5330,5087 5335,5098 5361,5120L5394,5147L5376,5191C5356,5239 5341,5390 5356,5390C5361,5390 5378,5347 5394,5294C5410,5242 5427,5197 5432,5194C5437,5191 5452,5171 5465,5149C5484,5120 5496,5111 5514,5112L5538,5114L5516,5150C5488,5195 5430,5326 5430,5344C5430,5366 5380,5420 5361,5420C5318,5420 5306,5295 5340,5200C5365,5129 5365,5120 5337,5120C5319,5120 5307,5134 5277,5195C5257,5237 5232,5274 5222,5277C5213,5281 5200,5290 5194,5298C5185,5311 5177,5310 5134,5295C5107,5285 5072,5265 5057,5251C5030,5226 5029,5223 5036,5153C5039,5113 5039,5080 5036,5080C5032,5080 5011,5089 4989,5099C4955,5116 4948,5116 4943,5104C4940,5096 4929,5090 4919,5090C4896,5090 4894,5105 4915,5114C4932,5120 4928,5165 4905,5243C4895,5277 4889,5284 4864,5286C4788,5294 4684,5314 4679,5323C4675,5328 4663,5329 4652,5326C4634,5320 4627,5327 4606,5372C4592,5401 4578,5437 4575,5453C4571,5468 4564,5483 4559,5486C4554,5489 4550,5501 4550,5514C4550,5527 4540,5552 4527,5571C4509,5598 4494,5607 4455,5616C4419,5623 4404,5631 4401,5645C4399,5655 4367,5722 4328,5794C4263,5916 4161,6151 4146,6214C4142,6230 4121,6281 4099,6329C4076,6376 4051,6433 4043,6455C4034,6477 4015,6523 3999,6556C3984,6590 3964,6641 3954,6669C3945,6697 3934,6723 3929,6726C3917,6733 3918,6791 3930,6859C3935,6890 3943,6941 3946,6972C3951,7025 3954,7032 3991,7057C4013,7073 4077,7130 4132,7184L4232,7283L4226,7324C4202,7488 4185,7547 4134,7650L4101,7714L4137,7755C4156,7777 4180,7805 4191,7816C4217,7845 4215,7859 4181,7895L4151,7925L4180,8005C4195,8049 4215,8102 4224,8122C4233,8143 4240,8170 4240,8182C4240,8195 4247,8225 4256,8249C4264,8274 4269,8303 4266,8315C4258,8347 4182,8427 4066,8524C3978,8600 3961,8618 3956,8649C3948,8698 3964,8710 4048,8717C4133,8724 4146,8716 4156,8654C4159,8630 4166,8610 4171,8610C4182,8610 4179,8679 4168,8686C4164,8689 4160,8702 4160,8715C4160,8731 4168,8741 4189,8748C4205,8754 4224,8771 4232,8787C4239,8802 4248,8813 4252,8810C4255,8807 4266,8813 4277,8822C4293,8836 4469,8895 4476,8888C4479,8884 4454,8748 4445,8725C4422,8662 4375,8577 4372,8593C4366,8621 4351,8612 4346,8578C4335,8516 4335,8475 4345,8471C4361,8465 4444,8633 4480,8745C4506,8822 4518,8849 4529,8845C4536,8842 4549,8845 4557,8852C4568,8861 4573,8861 4581,8849C4587,8839 4590,8845 4590,8869C4590,8890 4583,8908 4573,8915C4557,8927 4557,8933 4569,8981C4588,9059 4593,9147 4581,9178C4571,9205 4546,9519 4546,9613C4547,9669 4554,9675 4619,9685C4644,9688 4701,9702 4745,9715C4789,9728 4852,9741 4885,9745C4918,9749 4953,9754 4962,9756C4983,9762 5053,9670 5083,9597C5108,9534 5117,9522 5125,9542C5133,9562 5075,9718 5049,9746L5028,9768L5074,9775C5123,9783 5235,9767 5284,9745C5337,9722 5429,9642 5450,9600C5468,9564 5469,9557 5456,9532C5448,9517 5420,9482 5393,9453C5346,9402 5294,9377 5193,9355C5157,9348 5157,9348 5145,9441C5142,9467 5132,9496 5124,9506C5110,9523 5109,9520 5115,9470C5138,9282 5138,9272 5127,9130C5120,9043 5096,8930 5085,8930C5082,8930 5080,8985 5081,9053C5081,9120 5079,9183 5075,9193C5064,9219 5045,9208 5044,9174C5038,9066 4979,8874 4933,8820C4921,8805 4910,8786 4910,8778C4910,8756 4855,8684 4788,8615L4728,8555L4735,8623C4739,8668 4738,8690 4731,8690C4725,8690 4721,8687 4722,8683C4727,8664 4707,8534 4698,8523C4692,8516 4691,8510 4696,8510C4701,8510 4762,8565 4831,8633C4936,8735 4962,8766 4988,8823C5006,8860 5020,8898 5020,8908C5020,8917 5025,8932 5030,8940C5066,8995 4996,8768 4939,8642C4923,8608 4910,8575 4910,8571C4910,8566 4898,8547 4884,8530C4869,8513 4860,8497 4862,8494C4869,8487 4900,8501 4900,8511C4900,8515 4920,8542 4945,8570C5008,8641 5095,8823 5120,8935C5151,9081 5168,9212 5159,9250C5147,9301 5182,9333 5284,9365C5362,9390 5367,9393 5419,9459C5477,9532 5520,9605 5520,9631C5520,9647 5366,9778 5160,9937C5102,9981 5043,10028 5029,10041C5015,10054 4981,10080 4954,10099C4860,10164 4820,10212 4851,10222C4859,10225 4851,10271 4827,10370C4807,10450 4788,10535 4784,10560C4781,10585 4769,10631 4758,10662C4741,10710 4727,10728 4676,10770C4612,10823 4525,10870 4491,10870C4480,10870 4459,10875 4443,10881C4403,10896 4332,10911 4278,10915C4252,10916 4210,10925 4183,10933C4157,10941 4090,10955 4035,10965C3980,10974 3913,10986 3887,10991C3819,11004 3796,11002 3785,10984ZM3130,10415C3124,10373 3122,10320 3125,10297C3135,10241 3218,9932 3230,9909C3245,9881 3225,9843 3185,9824C3165,9815 3137,9790 3123,9768C3109,9747 3094,9730 3089,9730C3076,9730 3054,9789 3046,9845C3043,9873 3030,9924 3019,9960C3007,9996 2994,10041 2990,10060C2985,10079 2975,10119 2967,10148C2954,10194 2953,10209 2965,10253C2972,10281 2976,10308 2973,10313C2971,10317 2974,10319 2981,10318C2988,10316 2998,10324 3004,10335C3039,10399 3128,10506 3138,10496C3140,10493 3136,10457 3130,10415ZM4565,10309C4587,10303 4619,10296 4635,10293C4667,10287 4721,10256 4785,10206C4880,10132 4942,10079 4970,10046C4987,10027 5022,9999 5048,9984C5119,9943 5429,9705 5445,9680C5455,9663 5440,9669 5406,9695C5334,9750 5174,9810 5098,9810C5053,9810 4861,9780 4790,9761C4771,9756 4728,9747 4695,9740C4662,9734 4607,9721 4572,9713C4524,9700 4478,9698 4367,9703C4209,9709 4141,9727 4062,9784C4038,9801 4005,9825 3987,9838C3969,9850 3944,9873 3930,9888C3916,9903 3886,9928 3865,9945C3843,9961 3814,9988 3800,10004C3786,10020 3757,10053 3736,10077C3715,10101 3700,10123 3703,10126C3714,10138 3861,10194 3975,10230C4112,10273 4170,10287 4255,10295C4288,10298 4340,10304 4370,10309C4450,10321 4519,10321 4565,10309ZM3694,10104C3698,10094 3695,10090 3688,10092C3673,10097 3665,10120 3678,10120C3683,10120 3691,10113 3694,10104ZM3744,10003C3797,9950 3840,9905 3840,9903C3840,9898 3740,9800 3699,9764C3616,9692 3500,9547 3500,9516C3500,9508 3496,9499 3491,9496C3487,9493 3480,9476 3476,9458C3473,9441 3459,9403 3445,9375C3432,9346 3418,9303 3415,9279C3399,9139 3373,8998 3367,9014C3363,9024 3360,9040 3360,9050C3360,9060 3353,9081 3345,9097C3337,9112 3319,9178 3305,9242C3280,9350 3279,9372 3283,9522C3286,9612 3293,9710 3300,9740C3306,9770 3313,9809 3315,9825C3319,9863 3328,9883 3365,9942C3388,9979 3408,9996 3464,10024C3534,10059 3629,10099 3642,10100C3646,10100 3692,10057 3744,10003ZM3955,9826C3988,9805 4016,9786 4018,9785C4032,9774 3956,9670 3933,9670C3926,9670 3920,9666 3920,9661C3920,9656 3908,9645 3894,9635C3870,9620 3866,9619 3852,9634C3838,9648 3838,9660 3849,9737C3856,9785 3863,9836 3865,9850C3868,9883 3868,9882 3883,9873C3889,9869 3922,9847 3955,9826ZM3830,9829C3830,9818 3826,9800 3820,9790C3815,9780 3807,9741 3803,9703L3795,9635L3753,9626C3721,9619 3699,9605 3665,9569C3640,9543 3620,9514 3620,9505C3620,9485 3636,9486 3644,9506C3647,9514 3654,9519 3660,9515C3666,9512 3666,9502 3661,9492C3635,9442 3627,9419 3632,9414C3635,9411 3648,9431 3661,9457C3687,9513 3724,9560 3754,9577C3780,9592 3827,9594 3835,9579C3839,9574 3852,9570 3863,9571C3902,9574 3909,9570 3912,9548C3914,9535 3921,9525 3929,9525C3937,9525 3945,9519 3948,9512C3950,9505 3946,9502 3936,9506C3926,9510 3915,9499 3901,9469C3877,9421 3880,9402 3904,9448C3922,9483 3946,9495 3954,9474C3964,9448 3961,9395 3948,9382C3942,9376 3940,9367 3945,9363C3949,9358 3955,9361 3957,9368C3960,9374 3966,9380 3971,9380C3976,9380 3973,9369 3964,9355C3951,9334 3950,9330 3962,9330C3970,9330 3989,9361 4007,9403C4043,9490 4110,9599 4128,9600C4152,9600 4145,9514 4109,9364C4093,9297 4080,9237 4080,9231C4080,9209 4100,9221 4106,9248C4115,9281 4190,9400 4202,9400C4217,9400 4196,9155 4180,9145C4175,9142 4168,9120 4165,9095C4161,9071 4152,9043 4144,9033C4132,9017 4131,9018 4130,9047C4130,9081 4088,9140 4064,9140C4056,9140 4047,9147 4044,9155C4040,9163 4034,9170 4028,9170C4019,9170 3981,9129 3952,9088C3940,9071 3941,9071 3967,9082C3982,9089 3997,9097 4000,9101C4003,9104 4016,9113 4029,9120C4049,9130 4055,9129 4071,9114C4090,9094 4100,9014 4086,8992C4076,8975 4095,8977 4110,8995C4128,9017 4137,9014 4149,8980C4154,8963 4166,8947 4175,8944C4183,8941 4190,8931 4190,8922C4190,8902 4219,8870 4238,8870C4248,8870 4245,8879 4226,8903C4197,8938 4170,8991 4170,9014C4170,9025 4178,9027 4205,9023C4253,9015 4290,9034 4323,9083C4389,9183 4403,9201 4412,9188C4416,9181 4417,9159 4414,9140L4408,9105L4431,9127C4448,9144 4455,9163 4458,9208C4463,9279 4451,9307 4404,9326C4380,9336 4372,9345 4377,9353C4389,9372 4492,9524 4497,9530C4500,9533 4508,9526 4517,9515C4528,9500 4531,9474 4527,9403C4525,9353 4527,9306 4530,9298C4534,9291 4540,9268 4544,9248C4550,9217 4548,9210 4535,9210C4527,9210 4520,9204 4520,9197C4520,9190 4491,9156 4456,9123C4421,9090 4384,9047 4374,9029C4365,9010 4346,8981 4334,8964C4321,8947 4310,8929 4310,8923C4310,8918 4296,8898 4279,8879C4262,8860 4244,8835 4239,8822C4230,8797 4176,8770 4137,8770C4124,8770 4110,8766 4104,8761C4099,8756 4048,8742 3990,8730C3899,8710 3852,8704 3743,8699C3730,8698 3720,8694 3720,8690C3720,8685 3765,8683 3820,8686C3918,8690 3920,8689 3921,8667C3923,8646 3925,8622 3928,8588C3929,8579 3937,8564 3947,8555C3960,8541 3961,8537 3950,8530C3935,8521 3930,8491 3927,8383C3923,8258 3897,8280 3871,8432C3858,8508 3849,8536 3838,8538C3829,8540 3798,8516 3768,8485C3685,8399 3685,8399 3700,8390C3707,8386 3708,8380 3702,8376C3697,8373 3685,8379 3675,8390C3655,8413 3659,8428 3706,8490L3732,8525L3703,8493C3665,8450 3645,8451 3620,8498C3600,8535 3594,8545 3553,8612C3528,8654 3530,8671 3569,8713C3601,8748 3599,8792 3562,8835C3547,8852 3515,8894 3490,8928C3466,8962 3442,8990 3438,8990C3426,8990 3428,9022 3445,9087C3453,9119 3462,9165 3464,9190C3471,9258 3488,9338 3501,9361C3507,9373 3509,9391 3506,9403C3501,9424 3566,9557 3596,9587C3604,9595 3615,9611 3621,9622C3651,9678 3803,9850 3822,9850C3826,9850 3830,9841 3830,9829ZM3253,9731C3251,9719 3255,9710 3260,9710C3266,9710 3270,9706 3270,9700C3270,9688 3243,9692 3213,9708C3176,9728 3173,9721 3208,9694C3225,9680 3240,9660 3240,9649C3240,9639 3245,9630 3251,9630C3258,9630 3260,9619 3256,9598C3252,9580 3248,9552 3246,9537C3244,9521 3240,9508 3238,9507C3237,9506 3220,9497 3203,9488C3172,9472 3170,9472 3161,9488C3134,9542 3143,9628 3174,9622C3185,9620 3190,9624 3188,9632C3185,9639 3171,9646 3157,9648C3130,9651 3130,9650 3128,9588C3126,9503 3128,9489 3146,9463C3160,9441 3162,9441 3186,9456C3204,9468 3216,9470 3232,9463C3252,9454 3253,9447 3252,9365C3251,9317 3248,9275 3246,9273C3239,9265 3186,9298 3152,9331C3120,9361 3104,9391 3094,9435C3071,9539 3070,9554 3087,9614C3105,9682 3132,9741 3152,9757C3189,9788 3257,9770 3253,9731ZM4113,9729C4149,9716 4160,9698 4140,9685C4134,9681 4118,9656 4104,9628C4073,9567 4045,9535 4031,9545C4025,9548 4022,9554 4024,9558C4033,9573 4045,9658 4049,9726C4050,9742 4055,9750 4063,9747C4069,9745 4092,9737 4113,9729ZM4010,9689C4010,9678 4005,9638 3999,9599C3987,9531 3976,9518 3952,9542C3942,9552 3937,9552 3931,9541C3925,9532 3923,9536 3923,9555C3923,9570 3916,9586 3909,9591C3902,9595 3898,9601 3900,9604C3939,9649 3997,9708 4003,9709C4007,9709 4010,9701 4010,9689ZM4310,9683C4329,9680 4389,9678 4443,9679C4525,9681 4540,9679 4540,9665C4540,9657 4533,9650 4525,9650C4516,9650 4510,9641 4510,9625C4510,9596 4472,9532 4450,9525C4442,9522 4414,9487 4387,9447C4361,9408 4335,9369 4329,9362C4324,9355 4313,9335 4305,9317C4298,9300 4277,9269 4260,9250L4229,9215L4236,9280C4245,9374 4246,9468 4238,9475C4226,9487 4210,9470 4185,9419C4147,9345 4126,9358 4151,9440C4162,9479 4170,9554 4171,9644L4172,9702L4224,9696C4252,9692 4291,9686 4310,9683ZM4406,9279C4409,9273 4403,9256 4391,9242C4380,9227 4350,9178 4324,9133C4274,9042 4259,9034 4200,9065C4160,9086 4170,9113 4214,9105C4249,9098 4277,9116 4300,9160L4313,9185L4286,9160C4264,9140 4257,9138 4250,9150C4242,9163 4265,9220 4282,9228C4286,9230 4305,9245 4326,9261C4364,9291 4394,9298 4406,9279ZM4552,9066C4549,8991 4531,8962 4458,8911C4426,8890 4393,8877 4360,8873L4310,8867L4323,8896C4339,8933 4409,9044 4435,9076C4447,9089 4471,9109 4490,9119C4536,9144 4555,9128 4552,9066ZM4530,8915C4530,8907 4526,8900 4520,8900C4515,8900 4510,8907 4510,8915C4510,8923 4515,8930 4520,8930C4526,8930 4530,8923 4530,8915ZM4033,8510C4042,8510 4050,8503 4050,8495C4050,8486 4057,8477 4067,8473C4089,8464 4153,8393 4166,8361C4172,8347 4184,8329 4193,8321C4203,8314 4210,8298 4210,8286C4210,8251 4151,8071 4122,8018C4097,7973 4094,7970 4065,7976C4049,7979 4031,7986 4027,7990C4018,7998 4035,8034 4066,8077C4090,8111 4066,8113 4029,8080C3987,8043 3980,8043 3980,8076C3980,8090 3973,8133 3963,8171C3948,8234 3948,8242 3964,8282C3977,8317 3979,8345 3974,8417C3970,8467 3970,8516 3974,8525C3980,8541 3982,8542 3998,8526C4008,8517 4024,8510 4033,8510ZM3845,8407L3853,8348L3811,8375C3789,8390 3770,8407 3770,8413C3770,8419 3782,8439 3796,8458C3828,8499 3835,8492 3845,8407ZM3868,8297C3886,8279 3909,8239 3919,8209C3941,8147 3956,8035 3943,8028C3939,8025 3919,8025 3899,8027L3863,8032L3852,8108C3839,8196 3826,8263 3815,8303C3805,8341 3828,8339 3868,8297ZM3460,8011C3460,7995 3471,7958 3485,7929C3499,7899 3508,7886 3505,7900C3486,7979 3487,7997 3510,8003C3539,8011 3557,8003 3563,7979C3569,7956 3615,7953 3667,7972C3685,7978 3703,7981 3707,7977C3710,7973 3706,7945 3696,7915C3680,7862 3680,7860 3700,7814C3712,7789 3743,7748 3770,7723C3798,7697 3822,7666 3825,7649C3829,7633 3836,7618 3841,7615C3855,7605 3851,7643 3835,7664C3827,7675 3820,7690 3820,7699C3820,7707 3813,7721 3805,7730C3780,7758 3720,7861 3720,7877C3720,7907 3763,7990 3781,7995C3792,7999 3815,7997 3833,7991C3850,7985 3901,7974 3944,7965C3987,7957 4025,7948 4028,7946C4030,7943 4020,7910 4005,7871C3979,7806 3977,7761 4000,7775C4005,7778 4014,7771 4019,7758C4024,7745 4040,7720 4054,7701C4068,7682 4080,7661 4080,7654C4080,7648 4087,7637 4095,7630C4103,7623 4110,7607 4110,7595C4110,7582 4116,7559 4124,7543C4171,7449 4191,7366 4171,7345C4166,7339 4157,7317 4150,7296C4142,7271 4113,7233 4071,7191C3990,7110 3934,7070 3855,7041C3774,7010 3731,6990 3697,6967C3659,6941 3669,6935 3716,6956C3771,6979 3903,7020 3908,7015C3910,7013 3905,6980 3896,6943C3888,6906 3877,6813 3872,6738C3867,6662 3861,6597 3857,6594C3854,6590 3808,6588 3755,6587C3684,6587 3649,6592 3619,6605L3580,6623L3581,6719C3581,6772 3585,6839 3589,6868C3594,6906 3593,6920 3584,6920C3566,6920 3560,6895 3554,6806C3549,6731 3540,6664 3524,6583C3518,6553 3514,6550 3481,6550C3407,6551 3369,6567 3313,6622C3284,6651 3262,6680 3264,6686C3266,6692 3249,6719 3224,6745C3200,6771 3178,6800 3175,6809C3172,6818 3150,6847 3124,6873C3096,6902 3080,6927 3084,6936C3087,6944 3107,6976 3128,7008C3149,7039 3200,7130 3240,7210C3280,7289 3330,7382 3350,7415C3448,7577 3478,7643 3485,7716C3491,7772 3489,7789 3477,7801C3469,7810 3449,7841 3433,7871C3417,7901 3392,7944 3377,7967C3362,7991 3350,8014 3350,8019C3350,8031 3374,8037 3423,8039C3457,8040 3460,8038 3460,8011ZM3022,7932C3054,7904 3075,7878 3072,7870C3070,7862 3054,7834 3038,7808C3016,7773 3001,7760 2985,7760C2965,7760 2961,7767 2951,7826C2944,7863 2941,7895 2944,7897C2947,7900 2945,7912 2940,7924C2932,7946 2943,7980 2959,7980C2963,7980 2992,7958 3022,7932ZM4128,7910C4145,7899 4160,7885 4160,7879C4160,7863 4098,7770 4088,7770C4083,7770 4068,7782 4055,7798C4029,7826 4029,7845 4052,7903C4064,7935 4083,7937 4128,7910ZM2417,7872C2424,7868 2427,7853 2425,7837C2421,7815 2423,7812 2437,7817C2452,7823 2453,7821 2442,7808C2432,7796 2432,7791 2441,7788C2450,7785 2448,7777 2436,7759C2419,7732 2423,7718 2446,7727C2457,7731 2460,7724 2458,7699C2457,7680 2460,7635 2464,7598C2468,7555 2467,7523 2460,7510C2452,7494 2452,7490 2464,7490C2473,7490 2481,7475 2485,7448C2494,7389 2567,7028 2584,6957C2593,6919 2594,6897 2587,6893C2582,6890 2573,6895 2568,6904C2563,6913 2555,6920 2550,6920C2533,6920 2460,6974 2460,6987C2460,6994 2456,7000 2451,7000C2432,7000 2320,7102 2266,7169C2235,7208 2210,7241 2210,7244C2210,7247 2200,7261 2188,7276C2175,7290 2152,7321 2135,7344C2119,7367 2090,7406 2071,7431C2033,7481 1980,7590 1980,7619C1980,7643 2001,7664 2095,7735C2175,7795 2203,7810 2285,7839C2317,7851 2348,7864 2354,7870C2366,7882 2400,7883 2417,7872ZM3213,7746C3231,7723 3240,7699 3240,7675C3240,7642 3236,7637 3194,7619C3168,7607 3138,7601 3126,7604C3089,7613 3052,7648 3040,7686C3027,7726 3033,7746 3078,7807L3102,7840L3144,7810C3168,7794 3199,7766 3213,7746ZM2980,7721C2980,7715 2976,7708 2970,7705C2965,7702 2960,7706 2960,7714C2960,7723 2965,7730 2970,7730C2976,7730 2980,7726 2980,7721ZM1989,7531C2017,7470 2089,7358 2141,7295C2168,7262 2201,7218 2215,7197C2264,7125 2452,6947 2542,6888C2604,6847 2624,6819 2606,6795C2589,6771 2556,6780 2506,6822C2423,6891 2322,6986 2250,7064C2209,7109 2163,7156 2147,7169C2132,7182 2107,7216 2093,7244C2079,7272 2059,7301 2049,7308C2039,7315 2022,7344 2012,7373C2001,7401 1982,7445 1971,7470C1949,7519 1942,7586 1961,7574C1967,7571 1980,7551 1989,7531ZM2517,7438C2514,7430 2511,7433 2511,7444C2510,7455 2513,7461 2516,7457C2519,7454 2520,7445 2517,7438ZM1953,7403C1967,7387 1986,7359 1994,7340C2002,7321 2041,7265 2079,7215L2149,7125L2123,7106C2109,7095 2075,7067 2046,7043C1971,6978 1962,6974 1951,7004C1934,7048 1917,7047 1925,7003C1931,6965 1929,6962 1886,6927C1846,6894 1835,6890 1784,6890C1744,6890 1718,6884 1693,6869L1659,6848L1665,6884C1675,6935 1663,6984 1633,7020C1619,7037 1553,7088 1486,7133C1420,7178 1352,7226 1335,7240C1319,7254 1279,7281 1248,7300C1196,7331 1177,7350 1198,7350C1313,7353 1576,7373 1648,7385C1880,7422 1915,7428 1921,7429C1924,7430 1938,7418 1953,7403ZM2387,6894C2424,6862 2459,6830 2463,6823C2467,6816 2477,6810 2484,6810C2491,6810 2507,6799 2520,6786C2532,6772 2556,6758 2571,6755C2607,6747 2630,6706 2630,6653C2630,6626 2636,6609 2651,6597C2662,6587 2669,6573 2667,6566C2664,6559 2671,6548 2681,6542C2691,6535 2700,6522 2700,6512C2700,6502 2711,6483 2724,6471C2738,6458 2746,6441 2743,6431C2740,6419 2745,6411 2759,6407C2791,6399 2784,6372 2746,6356C2721,6346 2709,6332 2700,6305C2693,6285 2690,6266 2694,6263C2697,6260 2702,6269 2705,6283C2712,6310 2738,6332 2777,6344C2794,6349 2808,6342 2839,6314L2880,6278L2861,6251C2851,6237 2831,6200 2816,6170C2746,6030 2735,6020 2685,6050C2667,6060 2631,6068 2595,6069C2527,6071 2491,6080 2367,6122C2299,6145 2274,6150 2257,6143C2231,6131 2168,6159 2103,6212C2080,6230 2043,6258 2021,6273C1987,6297 1981,6305 1986,6325C1996,6367 1957,6415 1885,6451C1850,6468 1814,6480 1806,6477C1783,6468 1741,6565 1731,6650C1726,6696 1728,6707 1745,6726C1756,6738 1781,6770 1800,6798C1824,6833 1853,6860 1893,6882C1965,6922 2079,7008 2133,7062L2174,7102L2246,7027C2286,6985 2349,6925 2387,6894ZM1238,6899C1263,6875 1268,6865 1260,6855C1251,6844 1240,6847 1204,6872C1168,6896 1161,6905 1171,6916C1188,6937 1201,6933 1238,6899ZM1185,6857C1232,6830 1239,6809 1209,6781C1179,6753 1171,6754 1127,6791C1094,6818 1091,6824 1102,6843C1112,6864 1129,6880 1140,6880C1143,6880 1163,6869 1185,6857ZM1780,6827C1780,6819 1771,6805 1759,6794C1724,6762 1711,6726 1709,6654C1706,6564 1728,6514 1809,6433C1842,6398 1870,6362 1870,6352C1870,6343 1854,6312 1835,6285C1816,6257 1789,6218 1775,6198C1761,6177 1746,6160 1741,6160C1733,6160 1708,6188 1665,6245C1594,6340 1517,6495 1525,6527C1528,6539 1526,6552 1520,6555C1515,6558 1510,6583 1510,6609C1510,6646 1516,6663 1535,6684C1549,6699 1560,6715 1560,6719C1560,6724 1571,6731 1585,6734C1598,6737 1624,6753 1642,6769C1678,6799 1747,6839 1768,6840C1774,6840 1780,6834 1780,6827ZM3993,6500C4060,6357 4180,6056 4180,6031C4181,5982 4262,5800 4306,5747C4331,5717 4370,5636 4370,5614C4370,5606 4361,5600 4349,5600C4337,5600 4301,5574 4266,5540C4193,5470 4207,5465 4116,5603C4085,5651 3993,5772 3913,5872C3739,6088 3710,6131 3638,6275C3564,6423 3535,6512 3551,6538C3562,6556 3572,6558 3659,6554C3712,6552 3786,6555 3823,6562C3897,6574 3909,6587 3911,6648C3912,6671 3915,6668 3935,6625C3947,6598 3973,6541 3993,6500ZM1430,6550C1430,6545 1426,6540 1420,6540C1415,6540 1410,6545 1410,6550C1410,6556 1415,6560 1420,6560C1426,6560 1430,6556 1430,6550ZM3463,6534C3501,6529 3510,6523 3515,6502C3518,6489 3557,6396 3602,6296C3678,6126 3740,6020 3790,5975C3802,5964 3846,5910 3888,5855C3930,5800 3983,5733 4008,5706C4032,5678 4058,5642 4067,5626C4075,5609 4099,5570 4120,5539C4173,5461 4260,5267 4248,5255C4243,5250 4142,5384 4097,5455C4066,5504 4005,5582 3965,5624C3939,5651 3785,5867 3725,5960C3699,6001 3662,6058 3645,6085C3627,6113 3575,6194 3528,6265C3482,6337 3426,6424 3403,6459C3380,6495 3363,6527 3366,6532C3372,6542 3401,6542 3463,6534ZM1530,6425C1537,6403 1563,6346 1588,6298L1633,6211L1615,6171C1598,6133 1564,6092 1556,6101C1532,6129 1466,6256 1451,6304C1413,6422 1413,6427 1456,6464C1500,6502 1507,6499 1530,6425ZM1942,6386C1972,6363 1978,6332 1955,6324C1947,6320 1940,6313 1940,6306C1940,6300 1911,6261 1877,6220C1842,6179 1811,6137 1807,6128C1800,6109 1775,6104 1765,6120C1757,6133 1783,6180 1816,6210C1849,6240 1910,6333 1910,6353C1910,6361 1901,6375 1890,6385C1844,6426 1889,6427 1942,6386ZM2004,6245C2021,6231 2042,6214 2050,6207C2058,6199 2098,6173 2137,6149C2177,6125 2210,6101 2210,6096C2210,6079 2149,5958 2129,5937C2110,5917 2108,5916 2077,5932C2060,5941 2035,5952 2022,5955C2010,5959 1979,5977 1954,5996C1929,6016 1891,6040 1869,6052C1827,6074 1823,6084 1843,6122C1860,6155 1953,6269 1964,6269C1968,6270 1986,6259 2004,6245ZM1713,6143C1734,6123 1750,6099 1750,6089C1750,6064 1634,5911 1607,5901C1578,5890 1430,5877 1430,5885C1430,5889 1463,5929 1504,5975C1544,6020 1596,6085 1619,6119C1642,6152 1664,6180 1669,6180C1673,6180 1693,6164 1713,6143ZM2425,6080C2458,6070 2517,6056 2555,6050C2594,6044 2631,6037 2637,6035C2653,6030 2632,5975 2573,5869C2533,5798 2527,5792 2491,5786C2432,5777 2344,5797 2251,5842L2168,5882L2173,5916C2181,5962 2236,6070 2265,6097C2292,6120 2296,6120 2425,6080ZM1876,6033C1977,5963 2045,5920 2081,5903C2101,5894 2121,5877 2126,5866C2137,5841 2292,5787 2407,5767L2484,5755L2507,5681C2520,5641 2536,5600 2543,5589C2555,5573 2556,5576 2554,5617C2552,5642 2546,5676 2540,5691C2525,5726 2533,5750 2558,5750C2569,5750 2583,5757 2590,5765C2597,5773 2618,5782 2639,5785C2659,5789 2684,5793 2695,5795C2726,5802 2770,5848 2770,5874C2770,5910 2800,5939 2840,5942C2874,5945 2874,5945 2883,5893C2888,5864 2896,5840 2901,5840C2922,5840 2907,5799 2878,5776C2843,5750 2701,5674 2672,5667C2662,5664 2666,5662 2681,5661C2696,5661 2743,5678 2786,5700C2908,5762 2981,5791 2997,5782C3019,5769 3099,5667 3094,5658C3091,5654 3080,5650 3069,5650C3058,5650 3019,5634 2981,5615C2944,5596 2911,5580 2907,5580C2892,5580 2643,5427 2603,5393C2577,5372 2560,5363 2560,5371C2560,5391 2569,5400 2634,5450C2697,5498 2695,5514 2630,5482C2587,5461 2575,5467 2584,5505C2591,5531 2583,5560 2569,5560C2564,5560 2560,5547 2560,5530C2560,5500 2547,5462 2522,5423C2507,5400 2491,5402 2458,5432C2438,5451 2322,5530 2315,5530C2311,5530 2297,5539 2283,5550C2269,5561 2242,5572 2221,5576C2201,5580 2173,5589 2159,5596C2145,5603 2080,5623 2014,5641C1902,5672 1886,5673 1730,5673C1539,5672 1455,5661 1386,5625C1327,5594 1326,5595 1309,5706C1291,5829 1294,5834 1387,5848C1430,5855 1488,5860 1515,5860C1607,5860 1634,5874 1700,5955C1753,6020 1804,6070 1817,6070C1820,6070 1846,6053 1876,6033ZM1110,5764C1131,5701 1183,5627 1231,5595C1255,5579 1277,5564 1279,5563C1282,5561 1262,5540 1235,5517C1156,5449 1133,5424 1115,5390C1106,5372 1095,5362 1091,5366C1075,5385 1021,5609 1014,5681C1006,5773 1032,5946 1064,6005L1085,6045L1091,5924C1095,5858 1103,5786 1110,5764ZM1438,5984C1450,5980 1460,5974 1460,5970C1460,5954 1358,5877 1328,5871C1311,5867 1288,5853 1277,5838C1259,5814 1259,5806 1269,5726C1276,5678 1284,5632 1287,5623C1295,5602 1270,5611 1230,5643C1200,5667 1136,5762 1126,5797C1113,5838 1173,5925 1235,5957C1293,5988 1380,5999 1438,5984ZM2728,5984C2749,5978 2751,5973 2745,5936C2732,5848 2728,5840 2700,5825C2671,5810 2600,5804 2600,5816C2600,5820 2617,5849 2639,5880C2660,5912 2680,5950 2684,5964C2691,5992 2693,5993 2728,5984ZM1875,5640C2014,5618 2120,5588 2176,5554C2207,5535 2235,5520 2238,5520C2241,5520 2258,5509 2276,5495C2294,5481 2312,5470 2315,5470C2327,5470 2445,5381 2471,5353C2485,5338 2515,5310 2537,5292C2577,5260 2583,5248 2600,5160C2605,5135 2618,5075 2630,5026C2641,4976 2650,4925 2648,4911C2645,4886 2643,4887 2583,4943C2543,4982 2509,5026 2485,5073C2445,5150 2396,5203 2341,5227C2323,5235 2296,5250 2281,5260C2267,5270 2230,5286 2200,5295C2128,5318 2127,5318 2110,5329C2067,5356 2015,5370 1919,5380C1818,5392 1809,5391 1694,5365C1629,5350 1559,5328 1540,5316C1521,5305 1485,5286 1460,5274C1397,5245 1351,5198 1296,5108C1249,5031 1237,5020 1225,5040C1222,5046 1214,5050 1209,5050C1203,5050 1202,5046 1205,5040C1208,5035 1207,5030 1201,5030C1195,5030 1191,5045 1192,5063C1193,5081 1179,5136 1161,5187C1130,5275 1130,5280 1145,5315C1163,5360 1164,5371 1148,5368C1141,5366 1135,5372 1135,5380C1135,5389 1144,5395 1157,5394C1172,5394 1184,5405 1199,5434C1211,5459 1233,5483 1255,5494C1275,5505 1296,5522 1301,5532C1306,5542 1319,5550 1328,5550C1338,5550 1372,5566 1404,5585C1479,5630 1521,5641 1644,5646C1699,5649 1746,5653 1748,5655C1751,5657 1764,5657 1779,5655C1793,5653 1837,5646 1875,5640ZM3275,5574C3291,5561 3311,5545 3318,5539C3341,5520 3330,5511 3280,5504C3208,5495 3218,5480 3298,5480C3335,5480 3383,5475 3404,5469C3462,5453 3531,5378 3562,5299C3576,5264 3585,5233 3583,5231C3581,5228 3569,5237 3556,5249C3490,5311 3129,5337 2945,5293C2831,5266 2754,5230 2699,5180C2655,5140 2640,5137 2640,5170C2640,5181 2629,5215 2615,5246C2601,5277 2590,5307 2590,5313C2590,5326 2680,5420 2692,5420C2697,5420 2746,5449 2803,5484C2859,5520 2922,5552 2943,5555C2963,5559 2983,5566 2986,5571C2989,5576 2996,5578 3001,5574C3006,5571 3021,5575 3034,5583C3063,5602 3098,5607 3180,5602C3229,5599 3252,5592 3275,5574ZM4489,5571C4508,5566 4516,5554 4526,5515C4543,5444 4586,5331 4605,5310C4634,5278 4621,5242 4542,5144C4511,5105 4495,5103 4420,5129C4368,5147 4363,5151 4330,5216C4311,5254 4292,5287 4289,5290C4279,5298 4220,5418 4220,5430C4220,5446 4291,5514 4333,5538C4354,5550 4384,5560 4400,5560C4416,5560 4432,5565 4435,5570C4442,5581 4453,5581 4489,5571ZM4026,5472C4004,5467 3996,5475 4005,5490C4010,5498 4016,5497 4027,5488C4042,5476 4041,5475 4026,5472ZM4060,5425C4075,5417 4108,5387 4132,5358C4190,5288 4272,5161 4266,5151C4263,5147 4235,5140 4203,5136C4166,5132 4132,5120 4109,5104C4069,5076 4026,5004 4016,4948C4012,4927 4006,4910 4002,4910C3992,4911 3875,5079 3845,5137C3831,5163 3815,5189 3809,5195C3796,5208 3798,5226 3813,5242C3820,5249 3843,5283 3864,5317C3906,5386 3921,5401 3965,5424C4002,5444 4023,5444 4060,5425ZM1140,5335C1140,5327 1136,5320 1130,5320C1125,5320 1123,5327 1126,5335C1130,5343 1134,5350 1136,5350C1138,5350 1140,5343 1140,5335ZM3389,5270C3455,5256 3507,5239 3535,5221C3580,5193 3667,5096 3728,5007C3845,4836 3951,4673 3988,4606C4016,4555 4036,4530 4045,4534C4053,4537 4063,4527 4070,4509C4077,4493 4086,4480 4091,4480C4096,4480 4100,4474 4100,4467C4100,4460 4122,4430 4150,4400C4177,4370 4205,4334 4212,4320C4219,4306 4235,4281 4247,4264C4260,4247 4270,4226 4270,4218C4270,4209 4277,4200 4285,4196C4293,4193 4300,4183 4300,4173C4300,4163 4307,4142 4315,4126C4324,4110 4328,4090 4325,4081C4322,4072 4343,4030 4374,3983C4448,3870 4445,3860 4327,3826C4199,3788 4117,3758 4022,3712C3990,3697 3920,3628 3869,3561L3842,3527L3813,3556C3797,3572 3750,3628 3708,3680C3666,3732 3523,3881 3389,4010C3085,4304 3092,4298 3052,4343C3034,4363 3001,4392 2979,4407C2957,4421 2923,4456 2904,4484C2826,4598 2776,4665 2763,4673C2756,4677 2750,4685 2750,4690C2750,4696 2729,4727 2703,4760C2661,4815 2658,4821 2672,4837C2686,4853 2686,4866 2674,4965C2666,5025 2657,5076 2655,5079C2652,5081 2668,5101 2691,5122C2762,5189 2880,5245 3035,5286C3103,5304 3259,5297 3389,5270ZM4799,5267C4869,5253 4878,5243 4879,5181C4880,5143 4857,5058 4829,4993C4819,4970 4807,4933 4804,4911C4800,4888 4796,4870 4795,4870C4775,4870 4755,4891 4734,4931C4713,4973 4710,4990 4714,5050C4718,5114 4717,5120 4699,5120C4687,5120 4676,5110 4670,5095C4662,5073 4655,5070 4609,5070C4581,5070 4560,5073 4562,5078C4590,5139 4643,5230 4650,5230C4656,5230 4660,5239 4660,5249C4660,5267 4678,5276 4720,5278C4728,5278 4764,5273 4799,5267ZM5090,5126C5090,5123 5086,5118 5080,5115C5075,5112 5070,5114 5070,5119C5070,5125 5075,5130 5080,5130C5086,5130 5090,5128 5090,5126ZM4363,5110C4462,5098 4496,5082 4505,5040C4514,4998 4599,4918 4664,4889C4719,4865 4722,4862 4704,4835C4694,4820 4675,4809 4650,4805C4611,4798 4560,4818 4469,4876C4434,4898 4431,4898 4417,4882C4408,4872 4392,4845 4382,4821L4362,4778L4392,4692C4424,4597 4447,4566 4500,4544C4519,4536 4544,4521 4555,4511C4566,4501 4597,4484 4624,4474C4681,4453 4790,4385 4790,4370C4790,4342 4639,4366 4500,4415C4464,4428 4418,4441 4397,4445C4366,4450 4352,4460 4327,4496C4310,4520 4290,4540 4283,4540C4265,4540 4266,4536 4296,4489C4310,4467 4337,4440 4356,4428C4374,4417 4390,4406 4390,4404C4390,4396 4324,4413 4313,4424C4297,4439 4072,4796 4048,4842C4035,4868 4033,4886 4039,4902C4043,4915 4050,4946 4054,4971C4062,5028 4094,5061 4175,5094C4244,5123 4246,5123 4363,5110ZM4920,4990C4920,4952 4917,4920 4914,4920C4911,4920 4900,4930 4889,4943C4876,4958 4872,4974 4876,4995C4886,5049 4891,5060 4906,5060C4917,5060 4920,5044 4920,4990ZM4660,4985C4660,4949 4656,4920 4650,4920C4645,4920 4622,4943 4600,4972L4559,5023L4587,5036C4602,5043 4625,5049 4638,5049C4659,5050 4660,5046 4660,4985ZM5540,5016C5540,5014 5537,5005 5534,4996C5525,4973 5510,4976 5510,5000C5510,5011 5517,5020 5525,5020C5533,5020 5540,5018 5540,5016ZM5132,4989C5150,4979 5152,4972 5145,4912C5141,4875 5136,4842 5134,4838C5124,4823 5086,4846 5058,4884C5029,4925 5029,4925 5049,4939C5061,4946 5070,4960 5070,4970C5070,5001 5094,5009 5132,4989ZM4921,4857C4933,4834 4945,4813 4949,4810C4952,4807 4965,4784 4977,4758C5001,4708 5020,4696 5020,4731C5020,4744 5025,4750 5033,4746C5039,4743 5053,4737 5062,4734C5081,4727 5080,4712 5058,4637C5039,4573 4982,4566 4941,4621C4929,4637 4902,4684 4880,4725C4839,4803 4829,4861 4850,4901C4865,4928 4894,4911 4921,4857ZM4814,4814C4818,4805 4818,4795 4815,4792C4809,4786 4780,4810 4780,4821C4780,4837 4808,4831 4814,4814ZM5484,4796C5516,4767 5591,4657 5609,4612C5621,4583 5621,4577 5609,4569C5586,4555 5562,4559 5547,4580C5539,4591 5530,4597 5527,4593C5523,4590 5520,4597 5520,4609C5520,4621 5511,4648 5500,4669C5471,4727 5442,4808 5448,4814C5456,4823 5457,4822 5484,4796ZM4578,4783C4635,4777 4644,4769 4655,4707C4664,4662 4651,4659 4608,4695C4592,4709 4572,4720 4564,4720C4542,4720 4547,4658 4572,4605C4599,4549 4590,4537 4549,4576C4511,4611 4474,4689 4465,4755L4457,4803L4491,4796C4510,4792 4549,4787 4578,4783ZM4804,4770C4839,4744 4940,4609 4940,4589C4940,4585 4924,4571 4903,4559L4867,4536L4843,4566C4817,4597 4800,4634 4769,4720C4738,4809 4742,4816 4804,4770ZM4439,4725C4440,4709 4451,4671 4465,4641C4490,4589 4493,4566 4473,4592C4454,4618 4409,4762 4415,4779C4421,4793 4423,4793 4430,4775C4435,4764 4439,4742 4439,4725ZM4728,4713C4744,4681 4773,4629 4793,4598C4835,4534 4839,4510 4811,4510C4778,4510 4713,4609 4686,4701C4666,4766 4666,4770 4685,4770C4694,4770 4713,4746 4728,4713ZM4646,4642C4684,4624 4703,4609 4720,4577C4733,4554 4749,4531 4757,4527C4772,4518 4774,4501 4761,4482C4750,4464 4687,4495 4649,4537C4606,4582 4560,4681 4588,4668C4592,4666 4618,4654 4646,4642ZM4453,4353C4462,4348 4461,4255 4451,4221C4440,4182 4422,4185 4415,4227C4412,4248 4400,4284 4389,4308C4362,4367 4364,4372 4408,4364C4428,4360 4448,4355 4453,4353ZM2810,4314C2810,4306 2805,4302 2800,4305C2794,4309 2792,4316 2795,4321C2804,4335 2810,4332 2810,4314ZM4591,3823C4603,3788 4606,3642 4595,3632C4592,3629 4569,3627 4543,3627C4454,3629 4346,3582 4214,3483C4139,3428 4068,3382 4007,3351C3984,3339 3972,3338 3937,3349C3914,3355 3878,3365 3857,3369C3836,3374 3817,3380 3813,3383C3788,3409 4020,3666 4105,3705C4173,3737 4309,3780 4340,3780C4354,3780 4380,3789 4398,3800C4416,3811 4436,3818 4441,3814C4447,3811 4459,3815 4470,3825C4488,3841 4531,3858 4562,3859C4572,3860 4583,3847 4591,3823ZM3204,3675C3237,3661 3240,3657 3240,3617C3240,3594 3233,3553 3225,3526C3217,3499 3210,3465 3210,3450C3210,3412 3176,3370 3150,3377C3127,3383 3080,3373 3080,3362C3080,3346 3144,3328 3200,3328C3241,3328 3260,3324 3264,3314C3267,3306 3274,3300 3280,3300C3286,3300 3314,3281 3341,3258C3400,3208 3420,3155 3395,3116C3384,3100 3381,3079 3385,3049C3388,3026 3387,3004 3382,3001C3375,2996 3329,2836 3326,2805C3325,2800 3321,2791 3315,2787C3309,2781 3310,2776 3319,2773C3330,2769 3327,2763 3309,2749C3289,2733 3287,2729 3300,2720C3309,2714 3310,2710 3303,2710C3297,2710 3285,2682 3277,2648L3263,2585L3212,2588C3181,2589 3160,2586 3160,2580C3160,2560 3119,2570 3110,2593L3101,2615L3094,2593C3086,2566 3072,2563 3063,2586C3057,2601 3055,2601 3043,2584C3036,2574 3030,2570 3030,2574C3030,2579 3024,2577 3016,2571C3001,2558 2920,2559 2920,2572C2920,2577 2912,2576 2901,2571C2891,2565 2881,2562 2879,2565C2872,2571 2768,2572 2713,2566C2665,2561 2660,2562 2660,2580C2660,2592 2654,2603 2646,2606C2638,2609 2634,2619 2637,2629C2639,2638 2626,2668 2607,2696C2588,2723 2563,2766 2552,2791C2533,2833 2532,2835 2550,2842C2560,2846 2570,2863 2573,2882C2580,2922 2612,3242 2614,3287C2615,3313 2619,3319 2632,3314C2644,3310 2647,3314 2643,3329C2638,3348 2636,3348 2609,3334C2592,3326 2580,3311 2580,3301C2580,3279 2563,3274 2450,3265C2409,3262 2363,3257 2349,3254C2325,3250 2319,3255 2290,3306C2267,3347 2260,3369 2265,3389C2282,3459 2386,3576 2501,3655L2565,3699L2867,3694C3104,3691 3176,3687 3204,3675ZM4741,3648C4772,3619 4810,3571 4826,3541C4851,3494 4855,3476 4854,3417C4851,3308 4833,3309 4772,3423C4755,3454 4729,3492 4716,3507C4702,3521 4688,3545 4685,3558C4682,3572 4670,3594 4660,3607C4645,3626 4644,3636 4653,3665C4659,3684 4668,3700 4674,3700C4680,3700 4711,3676 4741,3648ZM2586,3235C2588,3224 2585,3202 2580,3185C2575,3169 2568,3135 2565,3110C2556,3024 2538,2950 2527,2950C2520,2950 2504,2959 2490,2970C2462,2991 2471,3011 2500,2992C2539,2968 2519,2989 2448,3046C2408,3079 2372,3109 2367,3115C2363,3120 2361,3150 2362,3180L2365,3235L2410,3236C2435,3237 2473,3243 2495,3248C2553,3263 2583,3259 2586,3235ZM4924,3236C4939,3223 4950,3208 4950,3203C4950,3198 4964,3181 4980,3165C5019,3127 5018,3107 4973,3051C4952,3026 4913,2976 4885,2940C4761,2775 4746,2760 4705,2748C4662,2736 4637,2733 4544,2728C4498,2726 4483,2721 4484,2710C4485,2701 4469,2693 4436,2688C4381,2678 4384,2677 4375,2711C4369,2734 4373,2738 4412,2749C4480,2770 4563,2802 4585,2817C4602,2828 4602,2830 4587,2830C4565,2830 4565,2849 4588,2857C4604,2863 4678,2918 4708,2947C4715,2954 4729,2965 4739,2972C4764,2991 4838,3087 4861,3131C4871,3152 4880,3190 4880,3215C4880,3266 4888,3270 4924,3236ZM4047,3105C4049,3086 4045,3070 4040,3070C4034,3070 4030,3086 4030,3105C4030,3150 4044,3150 4047,3105ZM2370,3051C2370,3036 2492,2920 2507,2920C2518,2920 2521,2905 2520,2858C2518,2805 2523,2786 2550,2735C2568,2702 2583,2668 2584,2660C2587,2631 2612,2570 2621,2570C2626,2570 2630,2563 2630,2555C2630,2547 2633,2540 2638,2539C2664,2536 2814,2532 2917,2531L3039,2530L3033,2472C3030,2441 3026,2414 3025,2412C3024,2411 2993,2407 2957,2403C2912,2399 2886,2401 2876,2409C2868,2416 2851,2418 2838,2415C2802,2406 2684,2435 2640,2464C2618,2478 2596,2490 2591,2490C2576,2490 2465,2557 2450,2575C2443,2583 2433,2590 2428,2590C2415,2590 2381,2632 2380,2648C2380,2654 2376,2660 2370,2660C2365,2660 2352,2677 2341,2698C2330,2718 2301,2761 2276,2794C2243,2835 2230,2862 2230,2884C2230,2902 2225,2921 2218,2928C2203,2943 2244,2989 2309,3031C2356,3061 2370,3066 2370,3051ZM3411,2859C3405,2843 3401,2841 3401,2852C3400,2874 3413,2907 3417,2894C3419,2888 3416,2872 3411,2859ZM2211,2828C2221,2815 2229,2795 2230,2783C2230,2764 2263,2717 2319,2655C2388,2578 2553,2454 2571,2466C2576,2469 2592,2458 2608,2442C2625,2423 2650,2410 2675,2406C2697,2402 2720,2398 2725,2397C2742,2393 2760,2379 2760,2370C2760,2358 2704,2329 2696,2337C2693,2340 2678,2331 2664,2317C2649,2302 2633,2290 2628,2290C2622,2290 2597,2269 2571,2244C2546,2218 2496,2174 2460,2145C2424,2116 2348,2048 2290,1994C2232,1940 2172,1884 2155,1869C2139,1854 2105,1824 2080,1801C2055,1779 2030,1760 2024,1760C2018,1760 2003,1748 1989,1734C1956,1698 1786,1559 1744,1534C1723,1521 1714,1510 1720,1504C1726,1498 1715,1486 1692,1470C1672,1457 1646,1438 1634,1428C1614,1410 1613,1410 1585,1434C1570,1447 1561,1463 1564,1469C1568,1475 1553,1497 1530,1517C1454,1586 1365,1675 1339,1708C1308,1746 1311,1771 1346,1799C1369,1817 1380,1837 1360,1825C1355,1822 1350,1824 1350,1829C1350,1835 1355,1840 1361,1840C1367,1840 1369,1847 1366,1856C1363,1864 1369,1889 1380,1910C1394,1938 1396,1950 1387,1953C1378,1957 1378,1960 1388,1971C1397,1981 1400,1981 1400,1971C1400,1964 1405,1962 1411,1966C1417,1969 1419,1981 1417,1992C1410,2018 1419,2040 1437,2040C1445,2040 1449,2044 1445,2049C1442,2054 1444,2061 1450,2065C1456,2069 1458,2076 1455,2081C1451,2086 1454,2090 1459,2090C1465,2090 1470,2096 1470,2103C1470,2110 1479,2131 1490,2150C1500,2169 1527,2221 1550,2265C1572,2309 1615,2377 1645,2415C1675,2454 1704,2494 1709,2505C1718,2526 1802,2600 1815,2600C1826,2600 1919,2669 1990,2730C2078,2806 2143,2847 2178,2849C2186,2850 2200,2840 2211,2828Z" style="fill-rule:nonzero;"/>
            <path d="M3782,9394C3765,9382 3752,9381 3725,9389C3696,9397 3688,9396 3683,9384C3676,9365 3688,9352 3715,9350C3748,9346 3756,9349 3786,9375C3818,9402 3815,9418 3782,9394Z" style="fill-rule:nonzero;"/>
            <path d="M3610,9370C3586,9326 3630,9259 3697,9237C3743,9222 3746,9222 3767,9242C3780,9254 3787,9266 3784,9269C3781,9272 3775,9268 3770,9261C3763,9249 3754,9249 3716,9264C3661,9285 3618,9335 3627,9368C3634,9396 3624,9397 3610,9370Z" style="fill-rule:nonzero;"/>
            <path d="M3833,9348C3814,9323 3798,9287 3809,9294C3815,9298 3827,9314 3835,9331C3851,9361 3850,9369 3833,9348Z" style="fill-rule:nonzero;"/>
            <path d="M3520,9268C3520,9240 3550,9160 3573,9123C3604,9074 3637,9052 3687,9047C3708,9044 3717,9045 3707,9047C3697,9049 3666,9075 3637,9103C3597,9142 3581,9167 3570,9205C3556,9257 3544,9280 3529,9280C3524,9280 3520,9274 3520,9268Z" style="fill-rule:nonzero;"/>
            <path d="M3864,9055C3854,9047 3850,9040 3856,9040C3861,9040 3875,9047 3886,9055C3896,9063 3900,9070 3894,9070C3889,9070 3875,9063 3864,9055Z" style="fill-rule:nonzero;"/>
            <path d="M3811,8926C3793,8920 3760,8899 3738,8881L3698,8847L3722,8824C3754,8792 3830,8785 3885,8810C3907,8820 3938,8832 3952,8835C3967,8839 3986,8850 3996,8861C4010,8877 4011,8882 4000,8895C3964,8938 3882,8952 3811,8926ZM3922,8904C3927,8901 3930,8886 3930,8871C3930,8838 3905,8825 3824,8816C3767,8809 3740,8815 3740,8835C3740,8859 3790,8909 3818,8913C3846,8918 3909,8912 3922,8904Z" style="fill-rule:nonzero;"/>
            <path d="M3820,8632C3783,8591 3779,8578 3813,8609C3833,8628 3850,8645 3850,8647C3850,8655 3833,8647 3820,8632Z" style="fill-rule:nonzero;"/>
            <path d="M3877,7223C3858,7218 3622,7081 3552,7034C3510,7006 3410,6911 3410,6898C3410,6869 3472,6905 3565,6990C3670,7084 3706,7109 3832,7172C3917,7215 3938,7239 3877,7223Z" style="fill-rule:nonzero;"/>
            <path d="M2393,7416C2375,7386 2360,7354 2360,7344C2360,7325 2371,7341 2420,7433C2451,7490 2429,7477 2393,7416Z" style="fill-rule:nonzero;"/>
            <path d="M2336,7314C2332,7305 2332,7295 2335,7292C2337,7289 2342,7295 2346,7304C2350,7313 2350,7323 2347,7326C2345,7329 2340,7323 2336,7314Z" style="fill-rule:nonzero;"/>
            <path d="M1822,5783C1810,5781 1802,5774 1805,5769C1809,5764 1818,5764 1829,5770C1839,5775 1849,5778 1851,5776C1861,5766 1960,5761 1960,5770C1960,5776 1947,5780 1931,5780C1915,5780 1890,5782 1874,5784C1858,5786 1835,5786 1822,5783Z" style="fill-rule:nonzero;"/>
            <path d="M1710,5770C1710,5764 1717,5760 1725,5760C1733,5760 1740,5762 1740,5764C1740,5766 1733,5770 1725,5774C1717,5777 1710,5775 1710,5770Z" style="fill-rule:nonzero;"/>
            <path d="M1990,5770C1990,5765 2005,5759 2023,5759C2040,5758 2068,5756 2083,5754C2102,5752 2110,5755 2107,5763C2102,5778 1990,5785 1990,5770Z" style="fill-rule:nonzero;"/>
            <path d="M2655,3360C2651,3354 2660,3350 2675,3350C2690,3350 2699,3354 2695,3360C2692,3366 2683,3370 2675,3370C2667,3370 2658,3366 2655,3360Z" style="fill-rule:nonzero;"/>
            <path d="M2733,3363C2709,3358 2701,3340 2723,3340C2729,3340 2758,3347 2785,3354L2835,3368L2795,3368C2773,3367 2745,3365 2733,3363Z" style="fill-rule:nonzero;"/>
            <path d="M3040,3360C3040,3355 3047,3350 3055,3350C3063,3350 3070,3355 3070,3360C3070,3366 3063,3370 3055,3370C3047,3370 3040,3366 3040,3360Z" style="fill-rule:nonzero;"/>
            <path d="M3020,2649C3020,2644 3025,2642 3030,2645C3036,2648 3040,2653 3040,2656C3040,2658 3036,2660 3030,2660C3025,2660 3020,2655 3020,2649Z" style="fill-rule:nonzero;"/>
            <path d="M3007,2624C3003,2620 3000,2610 3000,2601C3000,2590 3003,2589 3011,2597C3017,2603 3021,2613 3018,2620C3016,2626 3011,2628 3007,2624Z" style="fill-rule:nonzero;"/>
            <path d="M3690,10539C3690,10528 3695,10509 3702,10497C3709,10485 3713,10466 3711,10454C3709,10431 3752,10350 3757,10367C3761,10379 3735,10489 3718,10533C3706,10565 3690,10569 3690,10539Z" style="fill-rule:nonzero;"/>
            <path d="M2420,9591C2401,9564 2382,9544 2379,9546C2375,9548 2362,9519 2350,9482C2338,9445 2324,9411 2321,9405C2317,9400 2303,9367 2290,9333C2276,9298 2260,9270 2253,9270C2239,9270 2170,9169 2170,9150C2170,9145 2167,9140 2162,9140C2158,9140 2146,9123 2135,9103C2124,9082 2107,9057 2097,9047C2077,9027 1995,8860 1985,8817C1981,8802 1974,8787 1969,8784C1964,8781 1960,8765 1960,8749C1960,8709 1973,8719 1990,8772C1998,8796 2015,8833 2028,8854C2042,8876 2059,8909 2067,8929C2075,8948 2097,8988 2116,9017C2135,9046 2150,9075 2150,9080C2150,9085 2156,9093 2163,9097C2169,9101 2186,9125 2199,9150C2249,9243 2266,9245 2256,9158C2232,8928 2230,8893 2239,8870C2247,8850 2249,8858 2249,8915C2250,8980 2297,9255 2322,9345C2337,9397 2412,9554 2445,9603C2482,9658 2461,9648 2420,9591Z" style="fill-rule:nonzero;"/>
            <path d="M1755,9099C1751,9093 1750,9087 1753,9084C1755,9081 1760,9086 1763,9095C1770,9112 1764,9115 1755,9099Z" style="fill-rule:nonzero;"/>
            <path d="M1724,9025C1715,8988 1724,8985 1737,9020C1743,9037 1744,9050 1739,9050C1734,9050 1728,9039 1724,9025Z" style="fill-rule:nonzero;"/>
            <path d="M1750,8990C1750,8984 1739,8970 1725,8958C1700,8936 1692,8906 1709,8896C1714,8893 1726,8910 1737,8935C1747,8960 1758,8980 1763,8980C1767,8980 1770,8985 1770,8990C1770,8996 1766,9000 1760,9000C1755,9000 1750,8995 1750,8990Z" style="fill-rule:nonzero;"/>
            <path d="M1820,8958C1820,8937 1822,8920 1824,8920C1833,8920 1836,8970 1829,8982C1823,8990 1820,8981 1820,8958Z" style="fill-rule:nonzero;"/>
            <path d="M1927,8983C1923,8980 1920,8970 1920,8962C1920,8953 1923,8950 1927,8954C1931,8958 1940,8946 1946,8928L1958,8895L1959,8927C1960,8977 1946,9002 1927,8983Z" style="fill-rule:nonzero;"/>
            <path d="M2513,8919C2491,8915 2453,8902 2430,8890C2386,8868 2300,8794 2300,8779C2300,8761 2329,8771 2335,8790C2339,8801 2354,8817 2369,8824C2384,8832 2402,8845 2409,8854C2416,8862 2443,8874 2471,8881C2498,8888 2520,8896 2520,8899C2520,8903 2532,8905 2548,8906C2645,8907 2703,8911 2698,8916C2688,8925 2558,8927 2513,8919Z" style="fill-rule:nonzero;"/>
            <path d="M1810,8850C1810,8787 1815,8779 1836,8808C1853,8830 1853,8840 1836,8840C1825,8840 1823,8849 1827,8875C1831,8898 1829,8910 1821,8910C1814,8910 1810,8888 1810,8850Z" style="fill-rule:nonzero;"/>
            <path d="M1870,8895C1862,8886 1862,8880 1868,8880C1880,8880 1894,8899 1887,8906C1885,8908 1877,8904 1870,8895Z" style="fill-rule:nonzero;"/>
            <path d="M4580,8820C4580,8801 4603,8794 4635,8804C4682,8819 4679,8825 4625,8825C4600,8825 4580,8823 4580,8820Z" style="fill-rule:nonzero;"/>
            <path d="M3040,8784C3040,8766 3099,8710 3118,8711C3131,8711 3132,8713 3120,8717C3112,8720 3091,8739 3073,8759C3055,8779 3041,8790 3040,8784Z" style="fill-rule:nonzero;"/>
            <path d="M2410,8766C2385,8759 2354,8748 2342,8741C2324,8731 2316,8731 2304,8741C2292,8751 2284,8748 2262,8727C2246,8712 2228,8700 2222,8700C2215,8700 2197,8689 2182,8675C2166,8661 2146,8644 2138,8637C2129,8631 2099,8590 2070,8547C2028,8484 2017,8456 2009,8407C2001,8350 2003,8342 2026,8305C2067,8242 2249,8073 2307,8044C2336,8030 2361,8013 2363,8007C2365,8000 2371,7998 2375,8002C2383,8010 2317,8076 2275,8101C2209,8142 2132,8232 2090,8317C2044,8413 2043,8436 2088,8494C2103,8513 2126,8544 2139,8562C2161,8592 2251,8670 2264,8670C2267,8670 2288,8683 2312,8699C2399,8756 2447,8766 2545,8744C2589,8734 2564,8754 2514,8768C2466,8782 2469,8782 2410,8766Z" style="fill-rule:nonzero;"/>
            <path d="M4717,8773C4714,8768 4715,8758 4720,8750C4724,8743 4726,8731 4723,8723C4720,8716 4725,8710 4734,8710C4744,8710 4750,8719 4750,8734C4750,8759 4726,8787 4717,8773Z" style="fill-rule:nonzero;"/>
            <path d="M4660,8734C4660,8720 4664,8711 4669,8714C4674,8717 4676,8729 4673,8740C4666,8768 4660,8765 4660,8734Z" style="fill-rule:nonzero;"/>
            <path d="M4347,8718C4339,8705 4321,8674 4307,8649C4263,8571 4195,8526 4195,8575C4195,8585 4189,8595 4183,8597C4175,8600 4170,8592 4170,8576C4170,8562 4175,8550 4180,8550C4186,8550 4190,8538 4190,8524C4190,8502 4192,8499 4205,8510C4213,8517 4220,8518 4220,8512C4220,8507 4213,8497 4205,8490C4188,8476 4185,8460 4199,8460C4204,8460 4218,8477 4230,8498C4263,8553 4333,8639 4347,8640C4363,8640 4366,8648 4375,8698C4383,8745 4369,8755 4347,8718Z" style="fill-rule:nonzero;"/>
            <path d="M3190,8545C3181,8518 3181,8506 3190,8496C3197,8486 3197,8481 3190,8478C3185,8477 3202,8451 3229,8421C3309,8334 3310,8329 3261,8274C3206,8211 3164,8147 3144,8094C3127,8051 3128,8049 3149,8027C3160,8014 3170,7999 3170,7994C3170,7988 3190,7966 3214,7943C3238,7921 3282,7870 3313,7829L3369,7754L3339,7670C3323,7623 3302,7571 3293,7553C3285,7536 3280,7516 3283,7508C3288,7493 3350,7623 3350,7650C3350,7659 3357,7687 3365,7710C3373,7733 3380,7758 3380,7765C3380,7779 3276,7920 3228,7970C3174,8027 3160,8052 3167,8080C3176,8118 3236,8207 3292,8267L3343,8320L3323,8343C3312,8355 3293,8381 3281,8402C3269,8422 3253,8441 3245,8444C3237,8447 3230,8456 3230,8463C3230,8471 3223,8484 3214,8491C3202,8501 3200,8514 3204,8542C3212,8590 3205,8591 3190,8545Z" style="fill-rule:nonzero;"/>
            <path d="M3169,8354C3157,8321 3165,8293 3190,8285C3236,8270 3281,8340 3244,8367C3214,8389 3181,8383 3169,8354ZM3228,8344C3231,8319 3215,8296 3201,8304C3189,8312 3186,8353 3197,8364C3208,8375 3225,8365 3228,8344Z" style="fill-rule:nonzero;"/>
            <path d="M896,7094C891,7080 892,7079 905,7090C922,7104 924,7110 911,7110C906,7110 899,7103 896,7094Z" style="fill-rule:nonzero;"/>
            <path d="M1127,6689C1134,6682 1142,6679 1145,6682C1148,6685 1143,6691 1133,6694C1119,6700 1118,6699 1127,6689Z" style="fill-rule:nonzero;"/>
            <path d="M5160,5233C5160,5229 5168,5212 5178,5195C5188,5179 5205,5144 5215,5118C5225,5091 5237,5070 5241,5070C5252,5070 5253,5084 5243,5094C5239,5097 5225,5130 5211,5167C5197,5203 5179,5235 5173,5238C5166,5240 5160,5238 5160,5233Z" style="fill-rule:nonzero;"/>
            <path d="M5307,4726C5300,4708 5308,4700 5334,4700C5347,4700 5374,4680 5402,4648C5450,4594 5470,4594 5425,4648C5411,4665 5400,4682 5400,4686C5400,4697 5338,4740 5323,4740C5317,4740 5310,4734 5307,4726Z" style="fill-rule:nonzero;"/>
            <path d="M5153,4625C5125,4597 5120,4585 5120,4544C5120,4517 5127,4484 5135,4470C5143,4456 5154,4435 5159,4423C5174,4390 5180,4395 5173,4435C5167,4475 5172,4477 5223,4455C5251,4444 5266,4443 5287,4451C5316,4462 5324,4456 5356,4404C5366,4388 5370,4387 5381,4398C5390,4406 5391,4413 5385,4418C5369,4429 5250,4600 5240,4625C5225,4663 5191,4663 5153,4625ZM5168,4580C5161,4570 5154,4563 5151,4565C5147,4569 5169,4600 5176,4600C5178,4600 5175,4591 5168,4580ZM5230,4585C5247,4565 5238,4549 5201,4527C5173,4511 5170,4511 5170,4525C5170,4546 5198,4600 5209,4600C5214,4600 5223,4593 5230,4585ZM5280,4510C5294,4484 5285,4470 5254,4470C5222,4470 5211,4498 5235,4516C5260,4535 5267,4534 5280,4510Z" style="fill-rule:nonzero;"/>
            <path d="M5455,4580C5458,4575 5463,4570 5466,4570C5468,4570 5470,4575 5470,4580C5470,4586 5465,4590 5459,4590C5454,4590 5452,4586 5455,4580Z" style="fill-rule:nonzero;"/>
            <path d="M2711,4538C2712,4531 2716,4514 2720,4500C2728,4476 2728,4476 2729,4507C2730,4524 2726,4542 2720,4545C2715,4548 2710,4545 2711,4538Z" style="fill-rule:nonzero;"/>
            <path d="M2740,4430C2746,4419 2753,4410 2756,4410C2758,4410 2756,4419 2750,4430C2744,4441 2737,4450 2734,4450C2732,4450 2734,4441 2740,4430Z" style="fill-rule:nonzero;"/>
            <path d="M2780,4436C2780,4428 2784,4419 2789,4416C2794,4412 2796,4419 2793,4430C2787,4453 2780,4456 2780,4436Z" style="fill-rule:nonzero;"/>
            <path d="M5110,4380C5110,4375 5115,4370 5121,4370C5126,4370 5128,4375 5125,4380C5122,4386 5117,4390 5114,4390C5112,4390 5110,4386 5110,4380Z" style="fill-rule:nonzero;"/>
            <path d="M5140,4351C5140,4332 5253,4270 5266,4282C5268,4285 5256,4293 5238,4300C5220,4307 5190,4324 5173,4337C5155,4350 5140,4357 5140,4351Z" style="fill-rule:nonzero;"/>
            <path d="M2896,4055C2904,4018 2910,4010 2910,4036C2910,4046 2905,4062 2900,4070C2892,4081 2891,4077 2896,4055Z" style="fill-rule:nonzero;"/>
            <path d="M4150,3074C4150,3066 4155,3062 4160,3065C4166,3068 4170,3075 4170,3081C4170,3086 4166,3090 4160,3090C4155,3090 4150,3083 4150,3074Z" style="fill-rule:nonzero;"/>
            <path d="M1591,2721C1550,2672 1550,2671 1569,2653C1579,2643 1589,2627 1591,2616C1593,2606 1604,2591 1616,2584C1635,2571 1636,2572 1633,2597C1630,2616 1636,2633 1650,2648C1680,2680 1666,2689 1634,2659C1614,2640 1607,2638 1600,2649C1590,2666 1597,2686 1627,2726C1640,2743 1650,2760 1650,2763C1650,2781 1628,2765 1591,2721Z" style="fill-rule:nonzero;"/>
            <path d="M1706,2673C1694,2661 1700,2640 1715,2640C1723,2640 1730,2646 1730,2654C1730,2671 1716,2682 1706,2673Z" style="fill-rule:nonzero;"/>
            <path d="M4530,2590C4530,2585 4535,2580 4541,2580C4546,2580 4548,2585 4545,2590C4542,2596 4537,2600 4534,2600C4532,2600 4530,2596 4530,2590Z" style="fill-rule:nonzero;"/>
            <path d="M1472,2548C1465,2541 1460,2519 1460,2498C1460,2466 1465,2457 1493,2440C1532,2416 1544,2415 1564,2436C1589,2460 1583,2479 1541,2521C1499,2563 1490,2566 1472,2548ZM1538,2502C1559,2474 1553,2440 1528,2440C1508,2440 1480,2472 1480,2495C1480,2539 1510,2542 1538,2502Z" style="fill-rule:nonzero;"/>
            <path d="M1582,2514C1586,2493 1604,2491 1608,2513C1610,2523 1605,2530 1595,2530C1585,2530 1580,2524 1582,2514Z" style="fill-rule:nonzero;"/>
            <path d="M1334,2456C1326,2442 1320,2421 1322,2408C1324,2389 1332,2384 1372,2380C1437,2372 1445,2362 1426,2315C1409,2276 1412,2258 1431,2277C1437,2283 1444,2305 1447,2327C1453,2374 1441,2387 1385,2392C1353,2394 1344,2399 1342,2416C1340,2427 1346,2443 1355,2450C1363,2457 1370,2466 1370,2471C1370,2488 1350,2480 1334,2456Z" style="fill-rule:nonzero;"/>
            <path d="M1483,2373C1492,2364 1502,2359 1506,2362C1516,2372 1500,2390 1482,2390C1467,2390 1467,2389 1483,2373Z" style="fill-rule:nonzero;"/>
            <path d="M2588,1998C2585,1980 2586,1954 2591,1940C2597,1920 2598,1924 2599,1963C2600,2009 2600,2010 2633,2010C2651,2010 2671,2005 2678,1998C2684,1992 2692,1989 2695,1992C2708,2005 2666,2030 2630,2030C2595,2030 2592,2028 2588,1998Z" style="fill-rule:nonzero;"/>
            <path d="M5582,1948C5577,1941 5555,1901 5534,1860C5514,1819 5487,1774 5474,1760C5452,1735 5410,1656 5371,1568C5346,1511 5345,1506 5365,1517C5383,1527 5490,1696 5490,1714C5490,1721 5498,1734 5508,1743C5528,1761 5557,1824 5583,1905C5600,1957 5600,1969 5582,1948Z" style="fill-rule:nonzero;"/>
            <path d="M2640,1925C2610,1903 2608,1900 2628,1900C2642,1900 2650,1894 2651,1883C2651,1869 2653,1870 2660,1888C2665,1900 2676,1913 2684,1916C2692,1919 2696,1928 2693,1936C2686,1954 2681,1953 2640,1925Z" style="fill-rule:nonzero;"/>
            <path d="M2476,1931C2473,1926 2473,1907 2477,1889L2484,1855L2490,1885C2494,1905 2501,1915 2513,1914C2534,1912 2535,1926 2514,1934C2492,1942 2482,1942 2476,1931Z" style="fill-rule:nonzero;"/>
            <path d="M2370,1918C2371,1911 2377,1887 2385,1865C2393,1843 2400,1818 2400,1810C2400,1785 2421,1718 2427,1723C2434,1731 2390,1919 2379,1925C2374,1929 2370,1925 2370,1918Z" style="fill-rule:nonzero;"/>
            <path d="M2547,1889C2551,1876 2555,1871 2558,1879C2560,1886 2557,1897 2552,1902C2544,1910 2543,1906 2547,1889Z" style="fill-rule:nonzero;"/>
            <path d="M1080,1873C1080,1856 1073,1837 1065,1830C1055,1822 1050,1800 1050,1766C1050,1738 1046,1699 1041,1680C1036,1661 1029,1633 1026,1619C1023,1603 1001,1581 968,1558C898,1511 819,1470 798,1470C779,1470 774,1455 789,1446C799,1439 796,1338 785,1320C782,1315 784,1310 789,1310C805,1310 802,1293 786,1287C779,1284 762,1289 749,1298C728,1313 727,1314 746,1321C762,1327 761,1329 738,1329C723,1330 709,1334 706,1339C698,1352 599,1360 579,1349C568,1344 560,1331 560,1322C560,1312 556,1300 551,1295C539,1283 474,1098 449,1005C422,904 410,881 381,866C367,858 321,820 280,781C239,742 204,710 202,710C192,710 110,634 110,624C110,617 103,610 95,606C87,603 80,596 80,590C80,572 108,579 136,605C151,619 167,630 171,630C175,630 229,677 289,735C350,793 403,840 409,840C414,840 425,852 433,868C441,883 455,909 464,925C473,942 480,963 480,973C480,983 487,1004 494,1019C502,1034 508,1056 508,1066C505,1098 562,1263 587,1298C600,1315 618,1330 627,1330C651,1330 761,1267 757,1255C755,1250 735,1244 712,1242C672,1239 670,1237 670,1206C670,1188 681,1152 694,1127C708,1102 716,1079 713,1076C710,1074 724,1044 744,1012C764,979 780,949 780,946C780,942 801,910 826,874C864,818 869,806 858,792C851,783 845,774 844,772C838,763 680,883 672,902C663,922 640,906 615,865C601,840 577,812 562,803C527,780 520,770 520,740C520,706 580,549 600,530C603,527 611,514 618,500C627,482 629,481 626,495C620,524 569,672 558,693C548,713 570,756 624,822C653,857 680,871 680,851C680,847 699,830 723,815C746,799 781,770 800,750C836,712 917,670 952,670C963,670 981,665 992,659C1015,647 1075,645 1121,655C1143,660 1150,658 1150,646C1150,628 1099,549 1054,498C1011,450 968,381 972,369C974,363 987,368 1002,379C1016,391 1033,400 1039,400C1061,400 1097,444 1136,518C1145,536 1162,556 1174,562C1201,577 1216,595 1242,648C1262,690 1262,693 1247,720C1232,744 1232,749 1245,754C1253,757 1260,764 1260,770C1260,777 1254,777 1239,770C1226,763 1199,761 1170,765C1140,769 1120,768 1115,761C1104,743 1079,749 1046,777C1029,793 974,832 923,865C846,916 824,936 786,995C761,1033 740,1070 740,1077C740,1084 731,1099 720,1110C702,1128 699,1141 700,1218C700,1222 716,1225 736,1225C761,1225 777,1232 790,1248C800,1260 813,1270 819,1270C826,1270 828,1284 824,1310C820,1333 822,1355 828,1363C834,1370 842,1391 845,1410C852,1452 868,1466 918,1474C947,1478 968,1493 1007,1533C1035,1563 1063,1597 1070,1609C1088,1643 1106,1878 1092,1892C1083,1901 1080,1897 1080,1873ZM940,771C940,756 1007,719 1023,726C1045,734 1080,713 1074,695C1066,675 1023,676 952,696C878,717 865,729 886,758C901,780 940,789 940,771ZM1204,689C1185,668 1135,663 1124,681C1120,688 1127,700 1140,710C1159,724 1169,726 1192,718C1220,708 1220,707 1204,689Z" style="fill-rule:nonzero;"/>
            <path d="M2635,1839C2631,1827 2632,1814 2637,1809C2643,1803 2647,1811 2647,1830C2647,1865 2644,1868 2635,1839Z" style="fill-rule:nonzero;"/>
            <path d="M2492,1815C2492,1799 2494,1793 2497,1803C2499,1812 2499,1826 2497,1833C2494,1839 2492,1832 2492,1815Z" style="fill-rule:nonzero;"/>
            <path d="M2277,1783C2266,1772 2269,1745 2286,1704C2300,1670 2303,1667 2315,1683C2322,1692 2337,1700 2349,1700C2365,1700 2370,1694 2370,1672C2370,1657 2363,1634 2353,1621C2342,1604 2341,1599 2350,1602C2358,1604 2370,1626 2378,1650C2392,1690 2391,1694 2374,1707C2363,1715 2344,1718 2329,1715C2307,1710 2300,1713 2295,1729C2292,1741 2292,1759 2295,1770C2301,1789 2290,1797 2277,1783Z" style="fill-rule:nonzero;"/>
            <path d="M5626,1775C5608,1761 5611,1760 5663,1760C5707,1760 5720,1763 5720,1775C5720,1795 5652,1795 5626,1775Z" style="fill-rule:nonzero;"/>
            <path d="M2180,1763C2180,1751 2184,1739 2189,1735C2194,1732 2206,1707 2215,1679C2238,1610 2246,1625 2225,1697C2205,1763 2180,1799 2180,1763Z" style="fill-rule:nonzero;"/>
            <path d="M2536,1755C2533,1746 2526,1742 2520,1745C2515,1748 2510,1746 2510,1741C2510,1724 2537,1728 2544,1746C2548,1755 2549,1765 2546,1767C2544,1769 2540,1764 2536,1755Z" style="fill-rule:nonzero;"/>
            <path d="M5580,1750C5580,1745 5585,1740 5590,1740C5596,1740 5600,1745 5600,1750C5600,1756 5596,1760 5590,1760C5585,1760 5580,1756 5580,1750Z" style="fill-rule:nonzero;"/>
            <path d="M2431,1684C2431,1673 2434,1670 2437,1678C2440,1685 2439,1694 2436,1697C2433,1701 2430,1695 2431,1684Z" style="fill-rule:nonzero;"/>
            <path d="M2090,1668C2090,1662 2101,1642 2115,1624C2145,1584 2146,1576 2119,1551C2091,1525 2064,1538 2055,1580C2051,1596 2043,1610 2036,1610C2027,1610 2029,1597 2044,1565C2068,1515 2088,1509 2127,1540C2141,1551 2159,1560 2166,1560C2187,1560 2183,1570 2145,1628C2111,1678 2090,1693 2090,1668Z" style="fill-rule:nonzero;"/>
            <path d="M2441,1634C2441,1623 2444,1620 2447,1628C2450,1635 2449,1644 2446,1647C2443,1651 2440,1645 2441,1634Z" style="fill-rule:nonzero;"/>
            <path d="M2186,1530C2194,1499 2196,1497 2210,1502C2218,1504 2214,1515 2200,1530L2179,1555L2186,1530Z" style="fill-rule:nonzero;"/>
            <path d="M5930,1541C5930,1536 5935,1528 5940,1525C5946,1522 5950,1523 5950,1529C5950,1534 5946,1542 5940,1545C5935,1548 5930,1547 5930,1541Z" style="fill-rule:nonzero;"/>
            <path d="M5840,1498C5840,1489 5845,1478 5850,1475C5863,1467 5863,1480 5850,1500C5842,1513 5840,1513 5840,1498Z" style="fill-rule:nonzero;"/>
            <path d="M2282,1460C2282,1446 2284,1441 2287,1448C2289,1454 2289,1466 2287,1473C2284,1479 2282,1474 2282,1460Z" style="fill-rule:nonzero;"/>
            <path d="M5882,1436C5874,1418 5875,1409 5885,1399C5893,1391 5906,1360 5913,1330C5926,1284 5931,1275 5949,1277C5973,1280 5977,1265 5954,1256C5935,1249 5941,1175 5966,1093C5980,1049 5987,1040 6011,1035C6041,1028 6047,1009 6041,942C6040,929 6044,912 6051,904C6057,896 6060,878 6057,863C6052,834 6083,781 6095,800C6108,821 6119,808 6126,763C6129,736 6139,700 6146,681C6172,618 6166,617 6086,665C6010,711 5924,738 5908,722C5890,704 5910,690 5953,688C5973,687 5990,683 5990,679C5990,674 6001,668 6015,664C6029,661 6040,654 6040,649C6040,637 6096,609 6105,618C6108,622 6118,616 6126,606C6134,595 6140,592 6140,598C6140,614 6156,613 6174,595C6182,587 6193,580 6199,580C6205,580 6212,569 6216,556C6219,542 6229,529 6237,526C6248,521 6250,524 6246,536C6243,545 6237,564 6234,578C6224,625 6198,693 6165,765C6146,804 6124,856 6114,883C6100,923 6094,929 6077,924C6057,918 6057,919 6072,934C6089,951 6088,960 6057,1045C6049,1067 6044,1091 6046,1098C6047,1105 6046,1106 6043,1100C6034,1082 6010,1089 6010,1111C6010,1122 6015,1128 6020,1125C6032,1117 6032,1117 6019,1182C6005,1255 5960,1392 5945,1410C5939,1418 5930,1433 5927,1443C5918,1467 5895,1464 5882,1436ZM5897,1418C5894,1410 5891,1413 5891,1424C5890,1435 5893,1441 5896,1437C5899,1434 5900,1425 5897,1418ZM5994,1195C5998,1185 5993,1180 5980,1180C5960,1180 5954,1191 5967,1203C5977,1214 5987,1211 5994,1195ZM6000,1078C6000,1060 5998,1058 5991,1070C5985,1078 5984,1088 5986,1092C5995,1106 6000,1101 6000,1078ZM6089,841C6074,836 6067,847 6075,860C6081,869 6085,869 6091,859C6096,851 6095,844 6089,841Z" style="fill-rule:nonzero;"/>
            <path d="M5195,1319C5191,1313 5191,1306 5194,1303C5197,1300 5186,1279 5170,1257C5140,1217 5131,1177 5149,1165C5154,1162 5160,1168 5162,1177C5165,1190 5177,1179 5204,1138C5225,1106 5250,1078 5260,1075C5269,1072 5282,1058 5288,1045C5294,1031 5304,1020 5308,1020C5313,1020 5329,1002 5344,980C5360,955 5378,940 5391,940C5402,940 5408,936 5405,930C5395,913 5428,870 5445,876C5455,880 5460,876 5460,861C5460,844 5466,840 5493,839C5510,838 5529,838 5534,839C5540,840 5558,843 5574,844C5591,846 5612,850 5620,853C5677,873 5782,890 5796,882C5808,876 5818,879 5834,894C5846,906 5870,926 5888,939C5905,952 5920,971 5920,981C5920,991 5925,1002 5930,1005C5946,1015 5941,1051 5915,1115C5902,1148 5883,1201 5874,1233C5854,1297 5832,1307 5800,1268C5782,1245 5782,1245 5803,1240C5829,1233 5851,1192 5881,1093C5899,1034 5901,1016 5892,995C5876,960 5799,913 5742,906C5716,902 5661,890 5620,879C5522,852 5479,864 5448,924C5436,947 5425,976 5424,989C5422,1002 5416,1018 5411,1023C5405,1029 5400,1042 5400,1051C5400,1060 5393,1073 5385,1080C5364,1097 5382,1110 5427,1110C5444,1110 5462,1115 5465,1120C5468,1126 5462,1130 5451,1130C5416,1130 5428,1156 5468,1167C5504,1177 5504,1177 5443,1179C5393,1180 5380,1177 5380,1165C5380,1157 5369,1148 5355,1144C5325,1136 5323,1116 5351,1092C5376,1072 5392,1036 5384,1016C5379,1004 5375,1004 5359,1018C5349,1027 5340,1040 5340,1047C5340,1054 5331,1060 5320,1060C5309,1060 5294,1072 5286,1088C5271,1116 5242,1144 5220,1152C5213,1154 5205,1172 5203,1191C5201,1218 5205,1232 5221,1246C5242,1264 5242,1264 5268,1232C5297,1198 5310,1192 5310,1214C5310,1227 5219,1330 5207,1330C5204,1330 5198,1325 5195,1319Z" style="fill-rule:nonzero;"/>
            <path d="M5740,1230C5732,1225 5730,1220 5735,1220C5741,1220 5752,1225 5760,1230C5768,1235 5771,1240 5765,1240C5760,1240 5748,1235 5740,1230Z" style="fill-rule:nonzero;"/>
            <path d="M7149,1159C7143,1147 7129,1101 7119,1056C7095,958 7053,813 7038,783C7025,756 6993,746 6873,730C6783,718 6642,720 6608,735C6583,745 6585,718 6611,694C6626,681 6633,679 6639,688C6643,696 6691,701 6775,704C6847,707 6916,712 6930,715L6955,722L6928,697C6913,683 6903,670 6905,669C6907,667 6890,664 6867,662C6750,654 6769,635 6891,637C6976,639 6995,642 7013,659C7025,670 7046,688 7060,699L7085,719L7056,720C7040,720 7029,722 7032,725C7041,734 7279,780 7317,780C7337,780 7350,783 7347,786C7343,790 7311,792 7275,791C7221,790 7211,792 7216,805C7219,813 7226,820 7230,820C7242,820 7322,889 7339,913C7353,932 7352,933 7311,927C7273,922 7209,888 7170,851C7145,827 7149,855 7180,925C7229,1035 7230,1143 7181,1170C7164,1178 7159,1176 7149,1159ZM7198,1095C7202,1018 7187,958 7149,904C7133,881 7120,858 7120,853C7120,849 7111,834 7100,820C7079,793 7063,798 7078,827C7084,837 7100,901 7115,970C7129,1039 7146,1103 7151,1112C7156,1122 7160,1137 7160,1146C7160,1155 7167,1160 7178,1158C7191,1155 7196,1143 7198,1095ZM7300,902C7300,893 7180,801 7142,781C7104,761 7103,779 7140,808C7170,832 7291,910 7298,910C7299,910 7300,906 7300,902ZM7000,700C6990,681 6968,670 6942,670C6928,671 6928,673 6945,686C6956,694 6966,705 6966,710C6968,728 6970,728 6990,723C7005,719 7007,714 7000,700Z" style="fill-rule:nonzero;"/>
            <path d="M5990,990C5990,985 5995,980 6000,980C6006,980 6010,985 6010,990C6010,996 6006,1000 6000,1000C5995,1000 5990,996 5990,990Z" style="fill-rule:nonzero;"/>
            <path d="M1338,808C1322,803 1310,794 1310,789C1310,777 1327,777 1335,790C1338,796 1350,800 1361,800C1371,800 1380,805 1380,810C1380,822 1374,822 1338,808Z" style="fill-rule:nonzero;"/>
            <path d="M5507,807C5504,798 5498,749 5494,698C5490,647 5483,600 5478,594C5473,587 5468,558 5466,529C5459,427 5429,255 5412,223C5394,186 5401,170 5427,191C5437,199 5457,212 5473,220C5507,237 5508,254 5475,248C5445,242 5445,241 5471,335C5482,376 5489,414 5486,418C5481,427 5516,563 5533,600C5563,661 5679,710 5794,710C5862,710 5903,721 5883,733C5864,745 5741,743 5652,730C5570,717 5559,713 5554,693C5550,680 5544,670 5539,670C5531,670 5533,694 5546,756C5548,768 5542,788 5532,801C5516,820 5512,821 5507,807Z" style="fill-rule:nonzero;"/>
            <path d="M7360,793C7360,788 7371,784 7385,784C7399,783 7410,786 7410,791C7410,796 7399,800 7385,800C7371,800 7360,797 7360,793Z" style="fill-rule:nonzero;"/>
            <path d="M6666,660C6671,655 6691,648 6710,645C6746,640 6739,644 6685,661C6665,667 6659,667 6666,660Z" style="fill-rule:nonzero;"/>
            <path d="M6795,600C6787,587 6822,517 6840,512C6851,508 6850,513 6835,529C6824,542 6817,563 6818,581C6820,609 6807,620 6795,600Z" style="fill-rule:nonzero;"/>
            <path d="M6890,525C6883,517 6882,510 6888,510C6893,510 6903,517 6910,525C6917,533 6918,540 6912,540C6907,540 6897,533 6890,525Z" style="fill-rule:nonzero;"/>
            <path d="M6245,489C6257,449 6283,404 6287,416C6292,430 6263,497 6249,506C6241,510 6240,505 6245,489Z" style="fill-rule:nonzero;"/>
            <path d="M3265,480C3261,474 3285,470 3330,470C3375,470 3399,474 3395,480C3392,486 3362,490 3330,490C3298,490 3268,486 3265,480Z" style="fill-rule:nonzero;"/>
            <path d="M3241,460C3239,452 3236,434 3235,420C3231,376 3202,266 3186,235C3168,201 3166,190 3179,190C3183,190 3197,224 3209,265C3222,306 3236,342 3240,345C3245,348 3281,352 3319,353C3405,355 3402,370 3315,370L3251,370L3247,423C3245,451 3242,468 3241,460Z" style="fill-rule:nonzero;"/>
            <path d="M3495,460C3498,455 3503,450 3506,450C3508,450 3510,455 3510,460C3510,466 3505,470 3499,470C3494,470 3492,466 3495,460Z" style="fill-rule:nonzero;"/>
            <path d="M3633,363C3600,340 3605,327 3640,345C3663,357 3675,358 3690,350C3719,335 3718,262 3688,225L3667,197L3689,209C3734,233 3740,328 3699,363C3673,384 3662,384 3633,363Z" style="fill-rule:nonzero;"/>
            <path d="M5830,365C5830,356 5839,350 5854,350C5899,350 5889,334 5844,332C5820,331 5763,321 5718,310C5674,299 5626,290 5613,290C5598,290 5590,285 5593,278C5598,262 5632,263 5737,284C5783,292 5837,300 5857,300C5921,302 6005,291 6008,280C6010,274 6016,273 6021,276C6034,284 6090,261 6090,248C6090,243 6094,241 6099,244C6104,247 6125,243 6145,234C6185,217 6194,219 6185,242C6176,264 6060,311 6033,304C6016,299 6010,302 6010,314C6010,333 5961,360 5926,360C5912,360 5898,365 5895,370C5885,386 5830,382 5830,365ZM5940,346C5940,335 5921,331 5915,340C5912,345 5916,350 5924,350C5933,350 5940,348 5940,346Z" style="fill-rule:nonzero;"/>
            <path d="M3476,314C3472,295 3466,271 3463,262C3460,253 3461,248 3465,253C3474,260 3500,328 3500,343C3500,347 3496,350 3491,350C3486,350 3479,334 3476,314Z" style="fill-rule:nonzero;"/>
            <path d="M3582,255C3582,239 3584,233 3587,243C3589,252 3589,266 3587,273C3584,279 3582,272 3582,255Z" style="fill-rule:nonzero;"/>
            <path d="M5540,250C5540,245 5547,243 5555,246C5563,250 5570,254 5570,256C5570,258 5563,260 5555,260C5547,260 5540,256 5540,250Z" style="fill-rule:nonzero;"/>
            <path d="M7067,42C6816,41 6610,36 6610,32C6610,22 7629,29 7665,40C7688,47 7675,49 7610,47C7563,46 7319,44 7067,42Z" style="fill-rule:nonzero;"/>
            <path d="M7793,43C7819,41 7861,41 7888,43C7914,45 7892,46 7840,46C7788,46 7766,45 7793,43Z" style="fill-rule:nonzero;"/>
            <path d="M5630,30C5396,27 5210,22 5215,19C5230,10 6600,21 6595,31C6590,39 6368,39 5630,30Z" style="fill-rule:nonzero;"/>
            <path d="M5138,21C5150,14 5200,17 5200,26C5200,28 5183,30 5163,30C5139,30 5130,27 5138,21Z" style="fill-rule:nonzero;"/>
            <path d="M4808,13C4815,10 4824,11 4827,14C4831,17 4825,20 4814,19C4803,19 4800,16 4808,13Z" style="fill-rule:nonzero;"/>
            <path d="M1648,3C1655,0 1664,1 1667,4C1671,7 1665,10 1654,9C1643,9 1640,6 1648,3Z" style="fill-rule:nonzero;"/>
            <path d="M1718,3C1725,0 1734,1 1737,4C1741,7 1735,10 1724,9C1713,9 1710,6 1718,3Z" style="fill-rule:nonzero;"/>
            <path d="M2037,3C2131,1 2289,1 2387,3C2485,4 2408,5 2215,5C2023,6 1942,4 2037,3Z" style="fill-rule:nonzero;"/>
            <path d="M2618,3C2647,1 2692,1 2718,3C2744,5 2720,6 2665,6C2610,6 2589,5 2618,3Z" style="fill-rule:nonzero;"/>
        </g>
    </g>
</svg>
