<?xml version="1.0" encoding="UTF-8" standalone="no"?><!DOCTYPE svg PUBLIC "-//W3C//DTD SVG 1.1//EN" "http://www.w3.org/Graphics/SVG/1.1/DTD/svg11.dtd"><svg width="100%" height="100%" viewBox="0 0 2151 967" version="1.1" xmlns="http://www.w3.org/2000/svg" xmlns:xlink="http://www.w3.org/1999/xlink" xml:space="preserve" xmlns:serif="http://www.serif.com/" style="fill-rule:evenodd;clip-rule:evenodd;stroke-linejoin:round;stroke-miterlimit:2;"><g id="ALL"><g id="A"><path d="M759.724,256.631l25.415,-47.059l7.055,36.083l0.872,4.537l1.243,6.439l-34.585,0Zm7.916,-137.883l10.008,51.468l0.872,4.526l3.729,19.391l-34.33,62.498l-55.942,0l75.663,-137.883Zm157.178,-28.21l-3.208,-16.342l-48.441,-42.883l-122.03,-0l-221.568,404.598l72.878,-0l44.318,-85.225l159.23,-0l4.696,27.848l0.584,3.454l3.082,18.371l-138.84,-0l-44.552,84.863l-87.19,0l-23.44,-32.439l-5.546,10.147l24.151,33.151l97.986,0l44.541,-84.874l134.611,-0l2.964,17.011l0.648,3.453l0.319,1.913l5.589,5.482l3.57,3.464l12.612,12.347l1.073,0.998l41.163,40.206l120.054,0l-79.254,-405.543Z" style="fill:#fcee21;fill-rule:nonzero;"/><path d="M921.61,74.196l-48.441,-42.883l-122.03,-0l-221.568,404.598l-21.538,-0l10.381,14.248l1.923,2.624l-5.546,10.147l24.151,33.151l-1.679,0l-46.899,-64.474l236.368,-431.607l122.01,0l70.573,62.508l1.795,9.117l0.5,2.571Z" style="fill:#d1a725;fill-rule:nonzero;"/><path d="M756.441,256.631l27.891,-51.649l9.924,51.649l-37.815,0Zm-64.464,0l75.599,-137.883l14.673,75.385l-34.33,62.498l-55.942,0Zm81.156,-169.44l-98.932,180.586l133.889,-0l-34.957,-180.586Zm-16.692,169.44l27.891,-51.649l9.924,51.649l-37.815,0Zm-64.464,0l75.599,-137.883l14.673,75.385l-34.33,62.498l-55.942,0Zm81.156,-169.44l-98.932,180.586l133.889,-0l-34.957,-180.586Zm-25.214,169.44l-55.942,0l75.599,-137.883l14.673,75.385l-34.33,62.498Zm46.337,0l-37.815,0l27.891,-51.649l9.924,51.649Zm-120.055,11.146l133.889,-0l-34.957,-180.586l-98.932,180.586Zm141.581,72.05l-174.976,-0l-44.265,84.927l-90.824,0l226.966,-413.895l108.547,0l81.006,413.895l-92.141,0l-14.313,-84.927Zm-140.263,60.532l-44.626,84.927l-87.127,-0l-35.733,-49.375l94.416,-0l44.318,-85.225l159.23,-0l8.362,49.673l-138.84,-0Zm243.796,-337.851l-70.573,-62.508l-122.073,0l-236.305,431.607l46.836,64.538l99.717,0l44.552,-84.938l134.547,-0l3.985,22.44l63.942,62.498l120.118,0l-84.746,-433.637Zm-162.874,194.123l27.891,-51.649l9.924,51.649l-37.815,0Zm-64.464,0l75.599,-137.883l14.673,75.385l-34.33,62.498l-55.942,0Zm81.156,-169.44l-98.932,180.586l133.889,-0l-34.957,-180.586Zm-16.692,169.44l27.891,-51.649l9.924,51.649l-37.815,0Zm-64.464,0l75.599,-137.883l14.673,75.385l-34.33,62.498l-55.942,0Zm81.156,-169.44l-98.932,180.586l133.889,-0l-34.957,-180.586Zm-16.692,169.44l27.891,-51.649l9.924,51.649l-37.815,0Zm-64.464,0l75.599,-137.883l14.673,75.385l-34.33,62.498l-55.942,0Zm81.156,-169.44l-98.932,180.586l133.889,-0l-34.957,-180.586Zm-16.692,169.44l27.891,-51.649l9.924,51.649l-37.815,0Zm-64.464,0l75.599,-137.883l14.673,75.385l-34.33,62.498l-55.942,0Zm81.156,-169.44l-98.932,180.586l133.889,-0l-34.957,-180.586Z" style="fill:#ec2027;fill-rule:nonzero;"/><path d="M785.139,209.572l9.117,47.059l-34.532,0l25.415,-47.059Zm-93.162,47.059l75.599,-137.883l14.673,75.385l-34.33,62.498l-55.942,0Zm81.156,-169.44l-98.932,180.586l133.889,-0l-34.957,-180.586Zm12.006,122.381l9.117,47.059l-34.532,0l25.415,-47.059Zm-93.162,47.059l75.599,-137.883l14.673,75.385l-34.33,62.498l-55.942,0Zm81.156,-169.44l-98.932,180.586l133.889,-0l-34.957,-180.586Zm12.006,122.381l9.117,47.059l-34.532,0l25.415,-47.059Zm-93.162,47.059l75.599,-137.883l14.673,75.385l-34.33,62.498l-55.942,0Zm81.156,-169.44l-98.932,180.586l133.889,-0l-34.957,-180.586Zm12.006,122.381l9.117,47.059l-34.532,0l25.415,-47.059Zm-93.162,47.059l75.599,-137.883l14.673,75.385l-34.33,62.498l-55.942,0Zm81.156,-169.44l-98.932,180.586l133.889,-0l-34.957,-180.586Zm-25.214,169.44l-55.942,0l75.599,-137.883l14.673,75.385l-34.33,62.498Zm46.337,0l-34.532,0l25.415,-47.059l9.117,47.059Zm-120.055,11.146l133.889,-0l-34.957,-180.586l-98.932,180.586Zm215.958,217.509l-50.82,-49.375l96.678,-0l-80.783,-414.852l53.668,48.069l80.943,414.617l0.329,1.541l-100.015,-0Zm-74.377,-145.459l-174.976,-0l-44.265,84.927l-90.824,0l226.966,-413.895l108.547,0l81.006,413.895l-92.141,0l-14.313,-84.927Zm-140.263,60.532l-44.626,84.927l-87.127,-0l-35.733,-49.375l94.416,-0l44.318,-85.225l159.23,-0l8.362,49.673l-138.84,-0Zm243.796,-337.851l-70.573,-62.508l-122.073,0l-236.305,431.607l46.836,64.538l99.717,0l44.552,-84.938l134.547,-0l3.985,22.44l63.942,62.498l120.118,0l0.011,-0.064l-84.757,-433.573Zm-134.176,147.064l9.117,47.059l-34.532,0l25.415,-47.059Zm-93.162,47.059l75.599,-137.883l14.673,75.385l-34.33,62.498l-55.942,0Zm81.156,-169.44l-98.932,180.586l133.889,-0l-34.957,-180.586Zm12.006,122.381l9.117,47.059l-34.532,0l25.415,-47.059Zm-93.162,47.059l75.599,-137.883l14.673,75.385l-34.33,62.498l-55.942,0Zm81.156,-169.44l-98.932,180.586l133.889,-0l-34.957,-180.586Zm12.006,122.381l9.117,47.059l-34.532,0l25.415,-47.059Zm-93.162,47.059l75.599,-137.883l14.673,75.385l-34.33,62.498l-55.942,0Zm81.156,-169.44l-98.932,180.586l133.889,-0l-34.957,-180.586Zm12.006,122.381l9.117,47.059l-34.532,0l25.415,-47.059Zm-93.162,47.059l75.599,-137.883l14.673,75.385l-34.33,62.498l-55.942,0Zm81.156,-169.44l-98.932,180.586l133.889,-0l-34.957,-180.586Z" style="fill:#010204;fill-rule:nonzero;"/><path d="M990.174,485.286l-100.015,-0l-50.82,-49.375l95.669,-0l54.837,47.834l0.329,1.541Z" style="fill:#ec2027;fill-rule:nonzero;"/><path d="M782.249,194.133l-34.33,62.498l-55.942,0l75.599,-137.883l14.673,75.385Z" style="fill:#ec2027;fill-rule:nonzero;"/><path d="M814.359,400.359l-138.84,-0l-44.626,84.927l-87.127,-0l-35.733,-49.375l94.416,-0l44.318,-85.225l159.23,-0l8.362,49.673Z" style="fill:#ec2027;fill-rule:nonzero;"/></g><g id="L"><path d="M1301.49,361.12l-22.1,-26.84l-117.08,0l47.74,-270.762l-32.11,-36.679l-15.747,0l18.818,21.474l17.382,19.795l-46.931,266.172l-52.659,0l54.2,-307.441l-75.078,0l-72.135,409.072l259.011,-0l14.621,-82.898l6.683,8.107l19.507,23.673l14.43,17.531l-14.621,82.962l-272.069,-0l-29.868,-36.317l-1.785,10.136l30.442,37.04l282.577,0l17.288,-98.05l-30.516,-36.975Z" style="fill:#fcee21;fill-rule:nonzero;"/><path d="M1177.94,26.839l-15.747,0l-7.65,-8.712l-1.54,8.712l-75.078,0l-72.135,409.072l-13.069,-0l10.763,13.058l-1.785,10.136l30.442,37.04l-5.005,0l-52.552,-63.879l76.214,-432.266l103.66,0l23.482,26.839Z" style="fill:#ab8727;fill-rule:nonzero;"/><path d="M986.793,424.722l269.106,0l13.971,-79.275l-183.901,0l58.991,-334.577l-85.193,-0l-72.974,413.852Zm40.376,71.402l-52.574,-63.837l76.226,-432.287l103.627,0l55.592,63.507l-47.75,270.741l117.122,0l52.573,63.837l-17.287,98.039l-287.529,-0Z" style="fill:#ec2027;fill-rule:nonzero;"/><path d="M1098.8,334.248l52.637,0l46.933,-266.14l-43.83,-50.013l-55.74,316.153Zm-65.441,151.017l272.059,-0l14.621,-82.92l-40.642,-49.332l-14.62,82.908l-272.07,0l40.652,49.344Zm-46.57,-60.543l269.106,0l13.971,-79.275l-183.901,0l58.991,-334.577l-85.193,-0l-72.974,413.852Zm40.376,71.402l-52.574,-63.837l76.226,-432.287l103.627,0l55.592,63.507l-47.75,270.741l117.122,0l52.573,63.837l-17.287,98.039l-287.529,-0Z" style="fill:#010204;fill-rule:nonzero;"/></g><g id="L1" serif:id="L"><path d="M1629.42,361.12l-22.1,-26.84l-117.079,0l47.739,-270.762l-32.11,-36.679l-15.746,0l18.817,21.474l17.383,19.795l-46.932,266.172l-52.658,0l54.199,-307.441l-75.077,0l-72.135,409.072l259.011,-0l14.62,-82.898l6.683,8.107l19.508,23.673l14.429,17.531l-14.62,82.962l-272.069,-0l-29.868,-36.317l-1.785,10.136l30.441,37.04l282.578,0l17.287,-98.05l-30.516,-36.975Z" style="fill:#fcee21;fill-rule:nonzero;"/><path d="M1505.88,26.839l-15.746,0l-7.65,-8.712l-1.541,8.712l-75.077,0l-72.135,409.072l-13.07,-0l10.764,13.058l-1.785,10.136l30.441,37.04l-5.004,0l-52.553,-63.879l76.215,-432.266l103.659,0l23.482,26.839Z" style="fill:#ab8727;fill-rule:nonzero;"/><path d="M1314.73,424.722l269.105,0l13.972,-79.275l-183.902,0l58.992,-334.577l-85.193,-0l-72.974,413.852Zm40.375,71.402l-52.573,-63.837l76.225,-432.287l103.628,0l55.591,63.507l-47.75,270.741l117.122,0l52.574,63.837l-17.287,98.039l-287.53,-0Z" style="fill:#ec2027;fill-rule:nonzero;"/><path d="M1426.74,334.248l52.637,0l46.932,-266.14l-43.829,-50.013l-55.74,316.153Zm-65.441,151.017l272.059,-0l14.62,-82.92l-40.641,-49.332l-14.62,82.908l-272.07,0l40.652,49.344Zm-46.57,-60.543l269.105,0l13.972,-79.275l-183.902,0l58.992,-334.577l-85.193,-0l-72.974,413.852Zm40.375,71.402l-52.573,-63.837l76.225,-432.287l103.628,0l55.591,63.507l-47.75,270.741l117.122,0l52.574,63.837l-17.287,98.039l-287.53,-0Z" style="fill:#010204;fill-rule:nonzero;"/></g></g><g id="GAMES"><g id="G"><path d="M409.13,923.625c-19.359,8.989 -44.254,16.564 -74.727,22.663c-30.484,6.142 -58.874,9.244 -85.182,9.244c-36.615,0 -67.885,-5.971 -93.683,-17.967c-18.647,-8.575 -36.19,-21.038 -52.765,-37.327c-6.396,-6.322 -12.697,-13.239 -18.775,-20.697c34.033,19.741 71.423,29.591 112.213,29.591c28.996,-0 59.597,-3.762 91.994,-11.337c32.353,-7.576 58.279,-16.948 77.851,-28.147l36.996,-209.869l0.851,0.956l42.947,49.015l-37.72,213.875Zm-241.086,-331.306c30.005,-23.024 66.206,-34.532 108.558,-34.532c22.6,0 44.53,3.103 65.791,9.361c21.261,6.269 37.592,14.429 48.929,24.523l16.544,-93.767l16.426,19.816l24.555,29.517l-14.609,82.898c-38.4,-23.44 -78.553,-35.191 -120.416,-35.191c-42.586,-0 -79.615,12.761 -111.076,38.357c-31.461,25.522 -50.778,58.672 -57.982,99.473c-3.559,20.21 -2.476,37.093 3.23,50.683c-2.688,-1.955 -5.249,-4.038 -7.608,-6.195c-25.362,-22.61 -34.468,-53.795 -27.466,-93.512c6.683,-37.932 25.065,-68.406 55.124,-91.431Zm63.921,142.123l52.967,0l-7.661,43.415l-6.269,0l-21.579,-24.034l-16.512,-18.307l-0.946,-1.074Zm171.003,-93.098l-173.372,0l-15.779,89.454l16.554,19.083l33.778,38.835l11.093,0.648l-2.03,11.518c-13.94,3.283 -29.081,4.951 -45.306,4.951c-20.931,0 -39.207,-2.932 -54.794,-8.893c-3.262,-1.126 -6.354,-2.497 -9.382,-3.931c-1.36,-2.083 -2.582,-4.293 -3.73,-6.62c-6.736,-14.195 -8.202,-31.907 -4.441,-53.264c6.683,-37.921 24.385,-68.639 53.222,-92.142c28.826,-23.439 63.103,-35.18 102.767,-35.18c23.918,-0 47.622,4.165 71.147,12.516c8.362,2.986 16.203,6.152 23.598,9.606c0.16,0.063 0.266,0.116 0.447,0.18c13.27,6.195 24.937,13.122 35.031,20.815l18.668,-105.912l-36.295,-43.787c-17.288,-8.171 -37.645,-14.429 -61.095,-18.785c-23.737,-4.346 -45.955,-6.556 -66.589,-6.556c-44.307,0 -86.085,9.595 -125.314,28.805c-39.228,19.2 -72.251,46.156 -99.016,80.932c-26.712,34.766 -43.935,73.952 -51.628,117.6c-11.762,66.684 1.976,123.04 41.215,169.08l24.12,28.635l1.179,1.36c20.953,24.289 46.655,41.874 77.001,52.722c24.608,8.946 52.403,13.367 83.291,13.367c28.986,-0 59.894,-3.464 92.779,-10.371c32.949,-6.927 59.141,-15.396 78.68,-25.479l39.802,-225.669l-55.601,-63.518Z" style="fill:#fcee21;fill-rule:nonzero;"/><path d="M424.144,499.221c-17.288,-8.171 -37.645,-14.429 -61.095,-18.785c-23.737,-4.346 -45.955,-6.556 -66.589,-6.556c-44.307,0 -86.085,9.595 -125.314,28.805c-39.228,19.2 -72.251,46.156 -99.016,80.932c-26.712,34.766 -43.935,73.952 -51.628,117.6c-11.762,66.684 1.976,123.04 41.215,169.08l24.12,28.635l-40.568,-48.016c-39.228,-46.039 -52.956,-102.459 -41.204,-169.132c7.692,-43.595 24.863,-82.845 51.638,-117.611c26.755,-34.712 59.725,-61.732 99.006,-80.932c39.218,-19.147 80.996,-28.752 125.304,-28.752c20.57,0 42.798,2.157 66.588,6.566c23.811,4.42 44.392,10.732 61.775,19.094l15.768,19.072Z" style="fill:#ab8727;fill-rule:nonzero;"/><path d="M199.123,898.283c25.872,0 53.71,-3.304 83.493,-9.881c29.782,-6.577 54.305,-14.79 73.601,-24.672l37.241,-211.208l-154.948,0l-12.474,70.721l71.72,0l-15.14,85.874c-17.383,5.27 -36.264,7.905 -56.665,7.905c-44.084,-0 -77.394,-12.283 -99.93,-36.849c-22.536,-24.565 -30.463,-57.025 -23.79,-97.38c7.161,-40.577 26.978,-73.42 59.491,-98.538c32.492,-25.108 71.221,-37.667 116.197,-37.667c19.285,0 38.464,2.306 57.504,6.907c19.03,4.601 35.212,10.753 48.557,18.424l14.738,-83.567c-16.406,-7.672 -35.638,-13.42 -57.653,-17.256c-22.016,-3.846 -42.905,-5.769 -62.636,-5.769c-42.777,-0 -83.015,9.275 -120.713,27.795c-37.709,18.541 -69.106,44.254 -94.203,77.15c-25.097,32.906 -41.29,69.978 -48.558,111.204c-5.769,32.683 -4.993,62.837 2.306,90.463c7.3,27.636 20.241,51.543 38.846,71.72c32.726,35.765 80.401,53.955 143.016,54.624Zm48.196,68.087c-69.532,-0 -123.359,-22.473 -161.482,-67.428l-40.557,-48.036c-39.25,-46.061 -52.977,-102.534 -41.184,-169.43c5.685,-32.237 16.99,-62.455 33.916,-90.644c16.916,-28.178 37.507,-52.244 61.754,-72.198c24.236,-19.955 52.011,-35.648 83.302,-47.049c31.291,-11.401 63.709,-17.107 97.263,-17.107c20.624,0 42.777,2.189 66.45,6.577c23.684,4.399 44.212,10.743 61.606,19.083l52.084,62.838l-18.679,105.933c-13.133,-10.094 -31.366,-19.253 -54.698,-27.477c-23.334,-8.223 -45.317,-12.335 -65.919,-12.335c-42.119,-0 -78.138,11.464 -108.048,34.394c-29.921,22.908 -48.196,53.126 -54.805,90.622c-4.176,23.684 -2.38,43.319 5.408,58.885c17.574,8.564 38.973,12.835 64.198,12.835c16.224,0 31.323,-1.646 45.274,-4.94l1.509,-8.554l-11.061,-0.648l-49.811,-60.872l15.789,-89.485l173.371,-0l55.592,63.496l-39.802,225.68c-19.54,10.083 -45.774,18.594 -78.68,25.511c-32.907,6.896 -63.847,10.349 -92.79,10.349Z" style="fill:#ec2027;fill-rule:nonzero;"/><path d="M276.687,781.162l8.234,-46.72l-52.966,0l38.537,46.39l6.195,0.33Zm-27.466,174.349c26.329,-0 54.719,-3.06 85.193,-9.202c30.473,-6.141 55.389,-13.706 74.737,-22.695l37.709,-213.843l-43.818,-50.013l-37.008,209.901c-19.529,11.178 -45.476,20.549 -77.84,28.114c-32.365,7.566 -63.018,11.369 -91.972,11.369c-40.801,0 -78.202,-9.881 -112.234,-29.623c21.824,26.755 45.667,46.103 71.518,58.067c25.862,11.954 57.1,17.925 93.715,17.925Zm-101.248,-172.054c-3.634,-14.238 -3.793,-30.697 -0.51,-49.344c7.161,-40.567 26.977,-73.41 59.48,-98.538c32.513,-25.108 71.231,-37.656 116.197,-37.656c17.766,-0 36.965,3.071 57.589,9.212c20.645,6.141 38.474,13.813 53.53,23.025l14.61,-82.909l-40.982,-49.354l-16.533,93.778c-11.379,-10.104 -27.763,-18.264 -49.141,-24.523c-21.368,-6.258 -43.468,-9.371 -66.281,-9.371c-42.108,-0 -78.116,11.454 -108.037,34.383c-29.931,22.919 -48.185,53.126 -54.805,90.633c-7.693,43.638 3.932,77.203 34.883,100.664Zm51.15,114.826c25.872,0 53.71,-3.304 83.493,-9.881c29.782,-6.577 54.305,-14.79 73.601,-24.672l37.241,-211.208l-154.948,0l-12.474,70.721l71.72,0l-15.14,85.874c-17.383,5.27 -36.264,7.905 -56.665,7.905c-44.084,-0 -77.394,-12.283 -99.93,-36.849c-22.536,-24.565 -30.463,-57.025 -23.79,-97.38c7.161,-40.577 26.978,-73.42 59.491,-98.538c32.492,-25.108 71.221,-37.667 116.197,-37.667c19.285,0 38.464,2.306 57.504,6.907c19.03,4.601 35.212,10.753 48.557,18.424l14.738,-83.567c-16.406,-7.672 -35.638,-13.42 -57.653,-17.256c-22.016,-3.846 -42.905,-5.769 -62.636,-5.769c-42.777,-0 -83.015,9.275 -120.713,27.795c-37.709,18.541 -69.106,44.254 -94.203,77.15c-25.097,32.906 -41.29,69.978 -48.558,111.204c-7.395,41.895 -4.483,79.232 8.703,112.021c13.185,32.79 35.052,58.333 65.611,76.651c30.536,18.307 67.161,27.679 109.854,28.135Zm48.196,68.087c-69.532,-0 -123.359,-22.473 -161.482,-67.428l-40.557,-48.036c-39.25,-46.061 -52.977,-102.534 -41.184,-169.43c5.685,-32.237 16.99,-62.455 33.916,-90.644c16.916,-28.178 37.507,-52.244 61.754,-72.198c24.236,-19.955 52.011,-35.648 83.302,-47.049c31.291,-11.401 63.709,-17.107 97.263,-17.107c20.624,0 42.777,2.189 66.45,6.577c23.684,4.399 44.212,10.743 61.606,19.083l52.084,62.838l-18.679,105.933c-13.133,-10.094 -31.366,-19.253 -54.698,-27.477c-23.334,-8.223 -45.317,-12.335 -65.919,-12.335c-42.119,-0 -78.138,11.464 -108.048,34.394c-29.921,22.908 -48.196,53.126 -54.805,90.622c-4.176,23.684 -2.38,43.319 5.408,58.885c17.574,8.564 38.973,12.835 64.198,12.835c16.224,0 31.323,-1.646 45.274,-4.94l1.509,-8.554l-11.061,-0.648l-49.811,-60.872l15.789,-89.485l173.371,-0l55.592,63.496l-39.802,225.68c-19.54,10.083 -45.774,18.594 -78.68,25.511c-32.907,6.896 -63.847,10.349 -92.79,10.349Z" style="fill:#010204;fill-rule:nonzero;"/></g><g id="A1" serif:id="A"><path d="M659.917,711.109l25.415,-47.059l7.055,36.084l0.872,4.537l1.243,6.438l-34.585,0Zm7.915,-137.883l10.009,51.469l0.872,4.526l3.729,19.391l-34.33,62.497l-55.942,0l75.662,-137.883Zm157.179,-28.21l-3.208,-16.342l-48.441,-42.883l-122.03,-0l-221.568,404.598l72.878,-0l44.318,-85.225l159.23,-0l4.696,27.849l0.584,3.453l3.082,18.371l-138.84,-0l-44.552,84.864l-87.19,-0l-23.44,-32.439l-5.546,10.147l24.151,33.15l97.986,0l44.541,-84.874l134.611,0l2.964,17.011l0.648,3.453l0.319,1.913l5.589,5.483l3.57,3.463l12.612,12.347l1.073,0.999l41.163,40.205l120.054,0l-79.254,-405.543Z" style="fill:#fcee21;fill-rule:nonzero;"/><path d="M821.803,528.674l-48.441,-42.883l-122.03,-0l-221.568,404.598l-21.538,-0l10.381,14.248l1.923,2.625l-5.546,10.147l24.151,33.15l-1.679,0l-46.899,-64.473l236.368,-431.608l122.01,0l70.573,62.509l1.795,9.116l0.5,2.571Z" style="fill:#d1a725;fill-rule:nonzero;"/><path d="M656.633,711.109l27.892,-51.649l9.924,51.649l-37.816,0Zm-64.463,0l75.599,-137.883l14.673,75.386l-34.33,62.497l-55.942,0Zm81.156,-169.44l-98.932,180.586l133.889,0l-34.957,-180.586Zm-16.693,169.44l27.892,-51.649l9.924,51.649l-37.816,0Zm-64.463,0l75.599,-137.883l14.673,75.386l-34.33,62.497l-55.942,0Zm81.156,-169.44l-98.932,180.586l133.889,0l-34.957,-180.586Zm-25.214,169.44l-55.942,0l75.599,-137.883l14.673,75.386l-34.33,62.497Zm46.337,0l-37.816,0l27.892,-51.649l9.924,51.649Zm-120.055,11.146l133.889,0l-34.957,-180.586l-98.932,180.586Zm141.581,72.05l-174.976,-0l-44.265,84.927l-90.824,0l226.965,-413.895l108.548,0l81.006,413.895l-92.141,0l-14.313,-84.927Zm-140.263,60.532l-44.626,84.927l-87.127,0l-35.733,-49.375l94.416,-0l44.318,-85.225l159.23,-0l8.362,49.673l-138.84,-0Zm243.796,-337.85l-70.573,-62.509l-122.073,0l-236.305,431.608l46.836,64.537l99.717,0l44.552,-84.938l134.547,0l3.985,22.441l63.942,62.497l120.118,0l-84.746,-433.636Zm-162.875,194.122l27.892,-51.649l9.924,51.649l-37.816,0Zm-64.463,0l75.599,-137.883l14.673,75.386l-34.33,62.497l-55.942,0Zm81.156,-169.44l-98.932,180.586l133.889,0l-34.957,-180.586Zm-16.693,169.44l27.892,-51.649l9.924,51.649l-37.816,0Zm-64.463,0l75.599,-137.883l14.673,75.386l-34.33,62.497l-55.942,0Zm81.156,-169.44l-98.932,180.586l133.889,0l-34.957,-180.586Zm-16.693,169.44l27.892,-51.649l9.924,51.649l-37.816,0Zm-64.463,0l75.599,-137.883l14.673,75.386l-34.33,62.497l-55.942,0Zm81.156,-169.44l-98.932,180.586l133.889,0l-34.957,-180.586Zm-16.693,169.44l27.892,-51.649l9.924,51.649l-37.816,0Zm-64.463,0l75.599,-137.883l14.673,75.386l-34.33,62.497l-55.942,0Zm81.156,-169.44l-98.932,180.586l133.889,0l-34.957,-180.586Z" style="fill:#ec2027;fill-rule:nonzero;"/><path d="M685.332,664.05l9.117,47.059l-34.532,0l25.415,-47.059Zm-93.162,47.059l75.599,-137.883l14.673,75.386l-34.33,62.497l-55.942,0Zm81.156,-169.44l-98.932,180.586l133.889,0l-34.957,-180.586Zm12.006,122.381l9.117,47.059l-34.532,0l25.415,-47.059Zm-93.162,47.059l75.599,-137.883l14.673,75.386l-34.33,62.497l-55.942,0Zm81.156,-169.44l-98.932,180.586l133.889,0l-34.957,-180.586Zm12.006,122.381l9.117,47.059l-34.532,0l25.415,-47.059Zm-93.162,47.059l75.599,-137.883l14.673,75.386l-34.33,62.497l-55.942,0Zm81.156,-169.44l-98.932,180.586l133.889,0l-34.957,-180.586Zm12.006,122.381l9.117,47.059l-34.532,0l25.415,-47.059Zm-93.162,47.059l75.599,-137.883l14.673,75.386l-34.33,62.497l-55.942,0Zm81.156,-169.44l-98.932,180.586l133.889,0l-34.957,-180.586Zm-25.214,169.44l-55.942,0l75.599,-137.883l14.673,75.386l-34.33,62.497Zm46.337,0l-34.532,0l25.415,-47.059l9.117,47.059Zm-120.055,11.146l133.889,0l-34.957,-180.586l-98.932,180.586Zm215.958,217.509l-50.82,-49.375l96.678,-0l-80.783,-414.851l53.668,48.068l80.943,414.618l0.329,1.54l-100.015,0Zm-74.377,-145.459l-174.976,-0l-44.265,84.927l-90.824,0l226.965,-413.895l108.548,0l81.006,413.895l-92.141,0l-14.313,-84.927Zm-140.263,60.532l-44.626,84.927l-87.127,0l-35.733,-49.375l94.416,-0l44.318,-85.225l159.23,-0l8.362,49.673l-138.84,-0Zm243.796,-337.85l-70.573,-62.509l-122.073,0l-236.305,431.608l46.836,64.537l99.717,0l44.552,-84.938l134.547,0l3.985,22.441l63.942,62.497l120.118,0l0.011,-0.064l-84.757,-433.572Zm-134.176,147.063l9.117,47.059l-34.532,0l25.415,-47.059Zm-93.162,47.059l75.599,-137.883l14.673,75.386l-34.33,62.497l-55.942,0Zm81.156,-169.44l-98.932,180.586l133.889,0l-34.957,-180.586Zm12.006,122.381l9.117,47.059l-34.532,0l25.415,-47.059Zm-93.162,47.059l75.599,-137.883l14.673,75.386l-34.33,62.497l-55.942,0Zm81.156,-169.44l-98.932,180.586l133.889,0l-34.957,-180.586Zm12.006,122.381l9.117,47.059l-34.532,0l25.415,-47.059Zm-93.162,47.059l75.599,-137.883l14.673,75.386l-34.33,62.497l-55.942,0Zm81.156,-169.44l-98.932,180.586l133.889,0l-34.957,-180.586Zm12.006,122.381l9.117,47.059l-34.532,0l25.415,-47.059Zm-93.162,47.059l75.599,-137.883l14.673,75.386l-34.33,62.497l-55.942,0Zm81.156,-169.44l-98.932,180.586l133.889,0l-34.957,-180.586Z" style="fill:#010204;fill-rule:nonzero;"/><path d="M890.367,939.764l-100.015,0l-50.82,-49.375l95.669,-0l54.837,47.835l0.329,1.54Z" style="fill:#ec2027;fill-rule:nonzero;"/><path d="M682.442,648.612l-34.33,62.497l-55.942,0l75.599,-137.883l14.673,75.386Z" style="fill:#ec2027;fill-rule:nonzero;"/><path d="M714.552,854.837l-138.84,-0l-44.626,84.927l-87.127,0l-35.733,-49.375l94.416,-0l44.318,-85.225l159.23,-0l8.362,49.673Z" style="fill:#ec2027;fill-rule:nonzero;"/></g><g id="M"><path d="M1400.96,939.764l-87.477,0l-28.88,-34.468l-12.463,-14.907l85.236,-0l73.664,-417.784l7.586,8.713l20.528,23.609l15.375,17.659l-73.569,417.178Zm-224.649,0l-71.093,0l-18.361,-29.166l-12.707,-20.209l73.356,-0l150.198,-282.929l0.053,-0.308l8.968,-19.083l-26.51,150.358l-103.904,201.337Zm278.126,-458.446l-23.482,-26.84l-159.24,0l-79.232,157.456l-9.553,19.019l-12.027,23.917l-12.506,-116.845l-1.87,-17.755l-41.619,-38.952l-17.118,-0l23.036,21.888l24.693,23.311l15.885,147.075l-11.369,22.791l-19.168,38.399l-38.325,-253.464l-136.874,-0l-72.135,409.071l70.498,-0l52.85,-299.685l1.69,16.756l14.716,81.942l6.205,34.532l-38.071,215.83l-82.239,0l-28.295,-34.351l-1.445,8.171l30.452,37.039l90.474,0l34.521,-195.801l11.486,64.718l5.451,30.643l6.492,36.561l39.377,63.879l84.566,0l91.93,-178.025l-20.199,114.508l2.465,2.975l50.81,60.542l103.001,0l76.278,-432.627l-32.109,-36.678Z" style="fill:#fcee21;fill-rule:nonzero;"/><path d="M1097.79,481.318l-6.141,-5.78l0.893,5.78l-136.874,-0l-72.135,409.071l-15.024,-0l12.378,15.024l-1.445,8.171l30.452,37.039l-6.917,0l-52.553,-63.879l76.226,-432.266l159.528,0l28.73,26.84l-17.118,-0Z" style="fill:#ab8727;fill-rule:nonzero;"/><path d="M862.595,879.201l82.239,-0l56.622,-321.084l11.188,-0l56.229,321.084l72.687,-0l169.802,-321.084l11.507,-0l-56.611,321.084l81.92,-0l72.974,-413.853l-143.44,-0l-153.067,304.647l-45.976,-304.647l-143.101,-0l-72.973,413.853Zm40.365,71.401l-52.563,-63.836l76.225,-432.288l159.548,0l70.329,65.813l14.44,134.547l100.79,-200.36l159.23,0l55.581,63.507l-76.279,432.617l-102.969,0l-53.296,-63.507l20.199,-114.476l-91.93,177.983l-84.545,0l-39.398,-63.836l-23.461,-131.912l-34.521,195.748l-97.38,0Z" style="fill:#ec2027;fill-rule:nonzero;"/><path d="M1313.49,939.743l87.509,0l73.548,-417.157l-43.5,-50.013l-73.664,417.827l-85.204,-0l41.311,49.343Zm-208.255,0l71.062,0l103.925,-201.337l26.51,-150.358l-8.946,19.083l-0.064,0.34l-150.23,282.929l-73.357,-0l31.1,49.343Zm25.618,-204.971l30.526,-61.18l-15.853,-147.064l-53.849,-50.98l39.176,259.224Zm-221.696,204.971l82.261,0l38.049,-215.819l-20.921,-116.453l-1.636,-16.777l-52.85,299.706l-85.544,-0l40.641,49.343Zm-46.559,-60.542l82.239,-0l56.622,-321.084l11.188,-0l56.229,321.084l72.687,-0l146.214,-275.034l23.588,-46.05l11.507,-0l-56.611,321.084l81.92,-0l72.974,-413.853l-143.44,-0l-153.067,304.647l-45.976,-304.647l-143.101,-0l-72.973,413.853Zm40.365,71.401l-52.563,-63.836l76.225,-432.288l159.548,0l70.329,65.813l14.44,134.547l100.79,-200.36l159.23,0l55.581,63.507l-76.279,432.617l-102.969,0l-53.296,-63.507l20.199,-114.476l-91.93,177.983l-84.545,0l-39.398,-63.836l-23.461,-131.912l-34.521,195.748l-97.38,0Z" style="fill:#010204;fill-rule:nonzero;"/></g><g id="E"><path d="M1535.91,718.324l157.264,-0l14.27,-80.932l6.928,8.415l19.253,23.375l14.737,17.893l-12.772,72.4l-157.264,0l-5.737,32.567l-49.684,-0l13.005,-73.718Zm200.243,100.546l-17.871,-21.707l-4.229,-5.121l-133.591,-0l3.825,-21.708l160.25,0l15.438,-87.551l-30.452,-36.976l-17.882,-21.718l-4.229,-5.121l-96.434,-0l3.825,-21.708l188.523,0l13.919,-78.967l-30.282,-36.975l-15.024,-0l19.274,23.609l14.419,17.659l-11.252,63.815l-185.538,0l-5.738,32.567l-49.683,-0l11.9,-67.46l185.899,-0l12.368,-70.19l-259.67,-0l-72.124,409.071l268.191,-0l14.1,-79.923l6.917,8.404l19.274,23.323l14.493,17.595l-14.1,79.976l-281.324,0l-29.857,-36.317l-1.785,10.137l30.441,37.039l291.461,0l16.767,-95.127l-30.219,-36.626Z" style="fill:#fcee21;fill-rule:nonzero;"/><path d="M1786.97,481.318l-15.024,-0l-6.863,-8.405l-1.488,8.405l-259.67,-0l-72.124,409.071l-13.058,-0l10.752,13.058l-1.785,10.137l30.441,37.039l-5.015,0l-52.541,-63.879l76.225,-432.266l288.177,0l21.973,26.84Z" style="fill:#ab8727;fill-rule:nonzero;"/><path d="M1740.67,939.764l-281.324,0l-40.609,-49.375l281.249,-0l14.1,-79.923l40.684,49.322l-14.1,79.976Zm-254.92,-474.427l269.806,0l-13.282,75.323l-185.898,-0l-15.715,89.156l157.264,-0l-13.696,77.66l-157.264,-0l-16.83,95.414l194.133,0l-13.462,76.342l-278.041,0l72.985,-413.895Zm265.471,86.171l13.856,-78.595l40.556,49.673l-11.773,66.79l-188.821,0l-5.217,29.592l-46.4,-0l11.9,-67.46l185.899,-0Zm-58.046,166.816l14.27,-80.932l40.918,49.683l-12.772,72.4l-160.536,0l-5.748,32.567l-46.401,-0l13.005,-73.718l157.264,-0Zm20.879,73.718l-133.591,-0l4.877,-27.679l160.25,0l14.386,-81.58l-52.563,-63.815l-96.434,-0l4.239,-24.035l188.523,0l13.505,-76.64l-52.255,-63.815l-288.177,0l-76.225,432.266l52.541,63.879l296.476,0l16.767,-95.127l-52.319,-63.454Z" style="fill:#ec2027;fill-rule:nonzero;"/><path d="M1740.67,939.764l-281.324,0l-40.609,-49.375l281.249,-0l14.1,-79.923l40.684,49.322l-14.1,79.976Zm-254.92,-474.427l269.806,0l-13.282,75.323l-185.898,-0l-15.715,89.156l157.264,-0l-13.696,77.66l-157.264,-0l-16.83,95.414l194.133,0l-13.462,76.342l-278.041,0l72.985,-413.895Zm265.471,86.171l13.856,-78.595l40.556,49.673l-11.773,66.79l-188.821,0l-5.217,29.592l-46.4,-0l11.9,-67.46l185.899,-0Zm-58.046,166.816l14.27,-80.932l40.918,49.683l-12.772,72.4l-160.536,0l-5.748,32.567l-46.401,-0l13.005,-73.718l157.264,-0Zm20.879,73.718l-133.591,-0l3.825,-21.708l160.25,0l15.438,-87.551l-52.563,-63.815l-96.434,-0l3.251,-18.435l188.513,-0l14.503,-82.24l-52.255,-63.815l-288.177,0l-76.225,432.266l52.541,63.879l296.476,0l16.767,-95.127l-52.319,-63.454Z" style="fill:#010204;fill-rule:nonzero;"/><path d="M1740.67,939.764l-281.324,0l-40.609,-49.375l281.249,-0l40.684,49.375Z" style="fill:#ec2027;fill-rule:nonzero;"/><path d="M1754.77,859.788l-14.1,79.976l-40.684,-49.375l14.1,-79.923l40.684,49.322Z" style="fill:#ec2027;fill-rule:nonzero;"/><path d="M1793.86,589.376l-188.821,0l-5.217,29.592l-46.4,-0l11.9,-67.46l185.899,-0l42.639,37.868Z" style="fill:#ec2027;fill-rule:nonzero;"/><path d="M1805.63,522.586l-11.773,66.79l-42.639,-37.868l13.856,-78.595l40.556,49.673Z" style="fill:#ec2027;fill-rule:nonzero;"/><path d="M1735.59,759.475l-160.536,0l-5.748,32.567l-46.401,-0l13.005,-73.718l157.264,-0l42.416,41.151Z" style="fill:#ec2027;fill-rule:nonzero;"/><path d="M1748.36,687.075l-12.772,72.4l-42.416,-41.151l14.27,-80.932l40.918,49.683Z" style="fill:#ec2027;fill-rule:nonzero;"/></g><g id="S"><path d="M2052.38,917.356c-33.321,24.576 -72.996,36.859 -119.045,36.859c-45.625,-0 -86.118,-9.117 -121.5,-27.307c-1.54,-0.723 -3.017,-1.498 -4.537,-2.338l-28.837,-33.99l-6.863,-8.107c2.454,1.307 5.047,2.508 7.65,3.634c27.679,12.527 63.857,18.732 108.526,18.732c48.897,0 91.207,-13.303 126.982,-39.961c35.711,-26.659 57.429,-61.255 65.175,-103.777c2.476,-14.068 2.837,-26.892 1.179,-38.527l13.569,16.459c7.703,9.371 13.186,19.858 16.458,31.429c4.346,15.279 4.845,32.386 1.488,51.479c-6.896,39.059 -26.988,70.849 -60.245,95.415Zm-118.068,-145.938c-11.773,-4.229 -19.646,-7.267 -23.758,-9.01c-14.089,-5.95 -25.128,-11.677 -33.204,-17.287c-1.764,-1.19 -3.4,-2.38 -4.855,-3.57c-8.235,-6.747 -19.53,-20.464 -33.873,-41.343l10.529,5.61c4.399,2.444 8.957,4.654 13.664,6.736c4.633,2.083 9.882,4.187 15.651,6.269c5.77,2.083 10.338,3.634 13.653,4.771c3.273,1.073 8.458,2.741 15.524,4.951c7.076,2.147 11.475,3.581 13.09,4.229c16.958,5.961 29.464,11.507 37.528,16.82c8.023,5.249 11.401,11.815 9.999,19.742c-0.096,0.542 -0.255,1.126 -0.415,1.668c-0.966,3.453 -3.272,7.034 -6.736,10.795c-6.088,-2.624 -15.024,-6.088 -26.797,-10.381Zm188.29,-2.39c-3.39,-13.888 -9.637,-26.532 -18.668,-37.858l-24.237,-29.995l-10.869,-13.43c-11.784,-14.674 -29.22,-27.722 -52.436,-39.176c-4.271,-2.157 -8.798,-4.239 -13.451,-6.205c-11.699,-5.068 -24.64,-9.775 -38.772,-14.195c14.79,-10.498 35.17,-15.81 61.053,-15.81c17.298,-0 35.456,3.58 54.348,10.742c18.913,7.097 36.211,16.161 51.819,27.137l18.913,-107.294l-28.295,-34.351l-0.053,-0c-6.864,-3.347 -14.398,-6.322 -22.579,-9.011l27.137,32.864l12.177,14.791l-15.025,85.225c-14.333,-9.659 -30.122,-17.235 -47.345,-22.728c-17.224,-5.483 -33.608,-8.224 -49.185,-8.224c-32.683,0 -57.535,7.693 -74.493,23.025c-9.776,-3.039 -17.277,-5.493 -22.547,-7.395c-0.393,-0.128 -0.733,-0.244 -1.126,-0.414c-4.867,-1.796 -10.073,-4.059 -15.492,-6.801c-5.854,-2.985 -9.817,-6.205 -11.943,-9.722c-2.125,-3.517 -2.943,-7.342 -2.443,-11.517c1.7,-9.659 9.669,-17.649 23.843,-23.971c14.131,-6.386 31.45,-9.541 51.84,-9.541c17.298,-0 35.573,3.209 54.837,9.658c19.253,6.503 36.699,14.79 52.212,24.874l15.991,-90.665c-7.395,-2.37 -15.374,-4.516 -23.811,-6.376c-21.133,-4.59 -42.033,-6.864 -62.668,-6.864c-48.897,0 -91.047,13.133 -126.525,39.431c-35.424,26.361 -56.855,60.351 -64.197,101.981c-5.239,29.644 -1.19,54.093 12.102,73.42l21.155,30.887c6.906,10.137 12.197,17.713 15.831,22.792c2.837,2.199 5.78,4.101 8.702,5.78c5.324,2.985 11.805,6.141 19.391,9.414c2.327,1.02 4.835,2.04 7.385,3.102c4.665,1.977 12.144,4.898 22.324,8.713c10.179,3.814 17.499,6.619 22.015,8.415c-3.018,1.541 -6.237,2.911 -9.552,4.101c-5.504,2.104 -11.465,3.772 -17.798,4.899c-9.52,1.912 -19.943,2.805 -31.323,2.805c-23.917,-0 -45.55,-3.517 -64.951,-10.498c-19.338,-7.034 -39.069,-17.234 -59.077,-30.59l-19.486,110.502l51.479,62.509c1.902,1.073 3.867,2.082 5.844,3.102c7.979,4.112 16.214,7.81 24.703,11.029c30.58,11.635 64.612,17.479 102.066,17.479c49.142,-0 91.579,-13.356 127.28,-39.962c35.775,-26.659 57.344,-61.063 64.771,-103.171c3.411,-19.327 3.124,-36.976 -0.871,-52.913Z" style="fill:#fcee21;fill-rule:nonzero;"/><path d="M2121.96,508.593c-6.864,-3.347 -14.398,-6.322 -22.579,-9.011l-1.371,-1.668l-0.191,1.127c-7.395,-2.37 -15.374,-4.516 -23.811,-6.376c-21.133,-4.59 -42.033,-6.864 -62.668,-6.864c-48.897,0 -91.047,13.133 -126.525,39.431c-35.424,26.361 -56.855,60.351 -64.197,101.981c-5.239,29.644 -1.19,54.093 12.102,73.42l21.155,30.887c6.906,10.137 12.197,17.713 15.831,22.792c-3.942,-2.997 -7.799,-6.514 -11.624,-10.509c-6.534,-6.917 -11.539,-12.697 -15.003,-17.404c-3.463,-4.717 -9.552,-13.43 -18.222,-26.191l-21.208,-30.888c-13.292,-19.327 -17.266,-43.775 -12.049,-73.409c7.342,-41.63 28.72,-75.631 64.208,-101.992c35.414,-26.308 77.618,-39.419 126.526,-39.419c20.57,-0 41.47,2.263 62.604,6.853c21.123,4.654 38.984,10.923 53.583,18.785l23.439,28.455Z" style="fill:#d1a725;fill-rule:nonzero;"/><path d="M1889.68,893.991c46.06,-0 85.745,-12.336 119.045,-37.008c33.299,-24.672 53.392,-56.526 60.276,-95.563c4.803,-28.508 0.245,-51.756 -13.685,-69.755c-6.619,-8.542 -15.714,-16.331 -27.307,-23.343c-11.602,-7.024 -21.813,-12.23 -30.632,-15.641c-8.84,-3.389 -21.208,-7.565 -37.114,-12.495c-15.906,-4.93 -26.435,-8.394 -31.567,-10.359c-30.017,-10.095 -43.511,-23.801 -40.451,-41.12c2.317,-13.165 11.667,-23.854 28.03,-32.088c16.363,-8.214 36.497,-12.336 60.404,-12.336c33.119,-0 65.451,9.435 96.998,28.295l14.907,-84.556c-13.94,-6.779 -30.728,-12.272 -50.396,-16.448c-19.667,-4.154 -38.92,-6.247 -57.79,-6.247c-45.837,-0 -85.204,12.123 -118.099,36.349c-32.886,24.246 -52.744,55.665 -59.544,94.256c-2.901,16.448 -2.55,31.206 1.083,44.254c3.613,13.048 9.595,23.567 17.957,31.578c8.33,8.012 18.137,15.247 29.389,21.718c11.242,6.482 22.962,11.571 35.138,15.3c12.166,3.73 24.077,7.725 35.711,12.007c11.635,4.271 21.995,8.341 31.079,12.166c9.085,3.846 16.044,8.829 20.89,14.971c4.834,6.141 6.545,13.271 5.11,21.388c-2.284,12.942 -11.741,23.355 -28.38,31.249c-16.639,7.895 -37.23,11.847 -61.796,11.847c-40.801,0 -78.999,-11.624 -114.593,-34.882l-15.428,87.52c19.317,9.86 39.207,17.064 59.703,21.548c20.464,4.494 44.169,6.949 71.062,7.395Zm41.757,71.061c-50.449,0 -94.65,-10.529 -132.603,-31.578l-51.479,-62.508l19.486,-110.545c20.008,13.388 39.696,23.588 59.087,30.611c19.37,7.013 41.024,10.519 64.931,10.519c23.684,0 43.234,-3.952 58.662,-11.847c-4.516,-1.742 -11.858,-4.547 -22.037,-8.383c-10.179,-3.836 -17.616,-6.747 -22.313,-8.723c-10.859,-4.389 -19.773,-8.543 -26.743,-12.496c-6.992,-3.942 -13.76,-9.382 -20.327,-16.288c-6.576,-6.907 -11.57,-12.719 -15.024,-17.436c-3.442,-4.718 -9.53,-13.43 -18.243,-26.159l-21.197,-30.92c-13.271,-19.295 -17.288,-43.744 -12.071,-73.367c7.353,-41.662 28.742,-75.673 64.209,-101.981c35.445,-26.319 77.627,-39.473 126.535,-39.473c20.613,0 41.492,2.306 62.615,6.907c21.112,4.611 38.984,10.859 53.604,18.743l51.766,62.837l-18.913,107.251c-15.799,-11.178 -34.011,-20.772 -54.645,-28.784c-20.634,-8 -39.611,-12.006 -56.93,-12.006c-26.765,-0 -47.601,5.589 -62.509,16.777c24.779,7.449 46.592,15.896 65.442,25.331c18.849,9.435 34.212,21.495 46.092,36.189l35.116,43.426c19.391,24.342 25.904,54.624 19.518,90.803c-7.427,42.108 -29.006,76.491 -64.739,103.128c-35.733,26.659 -78.159,39.972 -127.29,39.972Z" style="fill:#ec2027;fill-rule:nonzero;"/><path d="M2123.66,632.451l15.024,-85.214l-40.652,-49.344l-16.182,91.802c-15.556,-10.105 -32.949,-18.382 -52.202,-24.842c-19.264,-6.47 -37.56,-9.711 -54.88,-9.711c-20.389,-0 -37.676,3.177 -51.851,9.541c-14.174,6.365 -22.111,14.365 -23.811,24.024c-1.211,8.107 2.529,14.588 11.22,19.401c8.692,4.824 22.802,10.318 42.331,16.448c16.969,-15.353 41.779,-23.025 74.462,-23.025c15.577,0 31.971,2.742 49.216,8.224c17.234,5.483 33.012,13.048 47.325,22.696Zm-162.545,149.369c4.069,-4.388 6.449,-8.553 7.14,-12.506c1.392,-7.894 -2.125,-14.694 -10.55,-20.4c-8.426,-5.695 -20.752,-11.072 -36.966,-16.129c-32.651,-10.073 -60.022,-20.932 -82.09,-32.566c14.301,20.846 25.585,34.606 33.841,41.3c8.245,6.694 20.953,13.643 38.092,20.878c4.079,1.754 11.996,4.782 23.747,9.053c11.741,4.282 20.677,7.735 26.786,10.37Zm-27.753,172.373c46.05,0 85.714,-12.272 119.003,-36.848c33.278,-24.555 53.36,-56.356 60.244,-95.393c5.919,-33.555 -0.063,-61.191 -17.945,-82.909l-13.548,-16.458c1.668,11.634 1.254,24.576 -1.253,38.835c-7.438,42.118 -29.082,76.544 -64.931,103.288c-35.871,26.765 -78.255,40.142 -127.163,40.142c-48.908,-0 -87.626,-7.449 -116.134,-22.377l35.68,42.119c36.434,19.741 78.446,29.601 126.047,29.601Zm-43.68,-60.202c46.06,-0 85.745,-12.336 119.045,-37.008c33.299,-24.672 53.392,-56.526 60.276,-95.563c4.803,-28.508 0.245,-51.756 -13.685,-69.755c-7.809,-10.519 -19.327,-19.784 -34.585,-27.795c-15.257,-8.001 -30.515,-14.408 -45.784,-19.253c-15.268,-4.824 -29.942,-9.637 -44.01,-14.472c-14.067,-4.813 -25.096,-10.625 -33.108,-17.425c-8.011,-6.8 -11.209,-14.812 -9.584,-24.013c2.317,-13.165 11.667,-23.854 28.03,-32.088c16.363,-8.214 36.497,-12.336 60.404,-12.336c33.119,-0 65.451,9.435 96.998,28.295l14.907,-84.556c-13.94,-6.779 -30.728,-12.272 -50.396,-16.448c-19.667,-4.154 -38.92,-6.247 -57.79,-6.247c-45.837,-0 -85.204,12.123 -118.099,36.349c-32.886,24.246 -52.744,55.665 -59.544,94.256c-2.901,16.448 -2.55,31.206 1.083,44.254c3.613,13.048 9.595,23.567 17.957,31.578c8.33,8.012 18.137,15.247 29.389,21.718c11.242,6.482 22.962,11.571 35.138,15.3c12.166,3.73 24.077,7.725 35.711,12.007c11.635,4.271 21.995,8.341 31.079,12.166c9.085,3.846 16.044,8.829 20.89,14.971c4.834,6.141 6.545,13.271 5.11,21.388c-2.284,12.942 -11.741,23.355 -28.38,31.249c-16.639,7.895 -37.23,11.847 -61.796,11.847c-40.801,0 -78.999,-11.624 -114.593,-34.882l-15.428,87.52c19.317,9.86 39.207,17.064 59.703,21.548c20.464,4.494 44.169,6.949 71.062,7.395Zm41.757,71.061c-50.449,0 -94.65,-10.529 -132.603,-31.578l-51.479,-62.508l19.486,-110.545c20.008,13.388 39.696,23.588 59.087,30.611c19.37,7.013 41.024,10.519 64.931,10.519c23.684,0 43.234,-3.952 58.662,-11.847c-4.516,-1.742 -11.858,-4.547 -22.037,-8.383c-10.179,-3.836 -17.616,-6.747 -22.313,-8.723c-10.859,-4.389 -19.773,-8.543 -26.743,-12.496c-6.992,-3.942 -13.76,-9.382 -20.327,-16.288c-6.576,-6.907 -11.57,-12.719 -15.024,-17.436c-3.442,-4.718 -9.53,-13.43 -18.243,-26.159l-21.197,-30.92c-13.271,-19.295 -17.288,-43.744 -12.071,-73.367c7.353,-41.662 28.742,-75.673 64.209,-101.981c35.445,-26.319 77.627,-39.473 126.535,-39.473c20.613,0 41.492,2.306 62.615,6.907c21.112,4.611 38.984,10.859 53.604,18.743l51.766,62.837l-18.913,107.251c-15.619,-10.954 -32.885,-20.007 -51.808,-27.147c-18.924,-7.119 -37.05,-10.689 -54.369,-10.689c-25.884,-0 -46.22,5.259 -61.021,15.8c50.342,15.566 85.214,35.424 104.648,59.543l35.116,43.426c19.391,24.342 25.904,54.624 19.518,90.803c-7.427,42.108 -29.006,76.491 -64.739,103.128c-35.733,26.659 -78.159,39.972 -127.29,39.972Z" style="fill:#010204;fill-rule:nonzero;"/></g></g></svg>