<?xml version="1.0" encoding="UTF-8" standalone="no"?><!DOCTYPE svg PUBLIC "-//W3C//DTD SVG 1.1//EN" "http://www.w3.org/Graphics/SVG/1.1/DTD/svg11.dtd"><svg width="100%" height="100%" viewBox="0 0 2277 576" version="1.1" xmlns="http://www.w3.org/2000/svg" xmlns:xlink="http://www.w3.org/1999/xlink" xml:space="preserve" xmlns:serif="http://www.serif.com/" style="fill-rule:evenodd;clip-rule:evenodd;stroke-linejoin:round;stroke-miterlimit:2;"><g id="Last-Played" serif:id="Last Played"><g><g><path d="M108.515,110.139l64.305,-0c3.128,-0 6.866,-4.6 11.212,-13.8c4.347,-9.199 4.957,-13.799 1.829,-13.799l-64.305,-0c-2.944,-0 -6.59,4.6 -10.937,13.799c-4.347,9.2 -5.048,13.8 -2.104,13.8Zm17.344,-36.707l64.306,0c3.128,0 6.865,-4.6 11.212,-13.799c4.347,-9.2 4.956,-13.8 1.829,-13.8l-64.306,0c-2.944,0 -6.589,4.6 -10.936,13.8c-4.347,9.199 -5.049,13.799 -2.105,13.799Zm-34.689,73.413l64.306,0c3.128,0 6.865,-4.6 11.212,-13.799c4.347,-9.2 4.957,-13.8 1.829,-13.8l-64.306,0c-2.944,0 -6.589,4.6 -10.936,13.8c-4.347,9.199 -5.049,13.799 -2.105,13.799Zm-34.688,73.413l64.305,0c3.128,0 6.865,-4.599 11.212,-13.799c4.347,-9.2 4.957,-13.8 1.829,-13.8l-64.306,0c-2.943,0 -6.589,4.6 -10.936,13.8c-4.347,9.2 -5.048,13.799 -2.104,13.799Zm17.344,-36.706l64.305,-0c3.128,-0 6.866,-4.6 11.213,-13.8c4.347,-9.199 4.956,-13.799 1.828,-13.799l-64.305,-0c-2.944,-0 -6.589,4.6 -10.936,13.799c-4.347,9.2 -5.049,13.8 -2.105,13.8Zm-34.689,73.413l64.306,-0c3.127,-0 6.865,-4.6 11.212,-13.8c4.347,-9.199 4.956,-13.799 1.828,-13.799l-64.305,-0c-2.944,-0 -6.589,4.6 -10.936,13.799c-4.347,9.2 -5.049,13.8 -2.105,13.8Zm-17.344,36.706l247.838,0c3.128,0 6.865,-4.599 11.212,-13.799c4.347,-9.2 4.957,-13.799 1.829,-13.799l-247.838,-0c-2.944,-0 -6.59,4.599 -10.937,13.799c-4.347,9.2 -5.048,13.799 -2.104,13.799Z" style="fill:#f0f;fill-rule:nonzero;"/><path d="M438.598,110.139l64.305,-0c3.128,-0 6.865,-4.6 11.212,-13.8c4.347,-9.199 4.957,-13.799 1.829,-13.799l-64.306,-0c-2.943,-0 -6.589,4.6 -10.936,13.799c-4.347,9.2 -5.048,13.8 -2.104,13.8Zm110.119,-0l64.306,-0c3.127,-0 6.865,-4.6 11.212,-13.8c4.347,-9.199 4.956,-13.799 1.829,-13.799l-64.306,-0c-2.944,-0 -6.589,4.6 -10.936,13.799c-4.347,9.2 -5.049,13.8 -2.105,13.8Zm-56.068,-36.707l101.011,0c3.128,0 6.866,-4.6 11.213,-13.799c4.347,-9.2 4.956,-13.8 1.828,-13.8l-101.012,0c-2.943,0 -6.589,4.6 -10.936,13.8c-4.347,9.199 -5.048,13.799 -2.104,13.799Zm-108.102,73.413l64.305,0c3.128,0 6.865,-4.6 11.212,-13.799c4.347,-9.2 4.957,-13.8 1.829,-13.8l-64.305,0c-2.944,0 -6.59,4.6 -10.937,13.8c-4.347,9.199 -5.048,13.799 -2.104,13.799Zm183.532,0l64.306,0c3.128,0 6.865,-4.6 11.212,-13.799c4.347,-9.2 4.957,-13.8 1.829,-13.8l-64.306,0c-2.944,0 -6.589,4.6 -10.936,13.8c-4.347,9.199 -5.049,13.799 -2.105,13.799Zm-200.877,36.707l64.306,-0c3.128,-0 6.865,-4.6 11.212,-13.8c4.347,-9.199 4.956,-13.799 1.829,-13.799l-64.306,-0c-2.944,-0 -6.589,4.6 -10.936,13.799c-4.347,9.2 -5.049,13.8 -2.105,13.8Zm183.533,-0l64.305,-0c3.128,-0 6.866,-4.6 11.213,-13.8c4.347,-9.199 4.956,-13.799 1.828,-13.799l-64.305,-0c-2.944,-0 -6.59,4.6 -10.936,13.799c-4.347,9.2 -5.049,13.8 -2.105,13.8Zm-200.877,36.706l247.838,0c3.128,0 6.865,-4.599 11.212,-13.799c4.347,-9.2 4.957,-13.8 1.829,-13.8l-247.838,0c-2.944,0 -6.59,4.6 -10.937,13.8c-4.347,9.2 -5.048,13.799 -2.104,13.799Zm-17.345,36.707l64.306,-0c3.128,-0 6.865,-4.6 11.212,-13.8c4.347,-9.199 4.957,-13.799 1.829,-13.799l-64.306,-0c-2.944,-0 -6.589,4.6 -10.936,13.799c-4.347,9.2 -5.048,13.8 -2.105,13.8Zm183.533,-0l64.305,-0c3.128,-0 6.866,-4.6 11.213,-13.8c4.347,-9.199 4.956,-13.799 1.828,-13.799l-64.305,-0c-2.944,-0 -6.589,4.6 -10.936,13.799c-4.347,9.2 -5.049,13.8 -2.105,13.8Zm-200.877,36.706l64.305,0c3.128,0 6.866,-4.599 11.213,-13.799c4.347,-9.2 4.956,-13.799 1.828,-13.799l-64.305,-0c-2.944,-0 -6.589,4.599 -10.936,13.799c-4.347,9.2 -5.049,13.799 -2.105,13.799Zm183.533,0l64.305,0c3.128,0 6.865,-4.599 11.212,-13.799c4.347,-9.2 4.957,-13.799 1.829,-13.799l-64.305,-0c-2.944,-0 -6.59,4.599 -10.937,13.799c-4.347,9.2 -5.048,13.799 -2.104,13.799Z" style="fill:#f0f;fill-rule:nonzero;"/><path d="M695.543,110.139l64.306,-0c3.128,-0 6.865,-4.6 11.212,-13.8c4.347,-9.199 4.957,-13.799 1.829,-13.799l-64.306,-0c-2.944,-0 -6.589,4.6 -10.936,13.799c-4.347,9.2 -5.049,13.8 -2.105,13.8Zm146.826,-0l64.306,-0c3.128,-0 6.865,-4.6 11.212,-13.8c4.347,-9.199 4.957,-13.799 1.829,-13.799l-64.306,-0c-2.944,-0 -6.589,4.6 -10.936,13.799c-4.347,9.2 -5.048,13.8 -2.105,13.8Zm-92.775,-36.707l137.719,0c3.128,0 6.865,-4.6 11.212,-13.799c4.347,-9.2 4.957,-13.8 1.829,-13.8l-137.719,0c-2.944,0 -6.589,4.6 -10.936,13.8c-4.347,9.199 -5.049,13.799 -2.105,13.799Zm-71.395,73.413l64.305,0c3.128,0 6.866,-4.6 11.213,-13.799c4.347,-9.2 4.956,-13.8 1.828,-13.8l-64.305,0c-2.944,0 -6.59,4.6 -10.936,13.8c-4.347,9.199 -5.049,13.799 -2.105,13.799Zm148.844,73.413l64.305,0c3.128,0 6.865,-4.599 11.212,-13.799c4.347,-9.2 4.957,-13.8 1.829,-13.8l-64.305,0c-2.944,0 -6.59,4.6 -10.937,13.8c-4.347,9.2 -5.048,13.799 -2.104,13.799Zm-129.482,-36.706l174.425,-0c3.128,-0 6.865,-4.6 11.212,-13.8c4.347,-9.199 4.957,-13.799 1.829,-13.799l-174.425,-0c-2.944,-0 -6.589,4.6 -10.936,13.799c-4.347,9.2 -5.049,13.8 -2.105,13.8Zm-71.395,73.413l64.305,-0c3.128,-0 6.865,-4.6 11.212,-13.8c4.347,-9.199 4.957,-13.799 1.829,-13.799l-64.305,-0c-2.944,-0 -6.59,4.6 -10.937,13.799c-4.347,9.2 -5.048,13.8 -2.104,13.8Zm183.532,-0l64.306,-0c3.128,-0 6.865,-4.6 11.212,-13.8c4.347,-9.199 4.957,-13.799 1.829,-13.799l-64.306,-0c-2.944,-0 -6.589,4.6 -10.936,13.799c-4.347,9.2 -5.049,13.8 -2.105,13.8Zm-164.17,36.706l174.425,0c3.128,0 6.865,-4.599 11.212,-13.799c4.347,-9.2 4.957,-13.799 1.829,-13.799l-174.425,-0c-2.944,-0 -6.59,4.599 -10.937,13.799c-4.347,9.2 -5.048,13.799 -2.104,13.799Z" style="fill:#f0f;fill-rule:nonzero;"/><path d="M1099.32,110.139l64.306,-0c3.127,-0 6.865,-4.6 11.212,-13.8c4.347,-9.199 4.956,-13.799 1.828,-13.799l-64.305,-0c-2.944,-0 -6.589,4.6 -10.936,13.799c-4.347,9.2 -5.049,13.8 -2.105,13.8Zm-56.068,-36.707l211.131,0c3.128,0 6.865,-4.6 11.212,-13.799c4.347,-9.2 4.957,-13.8 1.829,-13.8l-211.132,0c-2.943,0 -6.589,4.6 -10.936,13.8c-4.347,9.199 -5.048,13.799 -2.104,13.799Zm38.724,73.413l64.305,0c3.128,0 6.865,-4.6 11.212,-13.799c4.347,-9.2 4.957,-13.8 1.829,-13.8l-64.305,0c-2.944,0 -6.59,4.6 -10.937,13.8c-4.347,9.199 -5.048,13.799 -2.104,13.799Zm-52.034,110.12l64.306,-0c3.128,-0 6.865,-4.6 11.212,-13.8c4.347,-9.199 4.957,-13.799 1.829,-13.799l-64.306,-0c-2.943,-0 -6.589,4.6 -10.936,13.799c-4.347,9.2 -5.048,13.8 -2.105,13.8Zm-17.344,36.706l64.305,0c3.128,0 6.866,-4.599 11.213,-13.799c4.347,-9.2 4.956,-13.799 1.828,-13.799l-64.305,-0c-2.944,-0 -6.589,4.599 -10.936,13.799c-4.347,9.2 -5.049,13.799 -2.105,13.799Zm52.033,-110.119l64.306,-0c3.128,-0 6.865,-4.6 11.212,-13.8c4.347,-9.199 4.957,-13.799 1.829,-13.799l-64.306,-0c-2.944,-0 -6.589,4.6 -10.936,13.799c-4.347,9.2 -5.049,13.8 -2.105,13.8Zm-17.344,36.706l64.305,0c3.128,0 6.866,-4.599 11.213,-13.799c4.347,-9.2 4.956,-13.8 1.828,-13.8l-64.305,0c-2.944,0 -6.589,4.6 -10.936,13.8c-4.347,9.2 -5.049,13.799 -2.105,13.799Z" style="fill:#f0f;fill-rule:nonzero;"/><path d="M562.414,391.885l64.305,0c3.128,0 6.865,-4.6 11.212,-13.799c4.347,-9.2 4.957,-13.8 1.829,-13.8l-64.305,0c-2.944,0 -6.59,4.6 -10.937,13.8c-4.347,9.199 -5.048,13.799 -2.104,13.799Zm183.532,0l64.306,0c3.128,0 6.865,-4.6 11.212,-13.799c4.347,-9.2 4.957,-13.8 1.829,-13.8l-64.306,0c-2.944,0 -6.589,4.6 -10.936,13.8c-4.347,9.199 -5.049,13.799 -2.105,13.799Zm-166.188,-36.706l211.132,-0c3.128,-0 6.865,-4.6 11.212,-13.8c4.347,-9.199 4.956,-13.799 1.829,-13.799l-211.132,-0c-2.944,-0 -6.589,4.6 -10.936,13.799c-4.347,9.2 -5.049,13.8 -2.105,13.8Zm-34.689,73.413l64.306,-0c3.128,-0 6.865,-4.6 11.212,-13.8c4.347,-9.199 4.956,-13.799 1.829,-13.799l-64.306,-0c-2.944,-0 -6.589,4.6 -10.936,13.799c-4.347,9.2 -5.049,13.8 -2.105,13.8Zm183.533,-0l64.305,-0c3.128,-0 6.866,-4.6 11.213,-13.8c4.347,-9.199 4.956,-13.799 1.828,-13.799l-64.305,-0c-2.944,-0 -6.589,4.6 -10.936,13.799c-4.347,9.2 -5.049,13.8 -2.105,13.8Zm-218.222,73.413l211.132,-0c3.128,-0 6.865,-4.6 11.212,-13.8c4.347,-9.199 4.957,-13.799 1.829,-13.799l-211.132,-0c-2.944,-0 -6.589,4.6 -10.936,13.799c-4.347,9.2 -5.048,13.8 -2.105,13.8Zm17.345,-36.707l64.305,0c3.128,0 6.866,-4.6 11.213,-13.799c4.347,-9.2 4.956,-13.8 1.828,-13.8l-64.305,0c-2.944,0 -6.59,4.6 -10.937,13.8c-4.346,9.199 -5.048,13.799 -2.104,13.799Zm-34.689,73.413l64.305,0c3.128,0 6.866,-4.6 11.213,-13.799c4.347,-9.2 4.956,-13.8 1.828,-13.8l-64.305,0c-2.944,0 -6.589,4.6 -10.936,13.8c-4.347,9.199 -5.049,13.799 -2.105,13.799Zm-17.344,36.707l64.305,-0c3.128,-0 6.865,-4.6 11.212,-13.8c4.347,-9.199 4.957,-13.799 1.829,-13.799l-64.305,-0c-2.944,-0 -6.59,4.6 -10.937,13.799c-4.347,9.2 -5.048,13.8 -2.104,13.8Zm235.566,-110.12l64.305,0c3.128,0 6.865,-4.6 11.212,-13.799c4.347,-9.2 4.957,-13.8 1.829,-13.8l-64.306,0c-2.943,0 -6.589,4.6 -10.936,13.8c-4.347,9.199 -5.048,13.799 -2.104,13.799Z" style="fill:#f0f;fill-rule:nonzero;"/><path d="M856.342,391.885l64.305,0c3.128,0 6.866,-4.6 11.213,-13.799c4.347,-9.2 4.956,-13.8 1.828,-13.8l-64.305,0c-2.944,0 -6.589,4.6 -10.936,13.8c-4.347,9.199 -5.049,13.799 -2.105,13.799Zm17.344,-36.706l64.306,-0c3.128,-0 6.865,-4.6 11.212,-13.8c4.347,-9.199 4.957,-13.799 1.829,-13.799l-64.306,-0c-2.944,-0 -6.589,4.6 -10.936,13.799c-4.347,9.2 -5.049,13.8 -2.105,13.8Zm-34.688,73.413l64.305,-0c3.128,-0 6.865,-4.6 11.212,-13.8c4.347,-9.199 4.957,-13.799 1.829,-13.799l-64.306,-0c-2.943,-0 -6.589,4.6 -10.936,13.799c-4.347,9.2 -5.048,13.8 -2.104,13.8Zm-34.689,73.413l64.305,-0c3.128,-0 6.865,-4.6 11.212,-13.8c4.347,-9.199 4.957,-13.799 1.829,-13.799l-64.305,-0c-2.944,-0 -6.59,4.6 -10.937,13.799c-4.347,9.2 -5.048,13.8 -2.104,13.8Zm17.344,-36.707l64.306,0c3.127,0 6.865,-4.6 11.212,-13.799c4.347,-9.2 4.956,-13.8 1.828,-13.8l-64.305,0c-2.944,0 -6.589,4.6 -10.936,13.8c-4.347,9.199 -5.049,13.799 -2.105,13.799Zm-34.689,73.413l64.306,0c3.128,0 6.865,-4.6 11.212,-13.799c4.347,-9.2 4.956,-13.8 1.829,-13.8l-64.306,0c-2.944,0 -6.589,4.6 -10.936,13.8c-4.347,9.199 -5.049,13.799 -2.105,13.799Zm-17.344,36.707l247.838,-0c3.128,-0 6.865,-4.6 11.212,-13.8c4.347,-9.199 4.957,-13.799 1.829,-13.799l-247.838,-0c-2.944,-0 -6.59,4.6 -10.937,13.799c-4.346,9.2 -5.048,13.8 -2.104,13.8Z" style="fill:#f0f;fill-rule:nonzero;"/><path d="M1186.42,391.885l64.305,0c3.128,0 6.865,-4.6 11.212,-13.799c4.347,-9.2 4.957,-13.8 1.829,-13.8l-64.305,0c-2.944,0 -6.59,4.6 -10.937,13.8c-4.347,9.199 -5.048,13.799 -2.104,13.799Zm110.119,0l64.306,0c3.128,0 6.865,-4.6 11.212,-13.799c4.347,-9.2 4.957,-13.8 1.829,-13.8l-64.306,0c-2.944,0 -6.589,4.6 -10.936,13.8c-4.347,9.199 -5.049,13.799 -2.105,13.799Zm-56.068,-36.706l101.012,-0c3.128,-0 6.865,-4.6 11.212,-13.8c4.347,-9.199 4.956,-13.799 1.829,-13.799l-101.012,-0c-2.944,-0 -6.59,4.6 -10.937,13.799c-4.347,9.2 -5.048,13.8 -2.104,13.8Zm-108.102,73.413l64.305,-0c3.128,-0 6.865,-4.6 11.212,-13.8c4.347,-9.199 4.957,-13.799 1.829,-13.799l-64.305,-0c-2.944,-0 -6.59,4.6 -10.937,13.799c-4.347,9.2 -5.048,13.8 -2.104,13.8Zm183.532,-0l64.306,-0c3.128,-0 6.865,-4.6 11.212,-13.8c4.347,-9.199 4.957,-13.799 1.829,-13.799l-64.306,-0c-2.944,-0 -6.589,4.6 -10.936,13.799c-4.347,9.2 -5.048,13.8 -2.105,13.8Zm-200.877,36.706l64.306,0c3.128,0 6.865,-4.6 11.212,-13.799c4.347,-9.2 4.957,-13.8 1.829,-13.8l-64.306,0c-2.944,0 -6.589,4.6 -10.936,13.8c-4.347,9.199 -5.049,13.799 -2.105,13.799Zm183.533,0l64.305,0c3.128,0 6.866,-4.6 11.213,-13.799c4.347,-9.2 4.956,-13.8 1.828,-13.8l-64.305,0c-2.944,0 -6.589,4.6 -10.936,13.8c-4.347,9.199 -5.049,13.799 -2.105,13.799Zm-200.877,36.707l247.838,-0c3.128,-0 6.865,-4.6 11.212,-13.8c4.347,-9.199 4.957,-13.799 1.829,-13.799l-247.838,-0c-2.944,-0 -6.589,4.6 -10.936,13.799c-4.347,9.2 -5.049,13.8 -2.105,13.8Zm-17.344,36.706l64.305,0c3.128,0 6.865,-4.6 11.212,-13.799c4.347,-9.2 4.957,-13.8 1.829,-13.8l-64.306,0c-2.943,0 -6.589,4.6 -10.936,13.8c-4.347,9.199 -5.048,13.799 -2.104,13.799Zm183.532,0l64.306,0c3.127,0 6.865,-4.6 11.212,-13.799c4.347,-9.2 4.956,-13.8 1.829,-13.8l-64.306,0c-2.944,0 -6.589,4.6 -10.936,13.8c-4.347,9.199 -5.049,13.799 -2.105,13.799Zm-200.877,36.707l64.306,-0c3.127,-0 6.865,-4.6 11.212,-13.8c4.347,-9.199 4.956,-13.799 1.828,-13.799l-64.305,-0c-2.944,-0 -6.589,4.6 -10.936,13.799c-4.347,9.2 -5.049,13.8 -2.105,13.8Zm183.533,-0l64.305,-0c3.128,-0 6.865,-4.6 11.212,-13.8c4.347,-9.199 4.957,-13.799 1.829,-13.799l-64.305,-0c-2.944,-0 -6.59,4.6 -10.937,13.799c-4.347,9.2 -5.048,13.8 -2.104,13.8Z" style="fill:#f0f;fill-rule:nonzero;"/><path d="M1497.42,355.179l64.306,-0c3.128,-0 6.865,-4.6 11.212,-13.8c4.347,-9.199 4.957,-13.799 1.829,-13.799l-64.306,-0c-2.944,-0 -6.589,4.6 -10.936,13.799c-4.347,9.2 -5.048,13.8 -2.105,13.8Zm-17.344,36.706l64.305,0c3.128,0 6.866,-4.6 11.213,-13.799c4.347,-9.2 4.956,-13.8 1.828,-13.8l-64.305,0c-2.944,0 -6.589,4.6 -10.936,13.8c-4.347,9.199 -5.049,13.799 -2.105,13.799Zm-17.344,36.707l64.305,-0c3.128,-0 6.865,-4.6 11.212,-13.8c4.347,-9.199 4.957,-13.799 1.829,-13.799l-64.306,-0c-2.943,-0 -6.589,4.6 -10.936,13.799c-4.347,9.2 -5.048,13.8 -2.104,13.8Zm19.362,36.706l137.718,0c3.128,0 6.865,-4.6 11.212,-13.799c4.347,-9.2 4.957,-13.8 1.829,-13.8l-137.718,0c-2.944,0 -6.59,4.6 -10.937,13.8c-4.347,9.199 -5.048,13.799 -2.104,13.799Zm162.153,-110.119l64.305,-0c3.128,-0 6.865,-4.6 11.212,-13.8c4.347,-9.199 4.957,-13.799 1.829,-13.799l-64.306,-0c-2.943,-0 -6.589,4.6 -10.936,13.799c-4.347,9.2 -5.048,13.8 -2.104,13.8Zm-17.345,36.706l64.306,0c3.127,0 6.865,-4.6 11.212,-13.799c4.347,-9.2 4.956,-13.8 1.828,-13.8l-64.305,0c-2.944,0 -6.589,4.6 -10.936,13.8c-4.347,9.199 -5.049,13.799 -2.105,13.799Zm-125.446,110.12l64.305,-0c3.128,-0 6.866,-4.6 11.212,-13.8c4.347,-9.199 4.957,-13.799 1.829,-13.799l-64.305,-0c-2.944,-0 -6.59,4.6 -10.937,13.799c-4.347,9.2 -5.048,13.8 -2.104,13.8Zm-17.345,36.706l64.306,0c3.128,0 6.865,-4.6 11.212,-13.799c4.347,-9.2 4.957,-13.8 1.829,-13.8l-64.306,0c-2.944,0 -6.589,4.6 -10.936,13.8c-4.347,9.199 -5.049,13.799 -2.105,13.799Zm-17.344,36.707l64.305,-0c3.128,-0 6.866,-4.6 11.213,-13.8c4.347,-9.199 4.956,-13.799 1.828,-13.799l-64.305,-0c-2.944,-0 -6.589,4.6 -10.936,13.799c-4.347,9.2 -5.049,13.8 -2.105,13.8Zm142.791,-146.826l64.305,-0c3.128,-0 6.865,-4.6 11.212,-13.8c4.347,-9.199 4.957,-13.799 1.829,-13.799l-64.305,-0c-2.944,-0 -6.59,4.6 -10.937,13.799c-4.347,9.2 -5.048,13.8 -2.104,13.8Z" style="fill:#f0f;fill-rule:nonzero;"/><path d="M1737.3,391.885l64.305,0c3.128,0 6.865,-4.6 11.212,-13.799c4.347,-9.2 4.957,-13.8 1.829,-13.8l-64.305,0c-2.944,0 -6.59,4.6 -10.937,13.8c-4.347,9.199 -5.048,13.799 -2.104,13.799Zm17.344,-36.706l247.838,-0c3.128,-0 6.865,-4.6 11.212,-13.8c4.347,-9.199 4.957,-13.799 1.829,-13.799l-247.838,-0c-2.944,-0 -6.589,4.6 -10.936,13.799c-4.347,9.2 -5.049,13.8 -2.105,13.8Zm-34.689,73.413l64.306,-0c3.128,-0 6.865,-4.6 11.212,-13.8c4.347,-9.199 4.956,-13.799 1.829,-13.799l-64.306,-0c-2.944,-0 -6.589,4.6 -10.936,13.799c-4.347,9.2 -5.049,13.8 -2.105,13.8Zm-34.689,73.413l64.306,-0c3.128,-0 6.865,-4.6 11.212,-13.8c4.347,-9.199 4.957,-13.799 1.829,-13.799l-64.306,-0c-2.944,-0 -6.589,4.6 -10.936,13.799c-4.347,9.2 -5.048,13.8 -2.105,13.8Zm17.345,-36.707l211.131,0c3.128,0 6.866,-4.6 11.213,-13.799c4.347,-9.2 4.956,-13.8 1.828,-13.8l-211.131,0c-2.944,0 -6.59,4.6 -10.937,13.8c-4.346,9.199 -5.048,13.799 -2.104,13.799Zm-34.689,73.413l64.305,0c3.128,0 6.866,-4.6 11.213,-13.799c4.347,-9.2 4.956,-13.8 1.828,-13.8l-64.305,0c-2.944,0 -6.589,4.6 -10.936,13.8c-4.347,9.199 -5.049,13.799 -2.105,13.799Zm-17.344,36.707l247.838,-0c3.128,-0 6.865,-4.6 11.212,-13.8c4.347,-9.199 4.956,-13.799 1.829,-13.799l-247.838,-0c-2.944,-0 -6.59,4.6 -10.937,13.799c-4.347,9.2 -5.048,13.8 -2.104,13.8Z" style="fill:#f0f;fill-rule:nonzero;"/><path d="M2030.67,391.885l64.305,0c3.128,0 6.866,-4.6 11.213,-13.799c4.347,-9.2 4.956,-13.8 1.828,-13.8l-64.305,0c-2.944,0 -6.589,4.6 -10.936,13.8c-4.347,9.199 -5.049,13.799 -2.105,13.799Zm146.826,0l64.306,0c3.127,0 6.865,-4.6 11.212,-13.799c4.347,-9.2 4.956,-13.8 1.828,-13.8l-64.305,0c-2.944,0 -6.589,4.6 -10.936,13.8c-4.347,9.199 -5.049,13.799 -2.105,13.799Zm-129.482,-36.706l174.425,-0c3.128,-0 6.866,-4.6 11.213,-13.8c4.347,-9.199 4.956,-13.799 1.828,-13.799l-174.425,-0c-2.944,-0 -6.589,4.6 -10.936,13.799c-4.347,9.2 -5.049,13.8 -2.105,13.8Zm-34.688,73.413l64.305,-0c3.128,-0 6.865,-4.6 11.212,-13.8c4.347,-9.199 4.957,-13.799 1.829,-13.799l-64.306,-0c-2.943,-0 -6.589,4.6 -10.936,13.799c-4.347,9.2 -5.048,13.8 -2.104,13.8Zm183.532,-0l64.306,-0c3.127,-0 6.865,-4.6 11.212,-13.8c4.347,-9.199 4.956,-13.799 1.829,-13.799l-64.306,-0c-2.944,-0 -6.589,4.6 -10.936,13.799c-4.347,9.2 -5.049,13.8 -2.105,13.8Zm-218.221,73.413l64.305,-0c3.128,-0 6.865,-4.6 11.212,-13.8c4.347,-9.199 4.957,-13.799 1.829,-13.799l-64.305,-0c-2.944,-0 -6.59,4.6 -10.937,13.799c-4.347,9.2 -5.048,13.8 -2.104,13.8Zm183.532,-0l64.306,-0c3.128,-0 6.865,-4.6 11.212,-13.8c4.347,-9.199 4.957,-13.799 1.829,-13.799l-64.306,-0c-2.944,-0 -6.589,4.6 -10.936,13.799c-4.347,9.2 -5.049,13.8 -2.105,13.8Zm-166.188,-36.707l64.306,0c3.127,0 6.865,-4.6 11.212,-13.799c4.347,-9.2 4.956,-13.8 1.828,-13.8l-64.305,0c-2.944,0 -6.589,4.6 -10.936,13.8c-4.347,9.199 -5.049,13.799 -2.105,13.799Zm-34.689,73.413l64.306,0c3.128,0 6.865,-4.6 11.212,-13.799c4.347,-9.2 4.957,-13.8 1.829,-13.8l-64.306,0c-2.944,0 -6.589,4.6 -10.936,13.8c-4.347,9.199 -5.049,13.799 -2.105,13.799Zm146.826,0l64.306,0c3.128,0 6.865,-4.6 11.212,-13.799c4.347,-9.2 4.957,-13.8 1.829,-13.8l-64.306,0c-2.944,0 -6.589,4.6 -10.936,13.8c-4.347,9.199 -5.048,13.799 -2.105,13.799Zm-164.17,36.707l174.425,-0c3.128,-0 6.865,-4.6 11.212,-13.8c4.347,-9.199 4.957,-13.799 1.829,-13.799l-174.425,-0c-2.944,-0 -6.59,4.6 -10.936,13.799c-4.347,9.2 -5.049,13.8 -2.105,13.8Zm235.566,-110.12l64.305,0c3.128,0 6.866,-4.6 11.212,-13.799c4.347,-9.2 4.957,-13.8 1.829,-13.8l-64.305,0c-2.944,0 -6.59,4.6 -10.937,13.8c-4.347,9.199 -5.048,13.799 -2.104,13.799Z" style="fill:#f0f;fill-rule:nonzero;"/></g><g><path d="M88.505,64.305l64.306,0c3.127,0 6.865,-4.599 11.212,-13.799c4.347,-9.2 4.956,-13.799 1.828,-13.799l-64.305,-0c-2.944,-0 -6.589,4.599 -10.936,13.799c-4.347,9.2 -5.049,13.799 -2.105,13.799Zm17.345,-36.706l64.305,-0c3.128,-0 6.865,-4.6 11.212,-13.8c4.347,-9.199 4.957,-13.799 1.829,-13.799l-64.306,-0c-2.943,-0 -6.589,4.6 -10.936,13.799c-4.347,9.2 -5.048,13.8 -2.104,13.8Zm-34.689,73.413l64.305,-0c3.128,-0 6.865,-4.6 11.212,-13.799c4.347,-9.2 4.957,-13.8 1.829,-13.8l-64.305,0c-2.944,0 -6.59,4.6 -10.937,13.8c-4.347,9.199 -5.048,13.799 -2.104,13.799Zm-34.689,73.413l64.305,0c3.128,0 6.866,-4.6 11.213,-13.799c4.347,-9.2 4.956,-13.8 1.828,-13.8l-64.305,0c-2.944,0 -6.59,4.6 -10.937,13.8c-4.346,9.199 -5.048,13.799 -2.104,13.799Zm17.344,-36.707l64.306,0c3.128,0 6.865,-4.599 11.212,-13.799c4.347,-9.2 4.956,-13.799 1.829,-13.799l-64.306,-0c-2.944,-0 -6.589,4.599 -10.936,13.799c-4.347,9.2 -5.049,13.799 -2.105,13.799Zm-34.689,73.414l64.306,-0c3.128,-0 6.865,-4.6 11.212,-13.8c4.347,-9.2 4.957,-13.799 1.829,-13.799l-64.306,-0c-2.944,-0 -6.589,4.599 -10.936,13.799c-4.347,9.2 -5.048,13.8 -2.105,13.8Zm-17.344,36.706l247.838,0c3.128,0 6.865,-4.6 11.212,-13.799c4.347,-9.2 4.957,-13.8 1.829,-13.8l-247.838,0c-2.944,0 -6.589,4.6 -10.936,13.8c-4.347,9.199 -5.049,13.799 -2.105,13.799Z" style="fill:#009dff;fill-rule:nonzero;"/><path d="M418.588,64.305l64.305,0c3.128,0 6.866,-4.599 11.213,-13.799c4.347,-9.2 4.956,-13.799 1.828,-13.799l-64.305,-0c-2.944,-0 -6.59,4.599 -10.936,13.799c-4.347,9.2 -5.049,13.799 -2.105,13.799Zm110.119,0l64.306,0c3.128,0 6.865,-4.599 11.212,-13.799c4.347,-9.2 4.957,-13.799 1.829,-13.799l-64.306,-0c-2.943,-0 -6.589,4.599 -10.936,13.799c-4.347,9.2 -5.048,13.799 -2.105,13.799Zm-56.068,-36.706l101.012,-0c3.128,-0 6.865,-4.6 11.212,-13.8c4.347,-9.199 4.957,-13.799 1.829,-13.799l-101.012,-0c-2.944,-0 -6.59,4.6 -10.937,13.799c-4.347,9.2 -5.048,13.8 -2.104,13.8Zm-108.102,73.413l64.305,-0c3.128,-0 6.866,-4.6 11.213,-13.799c4.347,-9.2 4.956,-13.8 1.828,-13.8l-64.305,0c-2.944,0 -6.589,4.6 -10.936,13.8c-4.347,9.199 -5.049,13.799 -2.105,13.799Zm183.533,-0l64.305,-0c3.128,-0 6.865,-4.6 11.212,-13.799c4.347,-9.2 4.957,-13.8 1.829,-13.8l-64.305,0c-2.944,0 -6.59,4.6 -10.937,13.8c-4.347,9.199 -5.048,13.799 -2.104,13.799Zm-200.877,36.706l64.305,0c3.128,0 6.865,-4.599 11.212,-13.799c4.347,-9.2 4.957,-13.799 1.829,-13.799l-64.306,-0c-2.943,-0 -6.589,4.599 -10.936,13.799c-4.347,9.2 -5.048,13.799 -2.104,13.799Zm183.532,0l64.306,0c3.127,0 6.865,-4.599 11.212,-13.799c4.347,-9.2 4.956,-13.799 1.829,-13.799l-64.306,-0c-2.944,-0 -6.589,4.599 -10.936,13.799c-4.347,9.2 -5.049,13.799 -2.105,13.799Zm-200.877,36.707l247.838,0c3.128,0 6.865,-4.6 11.212,-13.799c4.347,-9.2 4.957,-13.8 1.829,-13.8l-247.838,0c-2.944,0 -6.589,4.6 -10.936,13.8c-4.347,9.199 -5.049,13.799 -2.105,13.799Zm-17.344,36.707l64.305,-0c3.128,-0 6.865,-4.6 11.212,-13.8c4.347,-9.2 4.957,-13.799 1.829,-13.799l-64.305,-0c-2.944,-0 -6.59,4.599 -10.937,13.799c-4.347,9.2 -5.048,13.8 -2.104,13.8Zm183.532,-0l64.306,-0c3.128,-0 6.865,-4.6 11.212,-13.8c4.347,-9.2 4.957,-13.799 1.829,-13.799l-64.306,-0c-2.944,-0 -6.589,4.599 -10.936,13.799c-4.347,9.2 -5.049,13.8 -2.105,13.8Zm-200.877,36.706l64.306,0c3.128,0 6.865,-4.6 11.212,-13.799c4.347,-9.2 4.956,-13.8 1.829,-13.8l-64.306,0c-2.944,0 -6.589,4.6 -10.936,13.8c-4.347,9.199 -5.049,13.799 -2.105,13.799Zm183.533,0l64.305,0c3.128,0 6.866,-4.6 11.213,-13.799c4.347,-9.2 4.956,-13.8 1.828,-13.8l-64.305,0c-2.944,0 -6.589,4.6 -10.936,13.8c-4.347,9.199 -5.049,13.799 -2.105,13.799Z" style="fill:#009dff;fill-rule:nonzero;"/><path d="M675.534,64.305l64.305,0c3.128,0 6.865,-4.599 11.212,-13.799c4.347,-9.2 4.957,-13.799 1.829,-13.799l-64.305,-0c-2.944,-0 -6.59,4.599 -10.937,13.799c-4.347,9.2 -5.048,13.799 -2.104,13.799Zm146.826,0l64.305,0c3.128,0 6.865,-4.599 11.212,-13.799c4.347,-9.2 4.957,-13.799 1.829,-13.799l-64.305,-0c-2.944,-0 -6.59,4.599 -10.937,13.799c-4.347,9.2 -5.048,13.799 -2.104,13.799Zm-92.775,-36.706l137.718,-0c3.128,-0 6.865,-4.6 11.212,-13.8c4.347,-9.199 4.957,-13.799 1.829,-13.799l-137.719,-0c-2.943,-0 -6.589,4.6 -10.936,13.799c-4.347,9.2 -5.048,13.8 -2.104,13.8Zm-71.396,73.413l64.306,-0c3.127,-0 6.865,-4.6 11.212,-13.799c4.347,-9.2 4.956,-13.8 1.829,-13.8l-64.306,0c-2.944,0 -6.589,4.6 -10.936,13.8c-4.347,9.199 -5.049,13.799 -2.105,13.799Zm148.844,73.413l64.305,0c3.128,0 6.866,-4.6 11.213,-13.799c4.347,-9.2 4.956,-13.8 1.828,-13.8l-64.305,0c-2.944,0 -6.589,4.6 -10.936,13.8c-4.347,9.199 -5.049,13.799 -2.105,13.799Zm-129.482,-36.707l174.425,0c3.128,0 6.866,-4.599 11.213,-13.799c4.347,-9.2 4.956,-13.799 1.828,-13.799l-174.425,-0c-2.944,-0 -6.589,4.599 -10.936,13.799c-4.347,9.2 -5.049,13.799 -2.105,13.799Zm-71.395,73.414l64.305,-0c3.128,-0 6.866,-4.6 11.213,-13.8c4.347,-9.2 4.956,-13.799 1.828,-13.799l-64.305,-0c-2.944,-0 -6.589,4.599 -10.936,13.799c-4.347,9.2 -5.049,13.8 -2.105,13.8Zm183.533,-0l64.305,-0c3.128,-0 6.865,-4.6 11.212,-13.8c4.347,-9.2 4.957,-13.799 1.829,-13.799l-64.305,-0c-2.944,-0 -6.59,4.599 -10.937,13.799c-4.347,9.2 -5.048,13.8 -2.104,13.8Zm-164.171,36.706l174.425,0c3.128,0 6.865,-4.6 11.212,-13.799c4.347,-9.2 4.957,-13.8 1.829,-13.8l-174.425,0c-2.944,0 -6.589,4.6 -10.936,13.8c-4.347,9.199 -5.049,13.799 -2.105,13.799Z" style="fill:#009dff;fill-rule:nonzero;"/><path d="M1079.31,64.305l64.306,0c3.128,0 6.865,-4.599 11.212,-13.799c4.347,-9.2 4.957,-13.799 1.829,-13.799l-64.306,-0c-2.944,-0 -6.589,4.599 -10.936,13.799c-4.347,9.2 -5.048,13.799 -2.105,13.799Zm-56.068,-36.706l211.131,-0c3.128,-0 6.866,-4.6 11.213,-13.8c4.347,-9.199 4.956,-13.799 1.828,-13.799l-211.131,-0c-2.944,-0 -6.59,4.6 -10.937,13.799c-4.347,9.2 -5.048,13.8 -2.104,13.8Zm38.724,73.413l64.305,-0c3.128,-0 6.866,-4.6 11.213,-13.799c4.347,-9.2 4.956,-13.8 1.828,-13.8l-64.305,0c-2.944,0 -6.589,4.6 -10.936,13.8c-4.347,9.199 -5.049,13.799 -2.105,13.799Zm-52.033,110.12l64.305,-0c3.128,-0 6.866,-4.6 11.212,-13.8c4.347,-9.2 4.957,-13.799 1.829,-13.799l-64.305,-0c-2.944,-0 -6.59,4.599 -10.937,13.799c-4.347,9.2 -5.048,13.8 -2.104,13.8Zm-17.345,36.706l64.306,0c3.128,0 6.865,-4.6 11.212,-13.799c4.347,-9.2 4.957,-13.8 1.829,-13.8l-64.306,0c-2.944,0 -6.589,4.6 -10.936,13.8c-4.347,9.199 -5.049,13.799 -2.105,13.799Zm52.034,-110.12l64.305,0c3.128,0 6.865,-4.599 11.212,-13.799c4.347,-9.2 4.957,-13.799 1.829,-13.799l-64.305,-0c-2.944,-0 -6.59,4.599 -10.937,13.799c-4.347,9.2 -5.048,13.799 -2.104,13.799Zm-17.345,36.707l64.306,0c3.128,0 6.865,-4.6 11.212,-13.799c4.347,-9.2 4.956,-13.8 1.829,-13.8l-64.306,0c-2.944,0 -6.589,4.6 -10.936,13.8c-4.347,9.199 -5.049,13.799 -2.105,13.799Z" style="fill:#009dff;fill-rule:nonzero;"/><path d="M542.404,346.052l64.305,-0c3.128,-0 6.866,-4.6 11.213,-13.8c4.347,-9.199 4.956,-13.799 1.828,-13.799l-64.305,-0c-2.944,-0 -6.589,4.6 -10.936,13.799c-4.347,9.2 -5.049,13.8 -2.105,13.8Zm183.533,-0l64.305,-0c3.128,-0 6.865,-4.6 11.212,-13.8c4.347,-9.199 4.957,-13.799 1.829,-13.799l-64.305,-0c-2.944,-0 -6.59,4.6 -10.937,13.799c-4.347,9.2 -5.048,13.8 -2.104,13.8Zm-166.189,-36.707l211.132,0c3.128,0 6.865,-4.6 11.212,-13.799c4.347,-9.2 4.957,-13.8 1.829,-13.8l-211.132,0c-2.944,0 -6.589,4.6 -10.936,13.8c-4.347,9.199 -5.048,13.799 -2.105,13.799Zm-34.688,73.413l64.305,0c3.128,0 6.865,-4.599 11.212,-13.799c4.347,-9.2 4.957,-13.8 1.829,-13.8l-64.306,0c-2.943,0 -6.589,4.6 -10.936,13.8c-4.347,9.2 -5.048,13.799 -2.104,13.799Zm183.532,0l64.306,0c3.128,0 6.865,-4.599 11.212,-13.799c4.347,-9.2 4.956,-13.8 1.829,-13.8l-64.306,0c-2.944,0 -6.589,4.6 -10.936,13.8c-4.347,9.2 -5.049,13.799 -2.105,13.799Zm-218.221,73.413l211.131,0c3.128,0 6.866,-4.599 11.213,-13.799c4.347,-9.2 4.956,-13.799 1.828,-13.799l-211.131,-0c-2.944,-0 -6.59,4.599 -10.937,13.799c-4.347,9.2 -5.048,13.799 -2.104,13.799Zm17.344,-36.706l64.306,-0c3.127,-0 6.865,-4.6 11.212,-13.8c4.347,-9.199 4.956,-13.799 1.828,-13.799l-64.305,-0c-2.944,-0 -6.589,4.6 -10.936,13.799c-4.347,9.2 -5.049,13.8 -2.105,13.8Zm-34.689,73.413l64.306,-0c3.128,-0 6.865,-4.6 11.212,-13.799c4.347,-9.2 4.957,-13.8 1.829,-13.8l-64.306,0c-2.944,0 -6.589,4.6 -10.936,13.8c-4.347,9.199 -5.049,13.799 -2.105,13.799Zm-17.344,36.706l64.305,0c3.128,0 6.866,-4.599 11.213,-13.799c4.347,-9.2 4.956,-13.799 1.828,-13.799l-64.305,-0c-2.944,-0 -6.589,4.599 -10.936,13.799c-4.347,9.2 -5.049,13.799 -2.105,13.799Zm235.566,-110.119l64.305,-0c3.128,-0 6.866,-4.6 11.213,-13.8c4.346,-9.199 4.956,-13.799 1.828,-13.799l-64.305,-0c-2.944,-0 -6.59,4.6 -10.937,13.799c-4.347,9.2 -5.048,13.8 -2.104,13.8Z" style="fill:#009dff;fill-rule:nonzero;"/><path d="M836.332,346.052l64.306,-0c3.128,-0 6.865,-4.6 11.212,-13.8c4.347,-9.199 4.956,-13.799 1.829,-13.799l-64.306,-0c-2.944,-0 -6.589,4.6 -10.936,13.799c-4.347,9.2 -5.049,13.8 -2.105,13.8Zm17.345,-36.707l64.305,0c3.128,0 6.865,-4.6 11.212,-13.799c4.347,-9.2 4.957,-13.8 1.829,-13.8l-64.305,0c-2.944,0 -6.59,4.6 -10.937,13.8c-4.347,9.199 -5.048,13.799 -2.104,13.799Zm-34.689,73.413l64.305,0c3.128,0 6.866,-4.599 11.213,-13.799c4.346,-9.2 4.956,-13.8 1.828,-13.8l-64.305,0c-2.944,0 -6.59,4.6 -10.937,13.8c-4.347,9.2 -5.048,13.799 -2.104,13.799Zm-34.689,73.413l64.305,0c3.128,0 6.866,-4.599 11.213,-13.799c4.347,-9.2 4.956,-13.799 1.828,-13.799l-64.305,-0c-2.944,-0 -6.589,4.599 -10.936,13.799c-4.347,9.2 -5.049,13.799 -2.105,13.799Zm17.344,-36.706l64.306,-0c3.128,-0 6.865,-4.6 11.212,-13.8c4.347,-9.199 4.957,-13.799 1.829,-13.799l-64.306,-0c-2.944,-0 -6.589,4.6 -10.936,13.799c-4.347,9.2 -5.048,13.8 -2.105,13.8Zm-34.688,73.413l64.305,-0c3.128,-0 6.865,-4.6 11.212,-13.799c4.347,-9.2 4.957,-13.8 1.829,-13.8l-64.306,0c-2.943,0 -6.589,4.6 -10.936,13.8c-4.347,9.199 -5.048,13.799 -2.104,13.799Zm-17.345,36.706l247.838,0c3.128,0 6.866,-4.599 11.213,-13.799c4.346,-9.2 4.956,-13.799 1.828,-13.799l-247.838,-0c-2.944,-0 -6.589,4.599 -10.936,13.799c-4.347,9.2 -5.049,13.799 -2.105,13.799Z" style="fill:#009dff;fill-rule:nonzero;"/><path d="M1166.41,346.052l64.305,-0c3.128,-0 6.866,-4.6 11.213,-13.8c4.347,-9.199 4.956,-13.799 1.828,-13.799l-64.305,-0c-2.944,-0 -6.589,4.6 -10.936,13.799c-4.347,9.2 -5.049,13.8 -2.105,13.8Zm110.12,-0l64.305,-0c3.128,-0 6.865,-4.6 11.212,-13.8c4.347,-9.199 4.957,-13.799 1.829,-13.799l-64.305,-0c-2.944,-0 -6.59,4.6 -10.937,13.799c-4.347,9.2 -5.048,13.8 -2.104,13.8Zm-56.069,-36.707l101.012,0c3.128,0 6.865,-4.6 11.212,-13.799c4.347,-9.2 4.957,-13.8 1.829,-13.8l-101.012,0c-2.944,0 -6.589,4.6 -10.936,13.8c-4.347,9.199 -5.049,13.799 -2.105,13.799Zm-108.102,73.413l64.306,0c3.127,0 6.865,-4.599 11.212,-13.799c4.347,-9.2 4.956,-13.8 1.828,-13.8l-64.305,0c-2.944,0 -6.589,4.6 -10.936,13.8c-4.347,9.2 -5.049,13.799 -2.105,13.799Zm183.533,0l64.305,0c3.128,0 6.865,-4.599 11.212,-13.799c4.347,-9.2 4.957,-13.8 1.829,-13.8l-64.305,0c-2.944,0 -6.59,4.6 -10.937,13.8c-4.347,9.2 -5.048,13.799 -2.104,13.799Zm-200.877,36.707l64.305,-0c3.128,-0 6.865,-4.6 11.212,-13.8c4.347,-9.199 4.957,-13.799 1.829,-13.799l-64.305,-0c-2.944,-0 -6.59,4.6 -10.937,13.799c-4.347,9.2 -5.048,13.8 -2.104,13.8Zm183.532,-0l64.306,-0c3.128,-0 6.865,-4.6 11.212,-13.8c4.347,-9.199 4.957,-13.799 1.829,-13.799l-64.306,-0c-2.944,-0 -6.589,4.6 -10.936,13.799c-4.347,9.2 -5.049,13.8 -2.105,13.8Zm-200.877,36.706l247.838,0c3.128,0 6.866,-4.599 11.213,-13.799c4.347,-9.2 4.956,-13.799 1.828,-13.799l-247.838,-0c-2.944,-0 -6.589,4.599 -10.936,13.799c-4.347,9.2 -5.049,13.799 -2.105,13.799Zm-17.344,36.707l64.305,-0c3.128,-0 6.866,-4.6 11.213,-13.799c4.346,-9.2 4.956,-13.8 1.828,-13.8l-64.305,0c-2.944,0 -6.59,4.6 -10.937,13.8c-4.347,9.199 -5.048,13.799 -2.104,13.799Zm183.532,-0l64.306,-0c3.128,-0 6.865,-4.6 11.212,-13.799c4.347,-9.2 4.957,-13.8 1.829,-13.8l-64.306,0c-2.943,0 -6.589,4.6 -10.936,13.8c-4.347,9.199 -5.048,13.799 -2.105,13.799Zm-200.877,36.706l64.306,0c3.128,0 6.865,-4.599 11.212,-13.799c4.347,-9.2 4.957,-13.799 1.829,-13.799l-64.306,-0c-2.944,-0 -6.589,4.599 -10.936,13.799c-4.347,9.2 -5.048,13.799 -2.105,13.799Zm183.533,0l64.305,0c3.128,0 6.866,-4.599 11.213,-13.799c4.347,-9.2 4.956,-13.799 1.828,-13.799l-64.305,-0c-2.944,-0 -6.589,4.599 -10.936,13.799c-4.347,9.2 -5.049,13.799 -2.105,13.799Z" style="fill:#009dff;fill-rule:nonzero;"/><path d="M1477.41,309.345l64.305,0c3.128,0 6.865,-4.6 11.212,-13.799c4.347,-9.2 4.957,-13.8 1.829,-13.8l-64.305,0c-2.944,0 -6.59,4.6 -10.937,13.8c-4.347,9.199 -5.048,13.799 -2.104,13.799Zm-17.345,36.707l64.306,-0c3.128,-0 6.865,-4.6 11.212,-13.8c4.347,-9.199 4.956,-13.799 1.829,-13.799l-64.306,-0c-2.944,-0 -6.589,4.6 -10.936,13.799c-4.347,9.2 -5.049,13.8 -2.105,13.8Zm-17.344,36.706l64.305,0c3.128,0 6.866,-4.599 11.213,-13.799c4.347,-9.2 4.956,-13.8 1.828,-13.8l-64.305,0c-2.944,0 -6.59,4.6 -10.937,13.8c-4.346,9.2 -5.048,13.799 -2.104,13.799Zm19.362,36.707l137.718,-0c3.128,-0 6.866,-4.6 11.213,-13.8c4.347,-9.199 4.956,-13.799 1.828,-13.799l-137.718,-0c-2.944,-0 -6.589,4.6 -10.936,13.799c-4.347,9.2 -5.049,13.8 -2.105,13.8Zm162.153,-110.12l64.305,0c3.128,0 6.866,-4.6 11.213,-13.799c4.346,-9.2 4.956,-13.8 1.828,-13.8l-64.305,0c-2.944,0 -6.59,4.6 -10.937,13.8c-4.347,9.199 -5.048,13.799 -2.104,13.799Zm-17.345,36.707l64.306,-0c3.128,-0 6.865,-4.6 11.212,-13.8c4.347,-9.199 4.957,-13.799 1.829,-13.799l-64.306,-0c-2.944,-0 -6.589,4.6 -10.936,13.799c-4.347,9.2 -5.048,13.8 -2.105,13.8Zm-125.446,110.119l64.306,0c3.127,0 6.865,-4.599 11.212,-13.799c4.347,-9.2 4.956,-13.799 1.828,-13.799l-64.305,-0c-2.944,-0 -6.589,4.599 -10.936,13.799c-4.347,9.2 -5.049,13.799 -2.105,13.799Zm-17.344,36.707l64.305,-0c3.128,-0 6.865,-4.6 11.212,-13.799c4.347,-9.2 4.957,-13.8 1.829,-13.8l-64.305,0c-2.944,0 -6.59,4.6 -10.937,13.8c-4.347,9.199 -5.048,13.799 -2.104,13.799Zm-17.345,36.706l64.306,0c3.128,0 6.865,-4.599 11.212,-13.799c4.347,-9.2 4.956,-13.799 1.829,-13.799l-64.306,-0c-2.944,-0 -6.589,4.599 -10.936,13.799c-4.347,9.2 -5.049,13.799 -2.105,13.799Zm142.791,-146.826l64.305,0c3.128,0 6.866,-4.599 11.213,-13.799c4.347,-9.2 4.956,-13.8 1.828,-13.8l-64.305,0c-2.944,0 -6.589,4.6 -10.936,13.8c-4.347,9.2 -5.049,13.799 -2.105,13.799Z" style="fill:#009dff;fill-rule:nonzero;"/><path d="M1717.29,346.052l64.305,-0c3.128,-0 6.866,-4.6 11.213,-13.8c4.347,-9.199 4.956,-13.799 1.828,-13.799l-64.305,-0c-2.944,-0 -6.589,4.6 -10.936,13.799c-4.347,9.2 -5.049,13.8 -2.105,13.8Zm17.344,-36.707l247.838,0c3.128,0 6.866,-4.6 11.213,-13.799c4.347,-9.2 4.956,-13.8 1.828,-13.8l-247.838,0c-2.944,0 -6.589,4.6 -10.936,13.8c-4.347,9.199 -5.048,13.799 -2.105,13.799Zm-34.688,73.413l64.305,0c3.128,0 6.865,-4.599 11.212,-13.799c4.347,-9.2 4.957,-13.8 1.829,-13.8l-64.306,0c-2.943,0 -6.589,4.6 -10.936,13.8c-4.347,9.2 -5.048,13.799 -2.104,13.799Zm-34.689,73.413l64.305,0c3.128,0 6.865,-4.599 11.212,-13.799c4.347,-9.2 4.957,-13.799 1.829,-13.799l-64.305,-0c-2.944,-0 -6.59,4.599 -10.937,13.799c-4.347,9.2 -5.048,13.799 -2.104,13.799Zm17.344,-36.706l211.132,-0c3.128,-0 6.865,-4.6 11.212,-13.8c4.347,-9.199 4.957,-13.799 1.829,-13.799l-211.132,-0c-2.944,-0 -6.589,4.6 -10.936,13.799c-4.347,9.2 -5.049,13.8 -2.105,13.8Zm-34.689,73.413l64.306,-0c3.128,-0 6.865,-4.6 11.212,-13.799c4.347,-9.2 4.957,-13.8 1.829,-13.8l-64.306,0c-2.944,0 -6.589,4.6 -10.936,13.8c-4.347,9.199 -5.049,13.799 -2.105,13.799Zm-17.344,36.706l247.838,0c3.128,0 6.865,-4.599 11.212,-13.799c4.347,-9.2 4.957,-13.799 1.829,-13.799l-247.838,-0c-2.944,-0 -6.589,4.599 -10.936,13.799c-4.347,9.2 -5.049,13.799 -2.105,13.799Z" style="fill:#009dff;fill-rule:nonzero;"/><path d="M2010.66,346.052l64.306,-0c3.128,-0 6.865,-4.6 11.212,-13.8c4.347,-9.199 4.956,-13.799 1.829,-13.799l-64.306,-0c-2.944,-0 -6.589,4.6 -10.936,13.799c-4.347,9.2 -5.049,13.8 -2.105,13.8Zm146.826,-0l64.306,-0c3.128,-0 6.865,-4.6 11.212,-13.8c4.347,-9.199 4.957,-13.799 1.829,-13.799l-64.306,-0c-2.944,-0 -6.589,4.6 -10.936,13.799c-4.347,9.2 -5.048,13.8 -2.105,13.8Zm-129.481,-36.707l174.425,0c3.128,0 6.865,-4.6 11.212,-13.799c4.347,-9.2 4.956,-13.8 1.829,-13.8l-174.425,0c-2.944,0 -6.59,4.6 -10.937,13.8c-4.347,9.199 -5.048,13.799 -2.104,13.799Zm-34.689,73.413l64.305,0c3.128,0 6.866,-4.599 11.213,-13.799c4.347,-9.2 4.956,-13.8 1.828,-13.8l-64.305,0c-2.944,0 -6.59,4.6 -10.937,13.8c-4.346,9.2 -5.048,13.799 -2.104,13.799Zm183.532,0l64.306,0c3.128,0 6.865,-4.599 11.212,-13.799c4.347,-9.2 4.957,-13.8 1.829,-13.8l-64.306,0c-2.943,0 -6.589,4.6 -10.936,13.8c-4.347,9.2 -5.048,13.799 -2.105,13.799Zm-218.221,73.413l64.305,0c3.128,0 6.866,-4.599 11.213,-13.799c4.347,-9.2 4.956,-13.799 1.828,-13.799l-64.305,-0c-2.944,-0 -6.589,4.599 -10.936,13.799c-4.347,9.2 -5.049,13.799 -2.105,13.799Zm183.533,0l64.305,0c3.128,0 6.865,-4.599 11.212,-13.799c4.347,-9.2 4.957,-13.799 1.829,-13.799l-64.305,-0c-2.944,-0 -6.59,4.599 -10.937,13.799c-4.347,9.2 -5.048,13.799 -2.104,13.799Zm-166.189,-36.706l64.306,-0c3.128,-0 6.865,-4.6 11.212,-13.8c4.347,-9.199 4.957,-13.799 1.829,-13.799l-64.306,-0c-2.944,-0 -6.589,4.6 -10.936,13.799c-4.347,9.2 -5.048,13.8 -2.105,13.8Zm-34.688,73.413l64.305,-0c3.128,-0 6.865,-4.6 11.212,-13.799c4.347,-9.2 4.957,-13.8 1.829,-13.8l-64.305,0c-2.944,0 -6.59,4.6 -10.937,13.8c-4.347,9.199 -5.048,13.799 -2.104,13.799Zm146.826,-0l64.305,-0c3.128,-0 6.865,-4.6 11.212,-13.799c4.347,-9.2 4.957,-13.8 1.829,-13.8l-64.305,0c-2.944,0 -6.59,4.6 -10.937,13.8c-4.347,9.199 -5.048,13.799 -2.104,13.799Zm-164.171,36.706l174.425,0c3.128,0 6.865,-4.599 11.212,-13.799c4.347,-9.2 4.957,-13.799 1.829,-13.799l-174.425,-0c-2.944,-0 -6.589,4.599 -10.936,13.799c-4.347,9.2 -5.049,13.799 -2.105,13.799Zm235.566,-110.119l64.306,-0c3.127,-0 6.865,-4.6 11.212,-13.8c4.347,-9.199 4.956,-13.799 1.828,-13.799l-64.305,-0c-2.944,-0 -6.589,4.6 -10.936,13.799c-4.347,9.2 -5.049,13.8 -2.105,13.8Z" style="fill:#009dff;fill-rule:nonzero;"/></g><g><path d="M93.817,105.972l64.305,0c3.128,0 6.866,-4.6 11.213,-13.799c4.347,-9.2 4.956,-13.8 1.828,-13.8l-64.305,0c-2.944,0 -6.589,4.6 -10.936,13.8c-4.347,9.199 -5.049,13.799 -2.105,13.799Zm17.344,-36.706l64.306,-0c3.128,-0 6.865,-4.6 11.212,-13.8c4.347,-9.2 4.957,-13.799 1.829,-13.799l-64.306,-0c-2.944,-0 -6.589,4.599 -10.936,13.799c-4.347,9.2 -5.049,13.8 -2.105,13.8Zm-34.688,73.413l64.305,-0c3.128,-0 6.865,-4.6 11.212,-13.8c4.347,-9.199 4.957,-13.799 1.829,-13.799l-64.306,-0c-2.943,-0 -6.589,4.6 -10.936,13.799c-4.347,9.2 -5.048,13.8 -2.104,13.8Zm-34.689,73.413l64.305,-0c3.128,-0 6.865,-4.6 11.212,-13.8c4.347,-9.199 4.957,-13.799 1.829,-13.799l-64.305,-0c-2.944,-0 -6.59,4.6 -10.937,13.799c-4.347,9.2 -5.048,13.8 -2.104,13.8Zm17.344,-36.707l64.306,0c3.127,0 6.865,-4.6 11.212,-13.799c4.347,-9.2 4.956,-13.8 1.828,-13.8l-64.305,0c-2.944,0 -6.589,4.6 -10.936,13.8c-4.347,9.199 -5.049,13.799 -2.105,13.799Zm-34.689,73.413l64.306,0c3.128,0 6.865,-4.6 11.212,-13.799c4.347,-9.2 4.956,-13.8 1.829,-13.8l-64.306,0c-2.944,0 -6.589,4.6 -10.936,13.8c-4.347,9.199 -5.049,13.799 -2.105,13.799Zm-17.344,36.707l247.838,-0c3.128,-0 6.865,-4.6 11.212,-13.8c4.347,-9.199 4.957,-13.799 1.829,-13.799l-247.838,-0c-2.944,-0 -6.59,4.6 -10.937,13.799c-4.346,9.2 -5.048,13.8 -2.104,13.8Z" style="fill:#3b00ff;fill-rule:nonzero;"/><path d="M423.9,105.972l64.305,0c3.128,0 6.865,-4.6 11.212,-13.799c4.347,-9.2 4.957,-13.8 1.829,-13.8l-64.305,0c-2.944,0 -6.59,4.6 -10.937,13.8c-4.347,9.199 -5.048,13.799 -2.104,13.799Zm110.119,0l64.306,0c3.128,0 6.865,-4.6 11.212,-13.799c4.347,-9.2 4.957,-13.8 1.829,-13.8l-64.306,0c-2.944,0 -6.589,4.6 -10.936,13.8c-4.347,9.199 -5.049,13.799 -2.105,13.799Zm-56.068,-36.706l101.012,-0c3.128,-0 6.865,-4.6 11.212,-13.8c4.347,-9.2 4.956,-13.799 1.829,-13.799l-101.012,-0c-2.944,-0 -6.59,4.599 -10.937,13.799c-4.347,9.2 -5.048,13.8 -2.104,13.8Zm-108.102,73.413l64.305,-0c3.128,-0 6.866,-4.6 11.212,-13.8c4.347,-9.199 4.957,-13.799 1.829,-13.799l-64.305,-0c-2.944,-0 -6.59,4.6 -10.937,13.799c-4.347,9.2 -5.048,13.8 -2.104,13.8Zm183.532,-0l64.306,-0c3.128,-0 6.865,-4.6 11.212,-13.8c4.347,-9.199 4.957,-13.799 1.829,-13.799l-64.306,-0c-2.944,-0 -6.589,4.6 -10.936,13.799c-4.347,9.2 -5.048,13.8 -2.105,13.8Zm-200.877,36.706l64.306,0c3.128,0 6.865,-4.6 11.212,-13.799c4.347,-9.2 4.957,-13.8 1.829,-13.8l-64.306,0c-2.944,0 -6.589,4.6 -10.936,13.8c-4.347,9.199 -5.049,13.799 -2.105,13.799Zm183.533,0l64.305,0c3.128,0 6.866,-4.6 11.213,-13.799c4.347,-9.2 4.956,-13.8 1.828,-13.8l-64.305,0c-2.944,0 -6.589,4.6 -10.936,13.8c-4.347,9.199 -5.049,13.799 -2.105,13.799Zm-200.877,36.707l247.838,-0c3.128,-0 6.865,-4.6 11.212,-13.8c4.347,-9.199 4.957,-13.799 1.829,-13.799l-247.838,-0c-2.944,-0 -6.589,4.6 -10.936,13.799c-4.347,9.2 -5.049,13.8 -2.105,13.8Zm-17.344,36.706l64.305,0c3.128,0 6.865,-4.6 11.212,-13.799c4.347,-9.2 4.957,-13.8 1.829,-13.8l-64.306,0c-2.943,0 -6.589,4.6 -10.936,13.8c-4.347,9.199 -5.048,13.799 -2.104,13.799Zm183.532,0l64.306,0c3.127,0 6.865,-4.6 11.212,-13.799c4.347,-9.2 4.956,-13.8 1.829,-13.8l-64.306,0c-2.944,0 -6.589,4.6 -10.936,13.8c-4.347,9.199 -5.049,13.799 -2.105,13.799Zm-200.877,36.707l64.306,-0c3.127,-0 6.865,-4.6 11.212,-13.8c4.347,-9.199 4.956,-13.799 1.828,-13.799l-64.305,-0c-2.944,-0 -6.589,4.6 -10.936,13.799c-4.347,9.2 -5.049,13.8 -2.105,13.8Zm183.533,-0l64.305,-0c3.128,-0 6.866,-4.6 11.212,-13.8c4.347,-9.199 4.957,-13.799 1.829,-13.799l-64.305,-0c-2.944,-0 -6.59,4.6 -10.937,13.799c-4.347,9.2 -5.048,13.8 -2.104,13.8Z" style="fill:#3b00ff;fill-rule:nonzero;"/><path d="M680.845,105.972l64.306,0c3.128,0 6.865,-4.6 11.212,-13.799c4.347,-9.2 4.957,-13.8 1.829,-13.8l-64.306,0c-2.944,0 -6.589,4.6 -10.936,13.8c-4.347,9.199 -5.048,13.799 -2.105,13.799Zm146.827,0l64.305,0c3.128,0 6.865,-4.6 11.212,-13.799c4.347,-9.2 4.957,-13.8 1.829,-13.8l-64.306,0c-2.943,0 -6.589,4.6 -10.936,13.8c-4.347,9.199 -5.048,13.799 -2.104,13.799Zm-92.776,-36.706l137.719,-0c3.128,-0 6.865,-4.6 11.212,-13.8c4.347,-9.2 4.957,-13.799 1.829,-13.799l-137.719,-0c-2.944,-0 -6.589,4.599 -10.936,13.799c-4.347,9.2 -5.048,13.8 -2.105,13.8Zm-71.395,73.413l64.305,-0c3.128,-0 6.866,-4.6 11.213,-13.8c4.347,-9.199 4.956,-13.799 1.828,-13.799l-64.305,-0c-2.944,-0 -6.589,4.6 -10.936,13.799c-4.347,9.2 -5.049,13.8 -2.105,13.8Zm148.844,73.413l64.305,-0c3.128,-0 6.866,-4.6 11.213,-13.8c4.347,-9.199 4.956,-13.799 1.828,-13.799l-64.305,-0c-2.944,-0 -6.59,4.6 -10.937,13.799c-4.346,9.2 -5.048,13.8 -2.104,13.8Zm-129.482,-36.707l174.425,0c3.128,0 6.865,-4.6 11.212,-13.799c4.347,-9.2 4.957,-13.8 1.829,-13.8l-174.425,0c-2.944,0 -6.589,4.6 -10.936,13.8c-4.347,9.199 -5.049,13.799 -2.105,13.799Zm-71.395,73.413l64.305,0c3.128,0 6.866,-4.6 11.212,-13.799c4.347,-9.2 4.957,-13.8 1.829,-13.8l-64.305,0c-2.944,0 -6.59,4.6 -10.937,13.8c-4.347,9.199 -5.048,13.799 -2.104,13.799Zm183.532,0l64.306,0c3.128,0 6.865,-4.6 11.212,-13.799c4.347,-9.2 4.957,-13.8 1.829,-13.8l-64.306,0c-2.944,0 -6.589,4.6 -10.936,13.8c-4.347,9.199 -5.048,13.799 -2.105,13.799Zm-164.17,36.707l174.425,-0c3.128,-0 6.865,-4.6 11.212,-13.8c4.347,-9.199 4.957,-13.799 1.829,-13.799l-174.425,-0c-2.944,-0 -6.589,4.6 -10.936,13.799c-4.347,9.2 -5.049,13.8 -2.105,13.8Z" style="fill:#3b00ff;fill-rule:nonzero;"/><path d="M1084.62,105.972l64.306,0c3.128,0 6.865,-4.6 11.212,-13.799c4.347,-9.2 4.957,-13.8 1.829,-13.8l-64.306,0c-2.944,0 -6.589,4.6 -10.936,13.8c-4.347,9.199 -5.049,13.799 -2.105,13.799Zm-56.068,-36.706l211.131,-0c3.128,-0 6.866,-4.6 11.212,-13.8c4.347,-9.2 4.957,-13.799 1.829,-13.799l-211.131,-0c-2.944,-0 -6.59,4.599 -10.937,13.799c-4.347,9.2 -5.048,13.8 -2.104,13.8Zm38.724,73.413l64.305,-0c3.128,-0 6.866,-4.6 11.213,-13.8c4.347,-9.199 4.956,-13.799 1.828,-13.799l-64.305,-0c-2.944,-0 -6.59,4.6 -10.936,13.799c-4.347,9.2 -5.049,13.8 -2.105,13.8Zm-52.033,110.119l64.305,0c3.128,0 6.865,-4.6 11.212,-13.799c4.347,-9.2 4.957,-13.8 1.829,-13.8l-64.305,0c-2.944,0 -6.59,4.6 -10.937,13.8c-4.347,9.199 -5.048,13.799 -2.104,13.799Zm-17.345,36.707l64.306,-0c3.128,-0 6.865,-4.6 11.212,-13.8c4.347,-9.199 4.956,-13.799 1.829,-13.799l-64.306,-0c-2.944,-0 -6.589,4.6 -10.936,13.799c-4.347,9.2 -5.049,13.8 -2.105,13.8Zm52.033,-110.12l64.306,0c3.128,0 6.865,-4.6 11.212,-13.799c4.347,-9.2 4.957,-13.8 1.829,-13.8l-64.306,0c-2.943,0 -6.589,4.6 -10.936,13.8c-4.347,9.199 -5.048,13.799 -2.105,13.799Zm-17.344,36.707l64.305,-0c3.128,-0 6.866,-4.6 11.213,-13.8c4.347,-9.199 4.956,-13.799 1.828,-13.799l-64.305,-0c-2.944,-0 -6.589,4.6 -10.936,13.799c-4.347,9.2 -5.049,13.8 -2.105,13.8Z" style="fill:#3b00ff;fill-rule:nonzero;"/><path d="M547.716,387.718l64.305,0c3.128,0 6.866,-4.599 11.213,-13.799c4.346,-9.2 4.956,-13.799 1.828,-13.799l-64.305,-0c-2.944,-0 -6.59,4.599 -10.937,13.799c-4.347,9.2 -5.048,13.799 -2.104,13.799Zm183.532,0l64.306,0c3.128,0 6.865,-4.599 11.212,-13.799c4.347,-9.2 4.957,-13.799 1.829,-13.799l-64.306,-0c-2.943,-0 -6.589,4.599 -10.936,13.799c-4.347,9.2 -5.048,13.799 -2.105,13.799Zm-166.188,-36.706l211.132,-0c3.128,-0 6.865,-4.6 11.212,-13.799c4.347,-9.2 4.957,-13.8 1.829,-13.8l-211.132,0c-2.944,0 -6.589,4.6 -10.936,13.8c-4.347,9.199 -5.049,13.799 -2.105,13.799Zm-34.689,73.413l64.306,0c3.128,0 6.865,-4.6 11.212,-13.799c4.347,-9.2 4.957,-13.8 1.829,-13.8l-64.306,0c-2.944,0 -6.589,4.6 -10.936,13.8c-4.347,9.199 -5.048,13.799 -2.105,13.799Zm183.533,0l64.305,0c3.128,0 6.866,-4.6 11.213,-13.799c4.347,-9.2 4.956,-13.8 1.828,-13.8l-64.305,0c-2.944,0 -6.589,4.6 -10.936,13.8c-4.347,9.199 -5.049,13.799 -2.105,13.799Zm-218.221,73.413l211.131,0c3.128,0 6.865,-4.6 11.212,-13.799c4.347,-9.2 4.957,-13.8 1.829,-13.8l-211.132,0c-2.943,0 -6.589,4.6 -10.936,13.8c-4.347,9.199 -5.048,13.799 -2.104,13.799Zm17.344,-36.706l64.305,-0c3.128,-0 6.866,-4.6 11.213,-13.8c4.347,-9.2 4.956,-13.799 1.828,-13.799l-64.305,-0c-2.944,-0 -6.589,4.599 -10.936,13.799c-4.347,9.2 -5.049,13.8 -2.105,13.8Zm-34.689,73.413l64.306,-0c3.127,-0 6.865,-4.6 11.212,-13.8c4.347,-9.199 4.956,-13.799 1.829,-13.799l-64.306,-0c-2.944,-0 -6.589,4.6 -10.936,13.799c-4.347,9.2 -5.049,13.8 -2.105,13.8Zm-17.344,36.706l64.305,0c3.128,0 6.865,-4.6 11.212,-13.799c4.347,-9.2 4.957,-13.8 1.829,-13.8l-64.305,0c-2.944,0 -6.59,4.6 -10.937,13.8c-4.347,9.199 -5.048,13.799 -2.104,13.799Zm235.566,-110.119l64.305,-0c3.128,-0 6.865,-4.6 11.212,-13.8c4.347,-9.2 4.957,-13.799 1.829,-13.799l-64.305,-0c-2.944,-0 -6.59,4.599 -10.937,13.799c-4.347,9.2 -5.048,13.8 -2.104,13.8Z" style="fill:#3b00ff;fill-rule:nonzero;"/><path d="M841.644,387.718l64.305,0c3.128,0 6.866,-4.599 11.213,-13.799c4.347,-9.2 4.956,-13.799 1.828,-13.799l-64.305,-0c-2.944,-0 -6.589,4.599 -10.936,13.799c-4.347,9.2 -5.049,13.799 -2.105,13.799Zm17.344,-36.706l64.306,-0c3.128,-0 6.865,-4.6 11.212,-13.799c4.347,-9.2 4.957,-13.8 1.829,-13.8l-64.306,0c-2.943,0 -6.589,4.6 -10.936,13.8c-4.347,9.199 -5.048,13.799 -2.105,13.799Zm-34.688,73.413l64.305,0c3.128,0 6.865,-4.6 11.212,-13.799c4.347,-9.2 4.957,-13.8 1.829,-13.8l-64.305,0c-2.944,0 -6.59,4.6 -10.937,13.8c-4.347,9.199 -5.048,13.799 -2.104,13.799Zm-34.689,73.413l64.305,0c3.128,0 6.866,-4.6 11.213,-13.799c4.346,-9.2 4.956,-13.8 1.828,-13.8l-64.305,0c-2.944,0 -6.59,4.6 -10.937,13.8c-4.347,9.199 -5.048,13.799 -2.104,13.799Zm17.344,-36.706l64.306,-0c3.128,-0 6.865,-4.6 11.212,-13.8c4.347,-9.2 4.956,-13.799 1.829,-13.799l-64.306,-0c-2.944,-0 -6.589,4.599 -10.936,13.799c-4.347,9.2 -5.049,13.8 -2.105,13.8Zm-34.689,73.413l64.306,-0c3.128,-0 6.865,-4.6 11.212,-13.8c4.347,-9.199 4.957,-13.799 1.829,-13.799l-64.306,-0c-2.944,-0 -6.589,4.6 -10.936,13.799c-4.347,9.2 -5.048,13.8 -2.105,13.8Zm-17.344,36.706l247.838,0c3.128,0 6.865,-4.6 11.212,-13.799c4.347,-9.2 4.957,-13.8 1.829,-13.8l-247.838,0c-2.944,0 -6.589,4.6 -10.936,13.8c-4.347,9.199 -5.049,13.799 -2.105,13.799Z" style="fill:#3b00ff;fill-rule:nonzero;"/><path d="M1171.73,387.718l64.305,0c3.128,0 6.866,-4.599 11.213,-13.799c4.347,-9.2 4.956,-13.799 1.828,-13.799l-64.305,-0c-2.944,-0 -6.59,4.599 -10.936,13.799c-4.347,9.2 -5.049,13.799 -2.105,13.799Zm110.119,0l64.306,0c3.128,0 6.865,-4.599 11.212,-13.799c4.347,-9.2 4.957,-13.799 1.829,-13.799l-64.306,-0c-2.944,-0 -6.589,4.599 -10.936,13.799c-4.347,9.2 -5.048,13.799 -2.105,13.799Zm-56.068,-36.706l101.012,-0c3.128,-0 6.865,-4.6 11.212,-13.799c4.347,-9.2 4.957,-13.8 1.829,-13.8l-101.012,0c-2.944,0 -6.59,4.6 -10.937,13.8c-4.347,9.199 -5.048,13.799 -2.104,13.799Zm-108.102,73.413l64.305,0c3.128,0 6.866,-4.6 11.213,-13.799c4.347,-9.2 4.956,-13.8 1.828,-13.8l-64.305,0c-2.944,0 -6.589,4.6 -10.936,13.8c-4.347,9.199 -5.049,13.799 -2.105,13.799Zm183.533,0l64.305,0c3.128,0 6.865,-4.6 11.212,-13.799c4.347,-9.2 4.957,-13.8 1.829,-13.8l-64.306,0c-2.943,0 -6.589,4.6 -10.936,13.8c-4.347,9.199 -5.048,13.799 -2.104,13.799Zm-200.877,36.707l64.305,-0c3.128,-0 6.865,-4.6 11.212,-13.8c4.347,-9.2 4.957,-13.799 1.829,-13.799l-64.306,-0c-2.943,-0 -6.589,4.599 -10.936,13.799c-4.347,9.2 -5.048,13.8 -2.104,13.8Zm183.532,-0l64.306,-0c3.127,-0 6.865,-4.6 11.212,-13.8c4.347,-9.2 4.956,-13.799 1.829,-13.799l-64.306,-0c-2.944,-0 -6.589,4.599 -10.936,13.799c-4.347,9.2 -5.049,13.8 -2.105,13.8Zm-200.877,36.706l247.838,0c3.128,0 6.865,-4.6 11.212,-13.799c4.347,-9.2 4.957,-13.8 1.829,-13.8l-247.838,0c-2.944,0 -6.589,4.6 -10.936,13.8c-4.347,9.199 -5.049,13.799 -2.105,13.799Zm-17.344,36.707l64.305,-0c3.128,-0 6.865,-4.6 11.212,-13.8c4.347,-9.199 4.957,-13.799 1.829,-13.799l-64.305,-0c-2.944,-0 -6.59,4.6 -10.937,13.799c-4.347,9.2 -5.048,13.8 -2.104,13.8Zm183.532,-0l64.306,-0c3.128,-0 6.865,-4.6 11.212,-13.8c4.347,-9.199 4.957,-13.799 1.829,-13.799l-64.306,-0c-2.944,-0 -6.589,4.6 -10.936,13.799c-4.347,9.2 -5.049,13.8 -2.105,13.8Zm-200.877,36.706l64.306,0c3.128,0 6.865,-4.6 11.212,-13.799c4.347,-9.2 4.956,-13.8 1.829,-13.8l-64.306,0c-2.944,0 -6.589,4.6 -10.936,13.8c-4.347,9.199 -5.049,13.799 -2.105,13.799Zm183.533,0l64.305,0c3.128,0 6.866,-4.6 11.213,-13.799c4.347,-9.2 4.956,-13.8 1.828,-13.8l-64.305,0c-2.944,0 -6.589,4.6 -10.936,13.8c-4.347,9.199 -5.049,13.799 -2.105,13.799Z" style="fill:#3b00ff;fill-rule:nonzero;"/><path d="M1482.72,351.012l64.305,-0c3.128,-0 6.865,-4.6 11.212,-13.799c4.347,-9.2 4.957,-13.8 1.829,-13.8l-64.306,0c-2.943,0 -6.589,4.6 -10.936,13.8c-4.347,9.199 -5.048,13.799 -2.104,13.799Zm-17.345,36.706l64.306,0c3.127,0 6.865,-4.599 11.212,-13.799c4.347,-9.2 4.956,-13.799 1.828,-13.799l-64.305,-0c-2.944,-0 -6.589,4.599 -10.936,13.799c-4.347,9.2 -5.049,13.799 -2.105,13.799Zm-17.344,36.707l64.305,0c3.128,0 6.865,-4.6 11.212,-13.799c4.347,-9.2 4.957,-13.8 1.829,-13.8l-64.305,0c-2.944,0 -6.59,4.6 -10.937,13.8c-4.347,9.199 -5.048,13.799 -2.104,13.799Zm19.362,36.707l137.718,-0c3.128,-0 6.866,-4.6 11.213,-13.8c4.347,-9.2 4.956,-13.799 1.828,-13.799l-137.718,-0c-2.944,-0 -6.59,4.599 -10.937,13.799c-4.347,9.2 -5.048,13.8 -2.104,13.8Zm162.153,-110.12l64.305,-0c3.128,-0 6.865,-4.6 11.212,-13.799c4.347,-9.2 4.957,-13.8 1.829,-13.8l-64.305,0c-2.944,0 -6.59,4.6 -10.937,13.8c-4.347,9.199 -5.048,13.799 -2.104,13.799Zm-17.345,36.706l64.306,0c3.128,0 6.865,-4.599 11.212,-13.799c4.347,-9.2 4.956,-13.799 1.829,-13.799l-64.306,-0c-2.944,-0 -6.589,4.599 -10.936,13.799c-4.347,9.2 -5.049,13.799 -2.105,13.799Zm-125.446,110.12l64.305,0c3.128,0 6.866,-4.6 11.213,-13.799c4.347,-9.2 4.956,-13.8 1.828,-13.8l-64.305,0c-2.944,0 -6.589,4.6 -10.936,13.8c-4.347,9.199 -5.049,13.799 -2.105,13.799Zm-17.344,36.707l64.305,-0c3.128,-0 6.865,-4.6 11.212,-13.8c4.347,-9.199 4.957,-13.799 1.829,-13.799l-64.306,-0c-2.943,-0 -6.589,4.6 -10.936,13.799c-4.347,9.2 -5.048,13.8 -2.104,13.8Zm-17.345,36.706l64.306,0c3.127,0 6.865,-4.6 11.212,-13.799c4.347,-9.2 4.956,-13.8 1.828,-13.8l-64.305,0c-2.944,0 -6.589,4.6 -10.936,13.8c-4.347,9.199 -5.049,13.799 -2.105,13.799Zm142.791,-146.826l64.305,0c3.128,0 6.866,-4.6 11.213,-13.799c4.347,-9.2 4.956,-13.8 1.828,-13.8l-64.305,0c-2.944,0 -6.59,4.6 -10.937,13.8c-4.347,9.199 -5.048,13.799 -2.104,13.799Z" style="fill:#3b00ff;fill-rule:nonzero;"/><path d="M1722.6,387.718l64.305,0c3.128,0 6.866,-4.599 11.213,-13.799c4.347,-9.2 4.956,-13.799 1.828,-13.799l-64.305,-0c-2.944,-0 -6.59,4.599 -10.937,13.799c-4.347,9.2 -5.048,13.799 -2.104,13.799Zm17.344,-36.706l247.838,-0c3.128,-0 6.866,-4.6 11.213,-13.799c4.347,-9.2 4.956,-13.8 1.828,-13.8l-247.838,0c-2.944,0 -6.589,4.6 -10.936,13.8c-4.347,9.199 -5.049,13.799 -2.105,13.799Zm-34.689,73.413l64.306,0c3.128,0 6.865,-4.6 11.212,-13.799c4.347,-9.2 4.957,-13.8 1.829,-13.8l-64.306,0c-2.944,0 -6.589,4.6 -10.936,13.8c-4.347,9.199 -5.048,13.799 -2.105,13.799Zm-34.688,73.413l64.305,0c3.128,0 6.865,-4.6 11.212,-13.799c4.347,-9.2 4.957,-13.8 1.829,-13.8l-64.306,0c-2.943,0 -6.589,4.6 -10.936,13.8c-4.347,9.199 -5.048,13.799 -2.104,13.799Zm17.344,-36.706l211.132,-0c3.127,-0 6.865,-4.6 11.212,-13.8c4.347,-9.2 4.956,-13.799 1.828,-13.799l-211.131,-0c-2.944,-0 -6.589,4.599 -10.936,13.799c-4.347,9.2 -5.049,13.8 -2.105,13.8Zm-34.689,73.413l64.306,-0c3.127,-0 6.865,-4.6 11.212,-13.8c4.347,-9.199 4.956,-13.799 1.829,-13.799l-64.306,-0c-2.944,-0 -6.589,4.6 -10.936,13.799c-4.347,9.2 -5.049,13.8 -2.105,13.8Zm-17.344,36.706l247.838,0c3.128,0 6.865,-4.6 11.212,-13.799c4.347,-9.2 4.957,-13.8 1.829,-13.8l-247.838,0c-2.944,0 -6.59,4.6 -10.937,13.8c-4.347,9.199 -5.048,13.799 -2.104,13.799Z" style="fill:#3b00ff;fill-rule:nonzero;"/><path d="M2015.98,387.718l64.306,0c3.127,0 6.865,-4.599 11.212,-13.799c4.347,-9.2 4.956,-13.799 1.828,-13.799l-64.305,-0c-2.944,-0 -6.589,4.599 -10.936,13.799c-4.347,9.2 -5.049,13.799 -2.105,13.799Zm146.826,0l64.306,0c3.128,0 6.865,-4.599 11.212,-13.799c4.347,-9.2 4.956,-13.799 1.829,-13.799l-64.306,-0c-2.944,-0 -6.589,4.599 -10.936,13.799c-4.347,9.2 -5.049,13.799 -2.105,13.799Zm-129.481,-36.706l174.425,-0c3.127,-0 6.865,-4.6 11.212,-13.799c4.347,-9.2 4.956,-13.8 1.828,-13.8l-174.425,0c-2.943,0 -6.589,4.6 -10.936,13.8c-4.347,9.199 -5.048,13.799 -2.104,13.799Zm-34.689,73.413l64.305,0c3.128,0 6.865,-4.6 11.212,-13.799c4.347,-9.2 4.957,-13.8 1.829,-13.8l-64.305,0c-2.944,0 -6.59,4.6 -10.937,13.8c-4.347,9.199 -5.048,13.799 -2.104,13.799Zm183.532,0l64.306,0c3.128,0 6.865,-4.6 11.212,-13.799c4.347,-9.2 4.957,-13.8 1.829,-13.8l-64.306,0c-2.944,0 -6.589,4.6 -10.936,13.8c-4.347,9.199 -5.049,13.799 -2.105,13.799Zm-218.221,73.413l64.305,0c3.128,0 6.866,-4.6 11.213,-13.799c4.347,-9.2 4.956,-13.8 1.828,-13.8l-64.305,0c-2.944,0 -6.59,4.6 -10.937,13.8c-4.346,9.199 -5.048,13.799 -2.104,13.799Zm183.533,0l64.305,0c3.128,0 6.865,-4.6 11.212,-13.799c4.347,-9.2 4.957,-13.8 1.829,-13.8l-64.306,0c-2.943,0 -6.589,4.6 -10.936,13.8c-4.347,9.199 -5.048,13.799 -2.104,13.799Zm-166.189,-36.706l64.306,-0c3.128,-0 6.865,-4.6 11.212,-13.8c4.347,-9.2 4.956,-13.799 1.829,-13.799l-64.306,-0c-2.944,-0 -6.589,4.599 -10.936,13.799c-4.347,9.2 -5.049,13.8 -2.105,13.8Zm-34.689,73.413l64.306,-0c3.128,-0 6.865,-4.6 11.212,-13.8c4.347,-9.199 4.957,-13.799 1.829,-13.799l-64.306,-0c-2.944,-0 -6.589,4.6 -10.936,13.799c-4.347,9.2 -5.048,13.8 -2.105,13.8Zm146.827,-0l64.305,-0c3.128,-0 6.865,-4.6 11.212,-13.8c4.347,-9.199 4.957,-13.799 1.829,-13.799l-64.306,-0c-2.943,-0 -6.589,4.6 -10.936,13.799c-4.347,9.2 -5.048,13.8 -2.104,13.8Zm-164.171,36.706l174.425,0c3.128,0 6.865,-4.6 11.212,-13.799c4.347,-9.2 4.957,-13.8 1.829,-13.8l-174.425,0c-2.944,0 -6.589,4.6 -10.936,13.8c-4.347,9.199 -5.049,13.799 -2.105,13.799Zm235.566,-110.119l64.305,-0c3.128,-0 6.866,-4.6 11.213,-13.8c4.347,-9.2 4.956,-13.799 1.828,-13.799l-64.305,-0c-2.944,-0 -6.589,4.599 -10.936,13.799c-4.347,9.2 -5.049,13.8 -2.105,13.8Z" style="fill:#3b00ff;fill-rule:nonzero;"/></g><g><path d="M95.099,76.805l64.305,0c3.128,0 6.865,-4.599 11.212,-13.799c4.347,-9.2 4.957,-13.799 1.829,-13.799l-64.305,-0c-2.944,-0 -6.59,4.599 -10.937,13.799c-4.347,9.2 -5.048,13.799 -2.104,13.799Zm17.344,-36.706l64.305,-0c3.128,-0 6.866,-4.6 11.213,-13.8c4.347,-9.199 4.956,-13.799 1.828,-13.799l-64.305,-0c-2.944,-0 -6.589,4.6 -10.936,13.799c-4.347,9.2 -5.049,13.8 -2.105,13.8Zm-34.689,73.413l64.306,-0c3.128,-0 6.865,-4.6 11.212,-13.799c4.347,-9.2 4.956,-13.8 1.829,-13.8l-64.306,0c-2.944,0 -6.589,4.6 -10.936,13.8c-4.347,9.199 -5.049,13.799 -2.105,13.799Zm-34.689,73.413l64.306,0c3.128,0 6.865,-4.6 11.212,-13.799c4.347,-9.2 4.957,-13.8 1.829,-13.8l-64.306,0c-2.944,0 -6.589,4.6 -10.936,13.8c-4.347,9.199 -5.048,13.799 -2.105,13.799Zm17.345,-36.707l64.305,0c3.128,0 6.866,-4.599 11.213,-13.799c4.346,-9.2 4.956,-13.799 1.828,-13.799l-64.305,-0c-2.944,-0 -6.59,4.599 -10.937,13.799c-4.347,9.2 -5.048,13.799 -2.104,13.799Zm-34.689,73.414l64.305,-0c3.128,-0 6.866,-4.6 11.213,-13.8c4.347,-9.2 4.956,-13.799 1.828,-13.799l-64.305,-0c-2.944,-0 -6.589,4.599 -10.936,13.799c-4.347,9.2 -5.049,13.8 -2.105,13.8Zm-17.344,36.706l247.838,0c3.128,0 6.865,-4.6 11.212,-13.799c4.347,-9.2 4.956,-13.8 1.829,-13.8l-247.839,0c-2.943,0 -6.589,4.6 -10.936,13.8c-4.347,9.199 -5.048,13.799 -2.104,13.799Z" style="fill:#ffcd00;fill-rule:nonzero;"/><path d="M425.181,76.805l64.306,0c3.128,0 6.865,-4.599 11.212,-13.799c4.347,-9.2 4.957,-13.799 1.829,-13.799l-64.306,-0c-2.944,-0 -6.589,4.599 -10.936,13.799c-4.347,9.2 -5.048,13.799 -2.105,13.799Zm110.12,0l64.305,0c3.128,0 6.866,-4.599 11.213,-13.799c4.347,-9.2 4.956,-13.799 1.828,-13.799l-64.305,-0c-2.944,-0 -6.589,4.599 -10.936,13.799c-4.347,9.2 -5.049,13.799 -2.105,13.799Zm-56.069,-36.706l101.012,-0c3.128,-0 6.866,-4.6 11.213,-13.8c4.347,-9.199 4.956,-13.799 1.828,-13.799l-101.012,-0c-2.944,-0 -6.589,4.6 -10.936,13.799c-4.347,9.2 -5.048,13.8 -2.105,13.8Zm-108.102,73.413l64.306,-0c3.128,-0 6.865,-4.6 11.212,-13.799c4.347,-9.2 4.957,-13.8 1.829,-13.8l-64.306,0c-2.943,0 -6.589,4.6 -10.936,13.8c-4.347,9.199 -5.048,13.799 -2.105,13.799Zm183.533,-0l64.306,-0c3.127,-0 6.865,-4.6 11.212,-13.799c4.347,-9.2 4.956,-13.8 1.828,-13.8l-64.305,0c-2.944,0 -6.589,4.6 -10.936,13.8c-4.347,9.199 -5.049,13.799 -2.105,13.799Zm-200.877,36.706l64.306,0c3.127,0 6.865,-4.599 11.212,-13.799c4.347,-9.2 4.956,-13.799 1.828,-13.799l-64.305,-0c-2.944,-0 -6.589,4.599 -10.936,13.799c-4.347,9.2 -5.049,13.799 -2.105,13.799Zm183.533,0l64.305,0c3.128,0 6.865,-4.599 11.212,-13.799c4.347,-9.2 4.957,-13.799 1.829,-13.799l-64.305,-0c-2.944,-0 -6.59,4.599 -10.937,13.799c-4.347,9.2 -5.048,13.799 -2.104,13.799Zm-200.877,36.707l247.838,0c3.128,0 6.865,-4.6 11.212,-13.799c4.347,-9.2 4.957,-13.8 1.829,-13.8l-247.838,0c-2.944,0 -6.59,4.6 -10.937,13.8c-4.347,9.199 -5.048,13.799 -2.104,13.799Zm-17.345,36.707l64.306,-0c3.128,-0 6.865,-4.6 11.212,-13.8c4.347,-9.2 4.956,-13.799 1.829,-13.799l-64.306,-0c-2.944,-0 -6.589,4.599 -10.936,13.799c-4.347,9.2 -5.049,13.8 -2.105,13.8Zm183.533,-0l64.305,-0c3.128,-0 6.866,-4.6 11.213,-13.8c4.347,-9.2 4.956,-13.799 1.828,-13.799l-64.305,-0c-2.944,-0 -6.589,4.599 -10.936,13.799c-4.347,9.2 -5.049,13.8 -2.105,13.8Zm-200.877,36.706l64.305,0c3.128,0 6.866,-4.6 11.213,-13.799c4.346,-9.2 4.956,-13.8 1.828,-13.8l-64.305,0c-2.944,0 -6.59,4.6 -10.937,13.8c-4.347,9.199 -5.048,13.799 -2.104,13.799Zm183.532,0l64.306,0c3.128,0 6.865,-4.6 11.212,-13.799c4.347,-9.2 4.957,-13.8 1.829,-13.8l-64.306,0c-2.943,0 -6.589,4.6 -10.936,13.8c-4.347,9.199 -5.048,13.799 -2.105,13.799Z" style="fill:#ffcd00;fill-rule:nonzero;"/><path d="M682.127,76.805l64.306,0c3.127,0 6.865,-4.599 11.212,-13.799c4.347,-9.2 4.956,-13.799 1.829,-13.799l-64.306,-0c-2.944,-0 -6.589,4.599 -10.936,13.799c-4.347,9.2 -5.049,13.799 -2.105,13.799Zm146.826,0l64.306,0c3.128,0 6.865,-4.599 11.212,-13.799c4.347,-9.2 4.957,-13.799 1.829,-13.799l-64.306,-0c-2.944,-0 -6.589,4.599 -10.936,13.799c-4.347,9.2 -5.049,13.799 -2.105,13.799Zm-92.775,-36.706l137.719,-0c3.127,-0 6.865,-4.6 11.212,-13.8c4.347,-9.199 4.956,-13.799 1.829,-13.799l-137.719,-0c-2.944,-0 -6.589,4.6 -10.936,13.799c-4.347,9.2 -5.049,13.8 -2.105,13.8Zm-71.395,73.413l64.305,-0c3.128,-0 6.865,-4.6 11.212,-13.799c4.347,-9.2 4.957,-13.8 1.829,-13.8l-64.305,0c-2.944,0 -6.59,4.6 -10.937,13.8c-4.347,9.199 -5.048,13.799 -2.104,13.799Zm148.844,73.413l64.305,0c3.128,0 6.865,-4.6 11.212,-13.799c4.347,-9.2 4.957,-13.8 1.829,-13.8l-64.306,0c-2.943,0 -6.589,4.6 -10.936,13.8c-4.347,9.199 -5.048,13.799 -2.104,13.799Zm-129.482,-36.707l174.425,0c3.128,0 6.865,-4.599 11.212,-13.799c4.347,-9.2 4.957,-13.799 1.829,-13.799l-174.425,-0c-2.944,-0 -6.59,4.599 -10.937,13.799c-4.346,9.2 -5.048,13.799 -2.104,13.799Zm-71.396,73.414l64.306,-0c3.128,-0 6.865,-4.6 11.212,-13.8c4.347,-9.2 4.957,-13.799 1.829,-13.799l-64.306,-0c-2.943,-0 -6.589,4.599 -10.936,13.799c-4.347,9.2 -5.048,13.8 -2.105,13.8Zm183.533,-0l64.306,-0c3.127,-0 6.865,-4.6 11.212,-13.8c4.347,-9.2 4.956,-13.799 1.828,-13.799l-64.305,-0c-2.944,-0 -6.589,4.599 -10.936,13.799c-4.347,9.2 -5.049,13.8 -2.105,13.8Zm-164.17,36.706l174.425,0c3.128,0 6.865,-4.6 11.212,-13.799c4.347,-9.2 4.956,-13.8 1.829,-13.8l-174.425,0c-2.944,0 -6.59,4.6 -10.937,13.8c-4.347,9.199 -5.048,13.799 -2.104,13.799Z" style="fill:#ffcd00;fill-rule:nonzero;"/><path d="M1085.9,76.805l64.305,0c3.128,0 6.866,-4.599 11.213,-13.799c4.347,-9.2 4.956,-13.799 1.828,-13.799l-64.305,-0c-2.944,-0 -6.589,4.599 -10.936,13.799c-4.347,9.2 -5.049,13.799 -2.105,13.799Zm-56.069,-36.706l211.132,-0c3.128,-0 6.865,-4.6 11.212,-13.8c4.347,-9.199 4.957,-13.799 1.829,-13.799l-211.132,-0c-2.944,-0 -6.589,4.6 -10.936,13.799c-4.347,9.2 -5.049,13.8 -2.105,13.8Zm38.725,73.413l64.305,-0c3.128,-0 6.865,-4.6 11.212,-13.799c4.347,-9.2 4.957,-13.8 1.829,-13.8l-64.305,0c-2.944,0 -6.59,4.6 -10.937,13.8c-4.347,9.199 -5.048,13.799 -2.104,13.799Zm-52.034,110.12l64.306,-0c3.128,-0 6.865,-4.6 11.212,-13.8c4.347,-9.2 4.957,-13.799 1.829,-13.799l-64.306,-0c-2.944,-0 -6.589,4.599 -10.936,13.799c-4.347,9.2 -5.049,13.8 -2.105,13.8Zm-17.344,36.706l64.305,0c3.128,0 6.866,-4.6 11.213,-13.799c4.347,-9.2 4.956,-13.8 1.828,-13.8l-64.305,0c-2.944,0 -6.589,4.6 -10.936,13.8c-4.347,9.199 -5.049,13.799 -2.105,13.799Zm52.033,-110.12l64.306,0c3.127,0 6.865,-4.599 11.212,-13.799c4.347,-9.2 4.956,-13.799 1.829,-13.799l-64.306,-0c-2.944,-0 -6.589,4.599 -10.936,13.799c-4.347,9.2 -5.049,13.799 -2.105,13.799Zm-17.344,36.707l64.305,0c3.128,0 6.865,-4.6 11.212,-13.799c4.347,-9.2 4.957,-13.8 1.829,-13.8l-64.305,0c-2.944,0 -6.59,4.6 -10.937,13.8c-4.347,9.199 -5.048,13.799 -2.104,13.799Z" style="fill:#ffcd00;fill-rule:nonzero;"/><path d="M548.998,358.552l64.305,-0c3.128,-0 6.865,-4.6 11.212,-13.8c4.347,-9.199 4.957,-13.799 1.829,-13.799l-64.306,-0c-2.943,-0 -6.589,4.6 -10.936,13.799c-4.347,9.2 -5.048,13.8 -2.104,13.8Zm183.532,-0l64.306,-0c3.128,-0 6.865,-4.6 11.212,-13.8c4.347,-9.199 4.956,-13.799 1.829,-13.799l-64.306,-0c-2.944,-0 -6.589,4.6 -10.936,13.799c-4.347,9.2 -5.049,13.8 -2.105,13.8Zm-166.188,-36.707l211.132,0c3.127,0 6.865,-4.6 11.212,-13.799c4.347,-9.2 4.956,-13.8 1.828,-13.8l-211.131,0c-2.944,0 -6.589,4.6 -10.936,13.8c-4.347,9.199 -5.049,13.799 -2.105,13.799Zm-34.689,73.413l64.306,0c3.127,0 6.865,-4.599 11.212,-13.799c4.347,-9.2 4.956,-13.8 1.828,-13.8l-64.305,0c-2.944,0 -6.589,4.6 -10.936,13.8c-4.347,9.2 -5.049,13.799 -2.105,13.799Zm183.533,0l64.305,0c3.128,0 6.866,-4.599 11.212,-13.799c4.347,-9.2 4.957,-13.8 1.829,-13.8l-64.305,0c-2.944,0 -6.59,4.6 -10.937,13.8c-4.347,9.2 -5.048,13.799 -2.104,13.799Zm-218.222,73.413l211.132,0c3.128,0 6.865,-4.599 11.212,-13.799c4.347,-9.2 4.957,-13.799 1.829,-13.799l-211.132,-0c-2.944,-0 -6.589,4.599 -10.936,13.799c-4.347,9.2 -5.049,13.799 -2.105,13.799Zm17.345,-36.706l64.305,-0c3.128,-0 6.865,-4.6 11.212,-13.8c4.347,-9.199 4.957,-13.799 1.829,-13.799l-64.305,-0c-2.944,-0 -6.59,4.6 -10.937,13.799c-4.347,9.2 -5.048,13.8 -2.104,13.8Zm-34.689,73.413l64.305,-0c3.128,-0 6.866,-4.6 11.213,-13.799c4.347,-9.2 4.956,-13.8 1.828,-13.8l-64.305,0c-2.944,0 -6.59,4.6 -10.936,13.8c-4.347,9.199 -5.049,13.799 -2.105,13.799Zm-17.345,36.706l64.306,0c3.128,0 6.865,-4.599 11.212,-13.799c4.347,-9.2 4.957,-13.799 1.829,-13.799l-64.306,-0c-2.944,-0 -6.589,4.599 -10.936,13.799c-4.347,9.2 -5.048,13.799 -2.105,13.799Zm235.566,-110.119l64.306,-0c3.128,-0 6.865,-4.6 11.212,-13.8c4.347,-9.199 4.957,-13.799 1.829,-13.799l-64.306,-0c-2.944,-0 -6.589,4.6 -10.936,13.799c-4.347,9.2 -5.049,13.8 -2.105,13.8Z" style="fill:#ffcd00;fill-rule:nonzero;"/><path d="M842.926,358.552l64.305,-0c3.128,-0 6.866,-4.6 11.212,-13.8c4.347,-9.199 4.957,-13.799 1.829,-13.799l-64.305,-0c-2.944,-0 -6.59,4.6 -10.937,13.799c-4.347,9.2 -5.048,13.8 -2.104,13.8Zm17.344,-36.707l64.306,0c3.128,0 6.865,-4.6 11.212,-13.799c4.347,-9.2 4.956,-13.8 1.829,-13.8l-64.306,0c-2.944,0 -6.589,4.6 -10.936,13.8c-4.347,9.199 -5.049,13.799 -2.105,13.799Zm-34.689,73.413l64.306,0c3.128,0 6.865,-4.599 11.212,-13.799c4.347,-9.2 4.957,-13.8 1.829,-13.8l-64.306,0c-2.944,0 -6.589,4.6 -10.936,13.8c-4.347,9.2 -5.049,13.799 -2.105,13.799Zm-34.688,73.413l64.305,0c3.128,0 6.865,-4.599 11.212,-13.799c4.347,-9.2 4.957,-13.799 1.829,-13.799l-64.306,-0c-2.943,-0 -6.589,4.599 -10.936,13.799c-4.347,9.2 -5.048,13.799 -2.104,13.799Zm17.344,-36.706l64.305,-0c3.128,-0 6.866,-4.6 11.213,-13.8c4.347,-9.199 4.956,-13.799 1.828,-13.799l-64.305,-0c-2.944,-0 -6.589,4.6 -10.936,13.799c-4.347,9.2 -5.049,13.8 -2.105,13.8Zm-34.689,73.413l64.306,-0c3.127,-0 6.865,-4.6 11.212,-13.799c4.347,-9.2 4.956,-13.8 1.828,-13.8l-64.305,0c-2.944,0 -6.589,4.6 -10.936,13.8c-4.347,9.199 -5.049,13.799 -2.105,13.799Zm-17.344,36.706l247.838,0c3.128,0 6.865,-4.599 11.212,-13.799c4.347,-9.2 4.957,-13.799 1.829,-13.799l-247.838,-0c-2.944,-0 -6.59,4.599 -10.937,13.799c-4.347,9.2 -5.048,13.799 -2.104,13.799Z" style="fill:#ffcd00;fill-rule:nonzero;"/><path d="M1173.01,358.552l64.305,-0c3.128,-0 6.865,-4.6 11.212,-13.8c4.347,-9.199 4.957,-13.799 1.829,-13.799l-64.306,-0c-2.943,-0 -6.589,4.6 -10.936,13.799c-4.347,9.2 -5.048,13.8 -2.104,13.8Zm110.119,-0l64.306,-0c3.127,-0 6.865,-4.6 11.212,-13.8c4.347,-9.199 4.956,-13.799 1.829,-13.799l-64.306,-0c-2.944,-0 -6.589,4.6 -10.936,13.799c-4.347,9.2 -5.049,13.8 -2.105,13.8Zm-56.068,-36.707l101.011,0c3.128,0 6.866,-4.6 11.213,-13.799c4.347,-9.2 4.956,-13.8 1.828,-13.8l-101.012,0c-2.943,0 -6.589,4.6 -10.936,13.8c-4.347,9.199 -5.048,13.799 -2.104,13.799Zm-108.102,73.413l64.305,0c3.128,0 6.865,-4.599 11.212,-13.799c4.347,-9.2 4.957,-13.8 1.829,-13.8l-64.305,0c-2.944,0 -6.59,4.6 -10.937,13.8c-4.347,9.2 -5.048,13.799 -2.104,13.799Zm183.532,0l64.306,0c3.128,0 6.865,-4.599 11.212,-13.799c4.347,-9.2 4.957,-13.8 1.829,-13.8l-64.306,0c-2.944,0 -6.589,4.6 -10.936,13.8c-4.347,9.2 -5.049,13.799 -2.105,13.799Zm-200.877,36.707l64.306,-0c3.128,-0 6.865,-4.6 11.212,-13.8c4.347,-9.199 4.956,-13.799 1.829,-13.799l-64.306,-0c-2.944,-0 -6.589,4.6 -10.936,13.799c-4.347,9.2 -5.049,13.8 -2.105,13.8Zm183.533,-0l64.305,-0c3.128,-0 6.866,-4.6 11.213,-13.8c4.347,-9.199 4.956,-13.799 1.828,-13.799l-64.305,-0c-2.944,-0 -6.59,4.6 -10.936,13.799c-4.347,9.2 -5.049,13.8 -2.105,13.8Zm-200.877,36.706l247.838,0c3.128,0 6.865,-4.599 11.212,-13.799c4.347,-9.2 4.957,-13.799 1.829,-13.799l-247.838,-0c-2.944,-0 -6.59,4.599 -10.937,13.799c-4.347,9.2 -5.048,13.799 -2.104,13.799Zm-17.345,36.707l64.306,-0c3.128,-0 6.865,-4.6 11.212,-13.799c4.347,-9.2 4.957,-13.8 1.829,-13.8l-64.306,0c-2.944,0 -6.589,4.6 -10.936,13.8c-4.347,9.199 -5.048,13.799 -2.105,13.799Zm183.533,-0l64.305,-0c3.128,-0 6.866,-4.6 11.213,-13.799c4.347,-9.2 4.956,-13.8 1.828,-13.8l-64.305,0c-2.944,0 -6.589,4.6 -10.936,13.8c-4.347,9.199 -5.049,13.799 -2.105,13.799Zm-200.877,36.706l64.305,0c3.128,0 6.866,-4.599 11.213,-13.799c4.347,-9.2 4.956,-13.799 1.828,-13.799l-64.305,-0c-2.944,-0 -6.589,4.599 -10.936,13.799c-4.347,9.2 -5.049,13.799 -2.105,13.799Zm183.533,0l64.305,0c3.128,0 6.865,-4.599 11.212,-13.799c4.347,-9.2 4.957,-13.799 1.829,-13.799l-64.305,-0c-2.944,-0 -6.59,4.599 -10.937,13.799c-4.347,9.2 -5.048,13.799 -2.104,13.799Z" style="fill:#ffcd00;fill-rule:nonzero;"/><path d="M1484.01,321.845l64.306,0c3.128,0 6.865,-4.6 11.212,-13.799c4.347,-9.2 4.956,-13.8 1.829,-13.8l-64.306,0c-2.944,0 -6.589,4.6 -10.936,13.8c-4.347,9.199 -5.049,13.799 -2.105,13.799Zm-17.344,36.707l64.305,-0c3.128,-0 6.866,-4.6 11.213,-13.8c4.347,-9.199 4.956,-13.799 1.828,-13.799l-64.305,-0c-2.944,-0 -6.59,4.6 -10.937,13.799c-4.347,9.2 -5.048,13.8 -2.104,13.8Zm-17.345,36.706l64.306,0c3.128,0 6.865,-4.599 11.212,-13.799c4.347,-9.2 4.957,-13.8 1.829,-13.8l-64.306,0c-2.944,0 -6.589,4.6 -10.936,13.8c-4.347,9.2 -5.048,13.799 -2.105,13.799Zm19.363,36.707l137.718,-0c3.128,-0 6.865,-4.6 11.212,-13.8c4.347,-9.199 4.957,-13.799 1.829,-13.799l-137.719,-0c-2.943,-0 -6.589,4.6 -10.936,13.799c-4.347,9.2 -5.048,13.8 -2.104,13.8Zm162.152,-110.12l64.306,0c3.128,0 6.865,-4.6 11.212,-13.799c4.347,-9.2 4.957,-13.8 1.829,-13.8l-64.306,0c-2.944,0 -6.589,4.6 -10.936,13.8c-4.347,9.199 -5.049,13.799 -2.105,13.799Zm-17.344,36.707l64.305,-0c3.128,-0 6.866,-4.6 11.213,-13.8c4.347,-9.199 4.956,-13.799 1.828,-13.799l-64.305,-0c-2.944,-0 -6.589,4.6 -10.936,13.799c-4.347,9.2 -5.049,13.8 -2.105,13.8Zm-125.446,110.119l64.305,0c3.128,0 6.865,-4.599 11.212,-13.799c4.347,-9.2 4.957,-13.799 1.829,-13.799l-64.305,-0c-2.944,-0 -6.59,4.599 -10.937,13.799c-4.347,9.2 -5.048,13.799 -2.104,13.799Zm-17.345,36.707l64.306,-0c3.128,-0 6.865,-4.6 11.212,-13.799c4.347,-9.2 4.956,-13.8 1.829,-13.8l-64.306,0c-2.944,0 -6.589,4.6 -10.936,13.8c-4.347,9.199 -5.049,13.799 -2.105,13.799Zm-17.344,36.706l64.305,0c3.128,0 6.866,-4.599 11.213,-13.799c4.346,-9.2 4.956,-13.799 1.828,-13.799l-64.305,-0c-2.944,-0 -6.59,4.599 -10.937,13.799c-4.347,9.2 -5.048,13.799 -2.104,13.799Zm142.791,-146.826l64.305,0c3.128,0 6.865,-4.599 11.212,-13.799c4.347,-9.2 4.957,-13.8 1.829,-13.8l-64.306,0c-2.943,0 -6.589,4.6 -10.936,13.8c-4.347,9.2 -5.048,13.799 -2.104,13.799Z" style="fill:#ffcd00;fill-rule:nonzero;"/><path d="M1723.88,358.552l64.305,-0c3.128,-0 6.865,-4.6 11.212,-13.8c4.347,-9.199 4.957,-13.799 1.829,-13.799l-64.306,-0c-2.943,-0 -6.589,4.6 -10.936,13.799c-4.347,9.2 -5.048,13.8 -2.104,13.8Zm17.344,-36.707l247.838,0c3.128,0 6.865,-4.6 11.212,-13.799c4.347,-9.2 4.957,-13.8 1.829,-13.8l-247.838,0c-2.944,0 -6.589,4.6 -10.936,13.8c-4.347,9.199 -5.049,13.799 -2.105,13.799Zm-34.689,73.413l64.306,0c3.127,0 6.865,-4.599 11.212,-13.799c4.347,-9.2 4.956,-13.8 1.828,-13.8l-64.305,0c-2.944,0 -6.589,4.6 -10.936,13.8c-4.347,9.2 -5.049,13.799 -2.105,13.799Zm-34.689,73.413l64.306,0c3.128,0 6.865,-4.599 11.212,-13.799c4.347,-9.2 4.957,-13.799 1.829,-13.799l-64.306,-0c-2.944,-0 -6.589,4.599 -10.936,13.799c-4.347,9.2 -5.049,13.799 -2.105,13.799Zm17.345,-36.706l211.131,-0c3.128,-0 6.866,-4.6 11.213,-13.8c4.347,-9.199 4.956,-13.799 1.828,-13.799l-211.131,-0c-2.944,-0 -6.59,4.6 -10.937,13.799c-4.347,9.2 -5.048,13.8 -2.104,13.8Zm-34.689,73.413l64.305,-0c3.128,-0 6.866,-4.6 11.213,-13.799c4.347,-9.2 4.956,-13.8 1.828,-13.8l-64.305,0c-2.944,0 -6.59,4.6 -10.936,13.8c-4.347,9.199 -5.049,13.799 -2.105,13.799Zm-17.345,36.706l247.839,0c3.127,0 6.865,-4.599 11.212,-13.799c4.347,-9.2 4.956,-13.799 1.828,-13.799l-247.838,-0c-2.944,-0 -6.589,4.599 -10.936,13.799c-4.347,9.2 -5.048,13.799 -2.105,13.799Z" style="fill:#ffcd00;fill-rule:nonzero;"/><path d="M2017.26,358.552l64.305,-0c3.128,-0 6.866,-4.6 11.213,-13.8c4.346,-9.199 4.956,-13.799 1.828,-13.799l-64.305,-0c-2.944,-0 -6.59,4.6 -10.937,13.799c-4.347,9.2 -5.048,13.8 -2.104,13.8Zm146.826,-0l64.305,-0c3.128,-0 6.866,-4.6 11.213,-13.8c4.347,-9.199 4.956,-13.799 1.828,-13.799l-64.305,-0c-2.944,-0 -6.589,4.6 -10.936,13.799c-4.347,9.2 -5.049,13.8 -2.105,13.8Zm-129.482,-36.707l174.425,0c3.128,0 6.866,-4.6 11.213,-13.799c4.346,-9.2 4.956,-13.8 1.828,-13.8l-174.425,0c-2.944,0 -6.589,4.6 -10.936,13.8c-4.347,9.199 -5.049,13.799 -2.105,13.799Zm-34.689,73.413l64.306,0c3.128,0 6.865,-4.599 11.212,-13.799c4.347,-9.2 4.957,-13.8 1.829,-13.8l-64.306,0c-2.944,0 -6.589,4.6 -10.936,13.8c-4.347,9.2 -5.048,13.799 -2.105,13.799Zm183.533,0l64.305,0c3.128,0 6.866,-4.599 11.213,-13.799c4.347,-9.2 4.956,-13.8 1.828,-13.8l-64.305,0c-2.944,0 -6.589,4.6 -10.936,13.8c-4.347,9.2 -5.049,13.799 -2.105,13.799Zm-218.221,73.413l64.305,0c3.128,0 6.865,-4.599 11.212,-13.799c4.347,-9.2 4.957,-13.799 1.829,-13.799l-64.306,-0c-2.943,-0 -6.589,4.599 -10.936,13.799c-4.347,9.2 -5.048,13.799 -2.104,13.799Zm183.532,0l64.306,0c3.128,0 6.865,-4.599 11.212,-13.799c4.347,-9.2 4.956,-13.799 1.829,-13.799l-64.306,-0c-2.944,-0 -6.589,4.599 -10.936,13.799c-4.347,9.2 -5.049,13.799 -2.105,13.799Zm-166.188,-36.706l64.305,-0c3.128,-0 6.866,-4.6 11.213,-13.8c4.347,-9.199 4.956,-13.799 1.828,-13.799l-64.305,-0c-2.944,-0 -6.589,4.6 -10.936,13.799c-4.347,9.2 -5.049,13.8 -2.105,13.8Zm-34.689,73.413l64.306,-0c3.127,-0 6.865,-4.6 11.212,-13.799c4.347,-9.2 4.956,-13.8 1.828,-13.8l-64.305,0c-2.944,0 -6.589,4.6 -10.936,13.8c-4.347,9.199 -5.049,13.799 -2.105,13.799Zm146.826,-0l64.306,-0c3.128,-0 6.865,-4.6 11.212,-13.799c4.347,-9.2 4.956,-13.8 1.829,-13.8l-64.306,0c-2.944,0 -6.589,4.6 -10.936,13.8c-4.347,9.199 -5.049,13.799 -2.105,13.799Zm-164.17,36.706l174.425,0c3.128,0 6.865,-4.599 11.212,-13.799c4.347,-9.2 4.957,-13.799 1.829,-13.799l-174.425,-0c-2.944,-0 -6.59,4.599 -10.937,13.799c-4.347,9.2 -5.048,13.799 -2.104,13.799Zm235.566,-110.119l64.305,-0c3.128,-0 6.865,-4.6 11.212,-13.8c4.347,-9.199 4.957,-13.799 1.829,-13.799l-64.305,-0c-2.944,-0 -6.59,4.6 -10.937,13.799c-4.347,9.2 -5.048,13.8 -2.104,13.8Z" style="fill:#ffcd00;fill-rule:nonzero;"/></g></g><g id="Arrow"><path d="M210.717,395.258l64.306,0c3.128,0 6.865,-4.599 11.212,-13.799c4.347,-9.2 4.957,-13.8 1.829,-13.8l-64.306,0c-2.944,0 -6.589,4.6 -10.936,13.8c-4.347,9.2 -5.048,13.799 -2.105,13.799Zm-54.051,36.707l64.306,-0c3.128,-0 6.865,-4.6 11.212,-13.8c4.347,-9.199 4.957,-13.799 1.829,-13.799l-64.306,-0c-2.943,-0 -6.589,4.6 -10.936,13.799c-4.347,9.2 -5.048,13.8 -2.105,13.8Zm-34.688,73.413l64.305,-0c3.128,-0 6.865,-4.6 11.212,-13.799c4.347,-9.2 4.957,-13.8 1.829,-13.8l-64.305,0c-2.944,0 -6.59,4.6 -10.937,13.8c-4.347,9.199 -5.048,13.799 -2.104,13.799Zm19.362,36.706l64.305,0c3.128,0 6.865,-4.599 11.212,-13.799c4.347,-9.2 4.957,-13.799 1.829,-13.799l-64.305,-0c-2.944,-0 -6.59,4.599 -10.937,13.799c-4.347,9.2 -5.048,13.799 -2.104,13.799Zm-38.724,-73.413l64.305,0c3.128,0 6.865,-4.599 11.212,-13.799c4.347,-9.2 4.957,-13.799 1.829,-13.799l-64.306,-0c-2.943,-0 -6.589,4.599 -10.936,13.799c-4.347,9.2 -5.048,13.799 -2.104,13.799Z" style="fill:#f0f;fill-rule:nonzero;"/><path d="M189.884,386.925l64.306,0c3.127,0 6.865,-4.6 11.212,-13.799c4.347,-9.2 4.956,-13.8 1.828,-13.8l-64.305,0c-2.944,0 -6.589,4.6 -10.936,13.8c-4.347,9.199 -5.049,13.799 -2.105,13.799Zm-54.051,36.707l64.306,-0c3.127,-0 6.865,-4.6 11.212,-13.8c4.347,-9.2 4.956,-13.799 1.828,-13.799l-64.305,-0c-2.944,-0 -6.589,4.599 -10.936,13.799c-4.347,9.2 -5.049,13.8 -2.105,13.8Zm-34.689,73.413l64.306,-0c3.128,-0 6.865,-4.6 11.212,-13.8c4.347,-9.199 4.957,-13.799 1.829,-13.799l-64.306,-0c-2.944,-0 -6.589,4.6 -10.936,13.799c-4.347,9.2 -5.049,13.8 -2.105,13.8Zm19.362,36.706l64.306,0c3.128,0 6.865,-4.6 11.212,-13.799c4.347,-9.2 4.957,-13.8 1.829,-13.8l-64.306,0c-2.944,0 -6.589,4.6 -10.936,13.8c-4.347,9.199 -5.048,13.799 -2.105,13.799Zm-38.724,-73.413l64.306,0c3.128,0 6.865,-4.6 11.212,-13.799c4.347,-9.2 4.956,-13.8 1.829,-13.8l-64.306,0c-2.944,0 -6.589,4.6 -10.936,13.8c-4.347,9.199 -5.049,13.799 -2.105,13.799Z" style="fill:#3b00ff;fill-rule:nonzero;"/><path d="M156.551,366.092l64.305,-0c3.128,-0 6.865,-4.6 11.212,-13.8c4.347,-9.199 4.957,-13.799 1.829,-13.799l-64.305,-0c-2.944,-0 -6.59,4.6 -10.937,13.799c-4.347,9.2 -5.048,13.8 -2.104,13.8Zm-54.051,36.706l64.305,0c3.128,0 6.866,-4.6 11.213,-13.799c4.346,-9.2 4.956,-13.8 1.828,-13.8l-64.305,0c-2.944,0 -6.59,4.6 -10.937,13.8c-4.347,9.199 -5.048,13.799 -2.104,13.799Zm-34.689,73.413l64.305,0c3.128,0 6.866,-4.6 11.213,-13.799c4.347,-9.2 4.956,-13.8 1.828,-13.8l-64.305,0c-2.944,0 -6.589,4.6 -10.936,13.8c-4.347,9.199 -5.049,13.799 -2.105,13.799Zm19.362,36.707l64.306,-0c3.127,-0 6.865,-4.6 11.212,-13.8c4.347,-9.199 4.956,-13.799 1.828,-13.799l-64.305,-0c-2.944,-0 -6.589,4.6 -10.936,13.799c-4.347,9.2 -5.049,13.8 -2.105,13.8Zm-38.724,-73.413l64.305,-0c3.128,-0 6.866,-4.6 11.213,-13.8c4.347,-9.199 4.956,-13.799 1.828,-13.799l-64.305,-0c-2.944,-0 -6.59,4.6 -10.936,13.799c-4.347,9.2 -5.049,13.8 -2.105,13.8Z" style="fill:#009dff;fill-rule:nonzero;"/><path d="M169.051,374.425l64.305,0c3.128,0 6.865,-4.6 11.212,-13.799c4.347,-9.2 4.957,-13.8 1.829,-13.8l-64.305,0c-2.944,0 -6.59,4.6 -10.937,13.8c-4.347,9.199 -5.048,13.799 -2.104,13.799Zm-54.051,36.707l64.305,-0c3.128,-0 6.866,-4.6 11.213,-13.8c4.346,-9.2 4.956,-13.799 1.828,-13.799l-64.305,-0c-2.944,-0 -6.59,4.599 -10.937,13.799c-4.347,9.2 -5.048,13.8 -2.104,13.8Zm-34.689,73.413l64.305,-0c3.128,-0 6.866,-4.6 11.213,-13.8c4.347,-9.199 4.956,-13.799 1.828,-13.799l-64.305,-0c-2.944,-0 -6.589,4.6 -10.936,13.799c-4.347,9.2 -5.049,13.8 -2.105,13.8Zm19.362,36.706l64.306,0c3.127,0 6.865,-4.6 11.212,-13.799c4.347,-9.2 4.956,-13.8 1.828,-13.8l-64.305,0c-2.944,0 -6.589,4.6 -10.936,13.8c-4.347,9.199 -5.049,13.799 -2.105,13.799Zm-38.724,-73.413l64.305,0c3.128,0 6.866,-4.6 11.213,-13.799c4.347,-9.2 4.956,-13.8 1.828,-13.8l-64.305,0c-2.944,0 -6.59,4.6 -10.936,13.8c-4.347,9.199 -5.049,13.799 -2.105,13.799Z" style="fill:#ffcd00;fill-rule:nonzero;"/></g><g id="Arrow1" serif:id="Arrow"><path d="M311.565,395.258l64.305,0c3.128,0 6.865,-4.599 11.212,-13.799c4.347,-9.2 4.957,-13.8 1.829,-13.8l-64.305,0c-2.944,0 -6.59,4.6 -10.937,13.8c-4.347,9.2 -5.048,13.799 -2.104,13.799Zm-54.051,36.707l64.305,-0c3.128,-0 6.865,-4.6 11.212,-13.8c4.347,-9.199 4.957,-13.799 1.829,-13.799l-64.305,-0c-2.944,-0 -6.59,4.6 -10.937,13.799c-4.347,9.2 -5.048,13.8 -2.104,13.8Zm-34.689,73.413l64.305,-0c3.128,-0 6.866,-4.6 11.213,-13.799c4.347,-9.2 4.956,-13.8 1.828,-13.8l-64.305,0c-2.944,0 -6.589,4.6 -10.936,13.8c-4.347,9.199 -5.049,13.799 -2.105,13.799Zm19.362,36.706l64.305,0c3.128,0 6.866,-4.599 11.213,-13.799c4.347,-9.2 4.956,-13.799 1.828,-13.799l-64.305,-0c-2.944,-0 -6.589,4.599 -10.936,13.799c-4.347,9.2 -5.049,13.799 -2.105,13.799Zm-38.724,-73.413l64.305,0c3.128,0 6.866,-4.599 11.213,-13.799c4.346,-9.2 4.956,-13.799 1.828,-13.799l-64.305,-0c-2.944,-0 -6.59,4.599 -10.937,13.799c-4.347,9.2 -5.048,13.799 -2.104,13.799Z" style="fill:#f0f;fill-rule:nonzero;"/><path d="M290.731,386.925l64.306,0c3.128,0 6.865,-4.6 11.212,-13.799c4.347,-9.2 4.957,-13.8 1.829,-13.8l-64.306,0c-2.944,0 -6.589,4.6 -10.936,13.8c-4.347,9.199 -5.049,13.799 -2.105,13.799Zm-54.051,36.707l64.306,-0c3.128,-0 6.865,-4.6 11.212,-13.8c4.347,-9.2 4.957,-13.799 1.829,-13.799l-64.306,-0c-2.944,-0 -6.589,4.599 -10.936,13.799c-4.347,9.2 -5.048,13.8 -2.105,13.8Zm-34.688,73.413l64.305,-0c3.128,-0 6.865,-4.6 11.212,-13.8c4.347,-9.199 4.957,-13.799 1.829,-13.799l-64.305,-0c-2.944,-0 -6.59,4.6 -10.937,13.799c-4.347,9.2 -5.048,13.8 -2.104,13.8Zm19.362,36.706l64.305,0c3.128,0 6.865,-4.6 11.212,-13.799c4.347,-9.2 4.957,-13.8 1.829,-13.8l-64.305,0c-2.944,0 -6.59,4.6 -10.937,13.8c-4.347,9.199 -5.048,13.799 -2.104,13.799Zm-38.725,-73.413l64.306,0c3.128,0 6.865,-4.6 11.212,-13.799c4.347,-9.2 4.957,-13.8 1.829,-13.8l-64.306,0c-2.943,0 -6.589,4.6 -10.936,13.8c-4.347,9.199 -5.048,13.799 -2.105,13.799Z" style="fill:#3b00ff;fill-rule:nonzero;"/><path d="M257.398,366.092l64.305,-0c3.128,-0 6.866,-4.6 11.213,-13.8c4.347,-9.199 4.956,-13.799 1.828,-13.799l-64.305,-0c-2.944,-0 -6.589,4.6 -10.936,13.799c-4.347,9.2 -5.049,13.8 -2.105,13.8Zm-54.051,36.706l64.306,0c3.127,0 6.865,-4.6 11.212,-13.799c4.347,-9.2 4.956,-13.8 1.828,-13.8l-64.305,0c-2.944,0 -6.589,4.6 -10.936,13.8c-4.347,9.199 -5.049,13.799 -2.105,13.799Zm-34.689,73.413l64.306,0c3.128,0 6.865,-4.6 11.212,-13.799c4.347,-9.2 4.956,-13.8 1.829,-13.8l-64.306,0c-2.944,0 -6.589,4.6 -10.936,13.8c-4.347,9.199 -5.049,13.799 -2.105,13.799Zm19.362,36.707l64.306,-0c3.128,-0 6.865,-4.6 11.212,-13.8c4.347,-9.199 4.957,-13.799 1.829,-13.799l-64.306,-0c-2.944,-0 -6.589,4.6 -10.936,13.799c-4.347,9.2 -5.049,13.8 -2.105,13.8Zm-38.724,-73.413l64.306,-0c3.127,-0 6.865,-4.6 11.212,-13.8c4.347,-9.199 4.956,-13.799 1.828,-13.799l-64.305,-0c-2.944,-0 -6.589,4.6 -10.936,13.799c-4.347,9.2 -5.049,13.8 -2.105,13.8Z" style="fill:#009dff;fill-rule:nonzero;"/><path d="M269.898,374.425l64.305,0c3.128,0 6.866,-4.6 11.213,-13.799c4.347,-9.2 4.956,-13.8 1.828,-13.8l-64.305,0c-2.944,0 -6.589,4.6 -10.936,13.8c-4.347,9.199 -5.049,13.799 -2.105,13.799Zm-54.051,36.707l64.306,-0c3.127,-0 6.865,-4.6 11.212,-13.8c4.347,-9.2 4.956,-13.799 1.828,-13.799l-64.305,-0c-2.944,-0 -6.589,4.599 -10.936,13.799c-4.347,9.2 -5.049,13.8 -2.105,13.8Zm-34.689,73.413l64.306,-0c3.128,-0 6.865,-4.6 11.212,-13.8c4.347,-9.199 4.956,-13.799 1.829,-13.799l-64.306,-0c-2.944,-0 -6.589,4.6 -10.936,13.799c-4.347,9.2 -5.049,13.8 -2.105,13.8Zm19.362,36.706l64.306,0c3.128,0 6.865,-4.6 11.212,-13.799c4.347,-9.2 4.957,-13.8 1.829,-13.8l-64.306,0c-2.944,0 -6.589,4.6 -10.936,13.8c-4.347,9.199 -5.049,13.799 -2.105,13.799Zm-38.724,-73.413l64.306,0c3.127,0 6.865,-4.6 11.212,-13.799c4.347,-9.2 4.956,-13.8 1.828,-13.8l-64.305,0c-2.944,0 -6.589,4.6 -10.936,13.8c-4.347,9.199 -5.049,13.799 -2.105,13.799Z" style="fill:#ffcd00;fill-rule:nonzero;"/></g></g></svg>