<?xml version="1.0" encoding="UTF-8" standalone="no"?>
<!DOCTYPE svg PUBLIC "-//W3C//DTD SVG 1.1//EN" "http://www.w3.org/Graphics/SVG/1.1/DTD/svg11.dtd">
<svg width="100%" height="100%" viewBox="0 0 750 750" version="1.1" xmlns="http://www.w3.org/2000/svg" xmlns:xlink="http://www.w3.org/1999/xlink" xml:space="preserve" xmlns:serif="http://www.serif.com/" style="fill-rule:evenodd;clip-rule:evenodd;stroke-linejoin:round;stroke-miterlimit:2;">
    <g id="Layer-1" serif:id="Layer 1">
        <g transform="matrix(1,0,0,1,-0.5,194.724)">
            <path d="M0,210.323C2.943,210.359 5.724,209.434 8.547,208.82C31.594,203.807 54.218,197.384 76.013,188.269C87.714,183.376 99.009,177.704 109.21,170.063C114.301,166.249 118.957,161.982 122.703,156.798C127.296,150.443 129.719,143.47 129.076,135.509C128.804,132.131 127.702,129.442 124.785,127.525C121.723,125.514 118.765,123.346 115.77,121.236C109.006,116.472 102.63,111.273 97.275,104.909C88.09,93.992 83.583,81.416 84.07,67.151C84.43,56.614 88.128,47.169 94.053,38.544C100.55,29.087 108.895,21.48 118.08,14.734C131.233,5.074 145.584,-2.473 160.438,-9.108C182.897,-19.138 206.174,-26.874 229.787,-33.647C241.701,-37.065 253.625,-40.447 265.667,-43.397C266.455,-43.59 267.25,-43.757 268.43,-44.023C267.504,-41.432 266.685,-39.142 265.801,-36.672C268.233,-36.237 270.454,-36.242 272.678,-36.309C273.875,-36.335 274.237,-35.671 274.155,-34.578C273.94,-31.684 274.62,-32.153 276.812,-32.204C277.057,-32.209 277.299,-32.276 277.542,-32.314C282.156,-32.526 286.769,-32.756 291.384,-32.946C294.918,-33.092 298.454,-33.189 301.989,-33.308C301.993,-33.13 301.996,-32.951 301.999,-32.772C297.363,-31.275 292.729,-29.772 288.089,-28.289C287.301,-28.037 286.496,-27.845 285.794,-27.383C284.751,-27.1 283.689,-26.876 282.67,-26.528C276.527,-24.43 270.372,-22.365 264.261,-20.177C243.631,-12.788 223.399,-4.446 203.827,5.434C191.095,11.862 178.731,18.913 167.528,27.824C161.441,32.667 155.84,37.99 151.54,44.551C146.098,52.853 144.909,61.656 148.516,70.969C150.582,76.303 154.235,80.501 158.45,84.248C162.941,88.24 167.88,91.65 172.739,95.163C179.361,99.95 185.875,104.859 191.163,111.188C198.048,119.427 202.05,128.924 202.938,139.568C204.25,155.292 200.043,169.76 191.967,183.15C186.823,191.677 179.703,198.469 172.102,204.76C161.148,213.824 149.171,221.364 136.619,227.974C115.333,239.184 93.331,248.563 69.631,253.452C69.139,253.507 68.647,253.563 68.154,253.615C65.43,253.899 62.716,254.346 59.957,254.11C58.92,254.021 58.16,253.732 58.416,252.463C59.062,250.346 59.507,248.194 59.785,245.694C54.5,246.11 49.424,246.554 44.383,247.38C43.22,247.283 42.081,247.47 40.934,247.634C37.616,248.104 37.618,248.087 35.989,245.221C35.787,244.866 35.513,244.552 35.273,244.218C34.419,241.211 32.823,239.143 29.325,239.198C28.455,239.212 27.572,238.795 26.654,238.87C25.28,238.56 23.919,238.11 22.528,237.978C20.988,237.832 19.955,237.125 19.001,235.971C16.883,233.413 14.823,230.77 12.434,228.481C9.739,225.898 8.428,222.916 8.496,219.253C8.512,218.362 8.179,217.697 7.501,217.094C5.267,215.107 3.078,213.071 0.883,211.04C0.608,210.786 0.344,210.693 0,210.823L0,210.323Z" style="fill:rgb(226,7,19);fill-rule:nonzero;"/>
        </g>
        <g transform="matrix(1,0,0,1,143,487.534)">
            <path d="M0,152.513C-0.534,151.228 -1.817,150.715 -2.769,149.87C-4.55,148.292 -6.412,146.804 -8.238,145.28C-7.07,143.85 -5.607,142.713 -4.162,141.621C-2.713,140.527 -2.317,139.292 -2.418,137.569C-2.599,134.495 -2.73,131.418 -2.875,128.343C-3.276,119.781 -3.554,111.212 -3.852,102.645C-4.132,94.574 -4.033,86.496 -4.294,78.423C-4.458,73.356 -4.092,68.274 -4.069,63.198C-4.062,61.798 -3.53,60.886 -2.524,60.001C0.984,56.913 4.727,54.139 8.571,51.497C17.634,45.267 27.02,39.551 36.534,34.046C37.688,33.379 38.434,32.656 38.714,31.259C39.186,28.9 39.854,26.571 40.583,24.275C40.966,23.07 40.833,22.027 40.373,20.909C39.261,18.218 38.215,15.499 37.115,12.802C36.792,12.012 36.488,11.256 37.056,10.46C38.307,10.301 39.305,9.564 40.369,8.989C45.877,6.007 51.25,2.777 56.871,0C56.704,1.145 56.537,2.289 56.37,3.434C56.21,3.579 56.05,3.724 55.89,3.869C53.313,7.751 50.761,11.651 48.141,15.503C47.466,16.496 47.312,17.355 47.79,18.499C48.814,20.953 49.6,23.508 50.653,25.948C51.286,27.41 51.34,28.779 50.943,30.276C50.41,32.284 49.903,34.304 49.525,36.346C49.248,37.847 48.536,38.79 47.185,39.581C36.481,45.847 25.937,52.37 15.878,59.643C13.313,61.496 10.848,63.478 8.452,65.549C7.305,66.54 6.758,67.615 6.707,69.187C6.402,78.429 6.504,87.67 6.678,96.909C6.867,106.896 7.208,116.88 7.506,126.865C7.675,132.523 7.838,138.182 8.127,143.835C8.2,145.248 7.728,146.138 6.741,147.049C4.801,148.84 2.628,150.394 1,152.513L0,152.513Z" style="fill:rgb(32,31,29);fill-rule:nonzero;"/>
        </g>
        <g transform="matrix(1,0,0,1,749.5,180.734)">
            <path d="M0,-20.187C-0.902,-19.462 -0.532,-18.354 -0.763,-17.444C-3.343,-7.255 -8.886,1.059 -16.672,7.965C-24.494,14.904 -33.562,19.727 -43.25,23.476C-52.906,27.213 -62.892,29.687 -73.116,31.232C-73.439,31.282 -73.777,31.239 -74.277,30.921C-69.705,28.549 -65.132,26.177 -60.278,23.659C-62.329,22.553 -64.527,22.962 -66.221,21.836C-64.64,21.329 -63.059,20.818 -61.475,20.315C-49.475,16.509 -38.132,11.409 -28.386,3.25C-20.545,-3.316 -14.689,-11.272 -11.81,-21.202C-10.481,-25.781 -9.546,-30.411 -10.7,-35.213C-12.015,-40.685 -15.135,-45.004 -19.134,-48.806C-19.951,-49.583 -21.106,-50.067 -21.451,-51.291C-21.111,-51.469 -20.814,-51.309 -20.527,-51.157C-15.826,-48.664 -11.433,-45.734 -7.665,-41.943C-4.836,-39.097 -2.617,-35.845 -1.091,-32.106C-0.568,-30.825 -0.855,-29.352 0,-28.187L0,-20.187Z" style="fill:rgb(33,31,29);fill-rule:nonzero;"/>
        </g>
        <g transform="matrix(1,0,0,1,649.998,377.058)">
            <path d="M0,-266.113C5.668,-266.229 11.336,-266.274 17.004,-266.113C23.938,-265.435 30.882,-264.842 37.734,-263.499C48.278,-261.433 58.521,-258.459 68.121,-253.521C70.996,-252.042 73.697,-250.273 76.457,-248.6C76.706,-248.203 77.048,-247.976 77.532,-248.008L77.493,-248.037C77.499,-247.658 77.711,-247.517 78.065,-247.544L78.051,-247.616C78.396,-246.391 79.551,-245.907 80.368,-245.13C84.367,-241.328 87.487,-237.009 88.802,-231.537C89.956,-226.735 89.021,-222.105 87.692,-217.526C84.813,-207.596 78.957,-199.64 71.116,-193.075C61.37,-184.915 50.027,-179.815 38.027,-176.009C36.443,-175.507 34.862,-174.996 33.281,-174.488C28.082,-173.372 22.933,-172.009 17.655,-171.269C16.771,-171.145 15.901,-170.857 14.627,-171.213C19.478,-173.598 24.061,-175.852 28.84,-178.203C26.899,-179.33 24.756,-179.072 22.889,-180.271C29.026,-182.641 34.983,-184.941 41.032,-187.276C40.785,-188.648 39.344,-189.154 39.001,-190.455C41.02,-191.418 43.25,-191.767 45.364,-192.464C48.848,-193.611 48.369,-192.548 48.418,-196.621C48.432,-197.787 48.452,-198.954 48.411,-200.118C48.379,-201.046 48.739,-201.459 49.692,-201.523C50.764,-201.596 51.824,-201.822 53.07,-202.009C52.336,-204.094 50.474,-205.271 49.517,-207.179C50.564,-207.698 51.523,-208.154 52.465,-208.644C57.241,-211.132 61.517,-214.256 64.842,-218.552C67.493,-221.977 69.199,-225.8 69.691,-230.142C70.154,-234.217 68.785,-237.468 65.473,-239.894C64.486,-241.085 63.119,-241.73 61.792,-242.414C56.471,-245.155 50.706,-246.461 44.872,-247.46C32.626,-249.557 20.24,-250.326 7.857,-250.847C-4.218,-251.355 -16.283,-250.775 -28.259,-248.978C-32.787,-248.298 -37.246,-247.307 -41.559,-245.693C-45.516,-244.211 -48.358,-241.637 -50.088,-237.762C-51.828,-233.866 -53.057,-229.817 -54.003,-225.671C-56.734,-213.713 -57.963,-201.543 -58.89,-189.349C-59.583,-180.221 -60.059,-171.07 -60.348,-161.92C-60.678,-151.516 -60.699,-141.101 -60.832,-130.691C-60.846,-129.614 -60.699,-128.535 -60.641,-127.456C-60.604,-126.788 -60.503,-125.98 -61.293,-125.74C-62.958,-125.235 -64.585,-124.454 -66.344,-124.433C-67.629,-124.418 -68.198,-125.727 -69.109,-126.412C-69.242,-126.512 -69.359,-126.633 -69.481,-126.746C-70.113,-127.336 -70.656,-127.241 -71.118,-126.535C-71.62,-125.768 -72.14,-125.012 -72.612,-124.228C-73.204,-123.244 -73.909,-123.055 -74.872,-123.738C-76.095,-124.606 -77.349,-125.428 -78.593,-126.266C-79.292,-126.737 -79.814,-126.661 -80.124,-125.795C-80.628,-124.384 -81.172,-122.987 -81.677,-121.577C-82.755,-118.572 -82.749,-118.57 -85.959,-118.549C-88.511,-119.231 -91.002,-119.314 -93.48,-118.133C-94.5,-117.647 -95.558,-117.104 -96.852,-117.034C-96.852,-119.067 -96.917,-121.031 -96.841,-122.991C-96.396,-134.38 -95.943,-145.769 -95.444,-157.155C-94.789,-172.117 -94.102,-187.077 -93.398,-202.036C-93.226,-205.731 -92.149,-209.229 -90.834,-212.659C-89.972,-214.908 -89.01,-217.118 -88.354,-219.446C-87.705,-221.742 -87.556,-223.998 -88.35,-226.306C-88.834,-227.711 -89.122,-229.184 -89.498,-230.627C-89.44,-231.992 -89.879,-233.264 -90.354,-234.5C-91.27,-236.885 -92.638,-237.756 -95.172,-237.53C-96.491,-237.413 -97.803,-237.128 -99.099,-236.832C-119.222,-232.249 -139.143,-226.898 -158.904,-220.951C-184.488,-213.251 -209.923,-205.086 -235.194,-196.416C-254.953,-189.636 -274.718,-182.869 -294.214,-175.355C-308.895,-169.696 -323.544,-163.956 -337.977,-157.684C-343.246,-155.394 -348.474,-153.023 -353.431,-150.079C-356.052,-148.523 -357.87,-146.385 -359.165,-143.685C-361.158,-139.53 -362.438,-135.141 -363.498,-130.684C-366.742,-117.046 -368.145,-103.137 -369.398,-89.218C-370.047,-82.009 -370.505,-74.779 -370.863,-67.549C-371.308,-58.568 -371.625,-49.58 -371.874,-40.592C-372.039,-34.597 -371.99,-28.595 -372.037,-22.597C-372.057,-19.968 -372.057,-19.964 -374.585,-19.952C-376.418,-19.944 -378.252,-19.919 -380.084,-19.962C-380.94,-19.981 -381.439,-19.649 -381.868,-18.91C-383.319,-16.408 -383.346,-16.424 -386.118,-17.52C-386.505,-17.674 -386.888,-17.837 -387.279,-17.98C-389.126,-18.656 -389.143,-18.663 -390.041,-16.888C-392.121,-12.776 -395.312,-10.04 -399.883,-9.158C-402.181,-8.715 -404.539,-8.774 -406.842,-9.225C-407.903,-9.433 -408.626,-9.195 -409.152,-8.28C-411.858,-6.462 -413.977,-3.978 -416.419,-1.859C-417.099,-1.27 -417.745,-0.642 -418.616,0.161C-419.647,-3.046 -419.685,-6.093 -419.827,-9.095C-420.146,-15.844 -419.518,-22.561 -418.76,-29.256C-416.69,-47.527 -413.05,-65.536 -409.331,-83.518C-407.496,-92.387 -405.662,-101.25 -404.239,-110.193C-403.692,-113.635 -403.193,-117.092 -403.177,-120.593C-402.931,-122.58 -402.918,-124.556 -403.404,-126.518C-403.918,-128.597 -404.031,-128.737 -406.053,-128.518C-407.86,-128.322 -409.644,-128.006 -411.377,-127.38C-416.451,-125.548 -421.362,-123.336 -426.238,-121.051C-430.361,-119.119 -434.517,-117.246 -438.486,-114.999C-438.757,-114.919 -439.078,-114.89 -439.021,-114.475L-438.963,-114.526C-439.418,-114.738 -439.757,-114.542 -440.058,-114.214C-443.385,-112.883 -446.496,-111.107 -449.668,-109.466C-456.687,-105.834 -463.653,-102.098 -470.652,-98.426C-471.419,-98.025 -472.095,-97.193 -473.141,-97.696L-473.178,-97.643C-470.28,-99.893 -467.756,-102.555 -465.07,-105.037C-460.236,-109.502 -455.44,-114.008 -450.648,-118.516C-450.072,-119.058 -449.277,-119.452 -449.047,-120.475C-452.116,-120.392 -454.99,-119.42 -458.075,-119.401C-457.901,-120.524 -456.926,-120.834 -456.276,-121.356C-448.913,-127.263 -442.782,-134.209 -438.282,-142.542C-436.935,-145.035 -435.689,-147.584 -434.913,-150.314C-434.513,-151.718 -433.693,-152.534 -432.429,-153.191C-425.48,-156.801 -418.316,-159.94 -411.102,-162.961C-395.061,-169.678 -378.833,-175.917 -362.562,-182.055C-340.684,-190.308 -318.458,-197.548 -296.279,-204.917C-266.587,-214.782 -236.448,-223.137 -206.177,-231.016C-185.725,-236.339 -165.142,-241.109 -144.466,-245.483C-122.318,-250.168 -100.063,-254.244 -77.679,-257.628C-61.873,-260.018 -46.023,-262.036 -30.114,-263.607C-20.333,-264.572 -10.535,-265.285 -0.733,-265.98C-0.487,-265.997 -0.244,-266.068 0,-266.113" style="fill:rgb(226,7,20);fill-rule:nonzero;"/>
        </g>
        <g transform="matrix(1,0,0,1,597.149,446.152)">
            <path d="M0,-33.495C1.488,-34.128 2.537,-35.348 3.772,-36.317C12.907,-43.485 19.006,-52.709 22.175,-63.84C23.686,-69.146 24.687,-74.555 23.334,-80.083C22.016,-85.471 19.596,-90.191 14.932,-93.495C14.463,-94.456 13.51,-94.881 12.692,-95.418C5.382,-100.225 -2.724,-101.27 -11.211,-100.31C-13.242,-100.08 -13.286,-99.963 -13.172,-97.776C-12.896,-92.465 -12.514,-87.16 -12.262,-81.848C-11.686,-69.726 -11.153,-57.602 -10.623,-45.478C-10.401,-40.413 -10.228,-35.345 -10.031,-30.277C-10.019,-29.945 -10.006,-29.612 -9.976,-29.281C-9.888,-28.321 -9.489,-27.943 -8.497,-28.383C-5.447,-29.73 -2.492,-31.225 0,-33.495M74.92,66.002C73.492,65.815 72.099,66.155 70.703,66.331C69.333,66.505 68.478,66.175 67.664,64.901C60.233,53.258 52.224,42.017 43.884,31.01C37.754,22.919 31.405,15.004 24.843,7.261C24.308,6.63 23.822,5.945 23.081,5.522C21.876,3.293 19.956,1.644 18.328,-0.231C16.036,-2.87 16.485,-2.939 13.732,-0.664C13.283,-0.293 12.834,0.08 12.366,0.426C5.334,5.609 -2.442,9.345 -10.688,12.12C-12.085,12.591 -12.691,13.126 -12.692,14.7C-12.698,21.782 -13.479,28.803 -14.537,35.804C-16.635,49.678 -20.417,63.087 -25.22,76.251C-26.399,79.486 -28.039,81.968 -31.271,83.328C-32.567,83.873 -33.736,84.712 -34.983,85.378C-35.468,85.637 -35.947,86.099 -36.645,85.672C-37.098,84.049 -36.493,82.264 -37.057,80.485C-38.812,80.719 -40.327,81.408 -41.877,81.929C-52.038,85.348 -62.375,88.316 -71.854,93.504C-74.807,94.359 -77.617,95.7 -80.674,96.192C-82.964,96.561 -85.273,96.803 -87.53,95.936C-87.407,94.903 -86.742,94.34 -86.288,93.665C-79.338,83.349 -73.489,72.439 -68.677,60.973C-68.398,60.309 -67.875,59.673 -68.141,58.858L-68.188,58.905C-67.917,58.876 -67.763,58.714 -67.667,58.467C-64.859,51.247 -62.59,43.869 -61.183,36.24C-61.064,35.596 -61.052,34.932 -60.981,34.193C-62.341,33.654 -63.606,34.718 -65.08,34.244C-65.08,32.235 -64.413,30.273 -63.962,28.311C-63.659,26.998 -63.905,26.142 -64.756,25.175C-68.439,20.988 -72.055,16.741 -75.702,12.524C-76.893,11.148 -77.929,9.671 -78.943,8.072C-77.323,7.149 -75.687,6.834 -74.091,6.426C-68.294,4.942 -62.501,3.439 -56.682,2.05C-55.331,1.728 -54.792,1.192 -54.639,-0.232C-52.398,-21.016 -51.176,-41.855 -51.255,-62.761C-51.278,-68.75 -51.584,-74.738 -51.773,-80.726C-51.8,-81.554 -51.801,-82.394 -52.123,-83.183C-52.178,-85.165 -52.226,-87.147 -52.288,-89.129C-52.323,-90.25 -52.854,-90.775 -54.028,-90.604C-58.263,-89.991 -62.523,-89.514 -66.607,-88.136C-67.62,-88.017 -68.525,-88.135 -69.431,-88.76C-71.552,-90.224 -73.751,-91.577 -75.934,-92.952C-76.748,-93.465 -77.352,-93.971 -77.169,-95.124C-76.626,-98.54 -78.289,-101.05 -80.713,-103.185C-82.095,-104.403 -83.677,-105.321 -85.316,-106.151C-85.972,-106.483 -86.732,-106.647 -87.424,-107.407C-85.486,-108.114 -83.68,-108.808 -81.85,-109.434C-66.581,-114.662 -51.077,-119.05 -35.364,-122.745C-26.215,-124.897 -17.063,-126.996 -7.761,-128.353C2.182,-129.804 12.108,-130.298 21.957,-127.619C27.373,-126.146 32.475,-123.973 37.204,-120.94C38.389,-120.181 39.585,-119.439 40.776,-118.69C41.014,-118.244 41.35,-117.989 41.883,-118.109L41.851,-118.135C41.71,-117.376 42.379,-117.17 42.786,-116.809C55.976,-105.126 61.967,-90.153 62.826,-72.858C63.054,-68.271 62.583,-63.719 61.91,-59.177C60.106,-47.003 54.838,-36.73 45.403,-28.696C44.021,-27.517 42.692,-26.276 41.405,-25.124C41.575,-24.33 42.098,-24.01 42.492,-23.6C48.734,-17.123 54.969,-10.637 61.234,-4.182C74.812,9.808 88.135,24.036 101.47,38.254C107.168,44.33 112.87,50.402 118.562,56.485C119.038,56.995 119.726,57.419 119.595,58.395C117.982,58.275 116.456,57.899 114.937,57.505C113.444,57.118 112.22,57.277 111.229,58.68C110.323,59.964 109.087,61.004 108.293,62.39C107.76,62.853 107.227,63.316 106.686,63.784C105.906,63.29 105.18,62.828 104.453,62.367C101.65,59.594 98.312,57.492 95.281,54.73C94.642,55.902 94.12,56.834 93.624,57.778C93.238,58.512 92.712,58.888 91.831,58.78C89.779,58.53 87.715,58.382 85.667,58.105C82.731,57.708 82.735,57.675 81.715,60.35C81.685,60.427 81.652,60.503 81.619,60.579C80.961,62.092 80.953,64.093 79.709,65.077C78.475,66.053 76.534,65.688 74.92,66.002" style="fill:rgb(226,7,20);fill-rule:nonzero;"/>
        </g>
        <g transform="matrix(1,0,0,1,180.056,491.176)">
            <path d="M0,6.818C-0.568,7.614 -0.264,8.37 0.059,9.16C1.159,11.857 2.205,14.576 3.316,17.267C3.777,18.384 3.91,19.427 3.527,20.632C2.797,22.928 2.129,25.257 1.658,27.617C1.378,29.013 0.631,29.737 -0.522,30.404C-10.037,35.909 -19.422,41.625 -28.485,47.855C-32.33,50.497 -36.072,53.271 -39.58,56.359C-40.586,57.244 -41.119,58.156 -41.125,59.555C-41.148,64.631 -41.514,69.714 -41.35,74.781C-41.089,82.854 -41.188,90.931 -40.908,99.003C-40.61,107.57 -40.333,116.138 -39.931,124.701C-39.787,127.776 -39.655,130.853 -39.475,133.926C-39.374,135.65 -39.769,136.884 -41.218,137.979C-42.664,139.071 -44.126,140.208 -45.294,141.637C-45.563,141.812 -45.895,141.936 -46.087,142.173C-46.946,143.232 -47.854,142.955 -48.798,142.339C-50.652,140.204 -52.996,138.631 -55.146,136.839C-57.731,134.685 -57.826,134.671 -59.898,137.276C-60.688,138.269 -61.363,138.277 -62.428,137.915C-64.531,137.199 -66.577,136.285 -68.789,135.912C-71.512,134.645 -74.409,133.861 -77.249,132.931C-78.671,132.466 -79.364,131.801 -79.64,130.236C-81.075,122.107 -81.938,113.917 -82.592,105.698C-83.04,100.052 -83.48,94.405 -83.607,88.741C-83.63,87.699 -83.926,87.208 -85.034,87.276C-86.104,87.342 -87.183,87.291 -88.344,87.291C-88.115,84.95 -87.028,83.004 -86.751,80.863C-86.593,80.463 -86.078,80.084 -86.457,79.64C-86.694,79.362 -86.972,79.807 -87.242,79.899C-88.685,80.525 -90.127,81.151 -91.769,81.864C-92.15,80.127 -91.497,78.552 -91.503,76.965C-91.509,75.189 -91.446,75.17 -93.194,75.139C-94.745,75.112 -96.297,75.133 -97.86,75.133C-97.921,74.07 -97.436,73.472 -97.126,72.823C-94.951,68.242 -92.731,63.681 -90.591,59.085C-89.948,57.703 -89.129,56.506 -88.059,55.424C-86.011,53.355 -84.039,51.212 -82.02,49.113C-81.495,48.568 -81,48.069 -81.007,47.212C-81.058,39.966 -80.246,32.76 -80.019,25.527C-79.247,19.784 -78.475,14.041 -77.699,8.271C-78.332,8.241 -78.658,8.654 -79.016,8.975C-81.618,11.304 -84.27,13.582 -86.794,15.992C-96.311,25.074 -105.126,34.817 -113.625,44.845C-116.417,48.139 -119.308,51.358 -121.785,54.91C-124.513,57.834 -126.814,61.102 -129.299,64.222C-129.966,65.06 -130.614,65.914 -131.455,66.997C-132.232,64.695 -131.442,62.526 -132.031,60.461C-133.601,60.386 -134.867,61.458 -136.746,61.474C-135.036,57.276 -132.852,53.523 -131.03,49.2C-132.855,49.339 -134.305,49.449 -135.707,49.556C-136.297,48.964 -135.919,48.43 -135.755,47.907C-133.399,40.371 -131.022,32.84 -128.698,25.295C-128.373,24.24 -127.859,23.31 -127.322,22.375C-122.978,14.794 -118.542,7.207 -115.712,-1.064C-113.836,-6.543 -110.684,-10.911 -106.829,-14.978C-98.325,-23.952 -88.75,-31.694 -78.983,-39.215C-76.348,-41.245 -73.704,-43.263 -71.064,-45.286C-70.346,-45.456 -69.976,-46.101 -69.421,-46.493C-68.585,-47.037 -67.727,-47.549 -66.917,-48.131C-50.361,-60.025 -33.262,-71.088 -15.766,-81.543C-5.841,-87.473 4.267,-93.07 14.616,-98.225C14.733,-98.37 14.85,-98.515 14.967,-98.66L14.921,-98.608C15.341,-98.446 15.694,-98.582 16.017,-98.855C16.254,-98.931 16.512,-98.97 16.726,-99.089C18.721,-100.195 20.6,-100.33 22.819,-99.321C25.162,-98.255 27.826,-98.254 30.429,-98.342C35.563,-98.517 40.453,-99.768 45.224,-101.575C50.986,-103.755 56.616,-106.211 61.795,-109.598C62.605,-109.691 63.144,-110.493 64.008,-110.445C63.452,-107.034 62.554,-103.676 62.214,-100.222C63.28,-99.97 63.965,-100.547 64.694,-100.863C94.934,-113.956 125.771,-125.429 157.294,-135.046C158.721,-135.481 160.135,-135.957 161.555,-136.414C161.776,-136.16 161.815,-135.88 161.673,-135.575C154.433,-132.479 147.313,-129.119 140.208,-125.732C127.406,-119.63 114.636,-113.462 101.858,-107.312C101.039,-106.917 100.264,-106.434 99.468,-105.992C98.201,-105.516 97.001,-104.913 95.91,-104.105L95.979,-104.147C95.644,-103.984 95.308,-103.82 94.972,-103.657C94.896,-103.588 94.807,-103.545 94.707,-103.528L94.797,-103.59C89.326,-100.776 83.84,-97.987 78.384,-95.14C60.676,-85.904 43.174,-76.287 25.871,-66.315C11.593,-58.086 -2.539,-49.615 -16.155,-40.316C-21.173,-36.889 -26.088,-33.325 -30.621,-29.252C-32.873,-27.228 -34.288,-24.783 -35.008,-21.868C-36.145,-17.262 -36.893,-12.588 -37.558,-7.897C-38.55,-0.901 -39.194,6.135 -39.918,13.162C-40.092,14.846 -40.234,16.555 -40.021,18.664C-36.029,16.343 -32.33,14.334 -28.849,11.945C-27.968,11.484 -27.068,11.056 -26.209,10.559C-14.846,3.974 -3.442,-2.539 8.172,-8.674C8.893,-9.056 9.538,-9.643 10.425,-9.651C10.519,-9.538 10.623,-9.439 10.738,-9.35C7.647,-4.398 4.343,0.412 0.983,5.182C0.609,5.714 0.341,6.282 0,6.818" style="fill:rgb(226,7,20);fill-rule:nonzero;"/>
        </g>
        <g transform="matrix(1,0,0,1,368.188,276.589)">
            <path d="M0,-42.598C-0.53,-45.064 -2.269,-46.37 -4.463,-47.227C-7.717,-48.498 -11.124,-48.594 -14.55,-48.498C-17.768,-48.408 -17.974,-48.214 -18.622,-45.108C-19.932,-38.834 -20.918,-32.506 -21.557,-26.133C-21.889,-22.824 -21.946,-19.487 -22.119,-16.162C-22.172,-15.13 -21.708,-14.744 -20.752,-15.221C-17.095,-17.048 -13.559,-19.064 -10.558,-21.896C-5.193,-25.658 -1.479,-30.623 0.184,-36.988C0.66,-38.815 0.929,-40.758 0,-42.598M32.638,30.416C32.067,30.511 31.427,30.47 30.94,30.725C28.752,31.873 27.389,30.937 25.891,29.274C21.161,24.029 16.271,18.928 11.433,13.783C10.812,13.123 10.287,12.347 9.429,11.941C7.635,9.206 5.096,7.142 2.932,4.742C1.573,3.234 1.496,3.26 0.219,4.798C-5.445,11.617 -12.534,16.119 -21.231,17.983C-22.313,18.215 -22.757,18.677 -22.782,19.806C-22.848,22.795 -23.052,25.781 -23.15,28.77C-23.354,34.999 -23.518,41.229 -23.713,47.459C-23.773,49.368 -23.795,49.385 -25.677,49.415C-27.339,49.442 -29.004,49.462 -30.665,49.407C-31.625,49.376 -32.183,49.723 -32.566,50.619C-33.016,51.67 -32.997,53.112 -34.047,53.674C-35.068,54.221 -36.289,53.351 -37.453,53.454C-37.616,53.468 -37.784,53.425 -37.95,53.423C-39.102,53.406 -40.405,52.507 -41.331,53.209C-42.301,53.945 -41.689,55.395 -41.731,56.524C-41.769,57.555 -42.058,58.08 -43.179,57.977C-44.498,57.855 -45.824,57.807 -47.146,57.727C-50.612,56.957 -53.223,58.733 -55.701,60.716C-56.63,61.461 -57.309,62.519 -58.499,63.225C-57.96,50.728 -57.421,38.231 -56.876,25.607C-58.579,25.395 -59.87,26.749 -61.513,26.566C-61.56,26.204 -61.663,25.883 -61.632,25.576C-61.384,23.073 -61.729,20.783 -63.775,19.027C-64.398,18.492 -64.436,17.723 -64.43,16.956C-64.419,15.541 -64.47,14.124 -64.414,12.711C-64.374,11.708 -64.727,11.197 -65.748,10.99C-66.881,10.76 -67.979,10.352 -69.081,9.679C-64.89,7.659 -60.573,6.167 -56.34,4.474C-55.111,3.983 -53.513,3.891 -52.767,2.857C-52.007,1.805 -52.673,0.288 -52.711,-1.017C-52.953,-9.287 -52.038,-17.467 -50.921,-25.635C-50.752,-26.87 -50.498,-28.095 -50.362,-29.334C-50.161,-31.173 -50.678,-31.586 -52.422,-31.002C-54.393,-30.343 -56.341,-29.619 -58.311,-28.959C-59.949,-28.41 -59.964,-28.431 -60.155,-30.034C-60.353,-31.685 -60.61,-33.335 -60.698,-34.993C-60.762,-36.211 -61.23,-37.009 -62.317,-37.554C-63.428,-38.112 -64.485,-38.78 -65.566,-39.398C-65.853,-42.148 -67.373,-44.281 -69.236,-46.225C-68.864,-46.509 -68.686,-46.696 -68.468,-46.803C-59.271,-51.306 -50.042,-55.744 -40.642,-59.815C-32.238,-63.454 -23.809,-67.037 -15.019,-69.669C-11.352,-70.767 -7.678,-71.829 -3.76,-71.581C-1.743,-71.453 0.13,-70.693 2.118,-70.493C5.609,-68.919 8.886,-66.992 11.854,-64.56C12.574,-63.761 13.294,-62.962 14.014,-62.162C19.036,-56.582 21.931,-50.02 22.178,-42.55C22.461,-34.017 21.354,-25.63 17.723,-17.765C17.198,-16.628 17.421,-15.97 18.253,-15.178C21.806,-11.796 25.301,-8.355 28.84,-4.96C30.495,-3.371 32.202,-1.838 34.161,-0.025C34.401,-1.617 34.378,-2.823 34.291,-4.035C34.351,-4.613 34.439,-5.19 34.464,-5.769C35.094,-20.631 35.808,-35.491 36.289,-50.358C36.447,-55.237 37.012,-59.925 39.101,-64.382C39.62,-65.492 40.188,-66.641 40.228,-67.92C40.397,-73.401 40.555,-78.883 40.716,-84.365C40.915,-87.223 40.913,-87.229 43.549,-88.095C53.562,-91.384 63.575,-94.67 73.589,-97.955C80.923,-100.36 88.254,-102.77 95.594,-105.156C97.646,-105.823 97.658,-105.787 98.003,-103.626C97.763,-101.368 97.742,-99.104 97.836,-96.837C97.563,-93.606 97.295,-90.371 97.361,-87.126C97.385,-85.944 97.023,-85.21 95.818,-84.972C95.497,-84.909 95.197,-84.739 94.883,-84.629C84.921,-81.141 74.974,-77.61 64.98,-74.213C63.317,-73.648 62.52,-72.821 62.416,-71.115C62.315,-69.458 62.232,-67.802 62.031,-66.145C61.661,-63.095 61.455,-60.022 61.268,-56.954C61.18,-55.518 61.476,-55.285 62.835,-55.682C66.021,-56.613 69.184,-57.628 72.355,-58.61C78.266,-60.268 84.176,-61.927 90.308,-63.648L90.308,-55.023C89.794,-51.641 89.896,-48.23 89.821,-44.828C89.741,-41.191 89.752,-41.196 86.402,-40.014C78.343,-37.169 70.293,-34.293 62.217,-31.495C60.874,-31.03 60.27,-30.425 60.176,-28.895C59.836,-23.349 59.286,-17.816 58.857,-12.275C58.789,-11.389 58.559,-10.46 59.148,-9.328C62.587,-10.326 66.066,-11.336 69.453,-12.662C77.492,-15.204 85.532,-17.747 93.811,-20.366C93.471,-17.161 93.166,-14.287 92.861,-11.415C92.689,-10.516 92.477,-9.624 92.354,-8.719C91.533,-2.707 90.642,3.298 89.98,9.328C89.787,11.085 89.016,11.639 87.484,12.098C77.764,15.011 68.073,18.023 58.377,21.014C56.071,21.725 56.081,21.744 57.029,23.957C57.076,24.064 56.968,24.238 56.917,24.438C53.997,25.152 50.962,24.72 48.012,25.129C46.155,25.386 44.632,24.982 43.026,24.147C41.602,23.406 40.262,22.36 38.526,22.173C38.306,23.95 38.024,25.591 37.922,27.244C37.854,28.33 37.47,28.842 36.384,29.122C35.113,29.45 33.771,29.658 32.638,30.416" style="fill:rgb(225,7,20);fill-rule:nonzero;"/>
        </g>
        <g transform="matrix(1,0,0,1,449.864,293.328)">
            <path d="M0,248.697C-0.344,248.477 -0.833,247.772 -0.933,248.799C-1.127,250.786 -1.216,252.784 -1.324,254.779C-1.426,256.666 -1.496,258.553 -2.063,260.534C-3.676,257.331 -5.289,254.128 -6.902,250.926C-8.505,246.635 -10.759,242.647 -12.692,238.511C-13.205,237.414 -13.492,238.399 -13.715,238.884C-15.038,241.065 -16.361,243.246 -17.914,245.804C-19.343,242.881 -20.609,240.31 -21.856,237.73C-23.377,234.584 -24.857,231.418 -26.403,228.284C-27.119,226.834 -27.988,226.675 -29.046,227.894C-29.994,228.989 -30.725,230.272 -31.713,231.707C-32.444,227.667 -32.53,223.801 -32.762,219.967C-33.704,204.317 -33.509,188.66 -32.724,173.012C-32.022,159.039 -30.905,145.094 -29.49,131.173C-28.101,117.506 -26.698,103.837 -25.548,90.148C-25.047,84.196 -24.353,78.192 -25.498,72.213C-25.642,69.379 -27.052,67.51 -29.817,66.838C-31.509,66.427 -33.25,66.141 -35.01,66.356C-38.144,66.738 -41.264,67.178 -44.328,67.985C-57.005,71.319 -68.938,76.581 -80.832,81.955C-81.054,82.194 -81.708,82.145 -81.365,82.76L-81.341,82.702C-82.021,82.162 -82.546,82.756 -83.06,83.005C-87.052,84.933 -91.024,86.905 -95.004,88.859C-95.736,89.218 -96.401,89.733 -97.244,89.841C-97.374,89.718 -97.505,89.596 -97.636,89.475C-94.631,82.879 -91.429,76.418 -86.619,70.868C-83.799,67.613 -80.688,64.894 -76.757,63.01C-68.875,59.23 -60.814,55.884 -52.672,52.733C-21.172,40.546 10.942,30.175 43.195,20.196C67.819,12.577 92.646,5.682 117.526,-1.027C128.282,-3.928 139.148,-6.402 150.034,-8.781C154.334,-9.72 158.601,-10.814 162.883,-11.837C163.021,-11.446 162.961,-11.086 162.706,-10.759C160.403,-10.027 158.382,-8.806 156.752,-7.037C155.485,-5.662 154.602,-4.097 155.687,-2.158C155.257,-1.918 154.853,-1.594 154.393,-1.449C146.829,0.934 141.356,5.735 137.881,12.829C137.465,13.677 136.874,14.024 135.985,14.209C123.932,16.721 111.989,19.713 100.06,22.742C79.493,27.963 58.997,33.442 39.184,41.16C32.816,43.64 26.504,46.242 20.809,50.104C18.278,51.819 16.23,53.976 14.942,56.776C14.038,58.742 13.254,60.757 12.621,62.832C9.891,71.775 8.433,80.975 7.166,90.206C6.047,98.365 5.258,106.56 4.504,114.762C3.506,125.622 2.882,136.503 2.255,147.384C1.79,155.443 1.435,163.516 1.316,171.589C1.129,184.323 0.83,197.056 0.981,209.798C1.141,223.192 1.293,236.58 2.459,250.059C1.362,249.907 0.877,248.933 0,248.697" style="fill:rgb(226,7,20);fill-rule:nonzero;"/>
        </g>
        <g transform="matrix(1,0,0,1,337.556,415.301)">
            <path d="M0,128.412C-0.956,128.126 -1.315,128.838 -1.769,129.438C-2.504,130.411 -3.03,131.556 -4.153,132.546C-4.511,131.739 -4.777,131.079 -5.092,130.444C-6.34,127.927 -7.281,127.634 -9.963,129.037C-10.317,127.744 -10.43,126.463 -10.502,125.171C-11.065,115.102 -11.208,105.032 -10.72,94.955C-10.599,92.463 -10.642,89.963 -10.609,87.467C-10.276,82.324 -9.932,77.182 -9.617,72.038C-9.459,69.469 -9.354,66.896 -9.224,64.325C-8.669,57.534 -8.17,50.738 -7.544,43.954C-6.659,34.355 -5.683,24.766 -4.736,15.173C-4.573,13.519 -4.211,11.87 -4.217,10.219C-4.225,8.183 -3.35,6.838 -1.779,5.65C-0.062,4.353 1.484,2.83 3.176,1.343C4.608,2.691 4.974,4.589 6.302,6.198C9.345,1.724 12.35,-2.692 15.513,-7.34C17.309,-5.342 18.946,-3.52 20.715,-1.552C22.715,-3.41 24.628,-5.188 26.843,-7.245C26.979,-4.831 26.31,-2.896 26.542,-0.938C24.899,12.886 23.207,36.449 23.765,38.774C27.385,37.051 30.961,35.349 34.538,33.645C35.624,33.457 35.953,32.82 35.981,31.724C36.068,28.414 36.286,25.107 36.453,21.799C36.848,13.951 37.305,6.106 37.436,-1.752C37.868,-3.377 37.81,-5.049 37.894,-6.706C38,-8.791 37.984,-8.775 40.01,-8.909C42.888,-9.099 45.569,-9.849 47.861,-11.71C49.793,-13.281 50.909,-15.391 51.799,-17.744C52.628,-17.644 52.856,-16.929 53.287,-16.511C55.469,-14.392 57.344,-14.325 59.621,-16.361C61.132,-17.714 62.083,-19.484 63.149,-21.321C64.081,-20.638 64.253,-19.467 65.088,-18.803C66.129,-17.975 67.102,-18.327 68.306,-18.962C68.307,-15.568 67.255,-12.473 67.375,-9.286C67.251,-8.895 67.054,-8.511 67.015,-8.111C66.344,-1.24 65.528,5.623 65.079,12.51C64.427,22.476 63.791,32.456 63.603,42.437C63.215,63.01 63.045,83.587 63.852,104.157C64.133,111.313 64.286,118.474 64.558,125.632C64.676,128.706 64.951,131.773 65.154,134.845C65.239,136.483 65.324,138.122 65.431,140.185C63.011,138.446 61.634,136.067 59.516,134.512C57.128,131.144 51.437,125.413 49.708,124.739C49.409,126.298 49.082,127.828 48.828,129.369C48.621,130.629 47.962,131.063 46.753,130.689C43.825,129.306 40.918,127.872 37.958,126.56C36.729,126.016 36.272,125.31 36.262,123.92C36.154,109.765 35.966,95.609 35.795,81.454C35.781,80.21 35.84,78.957 35.506,77.735L35.506,68.811C34.997,68.771 34.728,68.675 34.51,68.743C30.306,70.058 26.112,71.406 21.905,72.713C21.14,72.951 20.824,73.4 20.837,74.163C20.848,74.829 20.834,75.495 20.834,76.161C20.833,96.057 20.836,115.952 20.825,135.847C20.824,136.721 20.985,137.632 20.571,138.71C18.404,137.71 16.393,136.781 14.355,135.84C13.601,137.069 13.421,138.283 13.327,139.522C11.985,142.66 11.603,146.092 10.271,149.733C7.837,144.187 5.565,139.009 3.294,133.83C2.678,132.334 2.059,130.838 1.445,129.34C1.179,128.69 0.829,128.182 0,128.412" style="fill:rgb(225,7,20);fill-rule:nonzero;"/>
        </g>
        <g transform="matrix(1,0,0,1,279.726,499.601)">
            <path d="M0,-9.977C3.072,-11.222 6.157,-12.439 9.214,-13.719C19.317,-17.951 29.411,-22.206 39.508,-26.451C40.043,-26.675 40.604,-26.849 41.119,-27.114C42.217,-27.677 42.6,-27.215 42.695,-26.139C42.863,-24.237 43.071,-22.338 43.278,-20.44C43.367,-19.623 43.267,-18.768 43.717,-18.014C43.718,-17.599 43.681,-17.179 43.725,-16.769C44.042,-13.798 44.391,-10.831 44.7,-7.86C44.905,-5.882 44.893,-5.854 43.05,-5.148C40.801,-4.287 38.559,-3.392 36.265,-2.668C34.864,-2.226 34.316,-1.521 34.3,-0.011C34.223,7.382 33.745,14.762 33.419,22.148C32.961,32.523 32.631,42.903 32.237,53.281C32.085,57.265 31.91,61.249 31.734,65.232C31.717,65.625 31.766,66.077 31.152,66.347C29.896,66.12 28.52,65.872 27.038,65.603C26.549,67.24 25.975,68.783 26.295,70.483L26.311,70.467C25.394,70.502 24.795,69.874 24.141,69.389C22.809,68.405 21.505,67.382 20.185,66.381C17,63.97 16.999,63.971 13.743,66.436C11.309,68.451 8.995,68.147 6.753,66.094C6.583,65.938 6.298,65.908 5.993,65.792C4.855,67.193 4.812,69.159 3.249,70.523L3.249,52.496C3.28,50.831 3.356,49.166 3.328,47.502C3.302,45.986 3.155,45.829 1.74,46.123C0.336,46.415 -1.071,46.423 -2.482,46.507C-7.844,46.823 -13.113,46.206 -18.319,44.944C-18.848,44.713 -19.367,44.456 -19.906,44.254C-30.371,40.348 -36.611,32.669 -39.698,22.153C-40.046,20.966 -40.109,19.692 -40.755,18.594C-40.807,17.85 -40.805,17.096 -40.918,16.36C-42.442,6.464 -41.947,-3.364 -39.947,-13.141C-38.739,-19.043 -36.495,-24.587 -34.043,-30.058C-31.239,-34.878 -28.296,-39.597 -24.679,-43.872C-17.561,-52.285 -9.104,-59.092 0.357,-64.655C12.55,-71.824 25.613,-76.872 39.342,-80.225C39.745,-80.324 40.132,-80.5 40.628,-80.309C41.017,-77.54 40.24,-74.74 40.454,-71.927C40.248,-68.443 39.865,-64.956 39.903,-61.475C39.927,-59.277 39.171,-58.155 37.134,-57.49C35.513,-56.96 33.9,-56.295 32.33,-55.262C33.628,-54.058 35.421,-53.899 36.7,-52.712C34.624,-50.623 32.188,-49.344 29.769,-48.088C24.528,-45.367 19.186,-42.839 13.97,-40.072C7.328,-36.548 1.047,-32.48 -3.913,-26.705C-11.819,-17.497 -14.272,-6.779 -12.117,4.985C-11.038,10.873 -6.864,16.444 1.104,17.369C1.736,17.544 2.335,17.773 3.028,17.762C6.82,17.703 6.856,17.721 6.808,13.974C6.778,11.716 7.035,9.437 6.603,7.104C5.634,7.318 4.793,7.398 4.036,7.692C2.662,8.227 1.929,7.682 1.246,6.51C0.17,4.664 -1.061,2.906 -2.226,1.111C-3.733,-1.46 -5.24,-4.031 -6.851,-6.779C-4.474,-7.888 -2.237,-8.932 0,-9.977" style="fill:rgb(225,7,20);fill-rule:nonzero;"/>
        </g>
        <g transform="matrix(1,0,0,1,515.448,234.275)">
            <path d="M0,-37.861C6.524,-39.259 13.05,-40.658 19.798,-42.105C19.776,-39.144 19.005,-36.375 18.769,-33.555C18.171,-29.619 17.501,-25.694 17.006,-21.745C16.755,-19.741 16.071,-18.621 13.903,-18.003C5.604,-15.634 -2.612,-12.971 -10.878,-10.477C-12.198,-10.079 -12.98,-9.65 -13.098,-8.026C-13.368,-4.308 -13.962,-0.615 -14.373,3.094C-14.638,5.485 -14.859,7.883 -15.009,10.284C-15.102,11.781 -14.887,11.955 -13.502,11.561C-10.231,10.629 -6.981,9.626 -3.723,8.651C4.94,6.165 13.603,3.679 22.564,1.107C22.769,4.143 22.362,6.975 22.274,9.808C21.882,15.442 21.475,21.076 21.107,26.711C20.971,28.807 21.018,28.828 18.982,29.343C10.526,31.482 2.067,33.609 -6.391,35.741C-15.896,38.137 -25.4,40.532 -34.905,42.928C-38.396,43.74 -41.887,44.553 -45.377,45.365C-45.513,43.715 -45.274,42.081 -45.197,40.439C-44.998,36.245 -44.325,32.077 -44.476,27.865C-44.071,26.072 -44.053,24.243 -43.929,22.421C-43.272,12.813 -42.601,3.206 -41.915,-6.4C-41.483,-12.445 -40.916,-18.483 -40.606,-24.534C-40.395,-28.677 -39.767,-32.799 -39.935,-36.962L-39.302,-40.393C-38.358,-43.133 -37.37,-45.882 -37.075,-48.771C-36.505,-54.369 -36.097,-59.984 -35.622,-65.592C-35.646,-67.178 -34.418,-67.349 -33.302,-67.635C-25.919,-69.526 -18.53,-71.392 -11.155,-73.311C-6.282,-74.579 -1.429,-75.923 3.434,-77.233C4.265,-77.277 5.168,-77.005 5.829,-77.786C6.082,-77.908 6.336,-78.03 6.589,-78.153C7.71,-77.778 8.679,-78.178 9.614,-78.747C10.278,-78.733 10.918,-78.778 11.577,-78.967C14.118,-79.698 16.653,-80.487 19.239,-81.014C22.315,-81.642 25.208,-83.008 28.377,-83.226C28.527,-81.188 27.949,-79.221 27.798,-77.212C27.737,-76.407 27.673,-75.603 27.609,-74.799C27.425,-73.651 27.213,-72.507 27.06,-71.355C26.708,-68.72 26.358,-66.085 26.067,-63.443C25.973,-62.579 25.607,-62.061 24.781,-61.838C24.219,-61.687 23.666,-61.502 23.104,-61.349C12.435,-58.457 1.767,-55.556 -8.912,-52.699C-9.7,-52.488 -10.028,-52.13 -10.091,-51.365C-10.145,-50.703 -10.346,-50.049 -10.364,-49.389C-10.448,-46.396 -10.577,-43.408 -10.843,-40.421C-10.979,-38.884 -11.22,-37.286 -10.723,-35.563C-7.06,-36.059 -3.529,-36.953 0,-37.861" style="fill:rgb(225,7,20);fill-rule:nonzero;"/>
        </g>
        <g transform="matrix(1,0,0,1,478.877,367.787)">
            <path d="M0,142.778C-3.598,143.438 -6.988,144.863 -10.656,145.698C-11.104,145.12 -10.963,144.445 -10.946,143.833C-10.646,132.935 -10.318,122.04 -10.019,111.142C-9.761,101.742 -9.559,92.34 -9.279,82.941C-8.87,69.134 -8.395,55.33 -7.984,41.523C-7.74,33.288 -7.598,25.05 -7.352,16.815C-7.262,13.825 -7.666,14.353 -4.778,13.508C13.412,8.186 31.606,2.879 49.8,-2.43C50.347,-2.589 50.906,-2.706 51.768,-2.92C51.129,0.611 49.367,3.553 48.65,6.804C47.407,9.083 46.798,11.609 45.856,14.006C44.405,17.699 44.454,17.718 48.018,19.286C48.246,19.386 48.471,19.498 48.705,19.582C49.672,19.925 49.774,20.468 49.162,21.265C48.046,22.717 46.872,24.136 45.893,25.677C44.973,27.126 43.694,27.779 42.104,28.207C34.156,30.346 26.234,32.58 18.286,34.713C17.12,35.025 16.682,35.536 16.599,36.74C16.376,39.971 15.994,43.191 15.691,46.418C15.506,48.403 15.359,50.391 15.175,52.377C15.074,53.47 15.469,53.981 16.599,53.64C19.775,52.68 23.103,52.262 26.191,50.983C30.436,50.306 34.508,48.919 38.682,47.955C39.693,47.72 40.686,47.263 41.963,47.36C41.188,50.381 40.457,53.228 39.726,56.075C39.087,58.312 38.555,60.588 37.781,62.777C36.859,65.387 37.013,68.014 37.265,70.671C37.304,71.082 37.448,71.482 37.507,71.893C37.613,72.635 37.415,73.199 36.591,73.403C36.108,73.523 35.642,73.71 35.165,73.856C29.125,75.713 23.085,77.569 17.044,79.42C15.095,80.016 15.101,80.009 15.044,82.176C15.018,83.174 14.989,84.174 14.896,85.166C14.517,89.234 14.686,93.317 14.516,97.39C14.471,98.472 14.899,98.936 15.984,98.781C19.019,98.347 22.085,98.122 25.072,97.378C28.633,97.228 32.112,96.44 35.64,96.028C36.132,95.97 36.618,95.861 37.11,95.805C39.172,95.574 39.17,95.578 39.206,97.561C39.237,99.298 39.273,101.033 39.308,102.768C39.266,103.598 39.188,104.429 39.188,105.259C39.179,113.092 39.187,120.925 39.18,128.757C39.178,130.924 39.171,130.948 37.25,131.523C29.678,133.789 22.087,135.994 14.53,138.311C9.686,139.797 4.748,140.98 0,142.778" style="fill:rgb(226,7,20);fill-rule:nonzero;"/>
        </g>
        <g transform="matrix(1,0,0,1,199.37,560.56)">
            <path d="M0,-69.592C0.167,-70.737 0.334,-71.881 0.501,-73.026C1.206,-76.527 1.943,-80.023 2.6,-83.533C2.901,-85.142 3.493,-86.307 5.023,-87.267C10.14,-90.479 13.642,-95.258 16.863,-100.246C19.034,-103.61 20.736,-107.21 22.214,-110.926C22.51,-111.67 22.595,-112.552 23.396,-113.242C24.299,-110.311 24.979,-107.429 26.203,-104.748C27.157,-102.659 27.87,-100.39 29.869,-98.949C31.295,-96.526 33.531,-96.159 36.091,-96.748C36.091,-96.278 36.14,-96.022 36.083,-95.792C33.755,-86.342 32.185,-76.763 30.953,-67.111C29.626,-56.715 28.814,-46.28 28.238,-35.827C27.795,-27.774 27.665,-19.703 27.496,-11.636C27.307,-2.569 27.187,6.499 27.33,15.562C27.453,23.378 27.724,31.182 27.289,39.001C27.17,41.126 26.503,42.476 24.47,43.09C20.582,43.65 17.77,41.685 15.251,39.106C14.03,37.856 12.982,36.45 12.053,34.97C11.52,34.12 10.893,33.367 10.146,32.705C9.262,29.169 8.855,28.929 5.645,30.09C5.417,30.172 5.224,30.348 5.014,30.482C3.536,30.579 2.864,29.338 1.948,28.562C-0.587,26.418 -0.555,26.393 -3.413,28.102C-3.886,28.385 -4.286,28.893 -5.173,28.697C-5.384,25.123 -5.688,21.5 -5.795,17.871C-6.202,4.042 -6.173,-9.787 -5.276,-23.599C-4.309,-38.48 -2.653,-53.287 -0.269,-68.011C-0.23,-68.246 -0.083,-68.465 0.014,-68.692C0.01,-68.991 0.005,-69.291 0,-69.592" style="fill:rgb(225,7,20);fill-rule:nonzero;"/>
        </g>
        <g transform="matrix(1,0,0,1,518.882,363.839)">
            <path d="M0,-206.797C-4.862,-205.487 -9.716,-204.143 -14.589,-202.875C-21.964,-200.956 -29.353,-199.09 -36.735,-197.199C-37.852,-196.913 -39.079,-196.742 -39.055,-195.155C-43.601,-193.729 -48.146,-192.302 -52.691,-190.876C-53.036,-193.037 -53.048,-193.073 -55.101,-192.405C-62.44,-190.02 -69.771,-187.61 -77.105,-185.205C-87.119,-181.92 -97.133,-178.633 -107.146,-175.344C-109.781,-174.479 -109.779,-174.473 -109.978,-171.614C-117.25,-169.062 -124.535,-166.542 -131.795,-163.95C-137.411,-161.944 -143.076,-160.063 -148.577,-157.742C-150.564,-157.943 -152.437,-158.703 -154.455,-158.831C-158.373,-159.079 -162.046,-158.017 -165.713,-156.919C-174.503,-154.287 -182.932,-150.704 -191.336,-147.065C-200.736,-142.994 -209.965,-138.556 -219.163,-134.053C-219.38,-133.946 -219.559,-133.759 -219.931,-133.475C-218.067,-131.53 -216.547,-129.398 -216.261,-126.648C-219.431,-121.075 -220.979,-114.94 -222.288,-108.752C-224.615,-97.746 -225.917,-86.589 -226.92,-75.393C-229.09,-51.159 -229.934,-26.868 -230.033,-2.546C-230.041,-0.569 -230.065,-0.558 -232.149,-0.539C-233.981,-0.522 -235.82,-0.442 -237.644,-0.564C-239.164,-0.666 -240.229,-0.248 -240.752,1.235C-241.138,2.328 -241.817,2.544 -242.887,2.128C-244.27,1.589 -245.766,0.489 -247.08,0.866C-248.304,1.218 -248.493,3.152 -249.339,4.278C-252.107,7.961 -255.725,10.056 -260.346,10.27C-261.837,10.339 -263.408,10.467 -264.817,10.092C-266.753,9.578 -267.945,10.309 -269.198,11.589C-270.998,13.429 -272.937,15.131 -274.818,16.892C-275.682,16.845 -276.221,17.646 -277.031,17.739C-278.042,13.526 -277.958,9.228 -278.035,4.94C-277.51,4.025 -276.787,3.786 -275.726,3.995C-273.422,4.445 -271.064,4.504 -268.767,4.061C-264.196,3.18 -261.004,0.443 -258.924,-3.669C-258.026,-5.443 -258.01,-5.437 -256.163,-4.76C-255.772,-4.617 -255.389,-4.454 -255.001,-4.301C-252.23,-3.205 -252.203,-3.189 -250.751,-5.691C-250.323,-6.43 -249.824,-6.762 -248.968,-6.742C-247.136,-6.7 -245.302,-6.725 -243.469,-6.733C-240.941,-6.744 -240.941,-6.749 -240.92,-9.378C-240.874,-15.376 -240.923,-21.378 -240.757,-27.373C-240.509,-36.361 -240.192,-45.349 -239.747,-54.329C-239.389,-61.56 -238.931,-68.79 -238.282,-75.999C-237.028,-89.918 -235.625,-103.826 -232.382,-117.464C-231.322,-121.922 -230.042,-126.311 -228.049,-130.466C-226.754,-133.166 -224.936,-135.303 -222.315,-136.859C-217.358,-139.804 -212.13,-142.175 -206.86,-144.464C-192.428,-150.736 -177.779,-156.477 -163.098,-162.135C-143.602,-169.65 -123.837,-176.417 -104.078,-183.196C-78.807,-191.867 -53.372,-200.032 -27.788,-207.732C-8.026,-213.679 11.895,-219.029 32.018,-223.613C33.313,-223.908 34.625,-224.193 35.944,-224.311C38.479,-224.536 39.847,-223.666 40.763,-221.28C41.237,-220.045 41.676,-218.773 41.618,-217.407C35.997,-216.192 30.365,-215.023 24.87,-213.295C23.184,-213.28 21.621,-212.664 20.026,-212.243C15.383,-211.018 10.671,-210.036 6.137,-208.414C5.067,-208.505 4.129,-208.035 3.155,-207.716C2.902,-207.594 2.648,-207.472 2.398,-207.353C1.541,-207.426 0.728,-207.298 0,-206.797" style="fill:rgb(33,30,28);fill-rule:nonzero;"/>
        </g>
        <g transform="matrix(1,0,0,1,449.864,305.929)">
            <path d="M0,236.096C0.877,236.332 1.362,237.306 2.459,237.458C1.293,223.979 1.141,210.591 0.981,197.197C0.83,184.455 1.129,171.722 1.316,158.988C1.435,150.915 1.79,142.842 2.255,134.783C2.882,123.902 3.506,113.021 4.504,102.161C5.258,93.959 6.047,85.764 7.166,77.605C8.433,68.374 9.891,59.174 12.621,50.231C13.254,48.156 14.038,46.141 14.942,44.175C16.23,41.375 18.278,39.218 20.809,37.503C26.504,33.641 32.816,31.039 39.184,28.559C58.997,20.841 79.493,15.362 100.06,10.141C111.989,7.112 123.932,4.12 135.985,1.608C136.874,1.423 137.465,1.076 137.881,0.228C141.356,-6.866 146.829,-11.667 154.393,-14.05C154.853,-14.195 155.257,-14.519 155.687,-14.759C160.595,-15.872 165.499,-16.991 170.409,-18.09C171.291,-18.288 172.191,-18.404 173.084,-18.557C173.098,-18.342 173.112,-18.127 173.126,-17.912C171.54,-16.85 169.73,-16.149 168.264,-14.892C166.513,-13.392 164.924,-11.811 165.505,-9.195C165.671,-8.448 165.125,-8.405 164.677,-8.227C163.439,-7.738 162.19,-7.275 160.972,-6.743C155.405,-4.315 151.214,-0.388 148.654,5.108C147.919,6.688 146.946,7.274 145.366,7.636C118.605,13.762 91.934,20.246 65.778,28.644C56.2,31.72 46.724,35.142 37.683,39.632C35.369,40.781 33.136,42.064 30.991,43.511C28.072,45.48 25.976,48.072 24.617,51.325C22.521,56.346 21.246,61.597 20.181,66.9C17.996,77.766 16.643,88.751 15.567,99.776C12.989,126.241 11.894,152.778 11.454,179.356C11.163,197.022 11.401,214.67 12.222,232.314C12.392,235.97 12.761,239.617 13.049,243.395C11.702,243.298 11.128,241.904 9.784,241.574C9.008,245.745 9.271,249.969 8.483,254.653C5.512,248.136 2.524,242.225 0,236.096" style="fill:rgb(32,31,29);fill-rule:nonzero;"/>
        </g>
        <g transform="matrix(1,0,0,1,151.207,367.423)">
            <path d="M0,135.698C-3.48,138.087 -7.18,140.096 -11.172,142.417C-11.385,140.308 -11.243,138.599 -11.069,136.915C-10.345,129.888 -9.701,122.852 -8.709,115.856C-8.044,111.165 -7.295,106.491 -6.159,101.885C-5.439,98.97 -4.024,96.525 -1.771,94.501C2.761,90.428 7.676,86.864 12.694,83.437C26.31,74.138 40.442,65.667 54.72,57.438C72.023,47.466 89.525,37.849 107.233,28.613C112.689,25.766 118.175,22.977 123.646,20.163C123.646,20.164 123.556,20.225 123.556,20.225C123.656,20.208 123.745,20.165 123.82,20.096C124.186,19.994 124.714,20.225 124.829,19.606L124.759,19.648C126.266,19.531 127.59,18.91 128.864,18.153C129.73,18.162 130.449,17.692 131.211,17.392C153.077,8.813 175.291,1.236 197.718,-5.726C198.697,-6.03 199.678,-6.719 200.815,-6.258L200.79,-6.079C193.85,-2.859 186.923,0.391 179.967,3.577C144.314,19.908 109.601,38.071 75.39,57.21C58.097,66.884 41.089,77.034 24.647,88.108C19.88,91.319 15.282,94.755 10.784,98.342C6.945,101.403 4.745,105.249 3.753,110.025C1.99,118.514 0.843,127.081 0,135.698" style="fill:rgb(33,31,29);fill-rule:nonzero;"/>
        </g>
        <g transform="matrix(1,0,0,1,564.039,133.209)">
            <path d="M0,125.301C3.21,125.28 3.204,125.278 4.282,122.273C4.787,120.863 5.331,119.466 5.835,118.055C6.145,117.188 6.667,117.113 7.366,117.584C8.61,118.421 9.864,119.244 11.087,120.111C12.05,120.794 12.755,120.605 13.347,119.622C13.819,118.837 14.339,118.082 14.841,117.315C15.303,116.608 15.846,116.513 16.478,117.103C16.6,117.217 16.717,117.338 16.85,117.437C17.761,118.123 18.33,119.431 19.615,119.416C21.374,119.395 23.001,118.614 24.666,118.109C25.456,117.869 25.354,117.061 25.318,116.394C25.26,115.315 25.113,114.236 25.127,113.158C25.26,102.748 25.281,92.334 25.611,81.929C25.9,72.78 26.376,63.629 27.069,54.501C27.996,42.307 29.225,30.136 31.956,18.178C32.902,14.033 34.131,9.983 35.871,6.087C37.601,2.213 40.443,-0.362 44.4,-1.843C48.713,-3.457 53.172,-4.449 57.7,-5.128C69.676,-6.926 81.741,-7.506 93.816,-6.998C106.199,-6.477 118.585,-5.708 130.831,-3.611C136.665,-2.612 142.43,-1.306 147.751,1.436C149.078,2.119 150.445,2.765 151.432,3.956C146.632,2.948 141.85,1.879 136.972,1.243C130.524,0.403 124.051,-0.105 117.572,-0.534C107.845,-1.179 98.101,-1.5 88.354,-1.098C78.947,-0.71 69.571,0.042 60.395,2.342C58.375,2.848 56.421,3.548 54.469,4.27C50.735,5.651 48.181,8.208 46.544,11.787C44.699,15.82 43.478,20.053 42.535,24.364C40.415,34.059 39.271,43.895 38.427,53.771C36.923,71.377 36.397,89.019 36.278,106.682C36.244,111.68 36.287,116.676 36.362,121.67C36.384,123.152 35.859,123.53 34.561,124.035C31.465,125.241 28.803,125.314 26.718,122.048C25.684,123.429 24.771,124.509 24.022,125.692C23.39,126.691 22.863,126.879 21.878,126.094C20.456,124.963 18.914,123.983 17.211,122.789C16.233,125.176 15.341,127.376 14.431,129.568C13.683,131.37 13.673,131.366 11.684,131.152C11.601,131.143 11.519,131.13 11.437,131.116C7.929,130.559 4.48,130.453 1.275,132.379C0.937,132.582 0.552,132.807 0,132.651L0,125.301Z" style="fill:rgb(33,31,29);fill-rule:nonzero;"/>
        </g>
        <g transform="matrix(1,0,0,1,402.71,410.722)">
            <path d="M0,139.423C-0.203,136.352 -0.478,133.284 -0.596,130.21C-0.868,123.053 -1.021,115.892 -1.302,108.736C-2.108,88.165 -1.938,67.588 -1.551,47.016C-1.363,37.034 -0.727,27.055 -0.075,17.088C0.374,10.201 1.19,3.338 1.861,-3.533C1.9,-3.932 2.098,-4.316 2.221,-4.708C4.051,-4.922 5.168,-6.164 6.139,-7.535C6.856,-8.55 7.428,-9.667 8.15,-10.882C9.609,-9.439 10.529,-6.609 13.688,-8.76C13.326,-5.71 13.032,-2.935 12.666,-0.172C11.602,7.84 10.927,15.892 10.395,23.949C9.147,42.823 8.703,61.724 8.74,80.638C8.779,100.884 9.455,121.111 10.401,141.33C10.519,143.826 10.707,146.319 10.834,148.815C10.856,149.268 11.055,149.783 10.486,150.305C6.988,146.675 3.494,143.049 0,139.423" style="fill:rgb(32,31,29);fill-rule:nonzero;"/>
        </g>
        <g transform="matrix(1,0,0,1,525.296,452.267)">
            <path d="M0,87.389C9.479,82.201 19.815,79.233 29.977,75.814C31.526,75.293 33.042,74.604 34.797,74.37C35.36,76.149 34.756,77.934 35.209,79.557C35.906,79.984 36.386,79.522 36.87,79.263C38.117,78.597 39.286,77.758 40.582,77.213C43.814,75.853 45.454,73.371 46.634,70.136C51.437,56.972 55.219,43.563 57.316,29.689C58.375,22.688 59.155,15.667 59.161,8.585C59.162,7.011 59.769,6.476 61.165,6.005C69.411,3.23 77.188,-0.507 84.22,-5.689C84.688,-6.035 85.137,-6.408 85.586,-6.779C88.339,-9.054 87.89,-8.985 90.182,-6.346C91.81,-4.471 93.729,-2.822 94.935,-0.593C88.627,4.729 81.375,8.365 73.724,11.295C72.497,11.765 70.886,11.737 70.126,12.784C69.362,13.835 69.858,15.368 69.812,16.683C69.045,38.389 63.713,59.055 55.688,79.118C55.266,80.172 54.646,80.925 53.629,81.477C51.292,82.745 49.016,84.122 46.711,85.449C46.358,85.652 46.005,85.903 45.34,85.637L45.34,80.481C44.426,80.029 43.857,80.493 43.256,80.694C36.002,83.109 28.751,85.533 21.499,87.952C20.472,88.295 19.49,88.721 18.545,89.262C14.642,91.496 10.575,93.389 6.339,94.908C3.41,95.957 0.391,96.443 -2.722,96.298C-3.618,96.256 -4.523,96.202 -5.338,95.475C-3.551,92.767 -1.775,90.077 0,87.389" style="fill:rgb(32,31,29);fill-rule:nonzero;"/>
        </g>
        <g transform="matrix(1,0,0,1,705.442,335.115)">
            <path d="M0,173.427C0.794,172.041 2.03,171.001 2.937,169.717C3.927,168.315 5.151,168.156 6.644,168.542C8.163,168.936 9.689,169.312 11.302,169.432C11.433,168.456 10.745,168.032 10.269,167.523C4.577,161.44 -1.125,155.367 -6.823,149.291C-20.158,135.073 -33.481,120.845 -47.059,106.856C-53.324,100.401 -59.559,93.914 -65.801,87.437C-66.195,87.028 -66.718,86.707 -66.888,85.913C-65.601,84.761 -64.272,83.52 -62.89,82.341C-53.455,74.307 -48.187,64.034 -46.383,51.861C-45.71,47.319 -45.239,42.766 -45.467,38.179C-46.326,20.885 -52.317,5.911 -65.507,-5.772C-65.914,-6.133 -66.583,-6.339 -66.442,-7.098C-65.555,-7.095 -64.896,-6.534 -64.176,-6.145C-51.966,0.471 -43.79,10.573 -39.074,23.478C-33.835,37.815 -33.873,52.346 -38.256,66.894C-40.798,75.333 -45.694,82.274 -52.183,88.15C-53.534,89.373 -54.888,90.594 -56.448,92.004C-29.48,118.948 -3.812,146.958 22.349,174.93C20.202,175.122 18.487,174.668 16.86,174.23C15.165,173.773 14.235,174.341 13.252,175.548C11.89,177.22 10.39,178.781 8.827,180.525C5.815,178.103 2.907,175.765 0,173.427" style="fill:rgb(34,32,30);fill-rule:nonzero;"/>
        </g>
        <g transform="matrix(1,0,0,1,223.84,460.257)">
            <path d="M0,143.392C2.033,142.779 2.7,141.428 2.818,139.303C3.253,131.485 2.982,123.68 2.86,115.865C2.717,106.801 2.836,97.734 3.026,88.666C3.194,80.599 3.325,72.529 3.768,64.475C4.344,54.023 5.156,43.587 6.483,33.192C7.715,23.539 9.285,13.96 11.613,4.51C11.67,4.281 11.621,4.025 11.621,3.554C9.061,4.143 6.825,3.777 5.398,1.353C6.603,-1.367 7.808,-4.087 9.009,-6.798C9.848,-6.811 9.607,-6.125 9.717,-5.728C10.558,-2.687 11.446,0.335 12.847,3.178C13.473,4.447 14.19,5.658 15.082,6.763C16.84,8.941 18.977,10.081 21.841,9.286C19.391,14.756 17.146,20.3 15.939,26.203C13.939,35.98 13.443,45.808 14.967,55.704C15.081,56.44 15.079,57.194 15.131,57.938C14.466,61.3 14.489,64.729 14.316,68.124C13.423,85.656 13.105,103.2 13.286,120.755C13.368,128.738 13.643,136.724 13.242,144.707C13.046,148.593 10.685,150.203 6.9,148.89C3.978,147.876 1.79,145.865 0,143.392" style="fill:rgb(32,30,28);fill-rule:nonzero;"/>
        </g>
        <g transform="matrix(1,0,0,1,280.83,425.095)">
            <path d="M0,91.875C-7.969,90.95 -12.143,85.379 -13.222,79.491C-15.377,67.728 -12.924,57.01 -5.017,47.802C-0.058,42.026 6.224,37.958 12.865,34.435C18.081,31.667 23.423,29.14 28.664,26.418C31.083,25.162 33.52,23.884 35.596,21.794C34.317,20.607 32.524,20.448 31.225,19.244C32.795,18.211 34.409,17.546 36.029,17.017C38.067,16.352 38.822,15.229 38.798,13.031C38.76,9.55 39.144,6.063 39.349,2.579C42.73,1.764 46.024,0.594 49.523,0C49.523,3.064 49.571,6.042 49.51,9.017C49.439,12.509 49.18,15.999 49.194,19.489C49.2,20.976 48.667,21.722 47.375,22.309C45.514,23.153 43.62,23.97 41.811,25.222C43.316,26.033 44.693,26.775 46.192,27.583C44.454,29.288 42.519,30.397 40.584,31.5C36.104,34.054 31.4,36.169 26.81,38.507C22.14,40.886 17.507,43.344 13.287,46.471C9.055,49.605 5.24,53.185 2.341,57.639C0.932,59.804 -0.339,62.042 -1.104,64.53C-3.341,65.574 -5.579,66.618 -7.955,67.728C-6.344,70.476 -4.837,73.046 -3.33,75.617C-4.041,81.409 -3.17,86.877 0,91.875" style="fill:rgb(33,31,29);fill-rule:nonzero;"/>
        </g>
        <g transform="matrix(1,0,0,1,306.021,485.663)">
            <path d="M0,84.421C-0.321,82.721 0.254,81.178 0.742,79.541C2.225,79.81 3.6,80.058 4.856,80.285C5.47,80.015 5.422,79.563 5.439,79.17C5.615,75.187 5.79,71.203 5.941,67.219C6.336,56.841 6.666,46.461 7.124,36.086C7.449,28.7 7.927,21.32 8.005,13.927C8.021,12.417 8.568,11.712 9.97,11.27C12.264,10.546 14.506,9.651 16.754,8.79C18.597,8.084 18.609,8.056 18.404,6.078C18.096,3.108 17.747,0.14 17.43,-2.831C17.386,-3.241 17.422,-3.661 17.421,-4.076C19.051,-4.729 20.682,-5.383 22.311,-6.037C22.182,-3.466 22.076,-0.893 21.918,1.676C21.603,6.819 21.259,11.962 20.926,17.105C18.637,17.96 18.645,17.96 18.562,20.427C17.842,41.783 17.119,63.141 16.396,84.497C16.376,85.075 16.443,85.668 16.064,86.267C14.686,86.352 13.331,85.894 11.959,85.659C11.067,85.507 10.741,85.812 10.6,86.597C10.383,87.809 10.575,89.1 9.81,90.458C7.447,88.568 5.067,86.795 2.851,84.835C1.875,83.973 1.032,83.991 0,84.421" style="fill:rgb(33,31,29);fill-rule:nonzero;"/>
        </g>
        <g transform="matrix(1,0,0,1,321.041,291.353)">
            <path d="M0,42.963C1.323,43.043 2.649,43.091 3.968,43.213C5.089,43.316 5.377,42.791 5.416,41.759C5.458,40.63 4.846,39.181 5.816,38.445C6.742,37.743 8.044,38.642 9.197,38.658C9.363,38.661 9.53,38.704 9.694,38.69C10.857,38.587 12.078,39.457 13.1,38.91C14.15,38.348 14.131,36.905 14.581,35.855C14.964,34.959 15.521,34.612 16.481,34.643C18.143,34.697 19.807,34.677 21.47,34.651C23.351,34.621 23.374,34.604 23.434,32.694C23.629,26.465 23.792,20.234 23.997,14.005C24.094,11.017 24.299,8.031 24.364,5.042C24.389,3.913 24.833,3.45 25.916,3.218C34.612,1.355 41.702,-3.147 47.365,-9.966C48.643,-11.504 48.719,-11.53 50.079,-10.022C52.243,-7.622 54.782,-5.558 56.575,-2.824C51.282,3.476 44.267,6.909 36.52,9.018C35.195,9.379 34.868,9.839 34.845,11.13C34.685,20.192 34.444,29.254 34.214,38.315C34.161,40.429 34.136,40.435 31.948,40.449C30.284,40.461 28.615,40.527 26.958,40.427C25.695,40.351 25.004,40.762 24.539,41.979C23.37,45.038 23.317,45.014 20.152,44.562C18.839,44.374 17.523,44.205 16.152,44.02C15.523,45.686 16.217,47.404 15.634,49.121C13.641,48.866 11.668,48.662 9.713,48.348C8.505,48.154 7.506,48.422 6.397,48.957C3.709,50.252 1.76,52.339 -0.444,54.493L0,42.963Z" style="fill:rgb(33,31,29);fill-rule:nonzero;"/>
        </g>
        <g transform="matrix(1,0,0,1,350.883,500.248)">
            <path d="M0,54.575C0.095,53.336 0.274,52.122 1.028,50.892C3.066,51.834 5.077,52.763 7.244,53.763C7.658,52.684 7.498,51.773 7.498,50.899C7.51,31.005 7.507,11.109 7.507,-8.786C7.507,-9.452 7.521,-10.118 7.51,-10.784C7.497,-11.547 7.813,-11.996 8.578,-12.235C12.785,-13.541 16.979,-14.889 21.184,-16.204C21.401,-16.273 21.67,-16.176 22.179,-16.136L22.179,-7.212C18.201,-5.899 18.201,-5.899 18.201,-1.887L18.201,59.639C16.49,59.278 15.175,58.393 13.774,57.745C10.878,56.404 10.899,56.378 10.136,59.578C9.289,63.129 8.425,66.676 7.417,70.848C4.789,65.082 2.395,59.828 0,54.575" style="fill:rgb(32,30,28);fill-rule:nonzero;"/>
        </g>
        <g transform="matrix(1,0,0,1,470.973,313.662)">
            <path d="M0,-51.522C0.15,-47.309 -0.522,-43.142 -0.722,-38.947C-0.799,-37.305 -1.037,-35.672 -0.901,-34.022C-1.479,-29.986 -2.123,-25.959 -2.6,-21.912C-2.791,-20.286 -3.453,-19.543 -5.058,-19.062C-14.691,-16.172 -24.285,-13.148 -33.891,-10.166C-34.662,-9.926 -35.422,-9.654 -36.158,-9.407C-36.066,-8.324 -35.081,-7.82 -34.806,-6.627C-37.021,-6.463 -39.138,-6.41 -41.225,-6.129C-45.154,-5.599 -48.812,-6.116 -52.134,-8.424C-52.58,-8.733 -53.103,-9.087 -53.85,-8.964C-54.047,-7.328 -54.32,-5.7 -54.412,-4.061C-54.47,-3.046 -54.918,-2.618 -55.827,-2.358C-58.146,-1.698 -60.451,-0.991 -62.748,-0.259C-63.562,0 -64.17,-0.135 -64.749,-0.778C-66.529,-2.755 -68.345,-4.699 -70.147,-6.656C-69.014,-7.415 -67.672,-7.623 -66.401,-7.95C-65.315,-8.23 -64.931,-8.743 -64.863,-9.829C-64.761,-11.481 -64.479,-13.123 -64.259,-14.899C-62.523,-14.712 -61.184,-13.666 -59.759,-12.925C-58.153,-12.091 -56.63,-11.687 -54.773,-11.944C-51.823,-12.353 -48.788,-11.921 -45.868,-12.635C-45.817,-12.834 -45.709,-13.008 -45.756,-13.116C-46.704,-15.328 -46.714,-15.347 -44.408,-16.058C-34.712,-19.049 -25.021,-22.061 -15.301,-24.974C-13.77,-25.434 -12.998,-25.987 -12.805,-27.744C-12.144,-33.774 -11.252,-39.779 -10.432,-45.792C-10.309,-46.696 -10.096,-47.589 -9.925,-48.487C-6.616,-49.499 -3.309,-50.51 0,-51.522" style="fill:rgb(33,31,29);fill-rule:nonzero;"/>
        </g>
        <g transform="matrix(1,0,0,1,480.543,248.967)">
            <path d="M0,28.236C9.505,25.84 19.01,23.444 28.515,21.049C36.973,18.917 45.432,16.79 53.888,14.651C55.923,14.136 55.876,14.115 56.013,12.019C56.38,6.383 56.787,0.75 57.18,-4.884C60.685,-5.889 64.189,-6.896 67.931,-7.97C67.743,-4.981 67.59,-2.175 67.385,0.628C66.961,6.441 66.443,12.248 66.112,18.066C66.025,19.58 65.511,20.204 64.076,20.567C47.063,24.86 30.057,29.175 12.962,33.133C9.154,34.015 5.363,34.967 1.562,35.874C1.002,36.007 0.426,36.067 -0.417,36.206C-0.274,33.466 -0.138,30.851 0,28.236" style="fill:rgb(33,31,29);fill-rule:nonzero;"/>
        </g>
        <g transform="matrix(1,0,0,1,478.877,478.161)">
            <path d="M0,32.404C4.748,30.606 9.686,29.423 14.53,27.937C22.087,25.62 29.678,23.415 37.25,21.149C39.171,20.574 39.178,20.55 39.18,18.383C39.187,10.551 39.179,2.718 39.188,-5.115C39.188,-5.945 39.266,-6.776 39.308,-7.606C42.269,-7.965 45.227,-8.354 48.192,-8.673C49.899,-8.857 49.982,-8.805 49.966,-7.264C49.84,4.001 50.28,15.268 49.761,26.531C49.756,26.647 49.972,26.774 50.084,26.896L50.132,26.848C49.321,26.01 48.586,26.865 47.92,27.06C35.327,30.758 22.754,34.527 10.175,38.272C6.764,39.288 3.346,40.279 0,41.261L0,32.404Z" style="fill:rgb(34,32,30);fill-rule:nonzero;"/>
        </g>
        <g transform="matrix(1,0,0,1,505.068,373.77)">
            <path d="M0,45.001C-3.089,46.28 -6.416,46.698 -9.593,47.658C-10.723,47.999 -11.117,47.488 -11.017,46.395C-10.832,44.409 -10.686,42.421 -10.5,40.436C-10.197,37.209 -9.815,33.989 -9.593,30.758C-9.51,29.554 -9.071,29.043 -7.905,28.73C0.043,26.598 7.965,24.364 15.912,22.225C17.503,21.797 18.781,21.144 19.701,19.695C20.681,18.154 21.854,16.735 22.971,15.283C23.583,14.486 23.48,13.943 22.514,13.6C22.279,13.516 22.055,13.404 21.826,13.304C18.263,11.736 18.214,11.717 19.665,8.023C20.606,5.627 21.216,3.101 22.459,0.822C26.299,-0.249 30.139,-1.318 33.978,-2.392C34.681,-2.588 35.355,-2.998 36.152,-2.652C36.191,-1.617 35.659,-0.75 35.32,0.155C33.339,5.449 31.311,10.726 29.315,16.015C28.703,17.637 28.727,17.651 30.265,18.403C31.367,18.942 32.477,19.469 33.847,20.128C32.135,22.394 30.553,24.513 28.942,26.608C28.343,27.389 27.37,27.528 26.512,27.779C20.77,29.461 15.016,31.102 9.263,32.747C7.025,33.387 4.8,34.085 2.533,34.597C1.365,34.86 0.889,35.328 0.81,36.553C0.628,39.374 0.28,42.186 0,45.001" style="fill:rgb(33,31,29);fill-rule:nonzero;"/>
        </g>
        <g transform="matrix(1,0,0,1,511.726,201.464)">
            <path d="M0,41.463C-3.259,42.437 -6.509,43.441 -9.779,44.372C-11.164,44.766 -11.379,44.592 -11.286,43.095C-11.137,40.694 -10.915,38.296 -10.65,35.905C-10.239,32.196 -9.646,28.504 -9.375,24.786C-9.258,23.161 -8.476,22.732 -7.155,22.334C1.11,19.84 9.326,17.177 17.626,14.809C19.794,14.191 20.478,13.07 20.729,11.066C21.224,7.118 21.894,3.192 22.491,-0.744C26.296,-1.593 30.1,-2.442 33.954,-3.303C34.528,-2.652 34.188,-1.917 34.087,-1.233C33.183,4.927 32.107,11.067 31.42,17.251C31.177,19.443 30.212,20.114 28.347,20.637C20.278,22.896 12.242,25.271 4.2,27.625C1.531,28.406 1.564,28.437 1.235,31.322C0.85,34.706 0.414,38.083 0,41.463" style="fill:rgb(33,31,29);fill-rule:nonzero;"/>
        </g>
        <g transform="matrix(1,0,0,1,515.448,158.865)">
            <path d="M0,37.549C-3.529,38.457 -7.06,39.351 -10.723,39.847C-11.22,38.124 -10.979,36.526 -10.843,34.989C-10.577,32.002 -10.448,29.014 -10.364,26.021C-10.346,25.361 -10.145,24.707 -10.091,24.045C-10.028,23.28 -9.7,22.922 -8.912,22.711C1.767,19.854 12.435,16.953 23.104,14.061C23.666,13.908 24.219,13.723 24.781,13.572C25.607,13.349 25.973,12.831 26.067,11.967C26.358,9.325 26.708,6.69 27.06,4.055C27.213,2.903 27.425,1.759 27.609,0.611C31.295,-0.335 34.979,-1.282 38.936,-2.298C38.635,0.448 38.363,2.986 38.079,5.521C37.634,9.487 37.136,13.447 36.754,17.418C36.636,18.656 36.195,19.293 34.945,19.615C23.927,22.45 12.933,25.377 1.904,28.172C0.573,28.509 0.121,29.029 0.127,30.314C0.138,32.725 0.048,35.137 0,37.549" style="fill:rgb(33,31,29);fill-rule:nonzero;"/>
        </g>
        <g transform="matrix(1,0,0,1,503.949,422.553)">
            <path d="M0,42.612C-2.987,43.356 -6.054,43.582 -9.088,44.015C-10.173,44.171 -10.602,43.707 -10.557,42.625C-10.387,38.551 -10.556,34.468 -10.176,30.4C-10.083,29.408 -10.055,28.408 -10.028,27.411C-9.972,25.244 -9.978,25.251 -8.028,24.654C-1.987,22.803 4.053,20.947 10.093,19.091C10.569,18.944 11.036,18.758 11.519,18.637C12.343,18.433 12.541,17.87 12.435,17.128C12.376,16.716 12.231,16.316 12.192,15.905C11.94,13.249 11.787,10.622 12.709,8.011C13.482,5.822 14.015,3.547 14.653,1.309C18.689,0.35 22.726,-0.61 26.721,-1.559C27.354,-0.951 26.914,-0.409 26.779,0.105C25.681,4.288 24.692,8.505 23.41,12.63C22.477,15.63 22.107,18.576 22.572,21.689C22.908,23.938 22.793,23.983 20.536,24.709C14.443,26.667 8.441,28.914 2.25,30.552C0.809,30.934 0.252,31.612 0.26,33.126C0.274,36.287 0.098,39.45 0,42.612" style="fill:rgb(33,31,29);fill-rule:nonzero;"/>
        </g>
        <g transform="matrix(1,0,0,1,369.033,373.317)">
            <path d="M0,1.967C11.893,-3.408 23.827,-8.67 36.503,-12.004C39.568,-12.81 42.688,-13.25 45.822,-13.632C47.582,-13.847 49.323,-13.561 51.014,-13.15C53.78,-12.478 55.19,-10.61 55.333,-7.776C48.335,-7.048 41.704,-4.888 35.123,-2.563C21.551,2.233 8.575,8.382 -4.269,14.83C-4.991,15.192 -5.626,15.814 -6.531,15.732L-6.555,15.699C-6.916,14.859 -6.245,14.299 -5.936,13.69C-4.185,10.244 -2.364,6.834 -0.583,3.403C-0.483,3.212 -0.53,2.945 -0.509,2.714L-0.534,2.771C0.01,2.746 -0.013,2.344 0,1.967" style="fill:rgb(34,32,30);fill-rule:nonzero;"/>
        </g>
        <g transform="matrix(1,0,0,1,372.094,419.239)">
            <path d="M0,29.707C-3.577,31.41 -7.153,33.112 -10.773,34.836C-11.331,32.511 -9.639,8.947 -7.996,-4.876C-6.424,-3.193 -4.852,-1.511 -3.048,0.421C-1.218,-1.43 0.611,-3.279 2.439,-5.129C2.775,-4.836 2.901,-4.466 2.861,-4.025C2.261,2.501 1.634,9.024 1.074,15.555C0.669,20.269 0.355,24.989 0,29.707" style="fill:rgb(32,31,29);fill-rule:nonzero;"/>
        </g>
        <g transform="matrix(1,0,0,1,672.069,507.192)">
            <path d="M0,4.962C1.614,4.648 3.555,5.013 4.789,4.037C6.033,3.053 6.041,1.052 6.699,-0.461C6.732,-0.537 6.765,-0.613 6.795,-0.69C7.815,-3.365 7.812,-3.332 10.747,-2.935C12.795,-2.658 14.859,-2.51 16.911,-2.26C17.792,-2.152 18.318,-2.528 18.704,-3.262C19.2,-4.206 19.722,-5.138 20.361,-6.31C23.392,-3.548 26.73,-1.446 29.533,1.327C28.845,3.071 27.594,3.5 25.784,3.232C23.739,2.927 21.645,2.976 19.584,2.755C18.309,2.618 17.597,2.905 17.3,4.286C16.971,5.818 16.322,7.279 15.917,8.799C15.611,9.941 14.987,10.331 13.809,10.392C10.994,10.535 8.178,10.774 5.382,11.129C4.261,11.272 3.714,10.877 3.191,10.001C2.172,8.295 1.068,6.64 0,4.962" style="fill:rgb(34,32,30);fill-rule:nonzero;"/>
        </g>
        <g transform="matrix(1,0,0,1,261.406,552.097)">
            <path d="M0,-7.552C5.206,-6.29 10.475,-5.673 15.837,-5.989C17.249,-6.073 18.656,-6.081 20.059,-6.373C21.475,-6.667 21.622,-6.51 21.647,-4.994C21.675,-3.33 21.599,-1.665 21.568,0C14.742,-0.238 8.31,-1.839 2.506,-5.567C1.612,-6.141 0.637,-6.641 0,-7.552" style="fill:rgb(34,32,30);fill-rule:nonzero;"/>
        </g>
        <g transform="matrix(1,0,0,1,530.542,361.818)">
            <path d="M0,-3.802C4.084,-5.179 8.345,-5.656 12.579,-6.27C13.753,-6.441 14.284,-5.916 14.319,-4.795C14.382,-2.813 14.43,-0.831 14.484,1.151C14.154,1.194 13.792,1.162 13.5,1.291C10.429,2.639 7.781,1.871 5.267,-0.149C3.604,-1.484 1.432,-2.113 0,-3.802" style="fill:rgb(34,32,30);fill-rule:nonzero;"/>
        </g>
        <g transform="matrix(1,0,0,1,293.469,574.106)">
            <path d="M0,-8.069C3.256,-10.534 3.257,-10.535 6.441,-8.124C7.762,-7.123 9.066,-6.1 10.398,-5.116C11.052,-4.631 11.65,-4.004 12.568,-4.038C11.242,-2.516 9.35,-1.788 7.77,-0.622C6.962,-0.026 6.388,-0.68 5.776,-1.063C2.895,-2.865 2.915,-2.856 1.49,0.184C1.156,0.896 1.037,1.759 0,2.466L0,-8.069Z" style="fill:rgb(33,31,29);fill-rule:nonzero;"/>
        </g>
        <g transform="matrix(1,0,0,1,384.31,546.331)">
            <path d="M0,-0.341C1.209,0.033 1.867,-0.402 2.074,-1.661C2.328,-3.202 2.655,-4.733 2.955,-6.291C4.684,-5.617 10.375,0.114 12.763,3.481C12.545,4.184 12.327,4.888 12.12,5.556C11.453,5.95 10.978,5.513 10.481,5.298C7.454,3.986 4.434,2.659 1.41,1.339C0.661,1.012 -0.234,0.81 0,-0.341" style="fill:rgb(34,32,30);fill-rule:nonzero;"/>
        </g>
        <g transform="matrix(1,0,0,1,436.149,543.874)">
            <path d="M0,-11.661C0.223,-12.146 0.51,-13.132 1.022,-12.034C2.956,-7.898 5.21,-3.91 6.812,0.38C6.456,0.485 6.247,1.471 5.748,0.638C5.244,-0.206 4.87,-1.13 4.454,-2.025C2.966,-5.235 1.484,-8.449 0,-11.661" style="fill:rgb(34,32,30);fill-rule:nonzero;"/>
        </g>
        <g transform="matrix(1,0,0,1,204.384,593.595)">
            <path d="M0,-2.553C0.209,-2.687 0.402,-2.864 0.63,-2.946C3.84,-4.106 4.247,-3.866 5.132,-0.33C4.451,-0.802 3.899,-0.427 3.313,-0.088C2.398,0.439 1.458,0.919 0.276,1.553C0.172,0.008 0.086,-1.273 0,-2.553" style="fill:rgb(34,32,30);fill-rule:nonzero;"/>
        </g>
        <g transform="matrix(-0.854473,0.519497,0.519497,0.854473,342.271,548.783)">
            <path d="M1.394,-6.782C0.566,-6.547 0.531,-5.932 0.642,-5.238C0.895,-3.639 1.143,-2.039 1.394,-0.441C2.192,-0.938 3.108,-0.818 4.318,-0.81C3.27,-2.952 2.331,-4.867 1.394,-6.782" style="fill:rgb(34,32,30);fill-rule:nonzero;"/>
        </g>
        <g transform="matrix(1,0,0,1,525.019,150.661)">
            <path d="M0,4.764C4.534,3.142 9.246,2.16 13.89,0.935C15.484,0.514 17.047,-0.102 18.733,-0.117L18.807,0.389C15.638,0.606 12.745,1.972 9.669,2.6C7.083,3.127 4.548,3.916 2.007,4.647C1.348,4.836 0.708,4.881 0.044,4.867C0.045,4.868 0,4.764 0,4.764" style="fill:rgb(226,7,20);fill-rule:nonzero;"/>
        </g>
        <g transform="matrix(1,0,0,1,351.997,360.082)">
            <path d="M0,1.262L0.026,1.084C0.247,0 1.371,0.958 1.572,0.514C1.293,0.821 0.658,1.064 0,1.262" style="fill:rgb(34,32,30);fill-rule:nonzero;"/>
        </g>
        <g transform="matrix(-0.339309,-0.940675,-0.940675,0.339309,692.799,302.453)">
            <path d="M-0.359,-0.547C-0.701,-0.414 -0.825,-0.123 -0.746,0.188C-0.708,0.334 -0.472,0.284 -0.359,0.113C-0.231,-0.082 -0.107,-0.28 0.019,-0.477C-0.107,-0.5 -0.234,-0.525 -0.359,-0.547" style="fill:rgb(226,7,20);fill-rule:nonzero;"/>
        </g>
        <g transform="matrix(1,0,0,1,199.37,491.868)">
            <path d="M0,-0.9C0.005,-0.599 0.01,-0.299 0.014,0C-0.153,-0.153 -0.32,-0.306 -0.484,-0.463C-0.32,-0.61 -0.16,-0.754 0,-0.9" style="fill:rgb(226,7,20);fill-rule:nonzero;"/>
        </g>
        <g transform="matrix(0.389257,-0.921129,-0.921129,-0.389257,703.698,308.747)">
            <path d="M-0.284,-0.259C-0.397,-0.19 -0.579,-0.142 -0.607,-0.049C-0.684,0.199 -0.534,0.368 -0.284,0.338C-0.18,0.325 -0.026,0.147 -0.025,0.044C-0.024,-0.056 -0.191,-0.157 -0.284,-0.259" style="fill:rgb(253,251,251);fill-rule:nonzero;"/>
        </g>
        <g transform="matrix(1,0,0,1,639.032,327.583)">
            <path d="M0,0.46C-0.533,0.581 -0.869,0.325 -1.106,-0.121C-0.679,-0.04 -0.217,-0.024 0,0.46" style="fill:rgb(34,32,30);fill-rule:nonzero;"/>
        </g>
        <g transform="matrix(1,0,0,1,190.481,481.424)">
            <path d="M0,0.101C0.065,-0.12 0.211,-0.301 0.421,-0.126C0.62,0.04 0.442,0.242 0.312,0.402C0.198,0.313 0.093,0.213 0,0.101" style="fill:rgb(226,7,20);fill-rule:nonzero;"/>
        </g>
        <g transform="matrix(-0.111091,-0.99381,-0.99381,0.111091,362.23,388.972)">
            <path d="M-0.106,-0.261C-0.202,-0.184 -0.296,-0.107 -0.393,-0.031C-0.297,0.007 -0.19,0.09 -0.106,0.072C0.051,0.035 0.057,-0.097 -0.072,-0.243C-0.071,-0.242 -0.106,-0.261 -0.106,-0.261" style="fill:rgb(34,32,30);fill-rule:nonzero;"/>
        </g>
        <g transform="matrix(1,0,0,1,352.621,383.186)">
            <path d="M0,-0.017C-0.109,0.195 -0.284,0.365 -0.493,0.18C-0.696,0.001 -0.524,-0.209 -0.391,-0.382C-0.261,-0.261 -0.13,-0.139 0,-0.017" style="fill:rgb(226,7,20);fill-rule:nonzero;"/>
        </g>
        <g transform="matrix(1,0,0,1,194.672,228.784)">
            <path d="M0,164.167C-10.35,169.322 -20.458,174.919 -30.382,180.849C-47.878,191.304 -64.977,202.367 -81.534,214.261C-82.343,214.843 -83.202,215.355 -84.037,215.899C-84.605,216.104 -85.174,216.308 -85.743,216.511C-92.504,218.803 -99.214,221.254 -106.151,222.988C-111.877,224.42 -117.609,225.819 -123.572,225.766C-126.533,225.739 -126.525,225.737 -126.044,222.842C-125.854,221.695 -125.708,220.541 -125.542,219.392C-101.841,214.503 -79.839,205.124 -58.553,193.914C-46.001,187.304 -34.024,179.764 -23.07,170.699C-15.469,164.408 -8.349,157.617 -3.206,149.09C4.871,135.699 9.078,121.231 7.766,105.507C6.878,94.864 2.875,85.366 -4.009,77.127C-9.297,70.799 -15.811,65.89 -22.433,61.103C-27.292,57.589 -32.231,54.18 -36.723,50.188C-40.938,46.441 -44.591,42.243 -46.656,36.909C-50.263,27.596 -49.074,18.792 -43.633,10.491C-39.332,3.93 -33.731,-1.394 -27.644,-6.236C-16.441,-15.147 -4.078,-22.199 8.654,-28.626C28.227,-38.506 48.458,-46.849 69.089,-54.237C75.2,-56.425 81.354,-58.491 87.498,-60.588C88.517,-60.937 89.579,-61.16 90.622,-61.443C90.656,-60.725 90.791,-60.146 91.745,-60.208C93.324,-60.312 94.909,-60.333 96.489,-60.416C104.225,-60.82 111.959,-61.233 119.875,-61.652C118.838,-60.676 117.6,-60.571 116.484,-60.237C99.425,-55.127 82.51,-49.584 65.875,-43.221C44.942,-35.215 24.455,-26.227 4.947,-15.131C-4.48,-9.77 -13.547,-3.866 -21.723,3.314C-26.185,7.233 -30.271,11.498 -33.495,16.517C-35.809,20.121 -37.605,23.955 -38.183,28.249C-39.134,35.329 -37.442,41.8 -33.494,47.701C-31.347,50.908 -28.668,53.645 -25.758,56.162C-21.908,59.491 -17.752,62.418 -13.615,65.369C-7.712,69.58 -1.824,73.812 3.263,79.03C14.815,90.878 19.288,105.193 18.039,121.496C17.331,130.738 14.725,139.46 10.858,147.847C8.788,152.337 6.167,156.47 3.096,160.332C2.479,161.108 1.903,161.917 1.308,162.711C0.818,162.924 0.528,163.323 0.305,163.784L0.351,163.732C0.234,163.877 0.117,164.022 0,164.167" style="fill:rgb(33,31,29);fill-rule:nonzero;"/>
        </g>
        <g transform="matrix(1,0,0,1,211.512,271.434)">
            <path d="M0,-9.374C3.969,-11.622 8.125,-13.494 12.248,-15.426C17.124,-17.711 22.035,-19.923 27.108,-21.755C28.842,-22.381 30.625,-22.697 32.433,-22.893C34.455,-23.112 34.568,-22.972 35.082,-20.893C35.568,-18.931 35.555,-16.956 35.309,-14.969C30.866,-13.542 26.662,-11.54 22.44,-9.589C7.718,-2.786 -6.636,4.746 -20.925,12.405C-21.872,12.913 -22.827,13.405 -23.977,13.738C-23.461,13.192 -22.97,12.62 -22.426,12.104C-16.022,6.037 -9.608,-0.019 -3.207,-6.089C-2.611,-6.653 -1.891,-7.108 -1.509,-7.878C-1.028,-8.081 -0.617,-8.353 -0.477,-8.901L-0.536,-8.851C-0.241,-8.907 -0.056,-9.074 0,-9.374" style="fill:rgb(34,32,30);fill-rule:nonzero;"/>
        </g>
        <g transform="matrix(1,0,0,1,277.043,157.269)">
            <path d="M0,5.141C-0.243,5.179 -0.486,5.245 -0.73,5.251C-2.922,5.302 -3.603,5.771 -3.387,2.876C-3.306,1.784 -3.667,1.12 -4.865,1.146C-2.738,0.31 -0.52,-0.134 1.983,-0.63C1.263,1.465 0.631,3.303 0,5.141" style="fill:rgb(34,32,30);fill-rule:nonzero;"/>
        </g>
        <g transform="matrix(1,0,0,1,301.499,161.137)">
            <path d="M0,0.815C-0.003,0.636 -0.006,0.458 -0.01,0.279C0.562,-0.099 1.192,-0.016 2.161,0.064C1.264,0.417 0.758,0.914 0,0.815" style="fill:rgb(226,7,20);fill-rule:nonzero;"/>
        </g>
        <g transform="matrix(1,0,0,1,194.977,391.657)">
            <path d="M0,0.911C0.224,0.45 0.513,0.051 1.003,-0.162C1.034,0.113 1.064,0.389 1.096,0.664C0.773,0.936 0.42,1.073 0,0.911" style="fill:rgb(253,251,251);fill-rule:nonzero;"/>
        </g>
        <g transform="matrix(1,0,0,1,211.035,263.342)">
            <path d="M0,-0.809C-0.14,-0.262 -0.551,0.011 -1.032,0.213C-1.053,-0.023 -1.074,-0.26 -1.095,-0.497C-0.794,-0.825 -0.455,-1.022 0,-0.809" style="fill:rgb(253,251,251);fill-rule:nonzero;"/>
        </g>
        <g transform="matrix(1,0,0,1,176.857,279.468)">
            <path d="M0,-0.105L0.026,0C0.026,0 -0.034,-0.059 -0.036,-0.056C-0.037,-0.053 0,-0.105 0,-0.105" style="fill:rgb(226,7,20);fill-rule:nonzero;"/>
        </g>
        <g transform="matrix(1,0,0,1,57.9155,441.763)">
            <path d="M0,5.424C-3.127,5.819 -6.259,6.179 -9.377,6.63C-10.336,6.769 -10.935,6.569 -11.363,5.67C-12.218,3.877 -13.139,2.115 -14.032,0.341C-8.991,-0.484 -3.915,-0.929 1.369,-1.345C1.091,1.155 0.646,3.308 0,5.424" style="fill:rgb(34,32,30);fill-rule:nonzero;"/>
        </g>
        <g transform="matrix(0.52724,-0.849716,-0.849716,-0.52724,35.0196,434.009)">
            <path d="M-4.321,-2.391C-4.366,-2.322 -4.413,-2.255 -4.456,-2.185C-6.578,1.156 -6.008,4.462 -4.321,7.752C-3.774,7.012 -3.662,6.042 -3.192,5.31C-1.302,2.366 -2.217,-0.08 -4.321,-2.391" style="fill:rgb(34,32,30);fill-rule:nonzero;"/>
        </g>
        <g transform="matrix(1,0,0,1,58.2715,517.53)">
            <path d="M0,28.556C2.477,25.004 5.368,21.785 8.16,18.492C16.659,8.463 25.474,-1.28 34.99,-10.362C37.515,-12.772 40.167,-15.049 42.769,-17.379C43.127,-17.7 43.453,-18.113 44.085,-18.083C43.31,-12.313 42.538,-6.57 41.766,-0.827C39.385,1.135 37.352,3.451 35.233,5.673C23.569,17.908 12.771,30.878 2.475,44.275C1.923,44.993 1.353,45.697 0.583,46.669C-0.003,44.314 0.568,42.171 0.179,40.035C-1.44,39.899 -2.772,41.088 -4.481,41.029C-4.242,39.58 -3.494,38.482 -2.97,37.304C-1.856,34.8 -0.701,32.314 0.462,29.832C0.755,29.206 0.874,28.722 0,28.556" style="fill:rgb(33,31,29);fill-rule:nonzero;"/>
        </g>
        <g transform="matrix(1,0,0,1,111.267,634.193)">
            <path d="M0,-7.105C2.212,-6.732 4.258,-5.818 6.361,-5.102C7.426,-4.74 8.101,-4.748 8.891,-5.741C10.963,-8.346 11.058,-8.332 13.643,-6.177C15.793,-4.385 18.137,-2.813 19.991,-0.677C18.582,1.241 18.427,1.165 16.306,0.409C11.647,-1.25 6.98,-2.892 2.271,-4.398C0.805,-4.867 -0.006,-5.559 0,-7.105" style="fill:rgb(34,32,30);fill-rule:nonzero;"/>
        </g>
        <g transform="matrix(1,0,0,1,92.8145,571.502)">
            <path d="M0,-0.427C0.27,-0.519 0.548,-0.964 0.785,-0.686C1.164,-0.242 0.648,0.136 0.49,0.537C-0.165,0.467 -0.098,0.027 0,-0.427" style="fill:rgb(34,32,30);fill-rule:nonzero;"/>
        </g>
        <g transform="matrix(1,0,0,1,727.53,128.49)">
            <path d="M0,0.56C-0.484,0.592 -0.826,0.365 -1.075,-0.032C-0.66,0.061 -0.211,0.094 0,0.56" style="fill:rgb(33,31,29);fill-rule:nonzero;"/>
        </g>
        <g transform="matrix(1,0,0,1,728.063,129.013)">
            <path d="M0,0.502C-0.354,0.528 -0.566,0.387 -0.572,0.008C-0.27,0.043 0.122,-0.026 0,0.502" style="fill:rgb(33,31,29);fill-rule:nonzero;"/>
        </g>
        <g transform="matrix(1,0,0,1,211.512,262.583)">
            <path d="M0,-0.523C-0.056,-0.223 -0.241,-0.056 -0.536,0C-0.592,-0.414 -0.271,-0.443 0,-0.523" style="fill:rgb(253,251,251);fill-rule:nonzero;"/>
        </g>
        <g transform="matrix(1,0,0,1,612.081,410.434)">
            <path d="M0,-57.776C-4.736,-58.824 -9.521,-59.206 -14.364,-58.874C-17.995,-58.625 -17.93,-58.653 -17.737,-55.067C-17.142,-43.943 -16.587,-32.818 -16.042,-21.692C-15.651,-13.721 -15.301,-5.749 -14.932,2.224C-17.424,4.493 -20.379,5.988 -23.429,7.336C-24.421,7.775 -24.819,7.397 -24.907,6.437C-24.937,6.106 -24.95,5.773 -24.963,5.441C-25.159,0.374 -25.333,-4.694 -25.555,-9.76C-26.085,-21.884 -26.617,-34.008 -27.193,-46.129C-27.445,-51.441 -27.828,-56.746 -28.104,-62.057C-28.218,-64.245 -28.174,-64.362 -26.143,-64.592C-17.655,-65.551 -9.55,-64.507 -2.239,-59.699C-1.422,-59.162 -0.469,-58.738 0,-57.776" style="fill:rgb(33,31,29);fill-rule:nonzero;"/>
        </g>
        <g transform="matrix(1,0,0,1,276.036,387.648)">
            <path d="M0,-0.619C-0.114,0 -0.643,-0.231 -1.008,-0.129C-0.672,-0.292 -0.336,-0.456 0,-0.619" style="fill:rgb(253,251,251);fill-rule:nonzero;"/>
        </g>
        <g transform="matrix(1,0,0,1,274.763,387.586)">
            <path d="M0,0.062C0,0.062 0.09,0 0.091,0L0,0.062Z" style="fill:rgb(253,251,251);fill-rule:nonzero;"/>
        </g>
        <g transform="matrix(1,0,0,1,475.514,200.361)">
            <path d="M0,-3.048C-10.044,0.439 -20.043,4.067 -30.159,7.332C-33.309,8.348 -34.98,9.688 -34.625,13.153C-34.475,14.614 -34.84,16.128 -34.971,17.619C-38.143,18.6 -41.305,19.615 -44.491,20.546C-45.851,20.943 -46.146,20.71 -46.059,19.274C-45.871,16.206 -45.665,13.133 -45.295,10.083C-45.094,8.427 -45.011,6.77 -44.91,5.113C-44.807,3.407 -44.009,2.58 -42.346,2.015C-32.353,-1.382 -22.405,-4.913 -12.443,-8.401C-12.129,-8.511 -11.829,-8.68 -11.508,-8.744C-10.303,-8.982 -9.941,-9.716 -9.965,-10.898C-10.031,-14.143 -9.764,-17.378 -9.49,-20.61C-5.958,-21.735 -2.425,-22.859 1.131,-23.991C1.579,-22.921 1.288,-22.02 1.252,-21.133C1.055,-16.248 0.841,-11.363 0.633,-6.479L0,-3.048Z" style="fill:rgb(33,31,29);fill-rule:nonzero;"/>
        </g>
        <g transform="matrix(1,0,0,1,458.495,264.264)">
            <path d="M0,-42.698C3.415,-43.7 6.831,-44.702 10.21,-45.694C10.625,-45.031 10.47,-44.438 10.444,-43.877C10.156,-37.474 9.8,-31.073 9.586,-24.667C9.542,-23.338 8.862,-23.02 7.86,-22.657C-0.661,-19.573 -9.153,-16.41 -17.697,-13.391C-19.329,-12.815 -20.062,-12.121 -20.104,-10.293C-20.179,-6.97 -20.586,-3.655 -20.854,-0.337C-24.241,0.989 -27.721,1.999 -31.159,2.996C-31.749,1.865 -31.519,0.936 -31.45,0.05C-31.021,-5.491 -30.472,-11.024 -30.132,-16.571C-30.038,-18.1 -29.434,-18.705 -28.091,-19.17C-20.015,-21.968 -11.965,-24.844 -3.905,-27.689C-0.556,-28.871 -0.566,-28.866 -0.486,-32.504C-0.412,-35.906 -0.514,-39.317 0,-42.698" style="fill:rgb(33,31,29);fill-rule:nonzero;"/>
        </g>
        <g transform="matrix(1,0,0,1,380.042,276.564)">
            <path d="M0,-64.535C1.619,-64.388 3.018,-63.613 4.368,-62.832C14.566,-56.938 20.236,-48.099 20.732,-36.327C21.049,-28.83 19.898,-21.433 17.381,-14.294C16.896,-12.919 15.451,-11.612 16.053,-10.197C16.563,-8.997 17.94,-8.156 18.964,-7.188C20.104,-6.109 21.277,-5.067 22.437,-4.009C22.523,-2.798 22.547,-1.591 22.307,0C20.348,-1.812 18.641,-3.346 16.985,-4.934C13.446,-8.33 9.951,-11.771 6.398,-15.152C5.566,-15.945 5.344,-16.603 5.868,-17.74C9.499,-25.604 10.606,-33.992 10.323,-42.524C10.076,-49.994 7.182,-56.556 2.159,-62.137C1.439,-62.936 0.72,-63.736 0,-64.535" style="fill:rgb(34,32,30);fill-rule:nonzero;"/>
        </g>
        <g transform="matrix(1,0,0,1,357.63,235.147)">
            <path d="M0,19.546C-3.001,22.378 -6.538,24.394 -10.194,26.221C-11.15,26.698 -11.615,26.312 -11.561,25.279C-11.388,21.955 -11.331,18.618 -10.999,15.309C-10.36,8.936 -9.374,2.608 -8.064,-3.666C-7.417,-6.772 -7.21,-6.966 -3.992,-7.056C-0.566,-7.152 2.841,-7.056 6.095,-5.786C8.289,-4.929 10.027,-3.622 10.557,-1.156C8.904,-1.122 7.254,-1.076 5.603,-1.059C4.197,-1.045 3.422,-0.563 3.08,1.004C1.741,7.137 0.556,13.287 0,19.546" style="fill:rgb(33,30,28);fill-rule:nonzero;"/>
        </g>
        <g transform="matrix(1,0,0,1,369.033,376.088)">
            <path d="M0,-0.804C-0.013,-0.427 0.01,-0.025 -0.534,0C-0.876,-0.614 -0.222,-0.565 0,-0.804" style="fill:rgb(254,254,254);fill-rule:nonzero;"/>
        </g>
        <g transform="matrix(1,0,0,1,525.019,156.408)">
            <path d="M0,-0.983C0,-0.983 0.045,-0.879 0.044,-0.88C-0.892,-0.311 -1.86,0.09 -2.981,-0.285C-2.008,-0.604 -1.069,-1.073 0,-0.983" style="fill:rgb(225,7,20);fill-rule:nonzero;"/>
        </g>
        <g transform="matrix(1,0,0,1,518.882,156.641)">
            <path d="M0,0.401C0.728,-0.1 1.541,-0.228 2.398,-0.155C1.734,0.629 0.831,0.358 0,0.401" style="fill:rgb(225,7,20);fill-rule:nonzero;"/>
        </g>
    </g>
</svg>
